<svg width="30" height="30" viewBox="0 0 30 30" fill="none" xmlns="http://www.w3.org/2000/svg">
<g clip-path="url(#clip0_6328_30197)">
<path d="M28.7872 11.2123C27.8372 8.25227 26.3772 5.53227 23.6572 3.85227C20.5672 1.95227 18.3272 0.27227 14.6272 0.27227H14.3572C12.2472 0.31227 9.48719 1.29227 8.24719 2.22227C7.76719 2.70227 5.87719 3.74227 5.30719 4.17227C4.72719 4.63227 3.86719 5.37227 3.29719 5.97227C2.07719 7.24227 1.09719 8.89227 0.837187 10.7423C0.697187 11.6723 0.417187 12.4123 0.417187 13.4023V16.0823C0.417187 18.3723 -0.012813 20.9623 1.39719 22.7623C2.16719 23.7623 4.73719 26.5423 5.93719 27.2923C8.42719 28.9623 13.0172 29.9623 15.4172 29.9623C18.0072 29.9623 19.9572 29.5823 22.3072 28.5723C22.9972 28.2823 23.7772 27.7023 24.3772 27.2623C25.0372 26.7823 25.5672 26.2423 26.0472 25.5623C26.8272 24.4323 27.1172 23.9623 27.8072 22.7623C28.1372 22.2023 28.8572 21.0723 29.0872 20.3923C29.3872 19.5423 29.7672 17.8123 29.7672 16.9023C29.7672 14.5723 29.4972 13.4623 28.7872 11.2123ZM26.6272 19.5523C26.5172 19.8823 25.9572 20.7923 25.7472 21.1423L25.5572 21.4623C24.8872 22.6223 24.6372 23.0323 23.9072 24.0723C23.5972 24.5123 23.2772 24.8523 22.8572 25.1523L22.7172 25.2523C22.2972 25.5623 21.6672 26.0223 21.2772 26.1823C19.2772 27.0423 17.6872 27.3623 15.4172 27.3623C13.4972 27.3623 9.41719 26.4923 7.38719 25.1323C7.36719 25.1223 7.34719 25.1123 7.31719 25.0923C6.56719 24.6223 4.23719 22.1823 3.44719 21.1623C2.88719 20.4423 2.93719 19.0123 2.98719 17.4823C2.99719 17.0123 3.01719 16.5423 3.01719 16.0823V13.4023C3.01719 13.0423 3.09719 12.7023 3.19719 12.2223C3.26719 11.9023 3.34719 11.5423 3.40719 11.1023C3.56719 9.96227 4.19719 8.78227 5.16719 7.77227C5.65719 7.27227 6.40719 6.61227 6.89719 6.23227C7.02719 6.13227 7.51719 5.83227 7.83719 5.63227C8.77719 5.05227 9.42719 4.64227 9.88719 4.24227C10.6972 3.69227 12.8072 2.90227 14.4072 2.87227H14.6272C17.1772 2.87227 18.8072 3.89227 21.2872 5.43227C21.6172 5.64227 21.9472 5.85227 22.2972 6.06227C24.0872 7.17227 25.3572 9.06227 26.3072 12.0023C26.9772 14.1123 27.1672 14.9623 27.1672 16.9023C27.1672 17.4123 26.8772 18.8523 26.6272 19.5523Z" fill="#DD1C47"/>
<path d="M27.1671 16.9019C27.1671 17.4119 26.8771 18.8519 26.6271 19.5519C26.5171 19.8819 25.9571 20.7919 25.7471 21.1419L25.5571 21.4619C24.8871 22.6219 24.6371 23.0319 23.9071 24.0719C23.5971 24.5119 23.2771 24.8519 22.8571 25.1519L22.7171 25.2519C22.2971 25.5619 21.6671 26.0219 21.2771 26.1819C19.2771 27.0419 17.6871 27.3619 15.4171 27.3619C13.4971 27.3619 9.41713 26.4919 7.38713 25.1319C7.36713 25.1219 7.34713 25.1119 7.31713 25.0919C6.56713 24.6219 4.23713 22.1819 3.44713 21.1619C2.88713 20.4419 2.93713 19.0119 2.98713 17.4819C2.99713 17.0119 3.01713 16.5419 3.01713 16.0819V13.4019C3.01713 13.0419 3.09713 12.7019 3.19713 12.2219C3.26713 11.9019 3.34713 11.5419 3.40713 11.1019C3.56713 9.96188 4.19713 8.78188 5.16713 7.77188C5.65713 7.27188 6.40713 6.61188 6.89713 6.23188C7.02713 6.13188 7.51713 5.83188 7.83713 5.63188C8.77713 5.05188 9.42713 4.64188 9.88713 4.24188C10.6971 3.69188 12.8071 2.90188 14.4071 2.87188H14.6271C17.1771 2.87188 18.8071 3.89188 21.2871 5.43188C21.6171 5.64188 21.9471 5.85188 22.2971 6.06188C24.0871 7.17188 25.3571 9.06188 26.3071 12.0019C26.9771 14.1119 27.1671 14.9619 27.1671 16.9019Z" fill="#FCE5EE"/>
<path d="M22.2029 15.8985C22.2029 15.8985 22.1629 15.9285 22.1429 15.9485C21.8229 16.1585 21.1429 16.3385 20.2329 15.2385C19.6929 14.7185 19.0929 14.2385 18.5229 13.7685C18.2629 13.5585 18.0129 13.3485 17.7629 13.1385C17.3729 12.8185 16.9929 12.4885 16.6029 12.1585C16.3829 11.9685 16.1529 11.7785 15.9329 11.5885C15.9329 11.8585 15.9229 12.1185 15.9129 12.3885C15.9029 12.7285 15.9329 13.0585 15.9729 13.4185C16.0029 13.7085 16.0329 13.9985 16.0429 14.2985C16.0629 15.2285 16.0729 16.2985 15.9729 17.3785C15.9529 17.8285 15.9429 18.4885 15.9329 19.1785C15.9129 20.5985 15.8829 21.5585 15.8129 21.9585C15.7229 22.4485 15.4229 22.7985 15.0129 22.8985C14.6629 22.9785 14.2929 22.8485 14.0829 22.5685C13.8829 22.2985 13.8629 22.0685 13.8429 21.7585C13.8229 21.4485 13.8229 21.1385 13.8429 20.7285C13.8429 20.6285 13.8429 20.5285 13.8429 20.4185C13.8429 20.3085 13.8429 20.1985 13.8429 20.0985C13.8629 19.4285 13.8529 18.8585 13.8529 18.8185L13.8929 18.0085C13.9529 16.8085 14.0129 15.6785 13.9729 14.2785C13.9729 14.0085 13.9429 13.7485 13.9129 13.4885C13.8729 13.0785 13.8329 12.7085 13.8429 12.2985V11.9185C13.8429 11.9185 13.7929 12.0085 13.7629 12.0485C13.6029 12.2685 13.4429 12.4785 13.2629 12.6885C12.6229 13.4185 11.8529 14.2585 11.0029 14.9985C10.6529 15.3385 9.9829 15.8985 9.4729 15.9385C8.9129 15.9385 8.6529 15.6185 8.5529 15.4185C8.3429 14.9985 8.4729 14.4885 8.8629 14.1885C9.7829 13.4785 10.7429 12.5485 11.7729 11.3485C11.9329 11.1585 12.0829 10.9685 12.2229 10.7785C12.4129 10.5285 12.6429 10.2085 12.9229 9.91848C13.2929 9.54848 13.6629 9.16848 14.0129 8.79848C14.1929 8.58848 14.4529 8.45848 14.7329 8.43848H14.8829C14.8829 8.43848 14.9529 8.43848 14.9829 8.43848C14.9829 8.43848 14.9929 8.43848 15.0029 8.43848C15.1529 8.45848 15.3029 8.51848 15.4629 8.62848C16.2629 9.22848 17.0229 9.88848 17.7629 10.5285L17.8629 10.6185C18.2429 10.9485 18.6229 11.2785 18.9929 11.5885C19.2329 11.7785 19.4729 11.9785 19.7029 12.1685C20.5029 12.8185 21.4929 13.6285 22.3329 14.5385C22.5029 14.7185 22.5829 14.9385 22.5729 15.1785C22.5629 15.4385 22.4329 15.6985 22.2129 15.8985H22.2029Z" fill="#DD1C47"/>
</g>
<defs>
<clipPath id="clip0_6328_30197">
<rect width="30" height="30" fill="white"/>
</clipPath>
</defs>
</svg>
