<svg width="192" height="69" viewBox="0 0 192 69" fill="none" xmlns="http://www.w3.org/2000/svg">
<g clip-path="url(#clip0_5982_6037)">
<path d="M188.657 54.149C185.184 60.6705 179.152 64.7389 172.909 66.6733C166.656 68.6078 160.132 68.6477 153.678 68.6677C118.779 68.7674 83.8899 68.8771 48.9909 68.9868C39.7065 69.0167 30.3921 69.0466 21.188 67.5508C15.9687 66.7132 10.097 64.7588 7.80856 59.065C6.77474 56.5223 6.65429 53.6106 6.56396 50.7786C6.35318 43.5891 6.27288 36.3897 6.32307 29.1902C6.34314 25.4508 6.43348 21.5918 7.71823 18.1815C9.52491 13.4251 13.4896 10.2342 17.665 8.73845C21.8405 7.24272 25.6847 7.18289 30.0508 7.15297C69.2257 10.4635 108.531 5.88658 147.806 5.85666C158.014 5.84669 168.312 6.16578 178.239 8.99771C179.443 9.34672 180.668 9.74558 181.752 10.4137C181.631 10.0348 181.491 9.73561 181.441 9.62592C181.551 9.75555 182.003 10.2442 183.769 11.8197C184.382 12.3581 184.994 13.1758 185.726 14.2129C185.767 14.2827 185.817 14.3525 185.867 14.4223C185.957 14.5619 186.058 14.7015 186.168 14.851C186.168 14.871 186.188 14.8909 186.198 14.9109C186.208 14.9109 186.208 14.9208 186.208 14.9208C186.309 15.0804 186.389 15.2399 186.469 15.3995C189.35 21.2927 190.876 27.6645 191.699 34.4153C192.532 41.176 191.729 48.3855 188.657 54.149Z" fill="#DD1C47"/>
<path d="M24.5002 2.06758C63.665 5.37814 102.98 0.801185 142.246 0.771271C152.453 0.771271 162.751 1.08039 172.678 3.91232C174.384 4.40093 176.131 4.98925 177.486 6.31547C178.58 7.38243 180.256 8.85822 180.979 10.324C183.859 16.2173 185.315 22.5692 186.148 29.3299C186.981 36.0906 186.168 43.3001 183.107 49.0537C179.634 55.5751 173.602 59.6535 167.348 61.588C161.095 63.5224 154.571 63.5524 148.117 63.5723C113.218 63.682 78.3292 63.7917 43.4302 63.9014C34.1458 63.9313 24.8214 63.9612 15.6274 62.4655C10.4081 61.6179 4.53635 59.6634 2.24788 53.9796C1.2241 51.4369 1.09362 48.5152 1.01332 45.6933C0.792503 38.5037 0.712206 31.3043 0.762392 24.1048C0.792503 20.3654 0.8728 16.5064 2.15755 13.0961C3.97427 8.32973 7.93893 5.1488 12.1144 3.65306C16.2898 2.15732 20.134 2.09749 24.5002 2.06758Z" fill="#FCE5EE"/>
<path d="M24.5006 2.81538C55.7662 5.42793 87.1121 3.07464 118.388 1.99771C126.177 1.72848 133.965 1.53902 141.754 1.51907C149.543 1.49913 156.99 1.63873 164.498 2.86524C167.911 3.42364 171.675 4.002 174.836 5.44788C177.998 6.89376 180.066 9.8952 181.331 12.9066C183.97 19.1987 185.486 26.3483 185.687 33.1689C185.887 39.9894 184.412 46.8 180.196 52.1548C176.382 57.001 170.812 60.0822 164.85 61.4981C157.452 63.2531 149.653 62.8244 142.105 62.8543L118.568 62.9241L71.4843 63.0737L47.4454 63.1435C39.757 63.1634 32.0485 63.293 24.3801 62.7247C18.5486 62.2959 11.4523 61.9768 6.56424 58.3471C4.08507 56.5024 2.68991 53.84 2.16798 50.8385C1.51557 47.0892 1.6862 43.1105 1.61594 39.3114C1.54568 35.5122 1.50553 31.7928 1.50553 28.0235C1.50553 24.2543 1.3349 20.3953 1.98731 16.6759C3.12151 10.1943 7.75865 5.53762 14.082 3.81254C17.4746 2.88518 20.9976 2.83532 24.4905 2.81538C25.4541 2.81538 25.4641 1.30967 24.4905 1.31964C17.866 1.3695 11.0207 1.90796 5.8516 6.50486C0.682486 11.1018 0.0501481 17.9622 0.00999965 24.6033C-0.0201117 28.6916 0.00999965 32.78 0.0601852 36.8683C0.110371 40.9567 0.0802595 44.8655 0.411484 48.8342C0.662412 51.8556 1.36501 54.8172 3.27206 57.2403C4.93822 59.3443 7.24676 60.7702 9.73596 61.7275C12.5464 62.8144 15.5575 63.2631 18.5385 63.642C22.5835 64.1606 26.6485 64.4198 30.7236 64.5495C38.7934 64.7987 46.8833 64.6492 54.9532 64.6193L104.537 64.4697L129.077 64.3899C137.308 64.36 145.558 64.5096 153.789 64.2603C160.664 64.0608 167.66 63.1235 173.702 59.6434C179.092 56.5423 183.207 51.716 185.315 45.8826C187.724 39.1817 187.453 32.0521 186.289 25.1318C185.677 21.532 184.823 17.9722 183.569 14.532C183.047 13.116 182.475 11.7001 181.812 10.3439C181.09 8.84819 179.975 7.68151 178.781 6.53478C177.697 5.48776 176.633 4.61026 175.228 4.002C173.582 3.29401 171.805 2.87521 170.069 2.4564C166.275 1.54899 162.4 0.970635 158.516 0.611658C150.637 -0.126239 142.688 -0.0364948 134.788 0.0831642C101.987 0.551829 69.2059 3.64302 36.3945 2.09742C32.4198 1.90796 28.4552 1.6487 24.4905 1.31964C23.527 1.23987 23.527 2.73561 24.4905 2.81538H24.5006Z" fill="#DD1C47"/>
<path d="M36.8735 38.1875C36.5037 38.1875 36.2042 38.0703 35.975 37.8359C35.7511 37.5964 35.6391 37.2891 35.6391 36.9141V28.0234C35.6391 27.6432 35.7511 27.3359 35.975 27.1016C36.2042 26.8672 36.5037 26.75 36.8735 26.75H40.3891C41.6495 26.75 42.6782 27.0964 43.475 27.7891C44.2771 28.4766 44.6782 29.388 44.6782 30.5234C44.6782 31.6641 44.2771 32.5781 43.475 33.2656C42.6782 33.9531 41.6495 34.2969 40.3891 34.2969H38.1157V36.9141C38.1157 37.2891 38.0011 37.5964 37.7719 37.8359C37.548 38.0703 37.2485 38.1875 36.8735 38.1875ZM38.1157 31.9453H40.5453C41.0089 31.9453 41.3813 31.8151 41.6625 31.5547C41.949 31.2891 42.0922 30.9453 42.0922 30.5234C42.0922 30.0964 41.949 29.7526 41.6625 29.4922C41.3813 29.2318 41.0089 29.1016 40.5453 29.1016H38.1157V31.9453ZM49.2875 38.2266C48.4021 38.2266 47.686 37.9948 47.1391 37.5312C46.5974 37.0677 46.3266 36.4583 46.3266 35.7031C46.3266 34.3698 47.1157 33.5208 48.6938 33.1562L50.6469 32.6953C50.9125 32.638 51.1 32.5573 51.2094 32.4531C51.3188 32.349 51.3735 32.2031 51.3735 32.0156C51.3735 31.7552 51.2719 31.5521 51.0688 31.4062C50.8657 31.2604 50.5818 31.1875 50.2172 31.1875C49.5766 31.1875 48.9516 31.4505 48.3422 31.9766C48.0974 32.1641 47.8969 32.2943 47.7407 32.3672C47.5896 32.4401 47.4386 32.4766 47.2875 32.4766C47.0011 32.4766 46.7693 32.3984 46.5922 32.2422C46.4203 32.0807 46.3344 31.8698 46.3344 31.6094C46.3344 31.2448 46.4776 30.901 46.7641 30.5781C47.1599 30.125 47.6573 29.7786 48.2563 29.5391C48.8605 29.2943 49.5323 29.1719 50.2719 29.1719C51.3657 29.1719 52.212 29.4297 52.811 29.9453C53.4151 30.4609 53.7172 31.2109 53.7172 32.1953V35.5469C53.7172 35.8229 53.8266 35.9609 54.0453 35.9609C54.186 35.9609 54.311 35.901 54.4203 35.7812C54.5506 35.6562 54.6938 35.5938 54.85 35.5938C55.0271 35.5938 55.1756 35.6693 55.2953 35.8203C55.4151 35.9714 55.475 36.1615 55.475 36.3906C55.475 36.7656 55.3422 37.1172 55.0766 37.4453C54.8995 37.6693 54.6703 37.8516 54.3891 37.9922C54.1078 38.1276 53.8188 38.1953 53.5219 38.1953C53.1417 38.1953 52.798 38.112 52.4907 37.9453C52.1886 37.7734 51.9438 37.5365 51.7563 37.2344C51.1365 37.8958 50.3136 38.2266 49.2875 38.2266ZM48.8032 35.5156C48.8032 35.7656 48.9047 35.9688 49.1078 36.125C49.311 36.276 49.5792 36.3516 49.9125 36.3516C50.3344 36.3516 50.6834 36.224 50.9594 35.9688C51.2407 35.7135 51.3813 35.3932 51.3813 35.0078V34.0469C51.2042 34.1823 50.9568 34.2891 50.6391 34.3672L49.8657 34.5391C49.1573 34.6901 48.8032 35.0156 48.8032 35.5156ZM59.4125 33.3984V36.9688C59.4125 37.3281 59.3032 37.6224 59.0844 37.8516C58.8709 38.0755 58.5922 38.1875 58.2485 38.1875C57.9047 38.1875 57.6235 38.0729 57.4047 37.8438C57.186 37.6146 57.0766 37.3229 57.0766 36.9688V30.4375C57.0766 30.0781 57.186 29.7865 57.4047 29.5625C57.6235 29.3333 57.9047 29.2188 58.2485 29.2188C58.5453 29.2188 58.7953 29.3073 58.9985 29.4844C59.2068 29.6562 59.337 29.888 59.3891 30.1797C59.8995 29.5078 60.6131 29.1719 61.5297 29.1719C62.186 29.1719 62.712 29.362 63.1078 29.7422C63.5193 30.1172 63.725 30.5807 63.725 31.1328C63.725 31.5286 63.6183 31.8464 63.4047 32.0859C63.1964 32.3255 62.9021 32.4453 62.5219 32.4453C62.173 32.4453 61.8657 32.2734 61.6 31.9297C61.3292 31.5911 61.0245 31.4219 60.686 31.4219C60.3318 31.4219 60.0297 31.5885 59.7797 31.9219C59.5349 32.25 59.4125 32.7422 59.4125 33.3984ZM69.5219 38.2344C68.1 38.2344 66.962 37.8255 66.1078 37.0078C65.2537 36.1849 64.8266 35.0859 64.8266 33.7109C64.8266 32.3776 65.2381 31.2891 66.061 30.4453C66.8891 29.5964 67.9516 29.1719 69.2485 29.1719C70.4985 29.1719 71.5089 29.5443 72.2797 30.2891C73.0558 31.0286 73.4438 31.9766 73.4438 33.1328C73.4438 33.5859 73.3448 33.9193 73.1469 34.1328C72.949 34.3411 72.6417 34.4453 72.225 34.4453H67.1703C67.2537 34.9557 67.5167 35.3594 67.9594 35.6562C68.4021 35.9479 68.9594 36.0938 69.6313 36.0938C70.3657 36.0938 70.9464 35.888 71.3735 35.4766C71.7381 35.237 72.0688 35.1172 72.3657 35.1172C72.949 35.1172 73.2407 35.4245 73.2407 36.0391C73.2407 36.2995 73.1365 36.5703 72.9282 36.8516C72.6209 37.2839 72.1547 37.6224 71.5297 37.8672C70.9099 38.112 70.2407 38.2344 69.5219 38.2344ZM67.1703 32.6484H71.1313C71.0636 32.138 70.8552 31.7396 70.5063 31.4531C70.1573 31.1615 69.7068 31.0156 69.1547 31.0156C68.6026 31.0156 68.1495 31.1615 67.7953 31.4531C67.4464 31.7448 67.2381 32.1432 67.1703 32.6484ZM77.6625 37.8516C77.449 38.0755 77.1703 38.1875 76.8266 38.1875C76.4828 38.1875 76.2016 38.0729 75.9828 37.8438C75.7641 37.6146 75.6547 37.3229 75.6547 36.9688V30.4375C75.6547 30.0781 75.7641 29.7865 75.9828 29.5625C76.2016 29.3333 76.4828 29.2188 76.8266 29.2188C77.1287 29.2188 77.3839 29.3073 77.5922 29.4844C77.8006 29.6615 77.9282 29.8984 77.975 30.1953C78.2302 29.8672 78.5714 29.6146 78.9985 29.4375C79.4256 29.2604 79.9021 29.1719 80.4282 29.1719C81.5011 29.1719 82.3578 29.4948 82.9985 30.1406C83.6391 30.7865 83.9594 31.6875 83.9594 32.8438V36.9688C83.9594 37.3229 83.8474 37.6146 83.6235 37.8438C83.4047 38.0729 83.1261 38.1875 82.7875 38.1875C82.4438 38.1875 82.1625 38.0729 81.9438 37.8438C81.725 37.6094 81.6157 37.3177 81.6157 36.9688V33.2109C81.6157 32.5859 81.462 32.112 81.1547 31.7891C80.8474 31.4609 80.4203 31.2969 79.8735 31.2969C79.3006 31.2969 78.8422 31.4792 78.4985 31.8438C78.1599 32.2083 77.9907 32.6901 77.9907 33.2891V36.9688C77.9907 37.3281 77.8813 37.6224 77.6625 37.8516ZM90.2407 38.2344C89.4334 38.2344 88.7719 37.9818 88.2563 37.4766C87.7407 36.9714 87.4828 36.3047 87.4828 35.4766V31.5078H86.6235C86.3058 31.5078 86.0427 31.4089 85.8344 31.2109C85.6313 31.013 85.5297 30.7604 85.5297 30.4531C85.5297 30.1458 85.6313 29.8958 85.8344 29.7031C86.0375 29.5052 86.3006 29.4062 86.6235 29.4062H87.4828V28.0469C87.4828 27.6875 87.5922 27.3958 87.811 27.1719C88.0297 26.9427 88.311 26.8281 88.6547 26.8281C89.0037 26.8281 89.2849 26.9427 89.4985 27.1719C89.7172 27.3958 89.8266 27.6875 89.8266 28.0469V29.4062H91.7485C92.0714 29.4062 92.3344 29.5052 92.5375 29.7031C92.7407 29.8958 92.8422 30.1458 92.8422 30.4531C92.8422 30.7604 92.7381 31.013 92.5297 31.2109C92.3266 31.4089 92.0662 31.5078 91.7485 31.5078H89.8266V35.125C89.8266 35.7188 90.0714 36.0156 90.561 36.0156C90.7849 36.0156 91.0558 35.8932 91.3735 35.6484C91.6287 35.4505 91.8943 35.3516 92.1703 35.3516C92.436 35.3516 92.6521 35.4375 92.8188 35.6094C92.9855 35.7812 93.0688 36.0052 93.0688 36.2812C93.0688 36.724 92.8891 37.1094 92.5297 37.4375C92.2589 37.6823 91.9203 37.875 91.5141 38.0156C91.1078 38.1615 90.6834 38.2344 90.2407 38.2344ZM101.233 38.1875C100.863 38.1875 100.564 38.0703 100.334 37.8359C100.11 37.5964 99.9985 37.2891 99.9985 36.9141V28.0234C99.9985 27.6432 100.11 27.3359 100.334 27.1016C100.564 26.8672 100.863 26.75 101.233 26.75H104.748C106.009 26.75 107.038 27.0964 107.834 27.7891C108.636 28.4766 109.038 29.388 109.038 30.5234C109.038 31.6641 108.636 32.5781 107.834 33.2656C107.038 33.9531 106.009 34.2969 104.748 34.2969H102.475V36.9141C102.475 37.2891 102.36 37.5964 102.131 37.8359C101.907 38.0703 101.608 38.1875 101.233 38.1875ZM102.475 31.9453H104.905C105.368 31.9453 105.741 31.8151 106.022 31.5547C106.308 31.2891 106.452 30.9453 106.452 30.5234C106.452 30.0964 106.308 29.7526 106.022 29.4922C105.741 29.2318 105.368 29.1016 104.905 29.1016H102.475V31.9453ZM118.35 36.9922C117.485 37.8203 116.373 38.2344 115.014 38.2344C113.655 38.2344 112.543 37.8203 111.678 36.9922C110.819 36.1589 110.389 35.0625 110.389 33.7031C110.389 32.3438 110.819 31.25 111.678 30.4219C112.543 29.5885 113.655 29.1719 115.014 29.1719C116.373 29.1719 117.485 29.5885 118.35 30.4219C119.215 31.25 119.647 32.3438 119.647 33.7031C119.647 35.0625 119.215 36.1589 118.35 36.9922ZM113.413 31.9844C113.001 32.4271 112.795 33 112.795 33.7031C112.795 34.4062 113.001 34.9792 113.413 35.4219C113.829 35.8646 114.363 36.0859 115.014 36.0859C115.67 36.0859 116.204 35.8646 116.616 35.4219C117.032 34.9792 117.241 34.4062 117.241 33.7031C117.241 33 117.032 32.4271 116.616 31.9844C116.204 31.5417 115.67 31.3203 115.014 31.3203C114.363 31.3203 113.829 31.5417 113.413 31.9844ZM124.194 33.3984V36.9688C124.194 37.3281 124.084 37.6224 123.866 37.8516C123.652 38.0755 123.373 38.1875 123.03 38.1875C122.686 38.1875 122.405 38.0729 122.186 37.8438C121.967 37.6146 121.858 37.3229 121.858 36.9688V30.4375C121.858 30.0781 121.967 29.7865 122.186 29.5625C122.405 29.3333 122.686 29.2188 123.03 29.2188C123.327 29.2188 123.577 29.3073 123.78 29.4844C123.988 29.6562 124.118 29.888 124.17 30.1797C124.681 29.5078 125.394 29.1719 126.311 29.1719C126.967 29.1719 127.493 29.362 127.889 29.7422C128.301 30.1172 128.506 30.5807 128.506 31.1328C128.506 31.5286 128.4 31.8464 128.186 32.0859C127.978 32.3255 127.683 32.4453 127.303 32.4453C126.954 32.4453 126.647 32.2734 126.381 31.9297C126.11 31.5911 125.806 31.4219 125.467 31.4219C125.113 31.4219 124.811 31.5885 124.561 31.9219C124.316 32.25 124.194 32.7422 124.194 33.3984ZM134.038 38.2344C133.23 38.2344 132.569 37.9818 132.053 37.4766C131.538 36.9714 131.28 36.3047 131.28 35.4766V31.5078H130.42C130.103 31.5078 129.84 31.4089 129.631 31.2109C129.428 31.013 129.327 30.7604 129.327 30.4531C129.327 30.1458 129.428 29.8958 129.631 29.7031C129.834 29.5052 130.097 29.4062 130.42 29.4062H131.28V28.0469C131.28 27.6875 131.389 27.3958 131.608 27.1719C131.827 26.9427 132.108 26.8281 132.452 26.8281C132.801 26.8281 133.082 26.9427 133.295 27.1719C133.514 27.3958 133.623 27.6875 133.623 28.0469V29.4062H135.545C135.868 29.4062 136.131 29.5052 136.334 29.7031C136.538 29.8958 136.639 30.1458 136.639 30.4531C136.639 30.7604 136.535 31.013 136.327 31.2109C136.123 31.4089 135.863 31.5078 135.545 31.5078H133.623V35.125C133.623 35.7188 133.868 36.0156 134.358 36.0156C134.582 36.0156 134.853 35.8932 135.17 35.6484C135.426 35.4505 135.691 35.3516 135.967 35.3516C136.233 35.3516 136.449 35.4375 136.616 35.6094C136.782 35.7812 136.866 36.0052 136.866 36.2812C136.866 36.724 136.686 37.1094 136.327 37.4375C136.056 37.6823 135.717 37.875 135.311 38.0156C134.905 38.1615 134.48 38.2344 134.038 38.2344ZM141.522 38.2266C140.636 38.2266 139.92 37.9948 139.373 37.5312C138.832 37.0677 138.561 36.4583 138.561 35.7031C138.561 34.3698 139.35 33.5208 140.928 33.1562L142.881 32.6953C143.147 32.638 143.334 32.5573 143.444 32.4531C143.553 32.349 143.608 32.2031 143.608 32.0156C143.608 31.7552 143.506 31.5521 143.303 31.4062C143.1 31.2604 142.816 31.1875 142.452 31.1875C141.811 31.1875 141.186 31.4505 140.577 31.9766C140.332 32.1641 140.131 32.2943 139.975 32.3672C139.824 32.4401 139.673 32.4766 139.522 32.4766C139.235 32.4766 139.004 32.3984 138.827 32.2422C138.655 32.0807 138.569 31.8698 138.569 31.6094C138.569 31.2448 138.712 30.901 138.998 30.5781C139.394 30.125 139.892 29.7786 140.491 29.5391C141.095 29.2943 141.767 29.1719 142.506 29.1719C143.6 29.1719 144.446 29.4297 145.045 29.9453C145.65 30.4609 145.952 31.2109 145.952 32.1953V35.5469C145.952 35.8229 146.061 35.9609 146.28 35.9609C146.42 35.9609 146.545 35.901 146.655 35.7812C146.785 35.6562 146.928 35.5938 147.084 35.5938C147.261 35.5938 147.41 35.6693 147.53 35.8203C147.65 35.9714 147.709 36.1615 147.709 36.3906C147.709 36.7656 147.577 37.1172 147.311 37.4453C147.134 37.6693 146.905 37.8516 146.623 37.9922C146.342 38.1276 146.053 38.1953 145.756 38.1953C145.376 38.1953 145.032 38.112 144.725 37.9453C144.423 37.7734 144.178 37.5365 143.991 37.2344C143.371 37.8958 142.548 38.2266 141.522 38.2266ZM141.038 35.5156C141.038 35.7656 141.139 35.9688 141.342 36.125C141.545 36.276 141.814 36.3516 142.147 36.3516C142.569 36.3516 142.918 36.224 143.194 35.9688C143.475 35.7135 143.616 35.3932 143.616 35.0078V34.0469C143.439 34.1823 143.191 34.2891 142.873 34.3672L142.1 34.5391C141.392 34.6901 141.038 35.0156 141.038 35.5156ZM150.483 38.1875C150.134 38.1875 149.85 38.0755 149.631 37.8516C149.418 37.6224 149.311 37.3281 149.311 36.9688V27.7812C149.311 27.4219 149.418 27.1302 149.631 26.9062C149.85 26.6771 150.134 26.5625 150.483 26.5625C150.827 26.5625 151.105 26.6771 151.319 26.9062C151.538 27.1302 151.647 27.4219 151.647 27.7812V36.9688C151.647 37.3281 151.538 37.6224 151.319 37.8516C151.105 38.0755 150.827 38.1875 150.483 38.1875Z" fill="#DD1C47"/>
</g>
<defs>
<clipPath id="clip0_5982_6037">
<rect width="192" height="69" fill="white"/>
</clipPath>
</defs>
</svg>
