<svg width="182" height="63" viewBox="0 0 182 63" fill="none" xmlns="http://www.w3.org/2000/svg">
<g clip-path="url(#clip0_5982_6049)">
<path d="M181.03 34.27C181.03 50.37 181.03 51.77 175.68 57.17C170.61 62.3 162.68 62.58 149.83 62.58C123.79 62.58 112.09 62.22 99.61 62.29C77.25 61.96 59.88 62.86 39.18 62.9H38.16C30.15 62.89 21.08 62.66 14.84 59.93C7.28 56.64 6.50999 49.39 6.20999 46.65C6.17999 46.41 6.15999 46.18 6.12999 45.97C5.40999 40.84 5.55999 35.75 5.71999 30.82C5.77999 28.88 5.83999 27.05 5.83999 25.29C5.83999 11.4 9.17999 9.27999 17.14 6.86999C22.85 5.13999 31.57 5.43999 42.44 5.82999C70.05 6.82999 104.2 6.63999 127.06 6.71999C142.69 6.78999 157.51 5.52999 161.83 5.52999C168.89 5.52999 172.94 5.95999 175.76 7.84999C175.33 7.15999 175.25 6.46999 175.25 6.46999C175.83 7.54999 176.69 8.49999 177 8.82999L177.12 8.94999C177.12 8.94999 177.19 9.00999 177.23 9.05999C178.21 10.02 179.07 11.21 179.56 12.41C179.83 13.07 180.06 13.79 180.24 14.56C181.3 19.04 181.03 25.43 181.03 34.27Z" fill="#DD1C47"/>
<path d="M33.47 58.26C25.46 58.26 16.39 58.03 10.15 55.31C2.59003 52.01 1.82003 44.76 1.52003 42.03C1.49003 41.79 1.47003 41.56 1.44003 41.35C0.710028 36.22 0.870028 31.12 1.03003 26.2C1.09003 24.26 1.15003 22.42 1.15003 20.66C1.15003 6.77001 4.49003 4.65001 12.45 2.24001C18.16 0.500013 26.88 0.810013 37.75 1.20001C65.36 2.19001 99.5 2.00001 122.37 2.09001C138 2.16001 152.82 0.900013 157.13 0.900013C177.99 0.900013 176.33 7.81001 176.33 29.64C176.33 45.74 176.33 47.13 170.98 52.54C165.91 57.67 157.98 57.95 145.13 57.95C119.09 57.95 107.38 57.58 94.9 57.66C72.54 57.33 55.18 58.22 34.47 58.27H33.45L33.47 58.26Z" fill="#FCE5EE" stroke="#DD1C47" stroke-width="1.8" stroke-miterlimit="10"/>
<path d="M27.59 35.8482C26.08 35.8482 24.82 35.4782 23.79 34.7382C23.47 34.5082 23.21 34.2282 23.03 33.9282C22.85 33.6282 22.76 33.3182 22.76 33.0082C22.76 32.6782 22.87 32.3982 23.09 32.1682C23.31 31.9382 23.59 31.8182 23.92 31.8182C24.22 31.8182 24.51 31.9382 24.78 32.1782C25.64 33.0882 26.65 33.5382 27.8 33.5382C28.34 33.5382 28.76 33.4382 29.04 33.2482C29.33 33.0482 29.48 32.7782 29.48 32.4382C29.48 32.1382 29.38 31.9082 29.18 31.7382C28.98 31.5682 28.7 31.4482 28.32 31.3682L26.16 30.9182C25.15 30.7182 24.39 30.3482 23.88 29.8282C23.37 29.3082 23.11 28.5982 23.11 27.6882C23.11 26.6082 23.51 25.7482 24.31 25.0982C25.11 24.4482 26.17 24.1182 27.5 24.1182C28.83 24.1182 29.94 24.4582 30.97 25.1482C31.31 25.3682 31.56 25.6282 31.74 25.9282C31.91 26.2282 32 26.5382 32 26.8582C32 27.1982 31.9 27.4782 31.71 27.6982C31.52 27.9182 31.26 28.0382 30.93 28.0382C30.58 28.0382 30.2 27.8782 29.77 27.5582C29.48 27.2282 29.12 26.9582 28.68 26.7482C28.25 26.5382 27.78 26.4282 27.26 26.4282C26.8 26.4282 26.43 26.5182 26.15 26.6982C25.87 26.8782 25.74 27.1282 25.74 27.4582C25.74 27.7882 25.84 28.0082 26.04 28.1582C26.25 28.3082 26.58 28.4282 27.04 28.5282L29.1 28.9982C29.45 29.0782 29.76 29.1682 30.03 29.2682C30.31 29.3682 30.57 29.4982 30.83 29.6782C31.1 29.8482 31.31 30.0482 31.49 30.2682C31.66 30.4882 31.8 30.7582 31.9 31.0882C32 31.4182 32.06 31.7882 32.06 32.1882C32.06 33.3082 31.65 34.1982 30.84 34.8482C30.03 35.4982 28.95 35.8282 27.6 35.8282L27.59 35.8482ZM38.13 35.8482C37.32 35.8482 36.66 35.5982 36.15 35.0882C35.63 34.5782 35.38 33.9182 35.38 33.0882V29.1182H34.52C34.2 29.1182 33.94 29.0182 33.73 28.8182C33.53 28.6182 33.43 28.3682 33.43 28.0582C33.43 27.7482 33.53 27.4982 33.73 27.3082C33.93 27.1082 34.2 27.0082 34.52 27.0082H35.38V25.6482C35.38 25.2882 35.49 24.9982 35.71 24.7682C35.93 24.5382 36.21 24.4282 36.55 24.4282C36.89 24.4282 37.18 24.5382 37.39 24.7682C37.61 24.9882 37.72 25.2882 37.72 25.6482V27.0082H39.64C39.96 27.0082 40.23 27.1082 40.43 27.3082C40.63 27.4982 40.73 27.7482 40.73 28.0582C40.73 28.3682 40.63 28.6182 40.42 28.8182C40.22 29.0182 39.96 29.1182 39.64 29.1182H37.72V32.7382C37.72 33.3282 37.96 33.6282 38.45 33.6282C38.67 33.6282 38.94 33.5082 39.26 33.2582C39.52 33.0582 39.78 32.9582 40.06 32.9582C40.34 32.9582 40.54 33.0482 40.71 33.2182C40.88 33.3882 40.96 33.6182 40.96 33.8882C40.96 34.3282 40.78 34.7182 40.42 35.0482C40.15 35.2882 39.81 35.4882 39.4 35.6282C38.99 35.7782 38.57 35.8482 38.13 35.8482ZM49.24 27.1782C49.46 26.9482 49.74 26.8382 50.08 26.8382C50.42 26.8382 50.7 26.9482 50.92 27.1782C51.14 27.4082 51.25 27.6982 51.25 28.0582V34.5882C51.25 34.9482 51.14 35.2382 50.92 35.4682C50.7 35.6882 50.42 35.8082 50.08 35.8082C49.78 35.8082 49.52 35.7182 49.31 35.5382C49.1 35.3582 48.97 35.1282 48.93 34.8382C48.66 35.1682 48.32 35.4182 47.89 35.5982C47.47 35.7682 47 35.8582 46.48 35.8582C45.41 35.8582 44.55 35.5382 43.91 34.8882C43.27 34.2382 42.95 33.3382 42.95 32.1882V28.0682C42.95 27.7182 43.06 27.4182 43.28 27.1882C43.5 26.9582 43.79 26.8482 44.12 26.8482C44.45 26.8482 44.74 26.9682 44.96 27.1982C45.18 27.4282 45.29 27.7182 45.29 28.0682V31.8282C45.29 32.4482 45.44 32.9282 45.75 33.2582C46.06 33.5782 46.48 33.7382 47.03 33.7382C47.58 33.7382 48.06 33.5582 48.4 33.1982C48.74 32.8382 48.91 32.3482 48.91 31.7482V28.0682C48.91 27.7082 49.02 27.4182 49.24 27.1882V27.1782ZM57.64 35.8482C57.05 35.8482 56.5 35.7382 55.98 35.5182C55.46 35.2982 55.02 34.9982 54.65 34.6082C54.28 34.2182 53.99 33.7382 53.77 33.1682C53.56 32.5982 53.45 31.9882 53.45 31.3182C53.45 30.6482 53.56 30.0382 53.77 29.4682C53.98 28.8982 54.28 28.4182 54.65 28.0282C55.02 27.6382 55.46 27.3282 55.98 27.1182C56.5 26.8982 57.05 26.7882 57.64 26.7882C58.73 26.7882 59.59 27.1282 60.21 27.7982V25.3982C60.21 25.0382 60.32 24.7482 60.53 24.5182C60.75 24.2882 61.03 24.1782 61.37 24.1782C61.71 24.1782 62 24.2882 62.21 24.5182C62.43 24.7382 62.54 25.0382 62.54 25.3982V34.5882C62.54 34.9482 62.43 35.2382 62.21 35.4682C62 35.6882 61.72 35.8082 61.37 35.8082C61.07 35.8082 60.82 35.7282 60.62 35.5582C60.42 35.3882 60.29 35.1582 60.23 34.8782C59.63 35.5282 58.77 35.8582 57.64 35.8582V35.8482ZM56.49 29.5982C56.08 30.0382 55.87 30.6082 55.87 31.3282C55.87 32.0482 56.08 32.6182 56.49 33.0582C56.9 33.4982 57.42 33.7182 58.06 33.7182C58.7 33.7182 59.24 33.4982 59.65 33.0482C60.06 32.5982 60.26 32.0282 60.26 31.3382C60.26 30.6482 60.06 30.0782 59.65 29.6382C59.24 29.1882 58.72 28.9582 58.06 28.9582C57.4 28.9582 56.9 29.1782 56.49 29.6182V29.5982ZM66.58 35.8082C66.24 35.8082 65.96 35.6982 65.74 35.4682C65.52 35.2382 65.41 34.9482 65.41 34.5882V28.0582C65.41 27.6982 65.52 27.4082 65.74 27.1782C65.96 26.9482 66.24 26.8382 66.58 26.8382C66.92 26.8382 67.2 26.9482 67.42 27.1782C67.64 27.3982 67.75 27.6982 67.75 28.0582V34.5882C67.75 34.9482 67.64 35.2382 67.42 35.4682C67.2 35.6882 66.92 35.8082 66.58 35.8082ZM65.64 25.4982C65.4 25.2582 65.28 24.9482 65.28 24.5882C65.28 24.2282 65.4 23.9182 65.64 23.6782C65.88 23.4382 66.2 23.3082 66.58 23.3082C66.96 23.3082 67.27 23.4282 67.51 23.6782C67.75 23.9182 67.88 24.2182 67.88 24.5882C67.88 24.9582 67.76 25.2682 67.51 25.5082C67.27 25.7482 66.96 25.8682 66.58 25.8682C66.2 25.8682 65.89 25.7482 65.64 25.4982ZM77.83 34.6082C76.97 35.4382 75.85 35.8482 74.49 35.8482C73.13 35.8482 72.02 35.4382 71.15 34.6082C70.29 33.7782 69.86 32.6782 69.86 31.3182C69.86 29.9582 70.29 28.8682 71.15 28.0382C72.01 27.2082 73.13 26.7882 74.49 26.7882C75.85 26.7882 76.96 27.2082 77.83 28.0382C78.69 28.8682 79.13 29.9582 79.13 31.3182C79.13 32.6782 78.7 33.7782 77.83 34.6082ZM72.89 29.5982C72.48 30.0382 72.27 30.6182 72.27 31.3182C72.27 32.0182 72.48 32.5982 72.89 33.0382C73.31 33.4782 73.84 33.6982 74.49 33.6982C75.14 33.6982 75.68 33.4782 76.09 33.0382C76.51 32.5982 76.71 32.0182 76.71 31.3182C76.71 30.6182 76.5 30.0382 76.09 29.5982C75.68 29.1582 75.14 28.9382 74.49 28.9382C73.84 28.9382 73.31 29.1582 72.89 29.5982ZM87.4 35.6182C87.03 35.6182 86.73 35.4982 86.5 35.2682C86.28 35.0382 86.16 34.7282 86.16 34.3582V25.6482C86.16 25.2682 86.27 24.9582 86.5 24.7282C86.73 24.4982 87.03 24.3782 87.4 24.3782H91.02C92.1 24.3782 93.05 24.6182 93.88 25.0882C94.71 25.5582 95.35 26.2282 95.8 27.0782C96.25 27.9282 96.48 28.8982 96.48 29.9982C96.48 31.6682 95.98 33.0182 94.97 34.0582C93.96 35.0982 92.65 35.6182 91.02 35.6182H87.4ZM88.64 33.2082H91.01C91.85 33.2082 92.54 32.9082 93.06 32.3082C93.59 31.7082 93.85 30.9382 93.85 29.9982C93.85 29.0582 93.59 28.2882 93.06 27.6982C92.53 27.0982 91.85 26.7882 91.01 26.7882H88.64V33.2082ZM100.11 35.8082C99.77 35.8082 99.49 35.6982 99.27 35.4682C99.05 35.2382 98.94 34.9482 98.94 34.5882V28.0582C98.94 27.6982 99.05 27.4082 99.27 27.1782C99.49 26.9482 99.77 26.8382 100.11 26.8382C100.45 26.8382 100.73 26.9482 100.95 27.1782C101.17 27.3982 101.28 27.6982 101.28 28.0582V34.5882C101.28 34.9482 101.17 35.2382 100.95 35.4682C100.73 35.6882 100.45 35.8082 100.11 35.8082ZM99.17 25.4982C98.93 25.2582 98.81 24.9482 98.81 24.5882C98.81 24.2282 98.93 23.9182 99.17 23.6782C99.42 23.4382 99.73 23.3082 100.11 23.3082C100.49 23.3082 100.8 23.4282 101.04 23.6782C101.28 23.9182 101.41 24.2182 101.41 24.5882C101.41 24.9582 101.29 25.2682 101.04 25.5082C100.8 25.7482 100.49 25.8682 100.11 25.8682C99.73 25.8682 99.42 25.7482 99.17 25.4982ZM106.47 31.0182V34.5882C106.47 34.9482 106.36 35.2382 106.14 35.4682C105.93 35.6882 105.65 35.8082 105.3 35.8082C104.95 35.8082 104.68 35.6982 104.46 35.4682C104.24 35.2382 104.13 34.9482 104.13 34.5882V28.0582C104.13 27.6982 104.24 27.4082 104.46 27.1782C104.68 26.9482 104.96 26.8382 105.3 26.8382C105.6 26.8382 105.85 26.9282 106.05 27.1082C106.26 27.2782 106.39 27.5082 106.44 27.8082C106.95 27.1382 107.66 26.7982 108.58 26.7982C109.24 26.7982 109.76 26.9882 110.16 27.3682C110.57 27.7482 110.78 28.2082 110.78 28.7582C110.78 29.1582 110.67 29.4682 110.46 29.7082C110.25 29.9482 109.96 30.0682 109.58 30.0682C109.23 30.0682 108.92 29.8982 108.66 29.5482C108.39 29.2082 108.09 29.0382 107.75 29.0382C107.41 29.0382 107.09 29.2082 106.84 29.5382C106.59 29.8682 106.47 30.3582 106.47 31.0182ZM116.58 35.8482C115.16 35.8482 114.02 35.4382 113.17 34.6182C112.32 33.7982 111.89 32.6982 111.89 31.3182C111.89 29.9382 112.3 28.8982 113.12 28.0482C113.95 27.1982 115.01 26.7782 116.31 26.7782C117.61 26.7782 118.57 27.1482 119.34 27.8982C120.12 28.6382 120.5 29.5882 120.5 30.7382C120.5 31.1882 120.4 31.5282 120.2 31.7382C120 31.9482 119.7 32.0482 119.28 32.0482H114.23C114.31 32.5582 114.58 32.9582 115.02 33.2582C115.46 33.5482 116.02 33.6982 116.69 33.6982C117.42 33.6982 118.01 33.4882 118.43 33.0782C118.79 32.8382 119.12 32.7182 119.42 32.7182C120 32.7182 120.3 33.0282 120.3 33.6382C120.3 33.8982 120.2 34.1682 119.99 34.4482C119.68 34.8782 119.22 35.2182 118.59 35.4682C117.97 35.7082 117.3 35.8382 116.58 35.8382V35.8482ZM114.23 30.2682H118.19C118.12 29.7582 117.91 29.3582 117.57 29.0682C117.22 28.7782 116.77 28.6282 116.22 28.6282C115.67 28.6282 115.22 28.7782 114.86 29.0682C114.51 29.3582 114.3 29.7582 114.24 30.2682H114.23ZM126.51 35.8482C125.66 35.8482 124.89 35.6582 124.21 35.2782C123.53 34.8882 122.99 34.3582 122.6 33.6582C122.21 32.9682 122.01 32.1882 122.01 31.3182C122.01 30.4482 122.2 29.6682 122.6 28.9782C122.99 28.2882 123.53 27.7482 124.21 27.3682C124.9 26.9782 125.67 26.7882 126.51 26.7882C127.91 26.7882 128.97 27.1682 129.69 27.9082C130.16 28.3982 130.4 28.8982 130.4 29.4082C130.4 29.6982 130.31 29.9382 130.12 30.1282C129.94 30.3182 129.71 30.4082 129.42 30.4082C129.19 30.4082 128.98 30.3582 128.81 30.2682C128.64 30.1682 128.46 30.0182 128.28 29.8082C127.86 29.2282 127.29 28.9282 126.58 28.9282C125.96 28.9282 125.44 29.1482 125.03 29.5982C124.62 30.0382 124.41 30.6082 124.41 31.3082C124.41 32.0082 124.62 32.5782 125.03 33.0282C125.44 33.4682 125.96 33.6882 126.58 33.6882C127.32 33.6882 127.91 33.3682 128.35 32.7182C128.51 32.5182 128.66 32.3682 128.82 32.2782C128.98 32.1882 129.17 32.1482 129.4 32.1482C129.68 32.1482 129.92 32.2482 130.13 32.4482C130.33 32.6382 130.43 32.8782 130.43 33.1682C130.43 33.3882 130.37 33.6382 130.24 33.8982C130.12 34.1682 129.94 34.4182 129.71 34.6482C129.36 35.0082 128.91 35.2982 128.35 35.5182C127.79 35.7282 127.18 35.8382 126.51 35.8382V35.8482ZM136.06 35.8482C135.25 35.8482 134.59 35.5982 134.07 35.0882C133.56 34.5782 133.3 33.9182 133.3 33.0882V29.1182H132.44C132.12 29.1182 131.86 29.0182 131.65 28.8182C131.45 28.6182 131.35 28.3682 131.35 28.0582C131.35 27.7482 131.45 27.4982 131.65 27.3082C131.85 27.1082 132.12 27.0082 132.44 27.0082H133.3V25.6482C133.3 25.2882 133.41 24.9982 133.63 24.7682C133.85 24.5382 134.13 24.4282 134.47 24.4282C134.81 24.4282 135.1 24.5382 135.31 24.7682C135.53 24.9882 135.64 25.2882 135.64 25.6482V27.0082H137.56C137.88 27.0082 138.15 27.1082 138.35 27.3082C138.55 27.4982 138.66 27.7482 138.66 28.0582C138.66 28.3682 138.56 28.6182 138.35 28.8182C138.15 29.0182 137.89 29.1182 137.57 29.1182H135.65V32.7382C135.65 33.3282 135.9 33.6282 136.39 33.6282C136.61 33.6282 136.89 33.5082 137.2 33.2582C137.46 33.0582 137.72 32.9582 138 32.9582C138.28 32.9582 138.48 33.0482 138.65 33.2182C138.82 33.3882 138.9 33.6182 138.9 33.8882C138.9 34.3282 138.72 34.7182 138.36 35.0482C138.09 35.2882 137.75 35.4882 137.34 35.6282C136.93 35.7782 136.51 35.8482 136.07 35.8482H136.06ZM148.14 34.6082C147.28 35.4382 146.16 35.8482 144.8 35.8482C143.44 35.8482 142.33 35.4382 141.46 34.6082C140.6 33.7782 140.17 32.6782 140.17 31.3182C140.17 29.9582 140.6 28.8682 141.46 28.0382C142.32 27.2082 143.44 26.7882 144.8 26.7882C146.16 26.7882 147.27 27.2082 148.14 28.0382C149 28.8682 149.44 29.9582 149.44 31.3182C149.44 32.6782 149.01 33.7782 148.14 34.6082ZM143.2 29.5982C142.79 30.0382 142.58 30.6182 142.58 31.3182C142.58 32.0182 142.79 32.5982 143.2 33.0382C143.62 33.4782 144.15 33.6982 144.8 33.6982C145.45 33.6982 145.99 33.4782 146.4 33.0382C146.82 32.5982 147.02 32.0182 147.02 31.3182C147.02 30.6182 146.81 30.0382 146.4 29.5982C145.99 29.1582 145.45 28.9382 144.8 28.9382C144.15 28.9382 143.62 29.1582 143.2 29.5982ZM153.99 31.0182V34.5882C153.99 34.9482 153.88 35.2382 153.66 35.4682C153.45 35.6882 153.17 35.8082 152.82 35.8082C152.47 35.8082 152.2 35.6982 151.98 35.4682C151.76 35.2382 151.65 34.9482 151.65 34.5882V28.0582C151.65 27.6982 151.76 27.4082 151.98 27.1782C152.2 26.9482 152.48 26.8382 152.82 26.8382C153.12 26.8382 153.37 26.9282 153.57 27.1082C153.78 27.2782 153.91 27.5082 153.96 27.8082C154.47 27.1382 155.18 26.7982 156.1 26.7982C156.76 26.7982 157.28 26.9882 157.68 27.3682C158.09 27.7482 158.3 28.2082 158.3 28.7582C158.3 29.1582 158.19 29.4682 157.98 29.7082C157.77 29.9482 157.48 30.0682 157.1 30.0682C156.75 30.0682 156.44 29.8982 156.18 29.5482C155.91 29.2082 155.6 29.0382 155.27 29.0382C154.94 29.0382 154.61 29.2082 154.36 29.5382C154.11 29.8682 153.99 30.3582 153.99 31.0182Z" fill="#DD1C47"/>
</g>
<defs>
<clipPath id="clip0_5982_6049">
<rect width="181.06" height="62.9" fill="white"/>
</clipPath>
</defs>
</svg>
