<svg width="1129" height="8" viewBox="0 0 1129 8" fill="none" xmlns="http://www.w3.org/2000/svg">
<g clip-path="url(#clip0_5477_1425)">
<path d="M1.44971 3.00961L23.9481 4.39363C33.2134 4.85496 50.6244 5.59939 56.5914 5.77764C71.5837 6.23897 84.6869 6.49061 101.578 6.70031C126.745 7.01486 153.412 6.79467 169.503 6.23897C177.739 6.0817 200.557 5.77764 204.795 5.77764C213.451 5.60988 226.724 5.49454 237.268 5.41066C246.424 5.34775 253.52 5.30581 253.75 5.30581H339.766L391.819 5.76715L433.278 6.22849L453.128 6.68982H648.967L732.334 3.91132L797.171 2.05549L838.629 1.59415L870.833 1.13281H1001.84C1001.84 1.13281 1056.53 2.05549 1058.3 2.05549C1060.07 2.05549 1102.4 3.91132 1102.4 3.91132L1127.55 4.83399" stroke="#DD1C47" stroke-width="2.93149" stroke-linecap="round"/>
</g>
<defs>
<clipPath id="clip0_5477_1425">
<rect width="1129" height="8" fill="white"/>
</clipPath>
</defs>
</svg>
