<svg width="253" height="253" viewBox="0 0 253 253" fill="none" xmlns="http://www.w3.org/2000/svg">
<g clip-path="url(#clip0_1878_6539)">
<path d="M78.9498 80.75C78.9498 80.75 80.2798 88.71 84.3998 92.51C88.5198 96.31 94.7698 101.89 95.5098 104.13C96.2398 106.36 98.1298 113.35 101.41 121.33C104.7 129.31 119.45 139.62 137.13 137.26C137.13 137.26 154.49 134 144.34 114.6C144.34 114.6 152.57 121.24 164.7 135.98C176.83 150.72 177.59 166.75 177.59 166.75C177.59 166.75 177.53 170.09 178.71 171.81C178.71 171.81 178.14 170.33 171.64 173.36C165.15 176.39 157.03 180.24 154.84 189.58C154.84 189.58 154.71 190.43 154.7 190.45C154.69 190.47 125.71 175.54 119.84 166.28C113.97 157.02 112.15 154.92 105.64 137.88C99.1298 120.84 84.2198 115.69 82.1198 100.3C82.1198 100.3 79.9298 93.84 78.6698 90.5C77.4098 87.16 77.1598 80.01 78.9498 80.77V80.75Z" fill="#FCE5EE" stroke="#DD1C47" stroke-width="0.25" stroke-miterlimit="10"/>
<path d="M100.98 133.89C100.98 133.89 103.08 135.78 104.31 140.76C105.54 145.74 108.61 150.21 109.2 152.38C109.79 154.55 109.07 158.08 105.2 162C101.33 165.91 95.3299 171.98 84.8199 178.83C74.3099 185.68 72.1799 187.26 71.6699 187.85C71.1599 188.44 69.8399 187.47 68.7799 185.25C67.7199 183.04 53.4999 168.27 48.2699 170.02C43.0399 171.76 44.4399 170.79 45.2499 166.83C46.0599 162.87 54.9499 136.79 71.1199 127.26C71.1199 127.26 75.3999 123.22 75.1599 124.75C74.9199 126.28 72.6899 131.32 77.6699 133.96C82.6499 136.6 97.2199 135.27 100.15 134.15L100.98 133.9V133.89Z" fill="#FCE5EE"/>
<path d="M142.8 128.07C138.76 134.31 133.2 136.18 125.12 133.8C116.07 131.14 108.87 125.84 103.69 117.95C101.78 115.05 100.86 111.67 99.8202 108.4C98.2802 103.52 95.6702 99.4398 91.7202 96.1698C88.0002 93.0798 84.6602 89.6598 82.8702 85.0098C81.4002 81.1998 80.8002 77.3598 82.5002 73.4798C83.7002 70.7198 85.6502 68.8098 87.8902 68.5098C87.2602 69.3298 86.2702 70.6998 85.1902 71.9998C83.9202 73.5398 83.1402 75.2798 82.9302 77.2598C82.8202 78.2998 82.7702 79.0498 82.8202 79.5698C82.8202 79.6098 82.8402 79.6898 82.8602 79.7998C82.9502 80.4098 83.2002 81.9298 83.6002 83.1198C83.6202 83.1798 83.6402 83.2398 83.6602 83.2998C83.6902 83.3698 83.7102 83.4398 83.7402 83.4998C83.7802 83.5998 83.8302 83.6998 83.8702 83.7898C84.9602 86.1598 85.9502 88.5698 88.0002 90.5998C88.0002 90.5998 88.5102 91.2998 89.0202 91.8098C89.1702 91.9598 89.3102 92.0898 89.4502 92.1898C97.4302 97.7498 100.58 106.27 103.77 114.92C106.74 122.93 113.5 127.35 120.82 130.91C123.31 132.12 125.99 132.78 128.78 133.18C132.65 133.74 135.9 132.66 138.94 130.44C140.15 129.55 141.32 128.59 142.81 128.08L142.8 128.07Z" fill="#DD1C47"/>
<path d="M142.8 128.07C138.87 134.51 132.3 136.05 125.35 133.89C118.93 132.08 112.95 128.66 108.32 123.84C106.77 122.24 105.37 120.51 104.11 118.68C101.43 115.06 100.6 110.53 99.0302 106.41C97.4202 102.27 94.6802 98.6196 91.2102 95.8596C87.8102 93.0096 84.6602 89.6596 82.9602 85.4996C81.2102 81.4296 80.5802 76.5496 82.8302 72.5396C83.8702 70.5796 85.5802 68.7196 87.8802 68.3896L88.1802 68.3496L88.0002 68.5896C86.9002 70.0696 85.2202 72.0096 84.2702 73.5496C81.1302 79.1496 84.1702 86.1296 88.0802 90.5396C89.0202 91.8896 90.3902 92.7196 91.6202 93.7696C95.3302 96.8996 98.0002 101.07 100.04 105.43C102.86 111.16 103.95 117.87 108.59 122.55C114.5 128.46 125.89 135.15 134.43 132.76C137.63 131.96 139.8 129.24 142.8 128.08V128.07ZM142.8 128.07C139.8 129.24 137.64 131.97 134.43 132.77C125.88 135.19 114.45 128.51 108.52 122.6C103.86 117.93 102.74 111.21 99.9102 105.48C97.8602 101.14 95.2002 96.9996 91.5002 93.8896C90.2802 92.8596 88.8202 91.9496 87.9402 90.6596C83.9502 86.1896 80.8902 79.1196 84.0602 73.4296C84.9802 71.8196 86.7302 69.9596 87.8002 68.4296L87.9102 68.6296C86.8302 68.7796 85.8402 69.3196 85.0302 70.0496C79.0402 75.7896 81.8202 85.4296 86.6002 91.0596C88.0102 92.7596 89.6302 94.2896 91.3202 95.7196C94.8002 98.4996 97.5602 102.19 99.1602 106.35C99.9802 108.43 100.51 110.59 101.26 112.68C102.61 116.94 105.37 120.56 108.39 123.78C113 128.6 118.96 132.03 125.36 133.86C132.26 136.03 138.88 134.51 142.79 128.09L142.8 128.07Z" fill="#DD1C47"/>
<path d="M178.53 170.72C176.92 168.94 176.87 167 176.7 165.18C175.64 152.9 169.85 142.84 162.26 133.53C157.02 127.1 150.73 121.71 144.91 115.88C143.6 114.57 142.79 113.15 141.84 111.74C140.24 109.37 138.53 107.14 136.25 105.31C140.25 111.82 145.06 118.02 143.77 126.51C142.58 113.96 134.27 105.41 126.66 96.4695C126.88 96.3195 127.09 96.1695 127.3 96.0195C128.36 97.0195 129.43 98.0195 130.5 99.0295C130.99 98.5595 130.11 98.2195 130.92 97.6595C134.74 101.55 138.74 105.48 142.46 110.09C143.16 111.01 142.97 111.15 145.16 114.26C145.42 114.61 145.73 114.95 146.09 115.29C153.53 122.39 160.73 129.7 166.75 138.11C173.19 147.14 177.49 156.93 178.13 168.14C178.17 168.88 178.35 169.62 178.52 170.72H178.53Z" fill="#DD1C47"/>
<path d="M178.53 170.72C176.18 168.15 176.94 164.37 176.16 161.21C173.22 144.54 161.34 131.41 149.33 120.28L145.75 116.81C142.13 113.39 140.27 108.41 136.21 105.38L136.34 105.27C140.38 111.62 145.25 118.59 143.9 126.53L143.77 127.41C143.35 121.24 140.99 115.37 137.58 110.26C134.36 105.36 130.4 101.01 126.61 96.5299L126.54 96.4399L126.63 96.3799L127.27 95.9299L127.34 95.8799L127.4 95.9399L130.6 98.9499H130.47C130.55 98.8699 130.6 98.7799 130.6 98.6799C130.57 98.4499 130.41 98.1099 130.6 97.8699C130.7 97.7099 130.84 97.6299 130.97 97.5299C133.59 100.21 136.25 102.86 138.78 105.63C140.04 107.01 141.25 108.41 142.43 109.86C143.98 112.19 145.27 114.67 147.48 116.48C157.43 126.16 167.35 136.44 173.32 149.14C174.89 152.52 176.13 156.05 176.97 159.68C177.92 163.3 177.94 167.06 178.57 170.72H178.53ZM178.53 170.72C177.89 167.06 177.86 163.3 176.9 159.69C172.79 142.21 159.85 128.72 147.34 116.58C145.14 114.79 143.8 112.26 142.27 109.96C138.75 105.63 134.78 101.69 130.86 97.7199L130.98 97.7299C130.78 97.8699 130.61 98.0499 130.67 98.2799C130.78 98.5999 130.81 98.9299 130.5 99.1599L130.43 99.0999L127.22 96.0999H127.35L126.71 96.5599L126.73 96.4099C134.29 105.13 142.88 114.43 143.87 126.51H143.65C144.25 122.71 143.52 118.81 141.94 115.33C140.31 111.67 137.99 108.38 135.91 104.95C138.7 107.1 140.79 109.98 142.67 112.9C143.55 114.32 144.61 115.58 145.83 116.72L149.41 120.19C161.4 131.35 173.27 144.53 176.18 161.21C176.95 164.37 176.18 168.14 178.53 170.73V170.72Z" fill="#DD1C47"/>
<path d="M172.66 74.3398C172.6 74.1298 172.49 73.7898 172.33 73.3398C172.47 73.6598 172.58 73.9898 172.66 74.3398Z" fill="#DD1C47"/>
<path d="M172.66 74.34C172.57 74.05 172.37 73.75 172.21 73.38L172.44 73.29C172.54 73.69 172.55 74.07 172.66 74.34ZM172.66 74.34C172.55 73.94 172.33 73.66 172.21 73.39L172.44 73.3C172.5 73.6 172.52 73.96 172.66 74.35V74.34Z" fill="#DD1C47"/>
<path d="M185.64 96.8898C185.02 102.53 185.63 107.94 188.54 112.93C188.92 113.58 189.31 114.26 189.84 114.78C194.48 119.33 196.06 125.02 196.1 131.31C196.11 133.43 196.57 135.51 197.16 137.52C198.37 141.65 201 144.34 205.37 145.12C206.57 145.33 207.85 145.3 209.01 146.12C205.02 147.46 201.14 146.34 198.35 143.13C196.42 140.9 195.35 138.27 194.93 135.38C194.68 133.63 194.46 131.86 194.45 130.09C194.41 125.01 193.03 120.58 189.43 116.76C186.09 113.22 184.31 108.71 184.28 103.88C184.2 93.3398 180.67 84.1198 174.48 75.7698C174.28 75.4998 174.16 75.1898 174.02 74.8798C174 74.8298 174.08 74.7298 174.15 74.5498C179.12 77.9198 181.28 83.1398 183.29 88.3798C184.13 90.5598 184.37 92.9598 184.9 95.2498C185.04 95.8598 184.82 96.6598 185.69 96.9398L185.62 96.8798L185.64 96.8898Z" fill="#DD1C47"/>
<path d="M185.64 96.89C184.73 104.59 186.47 111.67 192.01 117.24C195 121.22 196.12 126.27 196.15 131.17C196.37 135.86 197.58 141.5 202.05 143.91C203.12 144.49 204.3 144.87 205.51 145.07C206.75 145.25 208.14 145.32 209.2 146.16C205.72 147.46 201.6 146.62 198.99 143.95C196.35 141.42 195.01 137.83 194.67 134.25C194.15 130.71 194.58 127.04 193.38 123.61C192.42 120.04 189.81 117.49 187.6 114.67C185.52 111.72 184.35 108.15 184.22 104.54C184.29 95.54 181.61 86.65 176.73 79.11C176.24 78.36 175.76 77.6 175.23 76.88L174.45 75.78C174.25 75.49 174.11 75.19 173.99 74.86C174.03 74.7 174.11 74.63 174.14 74.5C175.04 75.13 175.9 75.83 176.68 76.6C181.07 81.28 183.58 87.8 184.66 94.06C184.86 94.85 184.92 95.66 185.1 96.45C185.2 96.7 185.44 96.88 185.7 96.96L185.63 96.9L185.64 96.89ZM185.64 96.89L185.71 96.95C185.45 96.87 185.21 96.7 185.11 96.45C184.92 95.67 184.86 94.85 184.66 94.06C183.8 88.74 181.73 83.59 178.73 79.11C177.47 77.35 175.93 75.81 174.14 74.59L174.2 74.57C174.16 74.67 174.09 74.78 174.07 74.87C174.25 75.43 174.95 76.35 175.31 76.83C181.12 84.84 184.48 94.61 184.41 104.54C184.55 108.11 185.71 111.64 187.78 114.56C188.78 116.04 190.16 117.23 191.19 118.72C193.32 121.65 194.38 125.26 194.56 128.86C194.67 132.41 194.79 136.09 196.17 139.4C198.14 144.45 203.61 148.05 209 146.05L208.98 146.2C207.98 145.47 206.71 145.42 205.5 145.23C201.75 144.72 198.56 142.01 197.41 138.42C195.53 133.76 196.52 128.64 195.13 123.89C194.2 120.3 192.2 117.08 189.56 114.5C185.88 109.48 184.93 102.96 185.66 96.89H185.64Z" fill="#DD1C47"/>
<path d="M107.25 160.87C103.38 166.07 98.3298 170.01 93.2098 173.84C86.4298 178.91 79.4298 183.65 71.5898 188.31C71.5898 188.31 70.2998 189.08 67.4198 188.31C67.4098 188.31 67.3998 188.31 67.3898 188.31C66.7798 188.17 66.2098 187.92 65.6198 187.71C61.5898 186.22 57.9098 184.04 54.1398 182.03C52.6698 181.24 51.4598 180.74 49.6698 179.7C48.2198 178.72 47.3198 178.15 46.7598 177.64C46.7598 177.64 46.7398 177.63 46.7398 177.62C46.4798 177.43 44.4498 175.8 44.0998 170.4C44.0998 170.38 44.0998 170.37 44.0998 170.35C44.0798 170.18 44.0798 170 44.0698 169.83C44.0698 169.49 44.0898 169.14 44.1298 168.8C44.3998 166.29 44.8398 163.8 45.8298 161.45C51.4298 148.07 58.8498 135.98 70.4498 126.87C71.4098 126.12 72.3298 125.28 73.9698 124.85C71.9398 127.85 69.5398 129.92 67.1998 132.06C55.9398 142.35 48.7898 155.06 45.1298 169.79C45.0898 169.93 45.1898 170.09 45.2398 170.3C47.0198 168.84 48.9698 169.21 50.9098 169.75C53.2998 170.43 55.3998 171.7 57.2898 173.25C61.3798 176.6 65.8898 179.52 68.7198 184.19C69.0998 184.82 70.2898 186.83 70.7798 187.73C69.3198 187.28 67.9698 184.85 67.2898 184.05C63.3298 179.36 58.5898 175.63 53.4398 172.37C52.1498 171.56 50.7898 170.93 49.2098 170.87C47.6598 170.81 46.1298 170.74 45.4598 172.53C45.4598 172.53 45.1098 174 45.7498 174.79C47.2098 176.75 48.9998 178.03 51.1998 179.11C56.7598 181.84 62.0898 185.02 67.7598 187.62C67.7598 187.62 67.7798 187.62 67.7998 187.64C67.8198 187.64 67.8298 187.66 67.8498 187.66C68.2098 187.8 69.6698 188.31 70.8898 187.85C71.9798 187.44 72.2398 186.7 73.5198 185.75C73.9198 185.38 74.3398 185.07 74.7698 184.77C80.8798 180.6 87.0598 176.51 93.0998 172.25C99.9798 167.39 106.03 161.75 109.49 153.82C109.58 153.62 109.84 153.49 110.17 153.2C110.27 156.3 108.93 158.67 107.27 160.9L107.25 160.87Z" fill="#DD1C47"/>
<path d="M107.25 160.87C102.28 167.51 95.36 172.27 88.74 177.13C83.3 181.03 77.68 184.71 71.93 188.14C68.22 190.29 60.34 185.25 56.77 183.5C54.26 182.01 51.52 180.93 49.06 179.35C47.71 178.42 46.21 177.61 45.45 176.09C44.38 174.1 44.08 171.78 43.98 169.56L44.1 169.78C43.84 165.44 45.98 160.62 47.89 156.55C51.81 148.16 56.72 140.13 63.13 133.4C64.71 131.69 66.42 130.13 68.16 128.59C69.99 127.18 71.62 125.33 73.92 124.73L74.16 124.67L74.02 124.88C71.47 128.74 67.68 131.47 64.52 134.74C55.24 144.04 48.79 155.96 45.51 168.65C45.45 168.88 45.23 169.64 45.2 169.85C45.21 169.96 45.28 170.1 45.31 170.25L45.13 170.19C46.23 169.25 47.74 168.98 49.14 169.22C53.26 169.75 56.85 172.67 59.95 175.24C63.21 177.79 66.55 180.47 68.73 184.07L70.82 187.67L70.94 187.87L70.72 187.79C69.4 187.29 68.64 186.03 67.84 184.96C67.09 183.85 66.14 182.88 65.23 181.9C61.51 178.01 57.17 174.72 52.57 171.94C50.17 170.48 44.48 169.92 45.5 174.22C46.89 176.79 49.64 178.3 52.19 179.54C57.37 182.15 62.48 185.14 67.74 187.56C68.71 187.94 69.9 188.16 70.91 187.75C71.93 187.34 72.55 186.29 73.44 185.7C74.79 184.61 77.06 183.1 78.52 182.11C86.84 176.13 96.28 171.06 103.2 163.39C105.26 161.07 107.08 158.52 108.49 155.76C109.03 154.88 109.19 153.74 110.11 153.17C110.28 155.97 108.9 158.68 107.21 160.88L107.25 160.87ZM107.25 160.87C108.95 158.67 110.26 155.98 110.15 153.17C109.23 153.74 109.07 154.88 108.53 155.76C107.12 158.53 105.31 161.08 103.25 163.41C96.34 171.09 86.9 176.17 78.59 182.17C77.14 183.18 74.87 184.65 73.52 185.76C72.61 186.38 72.01 187.4 70.97 187.83C69.92 188.25 68.74 188.03 67.72 187.65C62.45 185.23 57.34 182.26 52.16 179.65C49.79 178.54 47.45 177.17 45.85 175.04C45.22 174.37 45.2 173.36 45.38 172.5C45.82 171.04 47.42 170.64 48.77 170.77C50.13 170.74 51.48 171.16 52.66 171.82C54.99 173.2 57.2 174.75 59.34 176.39C62.51 178.9 65.58 181.62 68 184.87C68.77 185.91 69.55 187.15 70.79 187.63L70.69 187.76L68.59 184.17C66.42 180.59 63.11 177.95 59.85 175.4C57.94 173.89 55.3 171.61 53.07 170.65C50.69 169.65 47.54 168.49 45.3 170.36L45.15 170.49C45.14 170.27 45.04 170.12 45 169.88C45.02 169.54 45.25 168.93 45.31 168.6C47.46 160.3 50.91 152.31 55.7 145.2C58.23 141.39 61.18 137.86 64.39 134.6C67.57 131.32 71.34 128.6 73.88 124.78L73.99 124.93C72.87 125.21 71.88 125.82 70.99 126.55C60.83 134.34 53.37 145.09 48.03 156.62C46.01 160.78 44.24 165.14 44.13 169.82L44.12 170.03L44.02 169.85L44.13 169.82C44.3 172.48 44.67 175.65 46.77 177.57C49.74 180.08 53.48 181.48 56.83 183.43C60.37 185.17 68.25 190.21 71.91 188.09C77.66 184.67 83.28 181 88.73 177.11C95.35 172.27 102.28 167.51 107.26 160.88L107.25 160.87Z" fill="#DD1C47"/>
<path d="M168.95 94.9805C169.36 101.17 172.22 106.28 175.9 110.97C181.06 117.54 183.2 124.88 182.11 133.14C180.91 142.24 184.84 149.12 191.48 154.8C192.49 155.66 193.71 156.31 194.91 156.89C196 157.41 197.19 158.09 197.27 155.77C197.31 154.47 198.43 153.59 200.24 153.83C199.26 155.15 197.34 155.82 197.88 157.82C197.91 157.92 197.23 158.29 196.84 158.4C195.55 158.77 194.24 158.57 193.21 157.83C186.06 152.68 180.42 146.57 180.6 136.97C180.66 133.86 180.69 130.74 180.76 127.63C180.87 122.61 178.97 118.29 176.2 114.25C173.92 110.93 171.29 107.83 169.61 104.12C168.27 101.16 167.55 98.1605 168.96 94.9805H168.95Z" fill="#DD1C47"/>
<path d="M168.95 94.9805C169.31 101.59 172.96 107.31 176.97 112.35C180.78 117.62 182.82 124.15 182.4 130.66C180.86 140.55 183.6 147.88 191.21 154.41C192.39 155.52 193.84 156.26 195.3 156.95C195.98 157.3 196.89 157.58 197.06 156.55C197.13 154.41 198.08 153.49 200.25 153.71L200.46 153.74L200.33 153.91C199.42 155.14 197.46 155.96 197.98 157.76V157.82C197.98 157.9 197.95 157.92 197.94 157.94C197.91 157.98 197.89 158 197.86 158.02C196.4 159.03 194.36 158.9 193 157.84C190.29 155.85 187.67 153.68 185.52 151.07C183.34 148.49 181.75 145.41 181 142.11C180.03 137.3 180.77 131.88 180.68 127C180.67 125.32 180.41 123.65 179.95 122.04C177.89 112.88 165.1 104.91 168.93 94.9905L168.95 94.9805ZM168.95 94.9805C166.21 101.68 171.83 107.92 175.41 113.09C178.39 117.12 180.78 121.87 180.8 126.99C180.82 135.87 179.27 143.64 185.68 150.94C187.82 153.53 190.43 155.68 193.14 157.65C194.42 158.67 196.4 158.75 197.72 157.83C197.77 157.8 197.75 157.77 197.75 157.84C197.75 157.86 197.75 157.82 197.75 157.82L197.72 157.66C197.27 155.86 199.24 154.93 200.14 153.76L200.22 153.95C199.09 153.77 197.69 154.16 197.43 155.4C197.32 155.96 197.41 156.69 197.01 157.2C196.54 157.78 195.71 157.4 195.2 157.15C192.93 156.18 190.99 154.67 189.29 152.9C182.77 146.53 180.91 139.5 182.27 130.65C182.71 124.16 180.7 117.64 176.91 112.38C172.92 107.33 169.28 101.58 168.94 94.9805H168.95Z" fill="#DD1C47"/>
<path d="M168.22 102.19C163.16 102.94 158.68 101.31 154.35 99.1902C151.34 97.7102 148.39 96.1002 145.44 94.5002C130.69 86.4802 116.09 87.7702 101.58 95.1702C100.34 95.8002 99.14 96.5002 97.79 96.9702C98.92 94.7802 100.89 93.5502 102.96 92.6402C115.99 86.9102 129.16 85.7102 142.47 91.8002C148.72 94.6602 154.6 98.3402 161.24 100.34C163.54 101.04 165.9 101.58 168.23 102.19H168.22Z" fill="#DD1C47"/>
<path d="M168.22 102.19C158.62 103.52 150.65 96.6403 142.33 93.0103C130.22 87.2103 116.04 88.3103 104.13 94.0603C102.08 94.9903 99.94 96.2903 97.83 97.0903L97.54 97.1903C98.27 95.6403 99.52 94.3903 100.98 93.5203C113.52 87.0103 129.06 85.4603 142.06 91.5703C149.21 94.7903 155.94 99.1903 163.66 100.97L168.22 102.18V102.19ZM168.22 102.19L163.65 100.99C155.92 99.2403 149.18 94.8603 142.02 91.6603C129.05 85.6203 113.57 87.2103 101.1 93.7303C99.77 94.5303 98.61 95.6503 97.9 97.0303L97.75 96.8603C99.81 96.0803 102 94.7703 104.04 93.8603C116.01 88.1303 130.24 87.0703 142.37 92.9303C150.68 96.5903 158.62 103.49 168.22 102.2V102.19Z" fill="#DD1C47"/>
<path d="M172.02 113.78C168.58 115.89 165.9 114.69 163.35 113.46C156.74 110.29 150.78 106.01 144.51 102.26C138.66 98.7702 132.74 95.4602 125.85 94.3702C116.6 92.9002 109.73 96.8302 104.14 103.76C103.93 104.02 103.74 104.29 103.5 104.61C103.57 102.46 104.23 101.29 106.1 99.5902C113.86 92.5502 122.7 91.2702 132.39 94.6802C138.95 96.9902 144.64 100.92 150.52 104.51C154.18 106.75 157.87 108.94 161.63 110.99C164.67 112.65 167.91 113.83 172.03 113.77L172.02 113.78Z" fill="#DD1C47"/>
<path d="M172.02 113.78C169.16 115.76 165.67 114.82 162.87 113.25C147.18 105.98 128.27 85.9101 110.41 97.9301C107.67 99.8501 105.35 102.33 103.36 105.02C103.29 103.21 103.98 101.41 105.33 100.18C114.4 91.1701 126.22 91.0701 137.17 96.6501C143.08 99.5101 148.38 103.4 154.09 106.59C159.71 109.74 165.24 114.08 172.02 113.79V113.78ZM172.02 113.78C165.24 114.09 159.69 109.77 154.06 106.63C148.33 103.46 143.02 99.5901 137.11 96.7501C129.88 93.1601 121.13 91.4201 113.52 94.8501C110.54 96.1601 107.83 98.0801 105.5 100.34C104.94 100.92 104.42 101.55 104.09 102.28C103.76 103.01 103.65 103.82 103.62 104.62L103.4 104.54C121.59 80.5101 143.95 103.66 162.89 113.21C165.68 114.78 169.18 115.75 172.03 113.77L172.02 113.78Z" fill="#DD1C47"/>
<path d="M206.68 150.14C205.59 151.95 204.03 152.5 202.21 152.55C197.7 152.66 194.33 150.5 191.57 147.17C187.71 142.49 185.74 137 184.92 131.05C184.57 128.46 184.36 125.85 183.95 123.27C183.34 119.39 182.23 115.62 179.37 112.81C172.25 105.81 170.39 97.1402 170.81 87.5902C171.02 82.7402 171.96 77.8602 170.65 73.0302C170.58 72.7902 170.51 72.5502 170.43 72.3002C170.43 72.3002 170.43 72.2902 170.43 72.2802C169.51 69.8002 167.65 67.4702 167.52 67.3002H167.51V67.2802C159.73 60.8702 150.66 61.6402 141.45 64.0102C131.28 66.6302 123.46 72.1702 120.18 82.8102C119.5 79.4502 120.93 76.7602 122.52 74.1102C122.63 73.9602 122.73 73.8202 122.83 73.6702C132.89 63.2502 145.19 59.4802 159.35 61.7302C161.96 62.1402 164.3 63.0802 166.19 64.7102C166.48 64.9802 166.77 65.2402 167.04 65.5102C167.05 65.5102 167.06 65.5302 167.07 65.5402C170.23 68.6602 171.7 71.6802 172.32 73.3102C172.32 73.3202 172.33 73.3302 172.34 73.3402C172.51 73.7902 172.61 74.1302 172.67 74.3402C172.71 74.4902 172.73 74.5602 172.73 74.5602C172.78 74.7902 172.82 75.0402 172.86 75.2902C173.45 79.5202 172.45 83.6702 172.41 87.8702C172.33 96.8202 173.8 105.09 180.53 111.74C183.56 114.74 184.89 118.69 185.43 122.87C186.15 128.37 186.44 133.95 188.61 139.17C189.52 141.36 190.58 143.46 191.99 145.35C195.84 150.55 200.45 152.06 206.69 150.13L206.68 150.14Z" fill="#DD1C47"/>
<path d="M206.68 150.14C205.66 152.02 203.46 152.71 201.43 152.55C195.01 152.43 190.56 146.83 187.94 141.52C186.16 137.85 185.19 133.82 184.74 129.78C184.16 125.76 184.03 121.62 182.54 117.81C181.26 113.81 177.44 111.56 175.4 108C170.84 101.09 170.23 92.45 170.96 84.41C171.29 80.37 171.63 76.2 170.36 72.3C169.76 70.72 168.59 68.77 167.45 67.35C160.16 60.92 149.25 61.75 140.3 64.44C130.69 66.99 122.8 73.52 120.15 83.31C119.22 79.86 120.81 76.39 122.73 73.6C125.57 70.67 128.79 68.09 132.33 66.05C141.14 60.93 152.1 59.77 161.92 62.26C166.94 63.92 170.37 68.56 172.38 73.28C174.2 78.9 171.96 84.96 172.49 90.75C172.67 96.55 173.8 102.5 177.04 107.41C179.08 110.73 182.55 113.03 183.9 116.79C186.68 124.11 185.44 132.37 188.77 139.55C191.91 147.3 197.77 153.19 206.67 150.13L206.68 150.14ZM206.68 150.14C197.79 153.21 191.91 147.35 188.75 139.58C185.41 132.4 186.62 124.13 183.84 116.83C182.48 113.07 179.02 110.79 176.97 107.47C173.71 102.55 172.57 96.58 172.37 90.76C171.83 84.98 174.06 78.93 172.24 73.33C170.27 68.69 166.82 64.04 161.87 62.42C152.09 59.96 141.19 61.14 132.43 66.24C128.94 68.25 125.68 70.9 122.92 73.74C121.16 76.34 119.59 79.55 120.29 82.78L120.05 82.77C122.79 73.19 130.81 66.7 140.24 64.24C149.24 61.56 160.22 60.73 167.55 67.23C168.74 68.74 169.89 70.59 170.5 72.29C171.76 76.1 171.42 80.42 171.08 84.41C170.34 92.43 170.93 101.04 175.47 107.94C177.55 111.46 181.28 113.79 182.6 117.77C184.09 121.6 184.21 125.75 184.79 129.76C185.24 133.8 186.2 137.82 187.97 141.49C190.58 146.8 195.02 152.39 201.43 152.52C203.45 152.68 205.66 152.01 206.68 150.12V150.14Z" fill="#DD1C47"/>
<path d="M167.04 65.51C166.77 65.24 166.49 64.98 166.19 64.71C166.48 64.96 166.76 65.23 167.04 65.51Z" fill="#DD1C47"/>
<path d="M167.04 65.5104C166.77 65.2504 166.5 65.0204 166.11 64.8004L166.27 64.6104C166.52 64.9904 166.76 65.2504 167.03 65.5004L167.04 65.5104ZM167.04 65.5104C166.75 65.2304 166.43 64.9604 166.11 64.8104L166.27 64.6204C166.45 64.9404 166.74 65.2404 167.03 65.5104H167.04Z" fill="#DD1C47"/>
<path d="M146.27 120.56C148.6 122.69 148.9 126.15 147.33 129.6C145.11 134.5 141.24 137.26 136.06 137.83C125.43 138.99 115.64 136.95 107.5 129.46C107.26 129.24 107.06 128.96 106.68 128.52C108.81 128.8 110.25 129.88 111.78 130.9C119.78 136.2 128.46 138.41 137.92 135.97C144.79 134.19 147.89 128.66 146.35 121.63C146.28 121.31 146.3 120.98 146.28 120.56H146.27Z" fill="#DD1C47"/>
<path d="M146.27 120.56C150.06 124.06 147.97 129.93 145.06 133.31C141.99 137.15 136.93 138.13 132.27 138.18C125.22 138.47 117.99 136.96 112.01 133.09C110.12 131.81 108.04 130.36 106.57 128.59L106.38 128.35C108.76 128.53 110.67 130.06 112.6 131.29C118.13 134.85 124.64 137.1 131.27 136.84C141.87 136.48 148.45 131.92 146.26 120.55L146.27 120.56ZM146.27 120.56C148.57 131.99 141.96 136.61 131.28 137.01C124.62 137.29 118.06 135.04 112.49 131.48C110.64 130.33 108.88 128.88 106.65 128.63L106.76 128.43C107.48 129.34 108.4 130.08 109.3 130.84C109.98 131.4 111.4 132.42 112.14 132.9C118.07 136.76 125.24 138.28 132.26 138.02C136.9 137.98 141.9 137.04 144.96 133.24C147.88 129.9 150 124.08 146.26 120.57L146.27 120.56Z" fill="#DD1C47"/>
<path d="M163.74 77.0095C161.22 76.2895 159.78 74.8095 158.16 73.6595C150.68 68.3295 138.97 70.0295 133.31 77.3295C130.94 80.3795 129.39 84.0195 126.52 86.6995C126.42 82.2595 133.82 73.2695 139.46 70.9795C149.49 66.9095 155.92 68.4295 163.74 77.0095Z" fill="#DD1C47"/>
<path d="M163.74 77.0098C160.04 75.9498 157.59 72.4798 153.81 71.5398C146.62 69.1898 137.94 71.4498 133.28 77.5298C130.93 80.6198 129.34 84.3198 126.38 86.9898C126.38 84.7998 127.41 82.8298 128.51 81.0498C133 73.9498 139.7 69.1498 148.26 68.7698C154.53 68.4098 159.8 72.5798 163.73 77.0098H163.74ZM163.74 77.0098C159.75 72.6198 154.5 68.5498 148.27 68.9098C139.74 69.3298 133.16 74.0898 128.71 81.1698C127.67 82.8598 126.71 84.7098 126.64 86.6898L126.43 86.5998C129.22 83.9998 130.79 80.4298 133.12 77.3998C137.85 71.2798 146.6 69.0198 153.85 71.4298C157.64 72.4198 160.05 75.9098 163.75 77.0098H163.74Z" fill="#DD1C47"/>
<path d="M84.95 114.06C83.7 115.57 82.39 117.04 81.22 118.6C79.4 121.02 77.18 123.57 78.79 126.79C80.55 130.32 84.1 131.42 87.74 131.4C90.82 131.38 93.89 130.65 96.97 130.25C97.42 130.19 97.96 129.93 98.42 130.72C92.95 132.79 87.56 134.08 81.92 131.53C77.12 129.35 75.66 125.53 77.95 120.8C79.42 117.75 81.55 115.28 84.96 114.06H84.95Z" fill="#DD1C47"/>
<path d="M84.9502 114.06C83.2902 116.19 80.7402 119.02 79.3602 121.3C77.4402 124.07 78.3802 127.31 80.8902 129.32C83.3002 131.25 86.5702 131.49 89.5502 131.22C92.1502 130.98 94.8902 130.42 97.4802 130.06C97.9802 129.98 98.4102 130.38 98.5802 130.79C95.4202 131.99 92.1102 133.02 88.6902 133.05C81.7802 133.17 73.8802 128.56 77.8702 120.81C79.2902 117.79 81.7302 115.13 84.9502 114.07V114.06ZM84.9502 114.06C81.7502 115.17 79.3602 117.83 77.9802 120.86C74.0702 128.52 81.8902 132.98 88.6902 132.83C92.0302 132.8 95.2602 131.76 98.3702 130.61L98.3102 130.78C98.1302 130.46 97.8602 130.24 97.5002 130.29C94.9102 130.64 92.1702 131.18 89.5702 131.41C85.1202 131.97 79.5602 130.49 78.2902 125.63C77.9002 124.09 78.4602 122.51 79.2602 121.23C80.9402 118.65 83.0202 116.46 84.9502 114.05V114.06Z" fill="#DD1C47"/>
<path d="M75.2197 124.51C74.6997 131.56 77.3897 134.48 83.8697 134.98C88.3497 135.33 92.7697 135.1 97.1697 134.18C97.9797 134.01 98.8297 134.05 99.9297 133.98C97.9997 136.2 95.4797 135.84 93.2697 136.2C87.9797 137.06 82.6797 137.22 77.7097 134.73C73.7897 132.77 72.6197 129.36 74.4697 125.72C74.5797 125.5 74.7297 125.29 75.2297 124.51H75.2197Z" fill="#DD1C47"/>
<path d="M75.2198 124.51C74.8398 128.42 75.8998 133.04 80.1698 134.21C85.2798 135.58 90.7798 135.12 95.9498 134.31C97.3298 133.97 98.7798 133.91 100.2 133.85C98.7398 135.88 96.1398 136.08 93.8598 136.24C90.2398 136.8 86.4598 137.19 82.8198 136.5C76.5098 135.49 70.5498 131.08 75.2198 124.51ZM75.2198 124.51C68.6098 134.88 84.3098 137.84 91.6398 136.33C94.3698 135.75 97.8698 136.27 99.8298 133.9L99.9298 134.1C97.2598 134.09 94.6898 134.88 92.0298 135.04C83.4998 135.49 74.0198 136.02 75.2198 124.51Z" fill="#DD1C47"/>
<path d="M92.54 100.28C95.06 101.11 96.14 103.21 96.92 105.42C97.8 107.95 98.42 110.57 99.11 113.17C99.81 115.77 100.57 118.34 101.75 120.77C102.92 123.19 104.34 125.45 105.95 127.63C103.69 126.58 102.24 124.77 101.14 122.6C99.27 118.9 98.14 114.94 97.08 110.96C96.08 107.21 94.8 103.56 92.54 100.29V100.28Z" fill="#DD1C47"/>
<path d="M92.54 100.28C95.17 101.05 96.46 103.71 97.22 106.13C98.85 111.05 99.62 116.28 101.96 120.95C103.18 123.42 104.69 125.74 106.35 127.94C97.44 124 98.29 107.8 92.54 100.28ZM92.54 100.28C97.93 107.71 97.39 117.9 102.98 125.2C103.81 126.17 104.84 126.98 106.01 127.51L105.86 127.7C102.72 123.53 100.4 118.77 99.17 113.69C98.49 111.18 97.91 108.64 97.11 106.17C96.39 103.74 95.16 101.09 92.54 100.28Z" fill="#DD1C47"/>
<path d="M138.39 125.49C125.92 121.08 119.82 110.14 112.23 100C114.76 100.77 115.87 102.42 116.98 104.06C119.43 107.67 121.73 111.39 124.67 114.65C128.06 118.42 131.81 121.75 136.33 124.14C137.06 124.52 137.71 125.04 138.39 125.5V125.49Z" fill="#DD1C47"/>
<path d="M138.39 125.49C126.21 121.44 119.39 109.8 112.13 100.07L111.9 99.7695L112.26 99.8695C115.44 100.73 116.93 103.88 118.66 106.37C120.37 108.94 122.09 111.51 124.09 113.86C126.11 116.19 128.29 118.39 130.69 120.33C133.03 122.37 135.87 123.69 138.38 125.48L138.39 125.49ZM138.39 125.49C135.85 123.73 133 122.45 130.62 120.44C128.2 118.51 126 116.31 123.97 113.98C120.92 110.47 118.59 106.43 115.86 102.69C114.93 101.47 113.66 100.54 112.19 100.12L112.33 99.9295C119.55 109.71 126.3 121.26 138.39 125.5V125.49Z" fill="#DD1C47"/>
<path d="M92.77 68.2295C99.64 66.2095 114.4 75.4895 117.35 83.7795C110.16 76.3895 103.27 69.4395 92.77 68.2295Z" fill="#DD1C47"/>
<path d="M92.77 68.2296C101.16 66.4396 114.54 75.9896 117.47 83.7296L117.68 84.2796L117.27 83.8496C110.55 76.7996 102.93 69.3296 92.78 68.2196L92.77 68.2296ZM92.77 68.2296C102.98 69.1596 110.68 76.6896 117.44 83.6896L117.23 83.8196C114.34 76.1296 101.13 66.6296 92.77 68.2296Z" fill="#DD1C47"/>
<path d="M154.79 189.98C154.67 182.58 167.12 171.86 175.97 171.96C167.1 176.43 158.08 179.8 154.79 189.98Z" fill="#DD1C47"/>
<path d="M154.79 189.98C155.24 181.3 167.61 171.9 175.97 171.84H176.49L176.02 172.08C167.64 176.13 157.75 180.31 154.78 189.99L154.79 189.98ZM154.79 189.98C157.58 180.21 167.57 175.96 175.91 171.85L175.96 172.08C167.66 172.12 155.4 181.38 154.78 189.97L154.79 189.98Z" fill="#DD1C47"/>
<path d="M78.6096 77.54V77.56H78.5996C78.5996 77.56 78.5996 77.54 78.6096 77.54Z" fill="#DD1C47"/>
<path d="M78.6097 77.5397C78.6097 77.5397 78.6897 77.5097 78.7297 77.5597L78.6097 77.6897C78.6097 77.6897 78.5497 77.5297 78.5397 77.4997C78.5797 77.4997 78.6197 77.5197 78.6097 77.5397ZM78.6097 77.5397C78.6097 77.5397 78.6197 77.6197 78.6597 77.6197L78.5997 77.4697V77.4297L78.4897 77.5597C78.5297 77.5997 78.5997 77.5897 78.6097 77.5397Z" fill="#DD1C47"/>
<path d="M96.1801 66.0395C93.6201 65.9595 91.6401 65.8395 89.7001 66.2695C84.5401 67.3895 81.4101 70.7895 79.4501 75.4695C79.1601 76.1595 78.8801 76.8395 78.6001 77.5295C78.2501 72.3195 81.0701 68.9595 85.2501 66.5695C88.5101 64.6995 91.9601 63.4295 96.1801 66.0295V66.0395Z" fill="#DD1C47"/>
<path d="M96.1802 66.0399C87.0302 65.2499 81.6902 68.9599 78.7102 77.5799L78.5102 78.0599L78.4702 77.5399C78.0202 73.1799 80.6702 69.1599 84.3402 67.0199C87.8802 64.6299 92.4002 63.3999 96.1702 66.0299L96.1802 66.0399ZM96.1802 66.0399C92.4602 63.5199 87.8802 64.7999 84.4402 67.1699C80.8202 69.3099 78.2902 73.2399 78.7202 77.5299L78.4902 77.4899C81.5002 68.8999 87.0202 65.0099 96.1802 66.0399Z" fill="#DD1C47"/>
<path d="M175.29 179.22C175.17 179.28 175.06 179.34 174.95 179.4C175.03 179.35 175.11 179.3 175.18 179.25C175.22 179.23 175.26 179.22 175.29 179.21V179.22Z" fill="#DD1C47"/>
<path d="M175.29 179.22C175.22 179.25 175.15 179.39 175.01 179.51L174.88 179.3C174.97 179.27 175.21 179.21 175.29 179.22ZM175.29 179.22C175.19 179.25 175.09 179.44 175.01 179.51C174.76 179.12 174.97 179.41 175.29 179.22Z" fill="#DD1C47"/>
<path d="M188.6 99.95C189.51 98.97 190.68 98.91 191.86 99.19C192.92 99.44 193.85 99.45 194.57 98.21C195.34 102.62 196.2 106.7 195.2 110.89C194.57 113.52 193.28 114.4 190.95 113.54C193.06 112.98 193.66 111.43 193.79 109.63C193.97 107.12 194.03 104.6 194.24 102.09C194.35 100.84 193.94 100.5 192.71 100.6C191.29 100.72 189.9 100.3 188.54 99.88L188.59 99.94L188.6 99.95Z" fill="#DD1C47"/>
<path d="M188.6 99.9498C189.35 99.0698 190.6 98.8698 191.69 99.1098C192.23 99.2298 192.79 99.3398 193.32 99.1998C193.91 99.0498 194.32 98.5398 194.61 98.0098C195.41 102.63 196.57 107.56 194.92 112.13C194.15 114.15 192.36 114.29 190.57 113.51L190.92 113.42C192.59 113.07 193.57 111.56 193.67 109.92L193.99 105.01C194 104.17 194.25 102.15 194.16 101.35C194.01 100.38 192.85 100.69 192.14 100.66C191 100.7 189.41 100.08 188.59 99.9398L188.6 99.9498ZM188.6 99.9498C189.43 100.06 191.01 100.66 192.15 100.59C192.89 100.58 194.14 100.3 194.29 101.34C194.39 102.18 194.16 104.17 194.15 105.04L193.86 109.96C193.79 111.65 192.71 113.3 190.98 113.66L190.99 113.44C192.51 114.08 194.1 113.71 194.7 112.06C196.34 107.61 195.27 102.77 194.51 98.2298L194.63 98.2498C194.07 99.3998 192.78 99.5598 191.67 99.1898C190.6 98.9198 189.37 99.0998 188.6 99.9598V99.9498Z" fill="#DD1C47"/>
<path d="M203.05 88.25C203.22 91.63 201.25 93.31 199.18 94.75C196.53 96.6 193.75 98.44 189.86 96.81C195.49 95.69 200.01 93.48 203.05 88.25Z" fill="#DD1C47"/>
<path d="M203.05 88.25C203.45 91.49 200.88 93.86 198.36 95.41C195.83 97.33 192.4 98.31 189.44 96.77L189.83 96.69C195.16 95.8 200.31 93.07 203.05 88.25ZM203.05 88.25C200.46 93.2 195.22 95.98 189.88 96.93L189.9 96.7C192.74 98.02 195.85 97.03 198.26 95.27C200.78 93.73 203.33 91.48 203.04 88.25H203.05Z" fill="#DD1C47"/>
<path d="M165.39 77.4004C169.48 78.7804 170.94 83.5304 169.45 89.5704C167.86 85.6204 168.99 80.9104 165.39 77.4004Z" fill="#DD1C47"/>
<path d="M165.39 77.4004C170.56 79.0604 170.69 85.5804 169.48 89.9704L169.34 89.6104C167.83 85.5704 168.73 80.6304 165.39 77.4004ZM165.39 77.4004C168.87 80.4804 168.02 85.5604 169.56 89.5204L169.33 89.5404C170.48 85.2604 170.27 79.1604 165.39 77.4004Z" fill="#DD1C47"/>
<path d="M204.55 88.7402C208.19 91.3402 209.33 94.1602 208.21 97.4102C207.37 94.4502 206.11 91.9002 204.55 88.7402Z" fill="#DD1C47"/>
<path d="M204.55 88.7402C207.65 90.6502 209.79 94.2202 208.2 97.8302C207.41 94.6502 205.91 91.7202 204.55 88.7402ZM204.55 88.7402C206.03 91.5102 207.44 94.3502 208.33 97.3802H208.1C209.49 93.9902 207.3 90.6502 204.55 88.7402Z" fill="#DD1C47"/>
<path d="M200.22 104.45C202.3 102.53 204.88 101.62 207.33 100.44C205.96 103.5 203.19 104.19 200.22 104.45Z" fill="#DD1C47"/>
<path d="M200.22 104.45C202.26 102.42 205.06 101.45 207.58 100.19C206.5 103.23 203.19 104.42 200.22 104.45ZM200.22 104.45C203.02 104.19 206.1 103.23 207.22 100.39L207.38 100.55C204.9 101.69 202.3 102.65 200.21 104.45H200.22Z" fill="#DD1C47"/>
<path d="M176.77 178.08C176.77 178.08 176.2 178.61 175.18 179.26C175.1 179.31 175.03 179.36 174.95 179.41C174.93 179.41 174.92 179.43 174.91 179.43C174.47 179.66 174.03 179.9 173.6 180.15C173.58 180.16 173.56 180.17 173.55 180.18C167.65 183.68 162.78 188.95 155.86 190.74C155.86 190.74 155.2 191.05 152.94 190.24C152.47 190.07 152.12 189.88 151.85 189.68C150.07 188.94 148.64 187.94 147.13 187.12C138.52 182.47 130.23 177.37 122.99 170.67C115.49 163.73 111.42 154.79 108.33 145.39C105.2 135.9 99.8001 127.94 93.2201 120.61C88.4901 115.35 83.6101 110.12 81.9101 102.95C81.1001 99.5298 79.9901 96.3098 78.5501 93.0798C76.4001 88.2698 75.1301 83.1098 78.7601 78.2098C78.8501 78.0898 78.6701 77.7798 78.6101 77.5598C79.0801 77.3998 79.4601 77.4898 79.4701 78.0598C79.5801 85.9398 83.9401 91.5798 89.2801 96.7198C89.9001 97.3198 90.3701 98.0898 90.7101 98.9198C84.8701 94.9998 80.5901 89.8798 78.4701 82.3498C77.7401 89.3598 80.6901 94.4698 84.2001 99.4598C83.3701 99.6898 82.2401 98.5298 82.6001 100.45C83.8001 106.97 87.7701 111.82 91.7501 116.74C96.4001 122.49 101.56 127.83 105.24 134.34C107.37 138.12 108.69 142.18 109.98 146.25C115.05 162.21 125.49 173.56 139.94 181.52C142.59 182.98 145.36 184.88 148.03 186.31C149.06 186.86 150.06 187.34 151.02 187.96C151.02 187.96 153.1 189.27 154.24 189.9C154.44 190.01 154.68 190.15 154.97 190.24H154.98C156.11 190.4 157.61 189.67 157.77 189.59C157.78 189.59 157.79 189.58 157.79 189.58C162.5 186.58 166.77 182.87 171.88 180.52C171.88 180.52 176.57 177.64 177.7 175.59C177.71 175.58 177.72 175.56 177.72 175.55C178.32 174.3 178.89 172.93 178.28 171.44C180.66 172.94 180.27 174.62 176.8 178.07L176.77 178.08Z" fill="#DD1C47"/>
<path d="M176.77 178.08C176.2 178.58 175.59 179.01 174.95 179.41C171.65 181.13 168.75 183.5 165.73 185.66C162.72 187.82 159.5 189.82 155.88 190.75C155.19 190.91 154.47 190.7 153.79 190.52C153.13 190.32 152.41 190.1 151.86 189.69C141.47 184.18 131.05 178.36 122.47 170.2C116 164.08 111.93 155.92 109.04 147.59C106.45 139.12 102.08 131.29 96.4401 124.47C90.9401 117.71 83.7201 111.58 81.7701 102.68C81.0801 99.8201 80.1401 97.0201 78.9901 94.3102C76.5501 89.3801 74.8901 83.0201 78.6001 78.2601L78.6801 78.1401C78.7001 77.9601 78.5501 77.7601 78.5201 77.5401V77.4601L78.5901 77.4401C78.8401 77.3601 79.2101 77.2901 79.4501 77.5801C79.6401 77.8701 79.5701 78.1701 79.6001 78.4201C79.7001 84.3401 82.7701 89.7201 86.7501 93.9501C88.2101 95.6601 90.2701 96.9801 90.9601 99.2301C87.9101 97.2301 85.1201 94.7801 82.9401 91.8401C80.8301 89.0101 79.3101 85.7601 78.3601 82.3801L78.5801 82.3601C77.7801 88.6701 80.7201 94.5701 84.3601 99.5301C83.9901 99.6701 83.5701 99.5701 83.2301 99.4801C82.9601 99.4201 82.6601 99.3401 82.6301 99.7101C83.0901 104.08 85.3601 108.12 87.8901 111.66C93.7801 119.87 101.47 126.81 106.12 135.89C108.42 140.42 109.57 145.41 111.41 150.12C115.04 159.56 121.28 167.96 129.17 174.28C133.07 177.52 137.44 180.09 141.84 182.6C146.11 185.32 150.6 187.68 154.95 190.23C155.88 190.32 156.9 189.98 157.75 189.57C162.46 186.58 166.74 182.86 171.85 180.52C173.46 179.5 175.06 178.39 176.45 177.07C177.93 175.71 179.01 173.42 178.25 171.44C181.57 173.28 178.55 176.32 176.78 178.08H176.77ZM176.77 178.08C178.49 176.33 181.57 173.29 178.24 171.46C178.53 172.08 178.58 172.89 178.43 173.58C177.75 176.94 174.47 178.75 171.85 180.54C166.75 182.89 162.47 186.6 157.76 189.61C156.9 190.02 155.89 190.38 154.92 190.28C146.27 185.16 137 180.59 129.1 174.35C121.19 168.03 114.93 159.62 111.27 150.16C109.43 145.45 108.27 140.48 105.97 135.95C101.32 126.89 93.6301 119.96 87.7201 111.76C85.1601 108.18 82.8501 104.12 82.4001 99.6801C82.5401 98.7901 83.6101 99.5401 84.1301 99.3601L84.0701 99.5201C80.3001 94.4301 77.3801 88.2301 78.3701 81.7501C79.3301 85.3201 80.8701 88.7401 83.0901 91.7001C85.1801 94.5101 87.8301 96.8701 90.7301 98.8102L90.5501 98.9601C89.8001 96.9401 87.8701 95.7302 86.5301 94.1101C82.5301 89.8501 79.4301 84.4001 79.3401 78.4301C79.3201 78.1601 79.3501 77.8801 79.2301 77.7201C79.1101 77.5601 78.8401 77.5801 78.6101 77.6601C78.6101 77.6601 78.6901 77.5401 78.6801 77.5601C78.7201 77.6501 78.8001 77.8501 78.8501 78.0701C78.8901 78.1701 78.7901 78.3001 78.7301 78.3901C75.0601 83.1201 76.7001 89.3202 79.1201 94.2402C81.5901 99.6002 81.9501 105.76 85.3201 110.72C88.4401 115.73 92.8201 119.78 96.5101 124.38C100.22 128.96 103.51 133.92 105.96 139.29C108.43 144.65 109.79 150.45 112.41 155.75C119.75 172.36 136.57 181.42 151.83 189.66C152.99 190.37 154.47 190.88 155.83 190.72C159.45 189.79 162.67 187.8 165.68 185.64C168.7 183.49 171.61 181.12 174.91 179.4C175.55 179 176.17 178.57 176.73 178.08H176.77Z" fill="#DD1C47"/>
<path d="M86.3599 86.6296C90.1799 81.9996 97.2599 82.4496 101.02 86.9196C101.53 87.4896 102.04 88.0596 102.51 88.6696C101.85 88.2696 101.23 87.8196 100.6 87.3796C96.3099 83.9396 90.9999 83.6496 86.3599 86.6296Z" fill="#DD1C47" stroke="#DD1C47" stroke-width="0.25" stroke-miterlimit="10"/>
<path d="M174.91 179.43C174.53 179.66 174.09 179.91 173.6 180.15C174.03 179.9 174.47 179.65 174.91 179.43Z" fill="#DD1C47"/>
<path d="M174.91 179.43C174.52 179.63 174.13 179.97 173.66 180.27L173.54 180.05C174.04 179.81 174.53 179.66 174.91 179.43ZM174.91 179.43C174.42 179.69 174.04 180.02 173.67 180.26L173.55 180.04C173.95 179.86 174.43 179.71 174.91 179.43Z" fill="#DD1C47"/>
</g>
<defs>
<clipPath id="clip0_1878_6539">
<rect width="165.2" height="129.8" fill="white" transform="translate(44 61)"/>
</clipPath>
</defs>
</svg>
