<svg width="253" height="253" viewBox="0 0 253 253" fill="none" xmlns="http://www.w3.org/2000/svg">
<path d="M197.42 141.3H192.11C191.94 141.3 191.77 141.23 191.65 141.11C191.53 140.99 191.46 140.82 191.46 140.65C191.5 134.94 191.49 130.16 191.43 125.14C191.43 124.97 191.5 124.8 191.62 124.68C191.74 124.56 191.91 124.49 192.08 124.49L197.18 124.47C197.54 124.47 197.83 124.76 197.83 125.11L197.93 134.09C197.93 134.77 197.94 135.15 197.94 135.21C197.94 136.09 197.97 136.99 198 137.91C198.03 138.83 198.07 139.75 198.07 140.65C198.07 141.01 197.78 141.3 197.42 141.3ZM192.76 140H196.77C196.77 139.32 196.73 138.64 196.71 137.96C196.67 137.03 196.64 136.1 196.64 135.2C196.64 135.13 196.64 134.77 196.63 134.1L196.54 125.76H192.74C192.79 130.37 192.8 134.81 192.77 140H192.76Z" fill="#DD1C47"/>
<path d="M60.3999 141.44H55.2699C54.9099 141.44 54.6199 141.15 54.6199 140.8C54.6099 139.59 54.5999 138.83 54.5899 138.03C54.5799 137.33 54.5699 136.6 54.5599 135.51L54.5299 132.71C54.5299 131.96 54.5199 131.54 54.5199 131.47C54.5199 130.58 54.4799 129.61 54.4399 128.68C54.3799 127.38 54.3199 126.04 54.3999 124.88C54.4199 124.54 54.7099 124.28 55.0499 124.28L60.3599 124.26C60.5499 124.26 60.7299 124.34 60.8499 124.49C60.9699 124.63 61.0299 124.82 60.9999 125.01C60.8799 125.8 60.9099 126.41 60.9399 127.12C60.9599 127.49 60.9699 127.87 60.9699 128.3C60.9699 131.13 60.9699 134.06 60.9999 136.92C60.9999 138 61.0199 138.53 61.0299 139.12L61.0499 140.79C61.0499 140.96 60.9799 141.13 60.8599 141.25C60.7399 141.37 60.5699 141.44 60.3999 141.44ZM55.9199 140.14H59.7499V139.13C59.7299 138.54 59.7199 138.01 59.7099 136.92C59.6899 134.05 59.6699 131.12 59.6799 128.29C59.6799 127.88 59.6599 127.52 59.6499 127.17C59.6299 126.64 59.5999 126.13 59.6499 125.56H55.6799C55.6599 126.5 55.6999 127.53 55.7499 128.61C55.7899 129.56 55.8399 130.54 55.8299 131.47C55.8299 131.54 55.8299 131.94 55.8399 132.68L55.8699 135.48C55.8799 136.57 55.8899 137.3 55.8999 138C55.8999 138.65 55.9199 139.28 55.9299 140.14H55.9199Z" fill="#DD1C47"/>
<path d="M211.82 121.83C211.81 121.72 211.8 121.61 211.79 121.52C211.54 118.43 208.91 118.21 204.62 118.21C202.42 118.21 200.18 118.23 198.02 118.25C195.86 118.27 193.63 118.3 191.43 118.3H180.15C179.06 118.26 173.36 118.25 162.23 118.25C162.16 118.25 156.16 118.33 150.14 118.33C147.99 118.33 146.08 118.32 144.45 118.3C141.74 118.26 138.3 118.25 134.25 118.25C129.9 118.25 126.45 118.27 126.45 118.27H109.5C102.37 118.27 94.9098 118.26 93.6398 118.23C92.5498 118.19 91.1698 118.17 89.4498 118.17C86.3898 118.17 82.7498 118.23 79.5298 118.28C76.8598 118.32 74.3498 118.36 72.6098 118.36C71.6798 118.36 71.0098 118.36 70.6198 118.33H52.7198C52.1398 118.33 51.5098 118.3 50.8898 118.27C50.2498 118.24 49.5798 118.22 48.9398 118.22C48.4498 118.22 47.8998 118.21 47.3298 118.2C46.6898 118.2 46.0098 118.19 45.3398 118.19C43.8298 118.19 42.7298 118.23 41.8798 118.31C40.4098 118.44 39.7198 119.34 39.8298 120.97C39.8298 121.11 39.8498 121.26 39.8398 121.41C39.8298 121.76 39.7998 121.99 39.7698 122.21C39.6998 122.73 39.6698 123.11 39.7898 123.96C39.9998 125.76 41.7598 125.78 42.6098 125.8H43.0398C43.5698 125.8 44.0998 125.8 44.6298 125.78C44.9598 125.77 45.2798 125.77 45.6198 125.77C48.9298 125.73 52.3798 125.71 56.4798 125.71C59.5898 125.71 62.6898 125.72 65.8398 125.73L70.4198 125.75C72.5798 125.73 74.4698 125.72 76.1798 125.72C79.0598 125.72 81.4198 125.74 83.5998 125.76C85.4698 125.77 87.2198 125.79 89.0398 125.79C91.1798 125.79 93.1698 125.77 95.2998 125.73C101.39 125.61 107.62 125.61 113.65 125.6C116.71 125.6 119.78 125.59 122.83 125.58C124.08 125.58 125.32 125.57 126.56 125.56C126.69 125.56 141.84 125.73 146.51 125.83C147.05 125.85 147.67 125.85 148.34 125.85C153.58 125.85 162.34 125.54 162.43 125.53H164.42L166.39 125.51H166.77C168.4 125.5 171.06 125.56 173.63 125.62C176.23 125.67 178.68 125.73 180.23 125.73H181.77C184.15 125.73 186.52 125.73 188.9 125.75C191.34 125.76 193.78 125.77 196.21 125.78C198.08 125.78 199.95 125.79 201.82 125.81L207.43 125.84C208.53 125.84 209.39 125.73 210.05 125.52C212.22 125.04 211.92 122.63 211.82 121.83ZM209.71 124.27C209.21 124.44 208.48 124.54 207.43 124.54C203.69 124.53 199.95 124.49 196.21 124.48C191.4 124.46 186.58 124.45 181.77 124.43H180.23C177.12 124.43 170.03 124.2 166.77 124.2C166.63 124.2 166.5 124.2 166.38 124.21C165.05 124.22 163.71 124.23 162.38 124.24C162.38 124.24 153.61 124.55 148.34 124.55C147.68 124.55 147.07 124.55 146.54 124.55C141.8 124.44 126.55 124.27 126.55 124.27C125.31 124.28 124.07 124.29 122.82 124.29C113.66 124.34 104.43 124.27 95.2698 124.44C92.9498 124.48 90.9498 124.5 89.0398 124.5C85.0998 124.5 81.5298 124.43 76.1798 124.43C74.4698 124.43 72.5698 124.43 70.4198 124.46C65.6898 124.44 61.0898 124.42 56.4798 124.42C52.8898 124.42 49.2898 124.44 45.5998 124.48C44.7398 124.48 43.8998 124.51 43.0398 124.51H42.6198C41.0398 124.49 41.1198 124.15 41.0698 123.8C40.9098 122.63 41.0898 122.63 41.1398 121.46C41.1698 120.55 40.7798 119.73 41.9998 119.62C42.9498 119.52 44.1398 119.5 45.3398 119.5C46.6098 119.5 47.8998 119.53 48.9398 119.53C50.1598 119.53 51.4998 119.64 52.7198 119.64H70.5398C70.9898 119.66 71.6998 119.67 72.6098 119.67C76.4598 119.67 83.8698 119.48 89.4498 119.48C91.0198 119.48 92.4398 119.5 93.5998 119.54C94.8198 119.57 101.42 119.58 109.5 119.58H126.45C126.45 119.58 129.91 119.56 134.25 119.56C137.5 119.56 141.26 119.57 144.43 119.61C146.22 119.63 148.19 119.64 150.14 119.64C156.24 119.64 162.23 119.56 162.23 119.56C171.22 119.56 178.84 119.57 180.15 119.61H191.43C195.83 119.61 200.22 119.52 204.62 119.52C209.39 119.52 210.35 119.93 210.49 121.65C210.56 122.45 210.95 124.04 209.71 124.28V124.27Z" fill="#DD1C47"/>
<path d="M209.71 124.269C209.21 124.439 208.48 124.539 207.43 124.539C203.69 124.529 199.95 124.489 196.21 124.479C191.4 124.459 186.58 124.449 181.77 124.429H180.23C177.12 124.429 170.03 124.199 166.77 124.199C166.63 124.199 166.5 124.199 166.38 124.209C165.05 124.219 163.71 124.229 162.38 124.239C162.38 124.239 153.61 124.549 148.34 124.549C147.68 124.549 147.07 124.549 146.54 124.549C141.8 124.439 126.55 124.269 126.55 124.269C125.31 124.279 124.07 124.289 122.82 124.289C113.66 124.339 104.43 124.269 95.2698 124.439C92.9498 124.479 90.9498 124.499 89.0398 124.499C85.0998 124.499 81.5298 124.429 76.1798 124.429C74.4698 124.429 72.5698 124.429 70.4198 124.459C65.6898 124.439 61.0898 124.419 56.4798 124.419C52.8898 124.419 49.2898 124.439 45.5998 124.479C44.7398 124.479 43.8998 124.509 43.0398 124.509H42.6198C41.0398 124.489 41.1198 124.149 41.0698 123.799C40.9098 122.629 41.0898 122.629 41.1398 121.459C41.1698 120.549 40.7798 119.729 41.9998 119.619C42.9498 119.519 44.1398 119.499 45.3398 119.499C46.6098 119.499 47.8998 119.529 48.9398 119.529C50.1598 119.529 51.4998 119.639 52.7198 119.639H70.5398C70.9898 119.659 71.6998 119.669 72.6098 119.669C76.4598 119.669 83.8698 119.479 89.4498 119.479C91.0198 119.479 92.4398 119.499 93.5998 119.539C94.8198 119.569 101.42 119.579 109.5 119.579H126.45C126.45 119.579 129.91 119.559 134.25 119.559C137.5 119.559 141.26 119.569 144.43 119.609C146.22 119.629 148.19 119.639 150.14 119.639C156.24 119.639 162.23 119.559 162.23 119.559C171.22 119.559 178.84 119.569 180.15 119.609H191.43C195.83 119.609 200.22 119.519 204.62 119.519C209.39 119.519 210.35 119.929 210.49 121.649C210.56 122.449 210.95 124.039 209.71 124.279V124.269Z" fill="#FCE5EE"/>
<path d="M211.89 143.2C211.85 142.93 211.8 142.71 211.73 142.45C211.69 142.27 211.64 142.05 211.58 141.77C211.44 141.09 210.99 140.5 210.36 140.16L210.07 140H209.74L155.04 139.8H155.03C154.06 139.81 152.52 139.82 150.84 139.84C147.91 139.88 144.6 139.91 142.95 139.91C142.86 139.91 135.46 140 133.01 140H122.84C116.42 140 104.98 140.03 104.98 140.03C101.11 140.03 97.23 140.03 93.37 140.05C92.02 140.06 90.68 140.06 89.33 140.07C88.02 140.08 86.71 140.09 85.39 140.1H84.98C83.35 140.1 80.79 140.04 78.75 140H41.66L41.38 140.13C41.02 140.31 40.73 140.58 40.5 140.93L40.29 141.25V146.26L40.67 146.64C41.27 147.24 42.07 147.38 42.7 147.43H46C46.37 147.41 46.76 147.4 47.18 147.4C51.09 147.35 55.72 147.31 60.35 147.31H71.63C72.95 147.35 80.88 147.36 89.26 147.36H104.89C104.98 147.36 111.03 147.26 117.25 147.26C119.78 147.26 122.01 147.27 123.88 147.31C125.72 147.34 127.8 147.35 130.07 147.35C135.89 147.35 141.12 147.25 141.17 147.25C149.86 147.25 156.46 147.36 157.75 147.4C158.17 147.42 158.65 147.44 159.16 147.44H165.71C167.66 147.41 169.64 147.38 171.51 147.35C174.22 147.31 176.78 147.27 178.58 147.27H179.59C180.09 147.28 180.5 147.29 180.78 147.3H202.35C203.01 147.31 203.78 147.33 204.59 147.35C205.49 147.38 206.43 147.4 207.32 147.4C208.21 147.4 208.93 147.38 209.52 147.32C210.89 147.18 211.77 146.23 211.9 144.78V143.2H211.89ZM210.59 144.67C210.55 145.13 210.37 145.93 209.38 146.03C208.78 146.08 208.07 146.1 207.31 146.1C205.64 146.1 203.75 146.01 202.34 146.01H180.84C180.55 145.99 180.12 145.98 179.6 145.97H178.57C175.52 145.97 170.45 146.08 165.7 146.14H159.15C158.66 146.14 158.2 146.13 157.78 146.11C156.49 146.07 149.96 145.95 141.14 145.95C141.14 145.95 135.94 146.05 130.06 146.05C128.03 146.05 125.91 146.05 123.89 146.01C121.83 145.97 119.52 145.96 117.24 145.96C110.94 145.96 104.88 146.06 104.88 146.06H89.25C80.39 146.06 72.92 146.05 71.62 146.01H60.34C55.93 146.01 51.55 146.05 47.15 146.1C46.42 146.1 45.78 146.13 45.2 146.14H42.8C42.21 146.09 41.82 145.97 41.58 145.73V141.64C41.67 141.5 41.79 141.38 41.95 141.3H78.71C81.09 141.35 83.44 141.4 84.97 141.4H85.39C88.05 141.38 90.7 141.37 93.36 141.35C97.22 141.33 101.1 141.33 104.97 141.33C104.97 141.33 116.42 141.3 122.83 141.3H133C135.49 141.3 142.94 141.21 142.94 141.21C145.56 141.21 152.4 141.12 155.03 141.1L209.72 141.3C210.03 141.47 210.23 141.75 210.29 142.04C210.43 142.71 210.54 143.02 210.59 143.38V144.67Z" fill="#DD1C47"/>
<path d="M210.6 143.38V144.67C210.56 145.13 210.38 145.93 209.39 146.03C208.79 146.08 208.08 146.1 207.32 146.1C205.65 146.1 203.76 146.01 202.35 146.01H180.85C180.56 145.99 180.13 145.98 179.61 145.97H178.58C175.53 145.97 170.46 146.08 165.71 146.14H159.16C158.67 146.14 158.21 146.13 157.79 146.11C156.5 146.07 149.97 145.95 141.15 145.95C141.15 145.95 135.95 146.05 130.07 146.05C128.04 146.05 125.92 146.05 123.9 146.01C121.84 145.97 119.53 145.96 117.25 145.96C110.95 145.96 104.89 146.06 104.89 146.06H89.2603C80.4003 146.06 72.9303 146.05 71.6303 146.01H60.3503C55.9403 146.01 51.5603 146.05 47.1603 146.1C46.4303 146.1 45.7903 146.13 45.2103 146.14H42.8103C42.2203 146.09 41.8303 145.97 41.5903 145.73V141.64C41.6803 141.5 41.8003 141.38 41.9603 141.3H78.7203C81.1003 141.35 83.4503 141.4 84.9803 141.4H85.4003C88.0603 141.38 90.7103 141.37 93.3703 141.35C97.2303 141.33 101.11 141.33 104.98 141.33C104.98 141.33 116.43 141.3 122.84 141.3H133.01C135.5 141.3 142.95 141.21 142.95 141.21C145.57 141.21 152.41 141.12 155.04 141.1L209.73 141.3C210.04 141.47 210.24 141.75 210.3 142.04C210.44 142.71 210.55 143.02 210.6 143.38Z" fill="#FCE5EE"/>
<path d="M63.2102 217.52C62.8402 217.07 62.3402 216.82 61.7902 216.82H60.9602C60.9102 215.73 60.9802 214.25 61.0402 212.94L61.0602 212.5C61.1102 211.51 61.1602 210.48 61.1502 209.65C61.1502 209.57 61.1502 209.11 61.1602 208.26V205.6C61.1902 202.74 61.2002 199.93 61.2102 197.23V196.77C61.2102 196.77 61.2202 196.72 61.2202 196.71C61.0202 172.23 61.0702 154.43 61.0702 152.48V146.79C61.0702 146.64 61.0102 146.47 60.9002 146.35C60.7702 146.23 60.6102 146.16 60.4502 146.16H55.2402C55.0802 146.16 54.9102 146.23 54.8002 146.35C54.6802 146.48 54.6102 146.64 54.6102 146.79C54.6602 155.85 54.6702 173.54 54.5202 193.62L54.4802 196.12V197.48C54.4702 198.76 54.4602 200.09 54.4602 201.95C54.4602 202.14 54.4702 202.51 54.4802 202.96V203.41C54.4902 203.75 54.5002 204.11 54.5102 204.48C54.5102 204.85 54.5202 205.23 54.5302 205.58C54.5502 207.72 54.5402 208.96 54.5302 209.55V213.14C54.5502 214.31 54.5602 215.54 54.5702 216.82H53.6102C52.5602 216.82 51.7002 217.78 51.7002 218.97C51.7002 219.51 51.8802 220.03 52.2102 220.42C52.5602 220.86 53.0702 221.12 53.6102 221.12H61.7902C62.8402 221.12 63.7002 220.15 63.7002 218.97C63.7002 218.43 63.5202 217.91 63.2102 217.52ZM61.7902 220.15H53.6102C53.3702 220.15 53.1302 220.02 52.9502 219.81C52.7702 219.58 52.6802 219.28 52.6802 218.97C52.6802 218.31 53.0902 217.78 53.6102 217.78H55.4502C55.5302 217.78 55.6102 217.74 55.6602 217.68C55.8302 217.5 55.8402 217.07 55.8102 216.75C55.8002 216.14 55.8002 215.54 55.8002 214.95C55.8002 214.33 55.7902 213.72 55.7902 213.12L55.7702 210.07V209.94C55.7802 209.54 55.8002 208.3 55.7702 205.57C55.7702 205.09 55.7602 204.57 55.7502 204.06C55.7502 203.83 55.7502 203.6 55.7502 203.38C55.7202 202.67 55.7202 202.17 55.7202 201.94C55.7202 199.39 55.7302 197.93 55.7502 196.13L55.7702 193.64C55.9202 173.75 55.9202 156.34 55.8702 147.42H59.8402C59.8302 148.09 59.8302 148.3 59.8302 149.24V152.48C59.8102 167.27 59.8602 182.12 59.9902 196.64C59.9802 196.67 59.9802 196.7 59.9802 196.76C59.9702 198.15 59.9702 199.56 59.9602 200.99C59.9502 202.51 59.9402 204.04 59.9402 205.6L59.9202 208.25C59.9102 209.12 59.9102 209.58 59.9102 209.66C59.9202 210.61 59.8602 211.87 59.8102 212.88C59.7302 214.37 59.6602 215.92 59.7302 217.06C59.7302 217.06 59.7302 217.12 59.7402 217.2C59.7802 217.55 59.9402 217.74 60.2002 217.77H61.8002C62.0502 217.78 62.2802 217.9 62.4602 218.12C62.6402 218.35 62.7402 218.64 62.7402 218.97C62.7402 219.62 62.3202 220.15 61.8002 220.15H61.7902Z" fill="#DD1C47"/>
<path d="M199.97 217.67C199.59 217.2 199.08 216.95 198.52 216.95H197.74C197.7 215.87 197.76 214.37 197.83 213.04V212.89C197.89 211.73 197.93 210.63 197.92 209.73C197.92 209.66 197.92 209.22 197.93 208.43V205.71C197.96 202.73 197.97 199.8 197.98 197V196.96C197.98 196.96 197.99 196.9 197.99 196.88C197.78 172.57 197.81 153.4 197.85 146.65C197.85 146.47 197.78 146.3 197.65 146.17C197.53 146.05 197.36 145.98 197.18 145.98H192.21C192.02 145.98 191.85 146.05 191.72 146.18C191.59 146.33 191.52 146.5 191.54 146.66C191.58 153.57 191.61 171.28 191.44 193.86V195.03C191.4 198.46 191.37 202 191.34 205.61C191.32 207.79 191.41 209.49 191.44 210.04L191.47 213.17C191.47 213.81 191.47 214.47 191.48 215.14C191.48 215.74 191.48 216.34 191.48 216.96H190.58C189.5 216.96 188.63 217.95 188.63 219.16C188.63 219.72 188.81 220.24 189.14 220.65C189.49 221.1 190.03 221.36 190.58 221.36H198.51C199.59 221.36 200.46 220.37 200.46 219.16C200.46 218.61 200.28 218.08 199.96 217.68L199.97 217.67ZM192.82 214.56C192.82 214.09 192.82 213.62 192.82 213.16L192.8 210.18V209.96C192.76 209.42 192.66 207.75 192.69 205.62C192.73 202.01 192.76 198.48 192.78 195.05V193.86C193 167.74 192.91 149.92 192.9 147.32H196.53C196.47 156.53 196.49 175.87 196.66 196.85C196.66 196.88 196.66 196.91 196.66 196.92V197.72C196.65 200.34 196.64 203 196.62 205.71V208.43C196.6 209.23 196.6 209.67 196.6 209.75C196.61 210.59 196.57 211.63 196.52 212.73V212.98C196.44 214.37 196.37 215.95 196.43 217.09V217.19C196.43 217.33 196.45 217.47 196.5 217.59V217.63L196.53 217.66C196.63 217.86 196.84 218.07 197.26 218.02H198.55C198.79 218.02 199 218.13 199.17 218.34C199.34 218.56 199.44 218.86 199.44 219.15C199.44 219.77 199.04 220.28 198.55 220.28H190.62C190.39 220.28 190.16 220.16 190 219.96C189.82 219.75 189.72 219.47 189.72 219.15C189.72 218.53 190.12 218.02 190.61 218.02H192.18C192.56 218.02 192.81 217.76 192.85 217.31V217.24C192.85 216.33 192.85 215.44 192.85 214.57L192.82 214.56Z" fill="#DD1C47"/>
<path d="M115.84 55.0099V54.5399C115.83 54.1699 115.82 53.8699 115.81 53.5699C115.72 51.5999 115.61 49.6799 115.18 47.7799C115.08 47.3299 114.93 46.8999 114.79 46.4799C114.74 46.3199 114.68 46.1699 114.63 46.0099C114.43 45.4199 114.2 44.7399 113.86 44.1099C112.78 42.1299 111.28 40.3199 109.27 38.5499C107.19 36.7299 104.79 35.2999 101.92 34.1899C101.05 33.8299 99.6799 33.4299 99.0999 33.2599L98.9299 33.2099L98.8399 33.1899C98.5899 33.1299 98.3399 33.0699 98.0899 33.0099C97.7199 32.9199 97.34 32.8299 96.9699 32.7499C95.18 32.3899 93.58 32.2099 92.08 32.1799C90.57 32.1499 89.0599 32.2899 87.5899 32.4199L86.83 32.4899C85.08 32.6399 83.3599 33.0799 81.5699 33.8099C79.8899 34.4899 78.2699 35.4099 76.7499 36.5599C74.1199 38.5299 71.8999 41.0799 70.1499 44.1399C69.0299 46.0799 68.1899 48.2099 67.5699 50.6499C67.2299 51.9799 67.0399 53.2899 66.9899 54.6799C66.9199 56.5899 66.9499 58.3299 67.0899 59.9799C67.2599 62.0299 67.4799 64.0399 68.2099 65.9899C69.0599 68.2599 70.2499 70.1499 71.8399 71.7599C73.2299 73.1799 74.88 74.3599 76.87 75.3599C79.35 76.5899 81.4599 77.4199 83.5299 77.9799C85.8699 78.6099 88.1899 78.9299 90.4499 78.9299C90.5699 78.9299 90.6899 78.9299 90.8099 78.9299C92.8899 78.8999 94.7699 78.8299 96.6299 78.3299L97.01 78.2299C97.7 78.0499 98.3999 77.8699 99.0999 77.6599C100.82 77.1499 102.12 76.6799 103.3 76.1499C104.86 75.4399 106.27 74.4299 107.48 73.5399C108.6 72.7099 109.69 71.8699 110.58 70.8199C111.79 69.3899 112.69 67.7499 113.33 66.4799C113.98 65.1999 114.63 63.8099 115.04 62.2999C115.82 59.3999 116.08 57.0799 115.85 55.0099H115.84ZM88.94 77.6699C86.67 77.5199 84.3099 77.0199 81.9199 76.1799C77.3199 74.5699 73.8999 72.2299 71.4599 69.0399C70.2499 67.4599 69.3999 65.6399 68.9299 63.6399C68.2799 60.8299 68.0799 57.7199 68.2899 53.8699C68.3599 52.6699 68.67 51.4699 69.01 50.3599C69.49 48.7299 70.0299 47.0099 70.8999 45.4499C73.1499 41.3499 75.9299 38.4399 79.3999 36.5499C81.3399 35.4899 82.99 34.8199 84.58 34.4299C86.42 33.9799 88.1399 33.7599 89.7699 33.7599C90.4499 33.7599 91.1099 33.7999 91.7699 33.8699C92.3299 33.9399 92.8999 33.9999 93.4599 34.0699C94.3599 34.1699 95.2999 34.2799 96.2099 34.3999C96.4099 34.4199 96.6099 34.4699 96.8099 34.5099C96.8999 34.5299 96.9999 34.5499 97.0899 34.5699C97.1099 34.5699 97.14 34.5699 97.16 34.5799C97.18 34.5799 97.1899 34.5799 97.2099 34.5799C98.4099 34.8099 99.6499 35.1399 100.29 35.3199H100.31C100.45 35.3799 100.58 35.4299 100.72 35.4899L100.91 35.5599C105.4 37.2599 108.62 39.3899 111.04 42.2699C112.2 43.6399 113 45.0399 113.51 46.5499V46.5699L113.55 46.6599C113.6 46.7899 113.71 47.0999 113.79 47.3299C113.8 47.3499 113.81 47.3799 113.82 47.4199L113.84 47.4699C113.92 47.7699 113.97 48.0499 114.02 48.3199C114.04 48.4199 114.06 48.5299 114.08 48.6299C114.49 50.8099 114.6 53.0299 114.71 55.1899C114.8 57.0699 114.45 58.9199 114.08 60.6499C113.53 63.2499 112.4 65.8599 110.6 68.6399C109.75 69.9499 108.58 71.1199 106.81 72.4099C105.16 73.6399 103.73 74.5099 102.33 75.1799C101.05 75.7799 99.68 76.2699 98.16 76.6799L97.8399 76.7699C96.9299 77.0199 95.9899 77.2799 95.0299 77.4099C92.7599 77.7099 90.7699 77.7999 88.9299 77.6699H88.94Z" fill="#DD1C47"/>
<path d="M112.76 53.7996C112.7 52.4796 112.6 51.4696 112.44 50.5196L112.41 50.3196C112.41 50.3196 112.41 50.2996 112.41 50.2596V50.1996C112.41 50.1996 112.39 50.1396 112.38 50.1396V50.1096C112.26 49.4396 112.13 49.0596 112.13 49.0496C112.02 48.5996 111.93 48.2196 111.85 47.8396C111.23 45.3296 109.94 43.0896 108 41.1896C106.85 40.0596 105.45 39.2496 104.12 38.5096C102.47 37.6096 100.49 36.6296 98.3099 36.1996C97.4699 36.0096 96.6099 35.8696 95.8199 35.8096L95.3199 35.7696C94.2199 35.6896 93.0999 35.6696 92.0199 35.6496C91.6199 35.6496 91.2199 35.6396 90.8299 35.6296C88.5099 35.5696 86.1699 36.0896 83.4799 37.2796C81.6499 38.0796 79.9099 39.1396 78.3099 40.4296C76.1399 42.1696 74.4699 43.9196 73.2099 45.7596C72.1599 47.2696 71.4899 48.9796 70.9499 50.4596C70.2299 52.4296 69.8599 54.4196 69.8599 56.3796C69.8599 58.4796 70.0699 60.6296 70.4599 62.7596C70.8199 64.6596 71.6199 66.3996 72.8499 67.9196C73.8099 69.1296 75.0399 70.0196 76.1299 70.7596C77.7099 71.8596 79.3799 72.7496 81.0999 73.4096C82.5599 73.9696 84.1299 74.3996 85.7499 74.6796L85.8999 74.7096C86.7099 74.8596 87.5399 75.0096 88.3799 75.0296C89.4299 75.0496 90.4099 75.0696 91.3599 75.0696C93.0599 75.0696 94.6499 75.0196 96.2399 74.8896C97.6799 74.7796 98.9199 74.5696 100.04 74.2396C102.36 73.5796 104.52 72.4896 106.44 71.0196C109.46 68.7096 111.34 65.5396 112.21 61.3296C112.69 58.9296 112.87 56.4696 112.75 53.7896L112.76 53.7996ZM110.99 60.7996C110.54 63.1096 109.8 65.0496 108.71 66.7396C107.1 69.2496 104.73 71.0696 101.23 72.4696C98.2999 73.6596 95.1699 73.8496 92.2299 73.8696C89.9999 73.8996 87.7899 73.7196 85.6699 73.3396C84.3099 73.0796 82.7099 72.7196 81.1699 72.0496C79.4299 71.2896 77.7099 70.3196 76.0399 69.1396C74.3699 67.9496 73.2399 66.6196 72.5999 65.0896C71.6399 62.7996 71.3499 60.4196 71.2099 58.6096C70.9799 55.9996 71.2599 53.5396 72.0199 51.2996C72.6999 49.3596 73.5099 47.3296 74.9199 45.5996C77.7699 42.0596 81.1999 39.4996 85.1199 37.9896C86.2599 37.5496 87.1999 37.2796 88.0999 37.1196C89.3099 36.9196 90.5199 36.8596 91.6499 36.8596C92.5499 36.8596 93.3999 36.8996 94.1499 36.9496H94.2099C94.3399 36.9596 94.4799 36.9696 94.6099 36.9796C95.2999 37.0396 96.0299 37.1096 96.0999 37.1196C96.2099 37.1396 96.2899 37.1396 96.3699 37.1496C96.4299 37.1496 96.4799 37.1496 96.5399 37.1696C98.1099 37.3396 99.5499 37.8496 100.63 38.2696C102.26 38.8896 103.76 39.7596 105.15 40.5996C107.67 42.1196 109.4 44.4396 110.47 47.6896C110.57 47.9896 110.66 48.2996 110.75 48.6196C110.8 48.8096 110.86 48.9996 110.92 49.1896V49.2996H110.96C111 49.4596 111.04 49.6496 111.07 49.8496C111.11 50.0396 111.14 50.2396 111.17 50.4096C111.23 50.7296 111.25 50.9796 111.26 50.9896C111.26 51.0296 111.28 51.0696 111.28 51.1096V51.1696C111.35 51.8296 111.41 52.4496 111.45 53.0996C111.62 55.9496 111.47 58.4696 111.02 60.7996H110.99Z" fill="#DD1C47"/>
<path d="M111.1 60.8297C110.69 62.9697 109.98 64.9897 108.8 66.8197C106.99 69.6597 104.3 71.3797 101.27 72.5997C98.3697 73.7697 95.2997 73.9797 92.2197 74.0097C90.0097 74.0397 87.8197 73.8697 85.6397 73.4797C84.0797 73.1897 82.5597 72.8097 81.1197 72.1797C79.2997 71.3897 77.5897 70.3997 75.9697 69.2597C74.4597 68.1897 73.2097 66.8797 72.4797 65.1497C71.5997 63.0597 71.2497 60.8697 71.0697 58.6297C70.8597 56.1297 71.0697 53.6697 71.8897 51.2697C72.5997 49.2197 73.4397 47.2297 74.8097 45.5297C77.5697 42.1097 80.9297 39.4697 85.0597 37.8797C86.0397 37.4997 87.0397 37.1797 88.0697 37.0097C90.0997 36.6797 92.1397 36.7097 94.1797 36.8397C94.1797 36.8397 94.1863 36.8397 94.1997 36.8397C94.3297 36.8397 94.4697 36.8397 94.5997 36.8597C95.2997 36.9097 96.0397 36.9997 96.0897 37.0097C96.2797 37.0397 96.3797 37.0397 96.5197 37.0597C97.9597 37.2197 99.2997 37.6497 100.64 38.1597C102.24 38.7697 103.72 39.6197 105.18 40.4997C107.94 42.1697 109.57 44.6597 110.55 47.6597C110.71 48.1497 110.84 48.6497 111 49.1797C111.05 49.3497 111.09 49.5797 111.14 49.8197C111.18 50.0097 111.21 50.2097 111.24 50.3897C111.29 50.7197 111.32 50.9697 111.32 50.9697C111.32 51.0197 111.34 51.0597 111.34 51.1097C111.4 51.7797 111.48 52.4397 111.51 53.1097C111.66 55.7097 111.57 58.2797 111.07 60.8397L111.1 60.8297Z" fill="#FCE5EE"/>
<path d="M100.16 46.4501C100 46.3201 99.75 46.3601 99.59 46.4001C98.93 46.5701 98.32 46.8601 97.72 47.1401C97.7 47.1401 97.68 47.1601 97.68 47.1601C97.68 47.1601 97.67 47.1601 97.64 47.1801C97.26 47.4001 96.98 47.5701 96.8 47.7001C96.72 47.7501 96.66 47.8401 96.64 47.9401C96.62 48.0501 96.64 48.1701 96.72 48.2801L96.76 48.3401C96.9 48.5401 97.05 48.7501 97.23 48.9201C97.37 49.0501 97.37 49.1501 97.23 49.3301L96.15 50.7001C94.68 52.5601 93.22 54.4201 91.74 56.2701C91.73 56.2801 91.72 56.3001 91.71 56.3201C91.68 56.3501 91.61 56.4301 91.52 56.5301C91.42 56.6501 91.27 56.8201 91.12 57.0101C90.99 56.9201 90.81 56.7901 90.7 56.7101L90.61 56.6501C90.35 56.4801 90.21 56.3701 90.09 56.2901C89.75 56.0401 89.41 55.7801 89.07 55.5301L88.63 55.2001C88.33 54.9201 88.01 54.6601 87.71 54.4001C87.41 54.1501 87.11 53.9001 86.82 53.6301C86.6 53.4301 86.62 53.3001 86.74 53.1401C87.03 52.7601 87.12 52.4801 87.05 52.2401C86.95 51.9301 86.56 51.7601 86.14 51.6301C85.09 51.2901 84.14 51.0001 83.14 50.8001C82.93 50.7601 82.65 50.7101 82.47 50.9401C82.27 51.1901 82.41 51.4901 82.47 51.6301C83.08 52.9201 83.69 53.8801 84.41 54.6401C84.68 54.9301 84.88 55.0501 85.08 55.0501H85.09C85.33 55.0501 85.54 54.8601 85.78 54.5801C85.88 54.4601 85.9 54.4701 86.02 54.5601L86.17 54.6801C87.46 55.6701 88.79 56.7001 89.97 57.8601C90.05 57.9401 90.12 58.0201 90.19 58.1001C90.39 58.3201 90.59 58.5501 90.89 58.6801C91.05 58.7501 91.21 58.7801 91.35 58.7801C91.7 58.7801 91.98 58.6001 92.16 58.2501L92.19 58.2101C92.37 57.9301 92.5 57.7001 92.62 57.4701C92.76 57.2101 92.9 56.9601 93.1 56.6701C94.16 55.1701 95.31 53.6901 96.43 52.2601C96.97 51.5701 97.51 50.8801 98.04 50.1901C98.13 50.0801 98.2 50.0201 98.25 50.0201C98.31 50.0201 98.38 50.0901 98.43 50.1501C98.53 50.2701 98.66 50.3401 98.8 50.4201C99.04 50.5601 99.21 50.5301 99.32 50.4901C99.41 50.4501 99.54 50.3601 99.6 50.1401C99.66 49.9301 99.72 49.7101 99.79 49.5001C100.03 48.6901 100.28 47.8501 100.32 46.9701C100.33 46.7101 100.28 46.5401 100.16 46.4401V46.4501Z" fill="#DD1C47"/>
<path d="M78.4502 62.9104C78.3302 62.9704 78.2002 63.0404 78.0702 63.1004C77.5802 63.3404 77.0702 63.6004 76.6302 63.9504C76.4602 64.0904 76.1902 64.3004 76.3602 64.6204C76.4702 64.8304 76.6502 64.9504 76.8602 64.9504C76.9302 64.9504 77.0002 64.9404 77.0702 64.9104C77.3802 64.8704 77.6202 64.7204 77.8502 64.5804C77.9302 64.5304 78.0102 64.4804 78.1002 64.4304L78.2102 64.3704C78.5202 64.2104 78.8402 64.0404 79.0802 63.7504C79.2802 63.5204 79.3002 63.2504 79.1402 63.0104C78.9902 62.7804 78.7602 62.7404 78.4502 62.9004V62.9104Z" fill="#DD1C47"/>
<path d="M100.14 66.64C100.06 66.57 99.95 66.53 99.87 66.51C99.84 66.51 99.81 66.49 99.79 66.48L99.75 66.46H99.71C99.51 66.51 99.37 66.6 99.31 66.73C99.24 66.86 99.25 67.02 99.33 67.2C99.68 67.97 100.19 68.62 100.86 69.14C100.94 69.2 101.07 69.3 101.21 69.3C101.29 69.3 101.37 69.27 101.45 69.2C101.58 69.09 101.72 68.89 101.58 68.55C101.3 67.86 100.83 67.23 100.14 66.63V66.64Z" fill="#DD1C47"/>
<path d="M104.24 62.33C104.18 62.3 104.12 62.27 104.06 62.25L103.97 62.21H103.94C103.69 62.23 103.54 62.38 103.42 62.52C103.31 62.66 103.32 62.84 103.45 62.99C103.93 63.53 104.5 64.14 105.25 64.5C105.35 64.55 105.45 64.58 105.54 64.58C105.66 64.58 105.77 64.53 105.87 64.43C106.11 64.17 105.92 63.92 105.84 63.81C105.35 63.16 104.83 62.67 104.24 62.32V62.33Z" fill="#DD1C47"/>
<path d="M105.65 50.41H105.67L105.79 50.38C106.45 50.21 107.2 50.02 107.8 49.48C107.93 49.36 107.97 49.17 107.89 48.99C107.8 48.78 107.6 48.65 107.39 48.67C106.62 48.72 105.92 48.99 105.31 49.47C105.13 49.61 105.08 49.84 105.16 50.08C105.23 50.27 105.39 50.38 105.65 50.4V50.41Z" fill="#DD1C47"/>
<path d="M103.89 41.7806C103.75 41.6706 103.56 41.6606 103.39 41.7606C102.77 42.0906 102.33 42.6606 102.04 43.4906V43.5206C102.01 43.7806 102.1 44.0006 102.27 44.0906C102.33 44.1206 102.39 44.1406 102.45 44.1406C102.53 44.1406 102.61 44.1106 102.69 44.0606C103.37 43.6006 103.82 43.0006 104.02 42.2706C104.07 42.0806 104.02 41.8906 103.89 41.7806Z" fill="#DD1C47"/>
<path d="M83.58 67.8002C83.39 67.7102 83.18 67.7602 82.98 67.9502C82.65 68.2502 82.36 68.6402 82.11 69.1402C81.99 69.3802 81.93 69.6202 81.94 69.8802V69.9002C81.98 70.1002 82.11 70.2702 82.28 70.3202C82.32 70.3302 82.36 70.3402 82.4 70.3402C82.5 70.3402 82.6 70.3002 82.68 70.2302C83.28 69.6802 83.65 69.0202 83.77 68.2702C83.81 68.0302 83.74 67.8702 83.58 67.8002Z" fill="#DD1C47"/>
<path d="M78.3402 49.8208C78.4002 49.8408 78.4702 49.8508 78.5302 49.8508C78.6902 49.8508 78.8302 49.7708 78.9302 49.6208C79.0702 49.4008 79.0702 49.1608 78.9302 48.9908C78.5702 48.5708 78.0702 48.2808 77.3602 48.0908H77.3202C77.0902 48.0908 76.9102 48.2008 76.8302 48.4108C76.7502 48.6408 76.7902 48.8608 76.9602 49.0208C77.3402 49.3708 77.8102 49.6408 78.3502 49.8208H78.3402Z" fill="#DD1C47"/>
<path d="M82.4999 41.9201C82.4999 41.9201 82.4099 41.8801 82.3799 41.8801L82.3199 41.9901L82.3599 41.8701H82.3299C82.1599 41.8701 81.9799 41.9501 81.8899 42.1001C81.7899 42.2701 81.7899 42.4901 81.8899 42.6701C82.2099 43.2201 82.5899 43.6201 83.0599 43.8901C83.1399 43.9301 83.2599 44.0001 83.3799 44.0001C83.4599 44.0001 83.5499 43.9701 83.6399 43.8801C83.7799 43.7301 83.8099 43.5301 83.7299 43.3101C83.5199 42.7601 83.1299 42.3201 82.4999 41.9101V41.9201Z" fill="#DD1C47"/>
<path d="M91.4402 38.9404C91.2702 38.9504 91.1202 39.0704 91.0502 39.2604C90.8202 39.9204 90.8702 40.6404 91.2102 41.4404L91.2302 41.4704C91.3602 41.6404 91.5402 41.7404 91.7102 41.7404C91.7402 41.7404 91.7702 41.7404 91.7902 41.7404C91.9402 41.7104 92.0402 41.6004 92.0802 41.4404C92.2702 40.6504 92.2002 39.9004 91.8602 39.2204C91.7702 39.0404 91.6002 38.9304 91.4302 38.9504L91.4402 38.9404Z" fill="#DD1C47"/>
<path d="M91.6098 68.7006C91.4298 68.6806 91.2698 68.7906 91.1798 68.9706C90.8698 69.6006 90.8298 70.3106 91.0798 71.1606V71.1906C91.2198 71.4006 91.3998 71.5206 91.5798 71.5206H91.6098C91.7598 71.5106 91.8798 71.4106 91.9398 71.2506C92.2298 70.4906 92.2498 69.7306 91.9998 69.0206C91.9298 68.8306 91.7898 68.7106 91.6098 68.7006Z" fill="#DD1C47"/>
<path d="M77.55 57.7802H77.58C77.8 57.6302 77.92 57.4302 77.91 57.2402C77.9 57.0902 77.8 56.9702 77.64 56.9102C76.87 56.6302 76.12 56.6202 75.41 56.8802C75.22 56.9502 75.1 57.1002 75.09 57.2702C75.08 57.4402 75.19 57.6102 75.37 57.6902C75.72 57.8602 76.09 57.9402 76.49 57.9402C76.82 57.9402 77.18 57.8802 77.56 57.7702L77.55 57.7802Z" fill="#DD1C47"/>
<path d="M109.32 56.7502C108.56 56.4402 107.81 56.4102 107.09 56.6402C106.9 56.7002 106.77 56.8502 106.76 57.0202C106.75 57.1902 106.84 57.3602 107.02 57.4502C107.39 57.6402 107.79 57.7402 108.24 57.7402C108.54 57.7402 108.86 57.7002 109.21 57.6102H109.24C109.46 57.4702 109.6 57.2702 109.58 57.0802C109.58 56.9302 109.48 56.8102 109.32 56.7502Z" fill="#DD1C47"/>
<path d="M112.24 32.0298C113 32.1098 113.69 32.4098 114.34 32.7898C117.42 34.5798 119.4 37.2298 120.51 40.5798C120.67 41.0598 120.85 41.5398 120.91 42.0398C120.93 42.2198 120.94 42.4298 120.72 42.4998C120.53 42.5698 120.43 42.3898 120.33 42.2698C119.57 41.2398 118.8 40.2198 118.08 39.1698C116.51 36.8798 114.68 34.8798 112.3 33.4198C112.04 33.2598 111.8 33.0698 111.57 32.8698C111.39 32.7198 111.16 32.5498 111.3 32.2598C111.43 31.9998 111.69 32.0098 111.94 32.0098C112.04 32.0098 112.14 32.0198 112.24 32.0298Z" fill="#DD1C47"/>
<path d="M123.57 36.6604C123.53 36.8604 123.61 37.1604 123.36 37.2404C123.09 37.3204 122.99 37.0204 122.89 36.8504C121.87 35.0304 120.86 33.2004 119.87 31.3604C119.75 31.1304 119.53 30.8304 119.84 30.5904C120.12 30.3704 120.43 30.5004 120.69 30.6604C121.93 31.4204 122.65 32.5704 123.12 33.9004C123.43 34.7904 123.6 35.7004 123.58 36.6604H123.57Z" fill="#DD1C47"/>
<path d="M68.5999 78.4298L68.3899 78.1798C68.1299 77.8798 67.8699 77.5598 67.5699 77.2898C64.5999 74.5698 62.2599 71.1698 60.6199 67.1998L60.5899 67.1198C60.5299 66.9598 60.4599 66.7598 60.2099 66.6198L60.0899 66.5498L60.0299 66.6698C59.8199 67.1398 59.8699 67.5798 59.9399 67.9898C60.1899 69.4098 60.7199 70.7398 61.1999 71.8498C61.1999 71.8598 61.7199 73.0498 62.4899 74.2198L62.5099 74.2498C62.8799 74.8198 63.2399 75.2698 63.5899 75.6298C63.6999 75.7398 63.7999 75.8598 63.8999 75.9798C63.9899 76.0798 64.0699 76.1898 64.1699 76.2798C65.3299 77.5198 66.8099 78.3298 68.0999 78.9498L68.1399 78.9698C68.2199 79.0098 68.3399 79.0698 68.4599 79.0698C68.5599 79.0698 68.6499 79.0298 68.7299 78.9198C68.8599 78.7198 68.6899 78.5298 68.5899 78.4098L68.5999 78.4298Z" fill="#DD1C47"/>
</svg>
