<svg width="94" height="104" viewBox="0 0 94 104" fill="none" xmlns="http://www.w3.org/2000/svg">
<g opacity="0.9">
<path opacity="0.5" d="M61.7 44.0196C61.66 44.1096 61.61 44.1896 61.56 44.2796C57.36 51.2496 53.19 58.2397 48.95 65.1897C47.55 67.4997 45.47 69.0296 41.75 69.9896C40.04 70.4596 37.54 69.8097 35.15 68.3297C30.28 65.3097 29.12 59.2796 31.8 54.7496C34.93 49.4496 38.09 44.1596 40.97 39.3896H44.66C41.72 44.2696 38.48 49.6496 35.24 55.0196C35.07 55.3196 34.89 55.6096 34.72 55.9096C32.56 59.8596 33.24 63.3296 36.7 65.5896C38.77 66.9296 40.99 67.2296 43.3 66.1796C44.88 65.4597 46 64.2296 46.88 62.7796C49.41 58.6496 51.93 54.5196 54.45 50.3797C56.03 47.7697 57.59 45.1496 59.18 42.5496C59.74 41.6396 60.61 41.3197 61.28 41.7197C61.99 42.1497 62.17 43.0996 61.7 44.0196Z" fill="#78A0FF"/>
<path d="M76.3498 26.8104C75.9898 29.4504 74.8998 31.8104 73.5498 34.0504C72.5798 35.6604 71.6098 37.2804 70.6398 38.8904C62.4698 52.4904 54.2798 66.0804 46.0898 79.6904C44.6198 82.1504 42.8998 84.4104 40.6898 86.2604C38.1498 88.3804 35.2698 89.7204 31.9298 89.9104C28.6798 90.1004 25.6898 89.2604 22.9998 87.4104C19.1398 84.7504 16.9598 81.1004 16.5898 76.4104C16.3098 72.8004 17.2498 69.4304 19.0598 66.3904C26.0198 54.6804 33.0698 43.0204 40.0898 31.3504C40.2998 31.0104 40.5198 30.6904 40.8498 30.4504C41.3798 30.0604 41.9498 30.0504 42.5098 30.3704C43.0698 30.6904 43.2198 31.2104 43.1498 31.8204C43.0798 32.3604 42.7898 32.7904 42.5298 33.2304C36.0098 44.0604 29.4898 54.8904 22.9898 65.7204C22.0898 67.2204 21.2198 68.7404 20.6198 70.3804C19.6998 72.8604 19.3398 75.4004 19.9598 77.9904C20.7798 81.4304 22.8198 83.9704 25.9998 85.5704C30.0298 87.5904 33.9298 87.2404 37.6698 84.8304C40.2098 83.2004 41.8598 80.7804 43.3798 78.2604C51.2898 65.1404 59.1898 52.0204 67.0798 38.8904C68.3098 36.8504 69.5398 34.8004 70.7698 32.7604C71.4698 31.5804 72.1598 30.3804 72.6398 29.0904C73.7998 26.0004 73.8198 23.0104 71.7098 20.2904C70.3598 18.5404 68.5498 17.4404 66.4698 16.7504C63.6498 15.8104 61.0498 16.2604 58.6698 18.0304C56.9698 19.2904 55.7698 20.9604 54.6998 22.7304C51.4498 28.1204 47.6298 34.5004 44.6598 39.3904H40.9698C44.3998 33.6804 48.7398 26.5304 52.5298 20.3904C53.0298 19.5904 53.5798 18.8404 54.1898 18.1304C56.5998 15.2904 59.5298 13.3204 63.3498 13.1004C67.4198 12.8704 70.7998 14.4304 73.5198 17.4004C75.9598 20.0504 76.8298 23.2404 76.3498 26.8104Z" fill="#78A0FF"/>
</g>
</svg>
