<svg width="42" height="42" viewBox="0 0 42 42" fill="none" xmlns="http://www.w3.org/2000/svg">
<path d="M6.33049 25.7999C6.58049 26.3599 7.02049 26.6799 7.52049 26.6299C16.3405 25.9999 25.1205 26.0499 33.6105 26.0899C34.1205 26.0799 34.6505 25.7299 34.8505 25.1799C35.0305 24.6799 34.9005 24.1599 34.5005 23.8399C32.5405 22.2399 30.5305 20.1799 28.3705 17.5299C28.0205 17.1099 27.7005 16.6699 27.3905 16.2299C26.9805 15.6499 26.5505 15.0499 26.0405 14.4899C25.2605 13.6699 24.5005 12.8399 23.7605 11.9999C23.5405 11.7399 23.2505 11.5999 22.9505 11.5799L22.9405 11.5799C22.9405 11.5799 22.8205 11.5599 22.7505 11.5599C22.5605 11.5599 22.3205 11.6099 22.0605 11.7799C20.1905 13.0599 18.3805 14.4899 16.6305 15.8599C15.7605 16.5499 14.8805 17.2399 14.0005 17.9099C13.4705 18.3099 12.9205 18.7099 12.3805 19.1199C10.3605 20.6099 8.28049 22.1599 6.48049 23.9399C6.03049 24.3799 6.06049 25.2099 6.33049 25.7999ZM15.3605 19.4999C17.7905 17.6599 20.1605 15.6799 22.6605 13.9299C23.2705 14.6199 23.8905 15.2999 24.5205 15.9699C25.4005 16.8999 26.0205 18.0199 26.8405 18.9899C28.2805 20.7099 29.7905 22.4199 31.4405 23.9499C24.1805 23.8599 16.8905 23.5399 9.64049 23.9099C11.4705 22.3399 13.4705 20.9399 15.3605 19.4999Z" fill="#DD1C47"/>
<path d="M9.63965 23.9104C11.4696 22.3404 13.4696 20.9404 15.3596 19.5004C17.7896 17.6604 20.1596 15.6804 22.6596 13.9304C23.2696 14.6204 23.8896 15.3004 24.5196 15.9704C25.3996 16.9004 26.0196 18.0204 26.8396 18.9904C28.2796 20.7104 29.7896 22.4204 31.4396 23.9504C24.1796 23.8604 16.8896 23.5404 9.63965 23.9104Z" fill="#FCE5EE"/>
</svg>
