<svg width="44" height="35" viewBox="0 0 44 35" fill="none" xmlns="http://www.w3.org/2000/svg">
<path d="M5.94 17.0998C5.97 14.4898 6.15 11.8898 6.49 9.29979C6.56 8.77979 6.66 8.21979 7.07 7.89979C7.42 7.61979 7.91 7.60979 8.36 7.60979C17.3 7.65979 25.54 8.00979 35.13 7.28979C36.12 7.21979 37.26 6.99979 37.95 7.70979C38.4 8.15979 38.51 8.83979 38.58 9.46979C39.18 14.7298 39.15 19.8298 38.35 25.0598C38.23 25.8698 38.1 27.2898 37.65 27.5798C36.74 28.1598 35.59 28.0598 34.69 28.1798C28.39 28.9998 21.79 28.7198 15.44 28.4198C12.81 28.2998 10.17 28.1698 7.54 27.8998C7.3 27.8698 7.03 27.8398 6.86 27.6598C6.72 27.5198 6.67 27.3098 6.63 27.1198C5.92 23.8398 5.78 20.6498 5.94 17.1098" fill="#FCE5EE"/>
<path d="M7.02995 17.0998C7.04995 15.4698 7.12995 13.8398 7.26995 12.2198C7.33995 11.4098 7.41995 10.5998 7.51995 9.78977C7.63995 8.84977 7.89995 8.70977 8.81995 8.70977C11.8399 8.70977 14.8699 8.77977 17.8899 8.80977C20.9099 8.83977 23.9599 8.84977 26.9899 8.77977C30.0199 8.70977 33.0899 8.39977 36.1399 8.30977C37.0899 8.27977 37.3099 8.51977 37.4899 9.47977C37.6399 10.2798 37.6599 11.1298 37.7299 11.9298C37.8499 13.5498 37.9199 15.1698 37.9099 16.7898C37.8999 19.8698 37.7099 23.0298 37.1099 26.0598C36.9499 26.8598 36.6199 26.8998 35.7999 26.9998C35.1999 27.0698 34.5999 27.0998 33.9999 27.1698C32.3299 27.3598 30.6499 27.4798 28.9699 27.5498C25.7399 27.6798 22.5199 27.6098 19.2899 27.4898C15.7099 27.3498 12.1199 27.1998 8.53995 26.8898C8.03995 26.8498 7.86995 26.9298 7.64995 26.5898C7.42995 26.2498 7.42995 25.4298 7.35995 25.0298C7.23995 24.2398 7.14995 23.4398 7.08995 22.6498C6.94995 20.7998 6.95995 18.9498 7.03995 17.0998C7.09995 15.6898 4.90995 15.6998 4.85995 17.0998C4.77995 18.9498 4.76995 20.7998 4.90995 22.6498C5.02995 24.2698 5.03995 26.4898 5.77995 27.9498C6.51995 29.4098 8.72995 29.0998 10.0199 29.1898C12.0699 29.3398 14.1199 29.4298 16.1699 29.5298C20.1099 29.7098 24.0599 29.8698 27.9999 29.7598C29.9199 29.7098 31.8399 29.5898 33.7599 29.3698C35.1899 29.2098 37.2899 29.3698 38.4399 28.3398C39.2399 27.6098 39.2699 26.3298 39.4199 25.3398C39.7099 23.2998 39.9499 21.2598 40.0499 19.2098C40.1399 17.2698 40.1299 15.3298 40.0299 13.3898C39.9399 11.6598 40.0699 9.38977 39.3099 7.78977C38.7699 6.64977 37.7399 6.13977 36.4999 6.10977C34.6099 6.05977 32.6599 6.37977 30.7699 6.45977C26.9399 6.63977 23.0999 6.65977 19.2599 6.63977C17.3099 6.62977 15.3499 6.59977 13.3999 6.56977C12.3399 6.55977 11.2799 6.53977 10.2199 6.52977C9.30995 6.52977 8.29995 6.38977 7.40995 6.58977C5.60995 6.98977 5.47995 8.73977 5.29995 10.2698C5.03995 12.5398 4.90995 14.8198 4.86995 17.0998C4.84995 18.5098 7.02995 18.5098 7.04995 17.0998H7.02995Z" fill="#DD1C47"/>
<path d="M6.00003 9.24017C8.95003 11.6302 11.37 14.6002 14.33 16.9802C15.7 18.0802 17.15 19.0502 18.71 19.8502C19.92 20.4602 21.32 21.2102 22.7 21.2502C25.35 21.3402 28.28 18.9802 30.02 17.1902C32.8 14.3402 35.61 11.5202 38.39 8.67017C39.37 7.66017 37.83 6.12017 36.84 7.12017C34.26 9.77017 31.61 12.3702 29.05 15.0302C28.18 15.9302 27.33 16.7502 26.3 17.4602C25.27 18.1702 23.97 19.1302 22.72 19.0602C21.58 19.0002 20.33 18.2402 19.34 17.7102C17.82 16.9002 16.41 15.9202 15.11 14.7902C12.49 12.5302 10.25 9.87017 7.55003 7.69017C6.47003 6.81017 4.91003 8.35017 6.00003 9.24017Z" fill="#DD1C47"/>
<path d="M7.40993 28.5895C9.45993 27.1795 11.3499 25.5695 13.3799 24.1395C15.4099 22.7095 17.5499 21.1895 19.3599 19.3795C20.3599 18.3895 18.8099 16.8395 17.8099 17.8295C16.0799 19.5595 14.0899 20.9495 12.0999 22.3695C10.1099 23.7895 8.28993 25.3395 6.29993 26.6995C5.80993 27.0295 5.58993 27.6595 5.90993 28.1895C6.18993 28.6695 6.91993 28.9195 7.39993 28.5795L7.40993 28.5895Z" fill="#DD1C47"/>
<path d="M26.1597 19.2004C26.9297 20.1304 27.8197 20.8904 28.8197 21.5604C30.0097 22.3504 31.0697 23.3204 32.1597 24.2404C33.7297 25.5604 35.4097 26.8504 36.7397 28.4304C37.1197 28.8804 37.8897 28.8204 38.2897 28.4304C38.7397 27.9804 38.6697 27.3404 38.2897 26.8804C36.9597 25.3004 35.2797 24.0104 33.7097 22.6904C32.5997 21.7504 31.5097 20.7604 30.3097 19.9304C29.3297 19.2504 28.4697 18.5704 27.6997 17.6504C27.3197 17.2004 26.5497 17.2604 26.1497 17.6504C25.6997 18.1004 25.7697 18.7404 26.1497 19.2004H26.1597Z" fill="#DD1C47"/>
</svg>
