<svg width="32" height="25" viewBox="0 0 32 25" fill="none" xmlns="http://www.w3.org/2000/svg">
<path d="M4.41443 12.5587C4.43672 10.6418 4.57049 8.73229 4.82316 6.83012C4.87518 6.44822 4.9495 6.03694 5.25419 5.80192C5.51429 5.59628 5.87843 5.58893 6.21285 5.58893C12.8566 5.62565 18.9802 5.8827 26.107 5.35392C26.8427 5.30251 27.6899 5.14093 28.2026 5.66238C28.537 5.99287 28.6188 6.49228 28.6708 6.95497C29.1167 10.8181 29.0944 14.5637 28.4999 18.4047C28.4107 18.9996 28.3141 20.0425 27.9797 20.2555C27.3034 20.6815 26.4488 20.608 25.78 20.6962C21.0981 21.2984 16.1933 21.0928 11.4743 20.8724C9.51986 20.7843 7.55795 20.6888 5.60347 20.4905C5.42511 20.4685 5.22446 20.4465 5.09813 20.3143C4.99409 20.2114 4.95693 20.0572 4.9272 19.9177C4.39957 17.5087 4.29553 15.1659 4.41443 12.566" fill="#FCE5EE"/>
<path d="M5.22424 12.5587C5.2391 11.3615 5.29855 10.1644 5.40259 8.97464C5.45461 8.37975 5.51406 7.78486 5.58838 7.18997C5.67756 6.49961 5.87078 6.39679 6.55447 6.39679C8.79878 6.39679 11.0505 6.4482 13.2948 6.47023C15.5391 6.49227 17.8057 6.49961 20.0575 6.4482C22.3092 6.39679 24.5907 6.16912 26.8573 6.10302C27.5633 6.08098 27.7268 6.25725 27.8606 6.9623C27.972 7.54984 27.9869 8.17411 28.0389 8.76165C28.1281 9.95143 28.1801 11.1412 28.1727 12.331C28.1652 14.593 28.0241 16.9138 27.5782 19.1392C27.4593 19.7267 27.214 19.7561 26.6046 19.8295C26.1587 19.8809 25.7129 19.903 25.267 19.9544C24.0259 20.0939 22.7774 20.182 21.5289 20.2335C19.1286 20.3289 16.7356 20.2775 14.3352 20.1894C11.6748 20.0866 9.00687 19.9764 6.34639 19.7487C5.97482 19.7194 5.84848 19.7781 5.68499 19.5284C5.5215 19.2787 5.5215 18.6765 5.46948 18.3827C5.3803 17.8025 5.31341 17.2149 5.26883 16.6347C5.16478 15.276 5.17222 13.9174 5.23167 12.5587C5.27626 11.5231 3.64876 11.5305 3.6116 12.5587C3.55215 13.9174 3.54472 15.276 3.64876 16.6347C3.73794 17.8245 3.74537 19.455 4.2953 20.5272C4.84523 21.5995 6.48759 21.3718 7.44625 21.4379C8.96971 21.5481 10.4932 21.6142 12.0166 21.6876C14.9446 21.8198 17.8801 21.9373 20.8081 21.8565C22.2349 21.8198 23.6618 21.7317 25.0886 21.5701C26.1513 21.4526 27.7119 21.5701 28.5665 20.8137C29.1611 20.2775 29.1834 19.3374 29.2948 18.6104C29.5103 17.1121 29.6887 15.6139 29.763 14.1083C29.8299 12.6835 29.8225 11.2587 29.7482 9.83392C29.6813 8.56336 29.7779 6.8962 29.2131 5.72111C28.8118 4.88386 28.0463 4.5093 27.1248 4.48727C25.7203 4.45055 24.2711 4.68557 22.8666 4.74432C20.0203 4.87652 17.1666 4.89121 14.313 4.87652C12.8638 4.86917 11.4072 4.84714 9.9581 4.82511C9.17036 4.81776 8.38262 4.80308 7.59488 4.79573C6.91862 4.79573 6.16804 4.69291 5.50663 4.8398C4.16896 5.13357 4.07236 6.41882 3.93859 7.5425C3.74537 9.20966 3.64876 10.8842 3.61903 12.5587C3.60417 13.5942 5.22424 13.5942 5.2391 12.5587H5.22424Z" fill="#DD1C47"/>
<path d="M4.45867 6.78636C6.65096 8.54164 8.44938 10.7229 10.6491 12.4708C11.6672 13.2787 12.7448 13.9911 13.9041 14.5787C14.8033 15.0267 15.8437 15.5775 16.8693 15.6069C18.8386 15.673 21.016 13.9397 22.3091 12.6251C24.3751 10.5319 26.4633 8.46086 28.5293 6.36773C29.2576 5.62596 28.1131 4.49493 27.3774 5.22936C25.4601 7.1756 23.4907 9.08512 21.5883 11.0387C20.9417 11.6997 20.31 12.3019 19.5446 12.8234C18.7792 13.3448 17.8131 14.0499 16.8841 13.9985C16.0369 13.9544 15.108 13.3962 14.3723 13.007C13.2427 12.4121 12.1949 11.6923 11.2288 10.8624C9.28171 9.20263 7.61705 7.24905 5.61055 5.64799C4.80795 5.00169 3.64864 6.13271 4.45867 6.78636Z" fill="#DD1C47"/>
<path d="M5.50659 20.9972C7.03005 19.9617 8.4346 18.7792 9.94319 17.729C11.4518 16.6788 13.0421 15.5624 14.3872 14.2331C15.1304 13.506 13.9785 12.3676 13.2353 13.0947C11.9497 14.3653 10.4708 15.3862 8.99196 16.429C7.5131 17.4719 6.16056 18.6103 4.6817 19.6091C4.31755 19.8515 4.15406 20.3142 4.39187 20.7034C4.59995 21.056 5.14245 21.2396 5.49916 20.9899L5.50659 20.9972Z" fill="#DD1C47"/>
<path d="M19.4403 14.101C20.0125 14.784 20.6739 15.3421 21.4171 15.8342C22.3014 16.4144 23.0892 17.1268 23.8992 17.8025C25.066 18.7719 26.3144 19.7194 27.3028 20.8798C27.5852 21.2102 28.1575 21.1662 28.4547 20.8798C28.7891 20.5493 28.7371 20.0792 28.4547 19.7414C27.4663 18.581 26.2178 17.6336 25.0511 16.6641C24.2262 15.9738 23.4162 15.2467 22.5244 14.6371C21.7961 14.1377 21.157 13.6383 20.5848 12.9626C20.3024 12.6321 19.7301 12.6762 19.4329 12.9626C19.0985 13.2931 19.1505 13.7631 19.4329 14.101H19.4403Z" fill="#DD1C47"/>
</svg>
