<svg width="42" height="42" viewBox="0 0 42 42" fill="none" xmlns="http://www.w3.org/2000/svg">
<path d="M34.7205 15.2501C34.4705 14.6901 34.0305 14.3701 33.5305 14.4201C24.7105 15.0501 15.9305 15.0001 7.44049 14.9601C6.93049 14.9701 6.40049 15.3201 6.20049 15.8701C6.02049 16.3701 6.15049 16.8901 6.55049 17.2101C8.51049 18.8101 10.5205 20.8701 12.6805 23.5201C13.0305 23.9401 13.3505 24.3801 13.6605 24.8201C14.0705 25.4001 14.5005 26.0001 15.0105 26.5601C15.7905 27.3801 16.5505 28.2101 17.2905 29.0501C17.5105 29.3101 17.8005 29.4501 18.1005 29.4701H18.1105C18.1105 29.4701 18.2305 29.4901 18.3005 29.4901C18.4905 29.4901 18.7305 29.4401 18.9905 29.2701C20.8605 27.9901 22.6705 26.5601 24.4205 25.1901C25.2905 24.5001 26.1705 23.8101 27.0505 23.1401C27.5805 22.7401 28.1305 22.3401 28.6705 21.9301C30.6905 20.4401 32.7705 18.8901 34.5705 17.1101C35.0205 16.6701 34.9905 15.8401 34.7205 15.2501ZM25.6905 21.5501C23.2605 23.3901 20.8905 25.3701 18.3905 27.1201C17.7805 26.4301 17.1605 25.7501 16.5305 25.0801C15.6505 24.1501 15.0305 23.0301 14.2105 22.0601C12.7705 20.3401 11.2605 18.6301 9.61049 17.1001C16.8705 17.1901 24.1605 17.5101 31.4105 17.1401C29.5805 18.7101 27.5805 20.1101 25.6905 21.5501Z" fill="#DD1C47"/>
<path d="M31.4104 17.1396C29.5804 18.7096 27.5804 20.1096 25.6904 21.5496C23.2604 23.3896 20.8904 25.3696 18.3904 27.1196C17.7804 26.4296 17.1604 25.7496 16.5304 25.0796C15.6504 24.1496 15.0304 23.0296 14.2104 22.0596C12.7704 20.3396 11.2604 18.6296 9.61035 17.0996C16.8704 17.1896 24.1604 17.5096 31.4104 17.1396Z" fill="#FCE5EE"/>
</svg>
