<svg width="65" height="65" viewBox="0 0 65 65" fill="none" xmlns="http://www.w3.org/2000/svg">
<g clip-path="url(#clip0_3214_11251)">
<mask id="mask0_3214_11251" style="mask-type:luminance" maskUnits="userSpaceOnUse" x="0" y="0" width="65" height="65">
<path d="M65.0002 0H0.13916V65H65.0002V0Z" fill="white"/>
</mask>
<g mask="url(#mask0_3214_11251)">
<path d="M55.8273 62.6443C46.851 64.0255 16.818 63.5264 11.3512 63.3871C5.87272 63.2595 5.51367 57.6416 5.51367 57.6416L57.7384 6.68624C58.0395 6.70946 58.3175 6.75589 58.5839 6.79071L57.9816 5.6416C58.8387 6.66303 59.6147 6.9416 59.8232 7.01124C59.8579 7.02285 59.8927 7.02285 59.8927 7.02285C67.2011 8.58982 64.2013 13.9755 64.8036 32.4425C65.4638 52.5229 64.8036 61.263 55.8273 62.6559V62.6443Z" fill="#DD1C47"/>
<path d="M4.45959 56.5618C7.47099 58.2216 11.0847 58.2912 14.5246 58.3377L41.9747 58.6046C46.9667 58.6511 52.6189 58.4305 55.9546 54.7394C58.8039 51.5707 58.9544 46.9046 58.9544 42.6564L58.8965 11.9671C58.8965 10.5394 58.8965 9.06533 58.3406 7.75373C57.5298 5.79212 55.6303 4.44569 53.6497 3.65641C50.2793 2.29837 46.5382 2.25194 42.9129 2.27516C35.4076 2.32158 27.9022 2.63498 20.3969 2.93676L11.1542 3.30819C9.92645 3.35462 8.67555 3.41266 7.5289 3.83051C5.4325 4.58498 3.91522 6.44212 3.05813 8.47337C2.20104 10.5046 1.93464 12.7332 1.66825 14.9153C0.787992 22.2278 0.961726 27.1028 1.19337 34.4966C1.32078 38.4198 1.0428 44.2582 1.40185 48.1698C1.80724 52.5341 1.00806 54.6582 4.44801 56.5734" fill="#FCE5EE"/>
<path d="M4.45959 56.5618C7.47099 58.2216 11.0847 58.2912 14.5246 58.3377L41.9747 58.6046C46.9667 58.6511 52.6189 58.4305 55.9546 54.7394C58.8039 51.5707 58.9544 46.9046 58.9544 42.6564L58.8965 11.9671C58.8965 10.5394 58.8965 9.06533 58.3406 7.75373C57.5298 5.79212 55.6303 4.44569 53.6497 3.65641C50.2793 2.29837 46.5382 2.25194 42.9129 2.27516C35.4076 2.32158 27.9022 2.63498 20.3969 2.93676L11.1542 3.30819C9.92644 3.35462 8.67555 3.41266 7.5289 3.83051C5.4325 4.58498 3.91522 6.44212 3.05813 8.47337C2.20104 10.5046 1.93464 12.7332 1.66825 14.9153C0.787992 22.2278 0.961726 27.1028 1.19337 34.4966C1.32078 38.4198 1.0428 44.2582 1.40185 48.1698C1.80724 52.5341 1.00806 54.6582 4.44801 56.5734" stroke="#DD1C47" stroke-width="1.73" stroke-miterlimit="10"/>
<path d="M48.3681 19.0238C47.094 14.4158 41.8125 12.5122 37.3417 13.406C35.0368 13.8702 32.5582 15.5533 31.8053 17.8051C31.0062 20.1961 30.7398 23.0747 30.6471 25.5935C30.2533 36.3765 30.7745 47.1595 30.9019 57.9542C30.9251 60.3104 34.643 60.3336 34.6083 57.9542C34.504 49.2836 34.1102 40.6247 34.2145 31.9542C34.2376 29.5399 34.2376 27.1256 34.3998 24.7229C34.4809 23.597 34.6778 22.506 34.8747 21.3917C35.0252 20.5211 35.0252 19.2095 35.5812 18.4667C37.6776 15.6113 43.8741 16.6676 44.8007 20.0104C45.4261 22.297 49.0051 21.322 48.3796 19.0238H48.3681Z" fill="#DD1C47"/>
<path d="M24.9487 34.6589C31.3537 34.4035 37.7819 35.0651 44.1869 34.8446C46.5613 34.7634 46.5729 31.0839 44.1869 31.1651C37.7819 31.3857 31.3653 30.7357 24.9487 30.9794C22.5743 31.0723 22.5511 34.7634 24.9487 34.6589Z" fill="#DD1C47"/>
</g>
</g>
<defs>
<clipPath id="clip0_3214_11251">
<rect width="65" height="65" fill="white"/>
</clipPath>
</defs>
</svg>
