<svg width="253" height="253" viewBox="0 0 253 253" fill="none" xmlns="http://www.w3.org/2000/svg">
<path d="M173.34 117.07C172.46 116.45 171.46 116.1 170.41 115.89C168.42 115.48 166.42 115.09 164.43 114.68C157.27 113.2 151.65 109.58 147.81 103.19C144.61 97.8695 140.56 93.2595 135.05 90.1495C134.84 90.0295 134.59 89.8595 134.5 89.6595C133.98 88.4895 134.82 86.5395 136.02 86.0495C140.18 84.3495 143.34 81.6395 144.81 77.2595C145.06 76.4995 145.62 76.4195 146.25 76.2695C149.05 75.6195 151.09 74.0595 151.95 71.2195C152.42 69.6595 151.63 68.0195 150.21 67.2195C149.59 66.8695 149.56 66.5195 149.84 65.9095C150.65 64.1895 151.05 62.3795 151.09 60.4895C151.21 55.1295 149.79 50.5595 144.51 48.0695C143.76 47.7095 144 47.2395 144.19 46.7095C145.26 43.8595 144.63 41.2595 142.86 38.9295C139.2 34.1095 131.48 34.2795 127.58 39.1995C126.2 40.9295 125.53 42.8595 126.23 45.0095C126.6 46.1295 126.35 46.4095 125.24 46.6495C122.21 47.2895 119.15 47.9695 116.62 49.8995C111.9 53.4995 109.24 58.1195 109.93 64.2595C110.03 65.1395 110.03 65.6295 108.88 65.3495C107.88 65.1095 107.08 65.6195 106.55 66.5195C104.75 69.5195 106.1 73.5095 109.37 74.7395C110.2 75.0395 110.73 75.4895 111 76.3395C112.19 80.0595 114.71 82.6595 118.08 84.4795C119.27 85.1195 120.52 85.6595 121.74 86.2595C122.15 86.4695 122.6 86.6595 122.93 86.9695C123.89 87.8495 123.74 89.0295 122.64 89.5995C121.5 90.1895 120.34 90.7695 119.35 91.5895C116.46 93.9495 113.99 96.7095 111.54 99.4895C108.53 102.9 105.3 106.06 101.73 108.89C97.46 112.26 92.69 114.51 87.45 115.89C84.18 116.75 81.09 118.01 78.97 120.89C78.6 121.39 78.26 121.89 78.69 122.49C79.11 123.07 79.71 123.04 80.31 122.85C81.2 122.56 82.08 122.26 82.96 121.96C83.29 121.84 83.54 121.73 83.78 122.19C84.54 123.63 84.66 123.7 86.03 122.86C87.57 121.91 89.18 121.24 90.98 121.01C91.71 120.92 92.88 120.65 93.58 120.44C101.61 118.08 108.59 113.85 114.94 108.46C115.41 108.07 116.14 107.21 116.8 107.08C117.09 107.01 116.95 107.77 116.86 108.51C116.46 114.02 116.67 113.5 115.56 119.45C114.61 126.65 114.32 126.73 113.08 127.18C109.01 128.63 105.37 130.9 101.79 133.24C95.06 137.63 90.01 143.65 85.52 150.2C84.96 151 85.03 151.59 86.07 151.92C87.13 152.26 88.11 152.79 88.88 153.61C90.25 155.07 92.02 156.02 93.97 156.52C94.9 156.75 95.49 157.32 95.73 158.33C96.06 159.67 96.96 160.51 98.29 160.9C99.2 161.17 100.12 161.23 101.06 161.22C102.42 161.2 103.64 161.46 104.65 162.5C105.35 163.24 106.31 163.579 107.32 163.43C108.7 163.24 110 163.29 111.27 163.92C111.57 164.07 111.9 164.15 112.23 164.1C113.35 163.95 113.71 164.57 113.97 165.5C115.61 171.38 117.23 177.26 118.96 183.12C121.35 191.21 123.1 199.38 122.5 207.91C122.44 208.74 122.26 209.31 121.51 209.77C120.07 210.66 118.69 211.66 117.31 212.64C116.93 212.91 116.59 213.3 116.74 213.83C116.91 214.43 117.44 214.52 117.97 214.53C119.11 214.55 120.26 214.57 121.4 214.55C122.03 214.54 122.49 214.68 122.57 215.39C122.74 216.86 123.68 217.21 125 217.15C128.39 217 131.78 216.93 135.17 216.78C136.94 216.7 138.74 216.85 140.48 216.38C141.15 216.2 141.86 216.01 141.96 215.19C142.05 214.37 141.43 214.02 140.8 213.69C139.18 212.85 137.5 212.15 135.79 211.51C135.21 211.299 134.88 211.05 134.96 210.33C135.52 204.78 135.18 199.23 134.84 193.69C134.71 191.66 134.36 189.65 134.7 187.6C135.89 180.33 137.08 173.049 138.2 165.76C138.38 164.56 138.76 164.03 140.02 164.14C140.63 164.19 141.28 163.95 141.87 163.75C143.03 163.35 144.05 162.63 145.27 162.35C146.58 162.04 147.72 161.35 148.66 160.41C149.56 159.52 150.64 159.07 151.75 158.52C154.15 157.33 156.41 155.82 158.56 154.24C159.87 153.28 160.81 151.78 162.44 151.11C162.98 150.89 163.2 150.41 162.71 149.89C159.94 146.99 157.98 143.48 155.55 140.33C151.37 134.92 146.85 129.91 140.48 126.97C139.89 126.7 139.86 126.25 139.82 125.73C139.42 119.98 139 114.23 138.6 108.48C138.57 108.04 138.44 107.56 139 106.92C139.93 107.93 140.78 108.97 141.75 109.89C148.17 116 155.68 119.58 164.67 119.69C165.82 119.71 166.94 119.87 167.98 120.42C168.56 120.73 169.22 120.51 169.39 119.87C169.72 118.59 170.63 118.84 171.53 118.89C171.95 118.92 172.38 118.97 172.8 118.95C173.3 118.93 173.89 118.95 174.04 118.31C174.19 117.72 173.76 117.36 173.34 117.07ZM121.96 213.17C121.09 213.24 120.22 213.3 119.02 213.38C119.84 212.32 120.66 211.9 121.45 211.44C121.72 211.29 122.1 210.91 122.32 211.28C122.54 211.65 122.51 212.17 122.53 212.63C122.55 212.98 122.29 213.15 121.96 213.17ZM128.64 42.0195C129.41 39.1295 133.48 37.1395 137.08 37.7495C139.94 38.2295 142.35 40.9195 142.19 43.6895C142.19 43.6895 142.15 44.0295 141.73 44.4795C140.21 42.3595 138.49 40.6995 135.84 40.3695C132.89 39.9995 130.7 41.4795 128.7 43.4095C128.56 42.6195 128.64 42.0195 128.64 42.0195ZM138.61 46.0195C137.64 46.2595 136.77 46.6195 135.2 46.6995H135.19C134.21 46.8095 133.11 46.8295 132.4 46.8195C132.04 46.8195 131.74 46.7695 131.49 46.6995C131.36 46.6495 131.24 46.6095 131.12 46.5595C131.1 46.5495 131.09 46.5395 131.07 46.5295C130.76 46.3895 130.49 46.2295 130.26 46.0495C130.28 45.9195 130.3 45.8395 130.3 45.8395L130.36 45.7195C130.68 45.0095 131.12 44.4095 131.64 43.9295C132.7 42.9395 134.07 42.4795 135.36 42.6595C136.03 42.7495 136.67 43.0095 137.25 43.4595C137.72 43.7295 138.21 44.3295 138.46 44.9495C138.62 45.3195 138.68 45.6895 138.61 46.0195ZM114.31 79.6495C113.42 78.5495 112.61 77.3695 112.33 75.9795C112.06 74.6395 111.3 73.9895 110.06 73.5595C107.66 72.7295 106.62 70.5595 107.3 68.0695C107.47 67.4295 107.7 66.7895 108.37 66.5895C109.1 66.3795 109.57 66.9195 109.91 67.4595C110.27 68.0195 110.63 68.0595 111.16 67.7195C111.73 67.3395 112.36 67.0895 113.04 66.9795C113.92 66.8395 114.1 66.2495 113.92 65.4695C112.28 58.1695 116.54 51.0695 123.77 49.0995C124.78 48.8295 125.8 48.5495 126.98 48.7095C126.71 49.3095 126.21 49.4995 125.82 49.7795C121.69 52.7295 118.81 56.5195 117.94 61.6195C117.79 62.4795 117.81 63.3795 117.8 64.2495C117.79 64.7495 117.96 65.2495 118.28 65.6495C118.66 66.1295 119.14 66.4495 119.76 66.1495C120.3 65.8895 120.36 65.3995 120.26 64.8495C119.48 60.3195 121.54 56.9095 124.54 53.8695H124.55V53.8495L124.59 53.8195C125 53.2995 128.76 48.7395 129 49.7595C129.1 50.1695 128.79 51.2695 128.43 52.3395C127.82 54.1695 127.41 56.0595 127.23 57.9895C127.19 58.3695 127.16 58.7395 127.12 59.1195C126.94 60.9295 127.16 62.6695 128.01 64.2995C128.32 64.8995 128.73 65.4595 129.49 65.1395C130.3 64.8095 130.25 64.1095 129.97 63.4195C128.74 60.4295 129.31 57.4595 130.1 54.4895C130.1 54.4895 130.92 50.0795 132.04 50.0795C132.62 50.0795 133.55 54.2695 133.58 54.7795V54.8295C134.25 57.8495 134.6 60.7395 135.23 63.7695C135.32 64.1895 135.41 64.5995 135.54 65.0095C135.76 65.7395 136.23 66.2295 137.04 66.0195C137.84 65.7995 137.82 65.1295 137.69 64.4595C136.92 60.4595 136.06 56.4895 135.03 52.5495C134.97 52.3295 134.88 52.1095 134.83 51.8695C134.82 51.8495 134.82 51.8295 134.82 51.8195C134.13 49.7495 134.6 49.6095 134.6 49.6095C134.6 49.6095 136.42 48.8795 138.64 51.7795C138.65 51.7895 138.66 51.8095 138.68 51.8295C139.3 52.4995 139.75 53.2995 140.15 54.1095C141.64 57.2195 142.26 60.5395 142.36 63.9695C142.37 64.3495 142.36 64.7295 142.38 65.1095C142.41 65.7095 142.6 66.2195 143.29 66.2695C144.04 66.3195 144.38 65.8495 144.46 65.1895C144.54 64.5695 144.59 63.9295 144.55 63.2995C144.31 58.5495 143.23 54.0695 140.22 50.2395C140.07 50.0395 139.96 49.8095 139.71 49.3995C141.67 49.2495 143.34 49.6495 144.82 50.6795C147.65 52.6295 148.74 55.5095 148.82 58.7995C148.89 61.5495 148.92 64.3495 146.61 66.4595C146.19 66.8495 146.02 67.4195 146.31 67.9795C146.59 68.5395 147.13 68.4895 147.65 68.4295C147.9 68.3995 148.15 68.3395 148.4 68.3195C150.26 68.1495 151.26 69.3495 150.57 71.1095C149.71 73.3295 148.09 74.7795 145.66 74.9695C144.39 75.0695 143.87 75.5895 143.51 76.7895C142.18 81.2695 138.78 83.6195 134.6 85.1295C127.48 87.7095 118.94 85.4195 114.31 79.6495ZM123.54 90.6495C124.67 90.3495 125.15 89.6295 124.86 88.4595C124.64 87.5795 124.89 87.2395 125.87 87.3695C128.03 87.6595 130.18 87.3895 132.32 87.0695C132.81 86.9995 133.21 86.9195 133.26 87.6595C133.51 91.0195 132.8 94.0295 130.4 96.5295C129.21 97.7595 127.84 98.3395 126.16 97.8695C124.43 97.3895 123.24 96.3495 122.89 94.5195C122.75 93.7695 122.63 93.0195 122.5 92.2695C122.37 91.4095 122.67 90.8695 123.54 90.6495ZM114.14 107.36C107.61 112.93 100.4 117.22 92.08 119.53C91.22 119.77 90.37 119.98 89.45 119.84C88.6 119.7 87.92 120.22 87.24 120.65C86.86 120.88 86.48 121.15 86.27 120.46C86.01 119.56 85.33 119.74 84.72 119.94C83.36 120.39 82.02 120.89 80.68 121.37C80.62 121.28 80.55 121.2 80.49 121.11C81.98 119.17 84.03 118.11 86.35 117.46C87.77 117.06 89.2 116.67 90.62 116.25C97.46 114.28 102.91 110.12 107.91 105.25C111.61 101.64 114.86 97.5995 118.63 94.0495C118.87 93.8195 119.11 93.5795 119.37 93.3595C119.9 92.8795 120.17 93.0295 120.2 93.7195C120.32 96.9195 119.78 100.04 118.28 102.82C117.31 104.59 115.73 106.01 114.14 107.36ZM122.31 188.94C122.31 189.04 122.24 189.14 122.18 189.29C121.73 188.939 121.75 188.43 121.64 188.01C119.63 180.36 117.45 172.75 115.2 165.16C115.06 164.68 114.59 164.11 115.12 163.64C115.64 163.18 116.16 163.63 116.64 163.88C117.95 164.55 119.33 164.549 120.72 164.29C121.49 164.14 121.93 164.28 121.96 165.2C122.24 173.11 122.37 181.02 122.31 188.94ZM124.94 214.65C124.47 214.65 123.76 214.78 123.87 213.99C123.97 213.29 123.45 212.23 124.62 211.98C126.39 211.6 128.18 211.31 129.97 211.03C131.39 210.8 132.64 211.83 134.16 212.28C132.9 213.4 131.56 213.78 130.23 214.13C128.5 214.58 126.72 214.66 124.94 214.65ZM124.06 210.51C124.06 210.03 124.56 210.18 124.86 210.18C125.78 210.16 126.7 210.18 127.62 210.18L127.68 210.45C126.73 210.58 125.79 210.72 124.84 210.85C124.52 210.89 124.05 210.99 124.06 210.52V210.51ZM132.8 210.44C131.36 210.23 130.94 209.79 131.1 208.65C131.68 204.51 132.5 200.41 133.33 196.31C133.35 196.2 133.44 196.11 133.5 196.01C133.59 196.02 133.68 196.03 133.77 196.05C133.77 200.39 133.79 204.73 133.74 209.08C133.73 209.59 133.98 210.62 132.8 210.44ZM139.81 214.88C136.43 215.71 133.03 215.72 129.58 215.39C130.4 215.16 131.23 214.95 132.04 214.69C132.52 214.53 133.07 214.4 133.43 214.08C135.87 211.84 137.76 213.91 139.81 214.88ZM136.89 166.3C136.25 170.02 135.64 173.74 135.02 177.46C133.35 187.32 131.7 197.18 130.01 207.04C129.62 209.32 129.88 208.93 127.75 208.98C126.95 209 126.13 208.9 125.34 209C124.08 209.16 123.75 208.59 123.75 207.44C123.78 200.53 123.76 193.62 123.76 186.71C123.75 179.89 123.5 173.07 123.25 166.25C123.22 165.36 123.43 165.18 124.35 164.92C126.54 164.3 128.64 164.49 130.84 164.64C132.4 164.75 134 164.41 135.63 164.59C136.89 164.73 137.07 165.24 136.89 166.3ZM141.58 128.95C146.62 131.84 150.52 135.92 153.94 140.5C156.07 143.36 158.1 146.29 160.22 149.15C160.81 149.94 160.98 150.48 159.91 150.98C159.08 151.36 158.58 152.14 158.08 152.88C157.71 153.41 157.22 153.84 156.64 154.11C155.46 154.66 155.02 154.51 154.28 153.35C152.1 149.97 149.91 146.59 147.73 143.2C147.64 143.06 147.56 142.91 147.46 142.77C147.25 142.43 146.98 142.09 146.55 142.37C146.1 142.66 146.37 143.04 146.58 143.36C147.91 145.42 149.25 147.48 150.59 149.54C151.54 151 152.45 152.49 153.46 153.9C154.09 154.78 153.9 155.43 153.22 156.12C152.31 157.04 151.16 157.43 149.95 157.71C149.23 157.89 149.11 157.31 148.89 156.88C146.9 152.89 144.92 148.91 142.94 144.92C142.85 144.73 142.77 144.53 142.66 144.35C142.48 144.01 142.27 143.61 141.8 143.89C141.4 144.12 141.6 144.48 141.75 144.78C142.21 145.73 142.7 146.67 143.17 147.62C144.74 150.82 146.32 154.01 147.87 157.21C148.54 158.6 148.38 159.08 147.12 159.98C146.81 160.2 146.48 160.41 146.14 160.58C144.33 161.48 143.97 161.33 143.41 159.41C142.79 157.29 142.21 155.17 141.59 153.05C141.46 152.64 141.45 151.93 140.82 152.09C140.2 152.24 140.5 152.86 140.62 153.28C141.23 155.49 141.87 157.7 142.5 159.9C142.88 161.23 142.07 162.49 140.71 162.7C138.74 163 136.75 163.39 134.74 163.19C133.63 163.08 132.55 163.04 131.46 163.34C130.59 163.58 129.71 163.5 128.9 163.07C128.02 162.61 126.95 162.62 126.11 163.15C125.14 163.76 124.11 163.82 123.09 163.27C122.26 162.82 121.39 162.77 120.49 162.99C119.24 163.3 118.06 163.19 116.94 162.51C116.23 162.08 115.35 162.04 114.58 162.33C113.14 162.88 111.72 162.92 110.32 162.15C109.61 161.76 108.84 161.9 108.09 162.06C107.06 162.28 106.09 162.09 105.37 161.36C104.15 160.13 102.71 159.83 101.06 159.94C99.81 160.03 98.59 159.9 97.65 158.91C96.42 157.61 96.25 156.08 97.22 154.48C100.03 149.87 103.52 145.76 107.01 141.66C108.71 139.66 110.45 137.69 112.17 135.7C112.44 135.38 112.67 135.02 112.89 134.66C113 134.48 113.02 134.24 112.84 134.07C112.61 133.86 112.36 133.97 112.16 134.13C112 134.26 111.86 134.43 111.72 134.59C107.6 139.48 103.28 144.22 99.44 149.34C98.22 150.97 97.07 152.66 96.1 154.44C95.66 155.24 95.17 155.52 94.26 155.24C92.9 154.82 91.61 154.32 90.55 153.35C89.68 152.55 88.79 151.76 87.77 151.13C87.14 150.75 87.05 150.38 87.5 149.71C93.62 140.43 101.91 133.71 111.87 128.93C112.92 128.43 113.86 128.39 114.85 129.12C115.88 129.88 117.15 130.18 118.34 130.63C118.85 130.82 119.17 130.94 119.33 131.09C119.62 131.33 119.44 131.64 118.95 132.48C116.9 135.99 114.82 139.5 112.79 143.02C112.49 143.55 111.67 144.29 112.43 144.73C113.08 145.11 113.36 144.08 113.66 143.57C115.78 139.95 117.87 136.31 119.97 132.68C120.12 132.42 120.3 132.18 120.42 131.91C120.68 131.32 121.14 131.22 121.68 131.39C122.35 131.61 122.08 132.14 121.98 132.56C120.99 136.55 119.98 140.54 118.98 144.53C118.88 144.94 118.8 145.36 118.72 145.77C118.67 146.07 118.65 146.42 119.03 146.5C119.4 146.58 119.53 146.24 119.62 145.96C119.88 145.07 120.12 144.17 120.35 143.26C121.21 139.81 122.06 136.35 122.93 132.9C123.22 131.78 124.34 131.25 125.34 131.72C125.72 131.9 125.77 132.11 125.68 133.33C125.35 137.6 125 141.87 124.71 146.14C124.67 146.7 124.35 147.68 125.17 147.72C125.82 147.75 125.63 146.76 125.67 146.21C126.02 141.86 126.37 137.51 126.64 133.15C126.68 132.5 126.83 132.08 127.19 131.84C127.41 131.69 127.71 131.6 128.12 131.57C131.71 131.28 135.02 129.91 138.36 128.67C139.53 128.23 140.47 128.32 141.58 128.95ZM138.82 126.59C138.77 126.98 136.57 127.46 136.57 127.46C131.76 129.59 126.31 129.8 122.27 129.59C118.23 129.38 115.89 127.76 115.59 126.48C115.29 125.21 117.29 115.59 117.59 112.87C117.89 110.14 117.38 106.61 119.46 102.61C121.55 98.6095 120.69 92.5995 120.69 92.5995L121.72 91.7195C122.22 93.3795 121.64 98.8095 127.53 98.6795C131.95 98.5795 134.23 91.1095 134.36 90.8895C134.49 90.6695 135.38 91.2995 135.76 91.4995C136.15 91.6895 134.33 100.3 136.24 103.21C138.16 106.11 137.32 106.53 137.57 107.07C137.83 107.61 138.21 115.21 138.27 117.22C138.34 119.23 138.86 126.19 138.82 126.59ZM168.14 118.32C168.12 118.4 167.96 118.51 167.86 118.51C164.42 118.34 160.97 118.43 157.57 117.51C151.39 115.84 146.18 112.57 141.72 108.06C140.07 106.39 138.24 104.9 137.22 102.62C135.87 99.5695 135.95 96.4295 136.22 93.2595C136.32 92.0095 136.97 92.8895 137.27 93.1395C140.77 96.0695 143.88 99.3295 146.3 103.23C148.79 107.28 151.68 110.95 156.07 113.15C159.36 114.79 162.84 115.8 166.46 116.36C167.63 116.54 168.8 116.67 170.09 117.26C169.26 117.62 168.34 117.33 168.14 118.32Z" fill="#DD1C47"/>
<path d="M126.43 81.3006C124.99 81.3006 123.74 80.4906 123.48 79.3706C123.39 78.9906 123.32 78.5806 123.78 78.4006C124.18 78.2506 124.37 78.5706 124.58 78.8506C125.74 80.3906 126.54 80.4606 127.98 79.1806C128.2 78.9906 128.42 78.7806 128.67 78.6306C128.95 78.4706 129.26 78.4906 129.47 78.7506C129.66 78.9706 129.55 79.2206 129.44 79.4606C128.99 80.4006 127.54 81.2906 126.43 81.3006Z" fill="#DD1C47"/>
<path d="M121.82 71.3403C121.73 72.0203 121.52 72.6303 120.71 72.6303C119.96 72.6303 119.51 72.1603 119.57 71.4103C119.62 70.6503 120.1 70.1103 120.87 70.0903C121.61 70.0703 121.8 70.6903 121.83 71.3403H121.82Z" fill="#DD1C47"/>
<path d="M134.38 71.7801C134.29 72.4401 133.92 72.8501 133.22 72.8101C132.55 72.7701 132.09 72.3601 132.08 71.6901C132.08 70.9701 132.62 70.6801 133.27 70.6701C133.96 70.6601 134.35 71.0401 134.38 71.7801Z" fill="#DD1C47"/>
<path d="M138.82 126.59C138.77 126.98 136.57 127.46 136.57 127.46C131.76 129.59 126.31 129.8 122.27 129.59C118.23 129.38 115.89 127.76 115.59 126.48C115.29 125.21 117.29 115.59 117.59 112.87C117.89 110.14 117.38 106.61 119.46 102.61C121.55 98.6097 120.69 92.5997 120.69 92.5997L121.72 91.7197C122.22 93.3797 121.64 98.8097 127.53 98.6797C131.95 98.5797 134.23 91.1097 134.36 90.8897C134.49 90.6697 135.38 91.2997 135.76 91.4997C136.15 91.6897 134.33 100.3 136.24 103.21C138.16 106.11 137.32 106.53 137.57 107.07C137.83 107.61 138.21 115.21 138.27 117.22C138.34 119.23 138.86 126.19 138.82 126.59Z" fill="#FCE5EE"/>
</svg>
