<svg width="58" height="58" viewBox="0 0 58 58" fill="none" xmlns="http://www.w3.org/2000/svg">
<path d="M41.8403 28.1802C41.7303 27.7402 41.5203 27.3402 41.2703 26.9502C41.0703 26.6502 40.8003 26.5002 40.4303 26.4802C40.0703 26.4702 39.7103 26.4302 39.3503 26.4002C38.4603 26.3302 37.5803 26.2802 36.7003 26.2202C35.6303 26.1702 34.5503 26.1302 33.4703 26.1002C31.5203 26.0302 29.5503 26.0002 27.5903 25.9702H25.4503C24.1403 25.9802 22.8303 25.9802 21.5003 25.9802C20.4503 25.9802 19.4103 25.9902 18.3603 25.9802C17.8203 25.9802 17.3003 26.0602 16.8003 26.2802C16.3403 26.4802 15.9803 26.8002 15.7103 27.2102C15.4503 27.6002 15.5403 29.0302 15.6003 29.4902C15.6803 30.0702 15.9803 30.5402 16.4103 30.9102C16.8003 31.2502 17.2803 31.4302 17.7803 31.5202C18.1503 31.5902 18.5303 31.6002 18.9003 31.5902C19.3903 31.5802 19.8703 31.5202 20.3603 31.5202C20.7803 31.5202 21.1903 31.5802 21.6103 31.5802C23.0903 31.6202 24.5803 31.5902 26.0603 31.5602C28.2703 31.5402 30.4603 31.5302 32.6603 31.6702C33.7803 31.7302 34.8903 31.7902 36.0003 31.8202C36.9203 31.8502 37.8303 31.8602 38.7503 31.7902C39.2803 31.7302 39.8303 31.6702 40.3403 31.5202C40.8303 31.3802 41.2603 31.1702 41.5903 30.7902C42.0103 30.3202 41.9703 28.7902 41.8403 28.1802ZM40.2403 29.6502C40.0603 29.7802 39.8503 29.8302 39.6403 29.8802C39.0303 30.0202 38.4003 30.0502 37.7703 30.0702C36.5903 30.0902 35.4103 30.0302 34.2403 29.9802C32.7303 29.9102 31.2303 29.8102 29.7203 29.7902C28.2403 29.7702 26.7603 29.7902 25.2703 29.8102C24.0903 29.8302 22.9003 29.8402 21.7003 29.8102C21.1503 29.7902 20.6003 29.7402 20.0403 29.7602C19.6003 29.7802 19.1503 29.8202 18.6903 29.8202C18.4103 29.8202 18.1203 29.8202 17.8303 29.7302C17.6603 29.6602 17.5203 29.5502 17.4103 29.4002C17.3303 29.2802 17.1503 28.2002 17.2603 28.0802C17.3903 27.9402 17.5703 27.8502 17.7703 27.8002C17.9503 27.7502 18.1303 27.7602 18.3203 27.7602C19.9003 27.7602 21.5003 27.7502 23.1003 27.7502C24.5403 27.7502 25.9703 27.7502 27.4103 27.7602H27.6403C29.4603 27.7602 31.2803 27.8002 33.0903 27.8502C34.0803 27.8702 35.0703 27.9202 36.0603 27.9702C36.8603 28.0102 37.6403 28.0402 38.4403 28.1002C38.9303 28.1502 39.4103 28.1802 39.8903 28.2102C39.9503 28.2202 39.9903 28.2302 40.0103 28.2802C40.0503 28.3602 40.2603 29.4402 40.2803 29.5302C40.3003 29.5902 40.2803 29.6202 40.2403 29.6502Z" fill="#DD1C47"/>
<path d="M40.2402 29.65C40.0602 29.78 39.8502 29.83 39.6402 29.88C39.0302 30.02 38.4002 30.05 37.7702 30.07C36.5902 30.09 35.4102 30.03 34.2402 29.98C32.7302 29.91 31.2302 29.81 29.7202 29.79C28.2402 29.77 26.7602 29.79 25.2702 29.81C24.0902 29.83 22.9002 29.84 21.7002 29.81C21.1502 29.79 20.6002 29.74 20.0402 29.76C19.6002 29.78 19.1502 29.82 18.6902 29.82C18.4102 29.82 18.1202 29.82 17.8302 29.73C17.6602 29.66 17.5202 29.55 17.4102 29.4C17.3302 29.28 17.1502 28.2 17.2602 28.08C17.3902 27.94 17.5702 27.85 17.7702 27.8C17.9502 27.75 18.1302 27.76 18.3202 27.76C19.9002 27.76 21.5002 27.75 23.1002 27.75C24.5402 27.75 25.9702 27.75 27.4102 27.76H27.6402C29.4602 27.76 31.2802 27.8 33.0902 27.85C34.0802 27.87 35.0702 27.92 36.0602 27.97C36.8602 28.01 37.6402 28.04 38.4402 28.1C38.9302 28.15 39.4102 28.18 39.8902 28.21C39.9502 28.22 39.9902 28.23 40.0102 28.28C40.0502 28.36 40.2602 29.44 40.2802 29.53C40.3002 29.59 40.2802 29.62 40.2402 29.65Z" fill="#FCE5EE"/>
<path d="M41.9102 19.3702C41.7302 18.9102 41.4402 18.5402 41.0402 18.2702C40.5402 17.9302 39.9902 17.7502 39.4302 17.6102C38.9702 17.4802 38.4902 17.4102 38.0202 17.3402C37.4302 17.2602 36.8402 17.2102 36.2602 17.1602C35.1902 17.0902 34.1402 17.0802 33.0802 17.0902C32.0502 17.0902 25.8302 17.1102 24.8002 17.1402C23.5902 17.1902 22.3802 17.2302 21.1702 17.2702C20.1702 17.3002 19.1602 17.3302 18.1502 17.3102C17.9402 17.3102 17.7202 17.3002 17.5102 17.2702C17.2402 17.2302 16.9902 17.2502 16.7502 17.3302C15.9502 17.6402 15.4602 18.1902 15.2602 19.0302C15.1802 19.3702 15.3102 20.1802 15.4102 20.5302C15.5202 20.9502 15.7202 21.3302 15.9902 21.6702C16.1202 21.8402 16.2402 22.0302 16.4402 22.1302C16.6002 22.2202 16.7702 22.2402 16.9502 22.2702C17.6202 22.3802 18.2902 22.4502 18.9602 22.5102C19.6802 22.5802 20.3902 22.6102 21.1002 22.6402C22.6402 22.6902 24.1802 22.6902 25.4002 22.7602C26.7002 22.8102 32.8502 22.8102 33.8202 22.8002C35.1202 22.7802 36.4302 22.7002 37.7302 22.5902C38.3302 22.5202 38.9402 22.4502 39.5402 22.3602C40.0702 22.2602 40.6102 22.1602 41.1402 22.0102C41.4202 21.9402 41.6602 21.7902 41.8102 21.5302C41.9702 21.2202 42.0802 20.9102 42.1002 20.5702C42.1202 20.3202 41.9902 19.6102 41.9102 19.3702ZM40.2502 20.4102C39.5902 20.5702 38.9102 20.6702 38.2302 20.7602C36.0702 21.0002 33.8902 21.0702 31.7202 21.0102C31.5302 21.0002 26.1602 21.0002 25.9802 21.0002L24.7302 20.9702C23.3202 20.9302 22.6102 20.9102 21.1902 20.8602C20.2302 20.8402 19.2802 20.7802 18.3202 20.6902C18.0202 20.6502 17.7102 20.6002 17.4102 20.5702C17.3802 20.5602 17.3502 20.5602 17.3402 20.5402C17.2302 20.3502 16.9802 19.7002 16.9802 19.4702C16.9802 19.2902 17.1102 19.1002 17.2802 19.0402C17.3002 19.0302 17.3202 19.0302 17.3502 19.0302C18.6902 19.1502 20.0502 19.0702 21.4102 19.0402C22.8802 18.9802 24.3402 18.9202 25.8102 18.8902C27.2202 18.8502 33.8302 18.8402 35.2402 18.8802C35.9602 18.9002 36.6802 18.9502 37.3902 19.0402C38.1402 19.1202 38.8702 19.2402 39.5802 19.5002C39.8002 19.5702 40.0002 19.6802 40.1602 19.8302C40.2402 19.9102 40.3502 20.3802 40.2502 20.4102Z" fill="#DD1C47"/>
<path d="M40.2505 20.41C39.5905 20.57 38.9105 20.67 38.2305 20.76C36.0705 21 33.8905 21.07 31.7205 21.01C31.5305 21 26.1605 21 25.9805 21L24.7305 20.97C23.3205 20.93 22.6105 20.91 21.1905 20.86C20.2305 20.84 19.2805 20.78 18.3205 20.69C18.0205 20.65 17.7105 20.6 17.4105 20.57C17.3805 20.56 17.3505 20.56 17.3405 20.54C17.2305 20.35 16.9805 19.7 16.9805 19.47C16.9805 19.29 17.1105 19.1 17.2805 19.04C17.3005 19.03 17.3205 19.03 17.3505 19.03C18.6905 19.15 20.0505 19.07 21.4105 19.04C22.8805 18.98 24.3405 18.92 25.8105 18.89C27.2205 18.85 33.8305 18.84 35.2405 18.88C35.9605 18.9 36.6805 18.95 37.3905 19.04C38.1405 19.12 38.8705 19.24 39.5805 19.5C39.8005 19.57 40.0005 19.68 40.1605 19.83C40.2405 19.91 40.3505 20.38 40.2505 20.41Z" fill="#FCE5EE"/>
<path d="M41.7302 36.21C41.6202 36.06 41.5202 35.91 41.3902 35.76C41.2202 35.56 40.9802 35.47 40.7402 35.39C40.0602 35.2 39.3602 35.12 38.6702 35.05C37.8602 34.94 22.7702 35.09 21.9602 35.07C21.2002 35.05 20.4402 35.07 19.6802 35.14C19.2502 35.17 18.8202 35.22 18.3902 35.3C17.7802 35.41 17.0702 35.55 16.5402 35.89C16.0902 36.17 15.8802 36.6 15.7402 37.12C15.6002 37.63 15.8902 38.94 16.2102 39.36C16.5302 39.76 16.9502 40 17.4102 40.19C17.8102 40.35 18.2602 40.4 18.6802 40.48C19.2902 40.62 19.9302 40.64 20.5502 40.71C21.2802 40.77 21.9902 40.8 22.7202 40.81C22.9702 40.82 37.5302 40.62 37.7802 40.62C38.6302 40.63 39.4902 40.6 40.3302 40.54C40.6102 40.52 40.8802 40.48 41.1402 40.44C41.4602 40.39 41.6502 40.18 41.7602 39.91C41.9502 39.5 42.1302 39.1 42.2202 38.66C42.3702 38.05 42.1002 36.74 41.7302 36.21ZM40.3902 38.35C40.3902 38.52 40.3802 38.65 40.3602 38.71C40.3402 38.76 40.3102 38.77 40.2702 38.77C40.2102 38.77 40.1402 38.78 40.0802 38.78H40.0702C39.3202 38.83 38.5502 38.86 37.7502 38.87C37.2002 38.86 22.3102 39.04 21.7002 39.01C20.6902 38.96 19.7502 38.93 18.6702 38.74C18.5402 38.72 18.0302 38.7 17.7602 38.52C17.5102 38.33 17.4002 37.29 17.5902 37.2C17.9502 37.06 18.1402 37.01 18.5002 36.97C19.1302 36.88 19.6902 36.88 20.2602 36.86C21.1202 36.82 36.2702 36.63 37.1402 36.67C37.9102 36.72 38.6702 36.79 39.4402 36.91C39.4802 36.92 39.5902 36.93 39.6702 36.96C39.9402 37.05 40.0402 37.1 40.1402 37.21C40.2802 37.34 40.3202 37.49 40.3202 37.49C40.3602 37.64 40.3802 37.98 40.3902 38.26C40.3902 38.26 40.4002 38.29 40.3902 38.35Z" fill="#DD1C47"/>
<path d="M40.3903 38.26C40.3903 38.26 40.4003 38.29 40.3903 38.35C40.3903 38.52 40.3803 38.6501 40.3603 38.7101C40.3403 38.7601 40.3103 38.7701 40.2703 38.7701C40.2103 38.7701 40.1403 38.7801 40.0803 38.7801H40.0703C39.3203 38.8301 38.5503 38.8601 37.7503 38.8701C37.2003 38.8601 22.3103 39.04 21.7003 39.01C20.6903 38.96 19.7503 38.9301 18.6703 38.7401C18.5403 38.7201 18.0303 38.7001 17.7603 38.5201C17.5103 38.3301 17.4003 37.2901 17.5903 37.2001C17.9503 37.0601 18.1403 37.0101 18.5003 36.9701C19.1303 36.8801 19.6903 36.8801 20.2603 36.8601C21.1203 36.8201 36.2703 36.63 37.1403 36.67C37.9103 36.72 38.6702 36.7901 39.4403 36.9101C39.4803 36.9201 39.5903 36.9301 39.6702 36.9601C39.9403 37.0501 40.0403 37.1001 40.1403 37.2101C40.2803 37.3401 40.3203 37.4901 40.3203 37.4901C40.3603 37.6401 40.3803 37.98 40.3903 38.26Z" fill="#FCE5EE"/>
</svg>
