<svg width="66" height="65" viewBox="0 0 66 65" fill="none" xmlns="http://www.w3.org/2000/svg">
<g clip-path="url(#clip0_3214_11245)">
<path d="M65.8901 26.9543C65.0709 37.2468 66.0613 47.733 65.5722 58.0618C65.5111 59.2364 65.4377 60.4714 64.8142 61.4765C64.1417 62.5663 62.9435 63.2565 61.7452 63.765C56.8668 65.7751 51.597 64.6974 46.3273 64.8427C38.0865 65.097 29.7234 65.0122 21.4826 64.8306C18.8049 64.758 16.0906 64.5521 13.5352 63.7771C12.1046 63.3533 10.6986 62.7237 9.63483 61.6823C7.97199 60.0597 7.37288 57.6864 7.04276 55.3979C6.6515 52.7097 6.55369 49.9973 6.44365 47.285C6.2847 43.4102 6.6515 37.6101 6.50478 33.7352C6.94494 26.8453 5.50219 19.6527 7.99644 13.1987C8.55887 11.7457 9.36584 10.3047 10.6252 9.34813C11.7134 8.51262 13.0705 8.11303 14.4155 7.7982C26.1654 4.98896 38.2943 7.02324 50.3988 7.21698C52.9298 7.27752 56.1454 7.48337 57.9183 7.95562C58.4929 8.10092 59.0187 8.25834 59.5322 8.41575C59.3732 7.55603 59.6422 6.76896 59.6422 6.76896C60.0213 8.22201 60.7916 8.82745 61.1461 9.05752C61.2684 9.13017 61.354 9.15439 61.354 9.15439C63.0902 10.0141 64.1539 11.2855 64.6797 13.7921C65.2054 16.2986 66.367 21.1784 65.8901 26.9543Z" fill="#DD1C47"/>
<path d="M0.916968 28.2134C1.36936 21.3113 -0.0978523 14.1187 2.3964 7.67685C2.97106 6.21169 3.7658 4.78285 5.02516 3.82626C6.11334 2.99075 7.47051 2.57905 8.81545 2.26422C20.5776 -0.545019 32.6943 1.48926 44.7988 1.69511C47.3297 1.73143 50.5454 1.93728 52.3182 2.40953C56.1574 3.43877 58.2604 4.37115 59.0796 8.23386C59.6054 10.7525 60.7669 15.6202 60.2901 21.3961C59.4709 31.6886 60.4612 42.199 59.9722 52.5157C59.9233 53.6903 59.8255 54.9132 59.2019 55.9183C58.5294 57.0202 57.3312 57.6983 56.133 58.2068C51.2667 60.229 45.9848 59.1392 40.7273 59.2966C32.4864 59.5509 24.1233 59.4662 15.8825 59.2845C13.1926 59.2361 10.5027 59.006 7.93512 58.2311C6.50459 57.8073 5.09852 57.1776 4.03479 56.1362C2.37195 54.5137 1.77284 52.1403 1.45494 49.8518C1.06369 47.1636 0.965875 44.4513 0.855834 41.7631C0.696886 37.8762 1.06369 32.0882 0.904741 28.2013" fill="#FCE5EE"/>
<path d="M0.916968 28.2134C1.36936 21.3114 -0.0978523 14.1187 2.3964 7.67685C2.97106 6.21169 3.7658 4.78285 5.02516 3.82626C6.11334 2.99075 7.47051 2.57905 8.81545 2.26422C20.5776 -0.545019 32.6943 1.48926 44.7988 1.69511C47.3297 1.73143 50.5454 1.93728 52.3182 2.40953C56.1574 3.43877 58.2604 4.37115 59.0796 8.23386C59.6054 10.7525 60.7669 15.6202 60.2901 21.3961C59.4709 31.6886 60.4612 42.199 59.9722 52.5157C59.9233 53.6903 59.8255 54.9132 59.2019 55.9183C58.5294 57.0202 57.3312 57.6983 56.133 58.2068C51.2667 60.229 45.9848 59.1392 40.7273 59.2966C32.4864 59.5509 24.1233 59.4662 15.8825 59.2845C13.1926 59.2361 10.5027 59.006 7.93512 58.2311C6.50459 57.8073 5.09852 57.1776 4.03479 56.1362C2.37195 54.5137 1.77284 52.1403 1.45494 49.8518C1.06369 47.1636 0.965875 44.4513 0.855834 41.7631C0.696886 37.8762 1.06369 32.0882 0.904741 28.2013" stroke="#DD1C47" stroke-width="1.3" stroke-miterlimit="10"/>
<path d="M31.3493 13.4407C24.7591 12.8837 17.3374 15.7656 14.7576 22.1469C13.2904 25.8038 13.2293 30.0176 13.4249 33.8924C13.5716 36.9438 14.7209 39.9953 17.0562 42.1022C19.5872 44.3665 22.8395 45.3352 26.1529 45.7469C29.4664 46.1465 33.3178 46.4129 36.5579 45.3716C43.5027 43.1557 47.6842 34.9338 46.4983 28.0681C45.838 24.2659 44.2852 20.7544 41.3141 18.1752C38.343 15.596 35.3597 13.7555 31.3249 13.4286C28.745 13.2227 28.7572 17.2065 31.3249 17.4124C36.3134 17.812 40.8373 22.1953 42.1088 26.833C42.8669 29.5696 42.9892 32.1972 41.8521 34.8611C40.8006 37.3071 38.9543 39.7773 36.5579 41.0487C34.1492 42.3202 31.007 42.0901 28.3415 41.9206C25.8839 41.7874 23.3163 41.412 21.1644 40.1527C19.2081 39.0023 17.8021 37.0286 17.5086 34.7643C17.1296 31.9187 17.2274 28.395 17.8754 25.5858C18.5234 22.7766 19.8684 20.6212 22.5094 19.1681C25.1503 17.7151 28.2682 17.146 31.3249 17.4003C33.9169 17.6182 33.8925 13.6223 31.3249 13.4165V13.4407H31.3493Z" fill="#DD1C47"/>
<path d="M48.5281 9.25156C48.5281 9.25156 48.4548 9.22734 48.4303 9.22734C48.2347 9.1789 48.0268 9.15469 47.8312 9.14258H47.7089C47.5011 9.15469 47.2932 9.1789 47.0854 9.22734C46.8653 9.26367 46.633 9.37264 46.4251 9.48162C46.205 9.57849 46.0094 9.76013 45.826 9.90543C45.7771 9.94176 45.716 10.0023 45.6793 10.0507C45.5204 10.2324 45.3614 10.4261 45.2514 10.632C45.1413 10.8378 45.0435 11.0921 44.9579 11.3222C44.9335 11.4069 44.909 11.5038 44.8846 11.5886C44.8112 11.9397 44.7745 12.2788 44.7501 12.6299C44.7501 12.7147 44.7378 12.8115 44.7501 12.8963C44.7501 13.09 44.7867 13.308 44.8356 13.5139C44.8846 13.7197 44.9824 13.9013 45.0802 14.083C45.178 14.2888 45.3492 14.4826 45.4959 14.6642C45.6426 14.8458 45.8627 14.979 46.0583 15.1243C46.1317 15.1606 46.1806 15.2091 46.254 15.2333C46.4618 15.3302 46.6819 15.4392 46.9264 15.5118C46.9876 15.5239 47.0487 15.536 47.1098 15.5481C47.3421 15.5966 47.5989 15.6329 47.8312 15.645C48.1369 15.645 48.4425 15.6087 48.736 15.5481C49.0294 15.4997 49.3229 15.3544 49.5919 15.2333C49.8608 15.1122 50.0932 14.9185 50.3377 14.7368C50.8023 14.3615 51.0957 13.8287 51.2914 13.2717C51.3525 13.1143 51.3525 12.969 51.377 12.8115C51.4014 12.6541 51.4259 12.5088 51.4136 12.3514C51.4136 12.1213 51.377 11.8792 51.3158 11.6612C51.3036 11.5764 51.2791 11.5038 51.2425 11.4432C51.1569 11.2253 51.0713 10.9831 50.949 10.7894C50.8268 10.5956 50.6678 10.3898 50.4966 10.2082C50.4355 10.1476 50.3988 10.0992 50.3255 10.0386C50.1421 9.88121 49.9587 9.73591 49.7508 9.61482C49.5429 9.49373 49.3106 9.40897 49.0783 9.32421C49.005 9.29999 48.9316 9.27577 48.8583 9.26367C48.6626 9.22734 48.4425 9.19101 48.2469 9.1789H48.1246C47.9168 9.1789 47.7089 9.22734 47.5133 9.26367C47.4766 9.26367 47.4277 9.27577 47.391 9.28788C46.902 9.42108 46.4374 9.77224 46.1928 10.196C46.0339 10.4261 45.9727 10.6683 45.9483 10.9468C45.8994 11.2132 45.9116 11.4675 45.9972 11.746C46.1439 12.2303 46.4618 12.7026 46.9142 12.9326C47.3788 13.1627 47.929 13.2838 48.467 13.1385C48.5037 13.1385 48.5526 13.1143 48.5893 13.1143L48.0635 13.1869H48.3325L47.8068 13.1143C47.9046 13.1264 47.9902 13.1627 48.088 13.199L47.6111 12.9932C47.6967 13.0295 47.7823 13.09 47.8679 13.1385L47.4644 12.8237C47.5622 12.8963 47.6478 12.9932 47.7334 13.09L47.4155 12.6905C47.4889 12.7873 47.5378 12.8721 47.5867 12.9811L47.3788 12.5088C47.4155 12.6057 47.4522 12.7147 47.4644 12.8237L47.391 12.303V12.5936L47.4644 12.0729C47.4522 12.1577 47.4155 12.2424 47.391 12.3272L47.5989 11.8549C47.5622 11.9518 47.5011 12.0366 47.4399 12.1213L47.7578 11.7218C47.6723 11.8186 47.5867 11.9034 47.4889 11.9881L47.8923 11.6733C47.7945 11.746 47.6845 11.8065 47.5622 11.8671L48.0391 11.6612C47.8923 11.7096 47.7578 11.7581 47.6111 11.7823L48.1369 11.7096C47.9902 11.7218 47.8557 11.7218 47.7212 11.7096L48.2469 11.7823C48.1246 11.7702 47.9902 11.7339 47.8679 11.6854L48.3447 11.8913C48.2469 11.8549 48.1613 11.8065 48.0757 11.7339L48.4792 12.0487C48.4792 12.0487 48.3692 11.9518 48.308 11.8913L48.6259 12.2909C48.6259 12.2909 48.5526 12.194 48.5281 12.1335L48.736 12.6057C48.736 12.6057 48.7115 12.5088 48.6993 12.4483L48.7727 12.969C48.7604 12.7752 48.7849 12.5815 48.8216 12.3998L48.7482 12.9205C48.7727 12.7268 48.8216 12.533 48.8827 12.3393L48.6749 12.8115C48.7238 12.7147 48.7727 12.6178 48.8338 12.533L48.5159 12.9326C48.5159 12.9326 48.6259 12.8115 48.6993 12.751L48.2958 13.0658C48.2958 13.0658 48.4181 12.9811 48.4792 12.9568L48.0024 13.1627C48.0024 13.1627 48.1491 13.1264 48.2102 13.1022L47.6845 13.1748H47.8557L47.3299 13.1022C47.3299 13.1022 47.4399 13.1264 47.5011 13.1385C47.7701 13.2232 48.0268 13.2354 48.308 13.1748C48.577 13.1748 48.8216 13.0779 49.0661 12.9447C49.2984 12.8237 49.4818 12.6541 49.6285 12.4362C49.8119 12.2424 49.922 12.0245 49.9953 11.7581C50.1054 11.2495 50.0932 10.6804 49.7875 10.2203L49.4696 9.82067C49.2128 9.57849 48.9194 9.40897 48.577 9.3121L48.6137 9.21523L48.5281 9.25156Z" fill="#DD1C47"/>
</g>
<defs>
<clipPath id="clip0_3214_11245">
<rect width="66" height="65" fill="white"/>
</clipPath>
</defs>
</svg>
