<svg width="57" height="57" viewBox="0 0 57 57" fill="none" xmlns="http://www.w3.org/2000/svg">
<path d="M44.05 24.8648C44.0709 23.8606 43.9872 22.8459 43.9035 21.8312C43.7885 19.9379 43.3282 18.1386 42.5227 16.4335C41.1942 13.5987 38.4535 11.3706 35.0747 11.8518C32.7002 12.1865 30.5453 13.243 29.3214 15.4293C28.7879 16.3708 28.4846 17.3227 28.244 18.4106C27.7523 20.6806 27.6895 22.961 27.6372 25.2205C27.6268 25.5029 27.5849 25.7226 27.4803 25.9004C26.5075 25.8795 25.5451 25.8063 24.5723 25.8063C23.2438 25.8063 21.9048 25.7749 20.5763 25.8063C20.4089 25.8063 20.273 25.7958 20.1474 25.754C18.526 25.7121 15.9213 25.7435 15.9213 25.7435C15.8376 25.7854 15.7435 25.8167 15.6284 25.8481C14.6661 26.0992 13.6828 26.5594 13.3899 27.6892C13.212 28.3796 13.076 29.0909 13.0447 29.8127C12.8041 33.6204 13.0656 37.4385 12.9923 41.2462C12.9923 41.5181 13.0133 41.7797 13.0551 42.0516C13.2748 43.6626 13.5886 44.1124 14.823 44.2798C18.7875 44.7923 22.7521 45.1898 26.7481 45.1898C27.7418 45.1898 28.7251 45.1898 29.7294 45.1898C30.7127 45.2003 31.7064 45.2212 32.6897 45.2212C33.8822 45.2212 34.6877 44.74 35.0015 43.809C35.6082 41.947 35.9534 40.085 35.9325 38.108C35.8907 35.6916 35.5873 33.2856 35.4723 30.8797C35.4095 29.7499 35.4304 28.5993 35.1271 27.4695C34.9178 26.7373 34.5203 26.3188 33.809 26.2038C33.2337 26.1306 32.2504 26.0678 31.2775 26.0155C31.0579 25.9109 30.9742 25.6912 30.9637 25.2414C30.9323 23.9129 30.88 22.5739 30.8696 21.2454C30.8696 20.0843 30.8068 18.9336 31.2566 17.783C31.7692 16.4858 33.2546 15.262 34.6354 15.105C34.6354 15.105 39.8657 13.787 40.8386 20.6806C41.0373 22.1137 40.8804 22.961 40.9013 24.3941C40.9013 24.8962 40.577 25.8481 41.3616 25.9423C42.983 25.9004 43.37 25.9213 43.37 25.9213C44.186 25.7854 44.0395 25.3565 44.05 24.8648ZM32.4701 28.5888C33.2232 28.9026 33.4743 29.5512 33.5684 30.2416C33.809 32.2605 33.9659 33.6831 33.8718 35.7125C33.7672 37.836 33.4638 38.9762 33.2755 41.0683C33.1709 42.1562 32.5328 42.8885 31.4658 42.8989C29.1017 42.9303 27.2293 43.15 24.3526 43.2128C21.7793 43.3383 18.8294 42.7316 15.9318 41.6646C15.5238 41.5181 15.3878 41.2776 15.3983 40.8591C15.4088 40.2733 15.3878 39.562 15.4088 38.8716V38.8507C15.4192 38.3695 15.4401 37.9092 15.482 37.5222C15.8167 34.656 15.346 33.5471 15.346 31.0052V30.6182C15.3355 30.524 15.346 30.4299 15.346 30.3253C15.4401 27.208 18.7771 27.6055 18.7771 27.6055C22.3546 27.6473 25.451 27.7938 29.039 27.9089C30.2001 27.9507 31.3717 28.139 32.4701 28.5888Z" fill="#DD1C47"/>
<path d="M33.8717 35.7128C33.7671 37.8363 33.4638 38.9765 33.2755 41.0686C33.1709 42.1565 32.5328 42.8888 31.4658 42.8992C29.1017 42.9306 27.2292 43.1503 24.3526 43.213C21.7792 43.3386 18.8293 42.7319 15.9318 41.6649C15.5238 41.5184 15.3878 41.2778 15.3983 40.8594C15.4087 40.2736 15.3878 39.5623 15.4087 38.8719V38.851C15.4192 38.3698 15.4401 37.9095 15.4819 37.5225C15.8167 34.6562 15.346 33.5474 15.346 31.0055V30.6184C15.3355 30.5243 15.346 30.4301 15.346 30.3255C15.4401 27.2083 18.777 27.6058 18.777 27.6058C22.3546 27.6476 25.4509 27.7941 29.0389 27.9091C30.2001 27.951 31.3717 28.1393 32.47 28.5891C33.2232 28.9029 33.4742 29.5514 33.5684 30.2419C33.809 32.2608 33.9659 33.6834 33.8717 35.7128Z" fill="#FCE5EE"/>
<path d="M26.4342 36.5599C27.02 37.6164 26.7794 38.6939 26.4342 39.7504C26.2773 40.2316 25.7857 40.3676 25.3045 40.3467C24.2793 40.2734 23.2437 40.2107 22.2081 40.3676C21.6223 40.4617 21.5596 40.0224 21.5805 39.583C21.6328 38.6625 21.8838 37.8047 22.229 36.9783C22.4069 36.539 22.5952 36.1101 22.7625 35.6603C22.9613 35.1373 22.7311 34.6979 22.4487 34.2795C21.5177 32.8882 21.9675 31.0158 23.4006 30.1894C23.8714 29.9174 24.3944 29.9383 24.8337 29.907C26.1832 29.8756 26.9049 30.4614 27.1455 31.748C27.3547 32.7836 27.2711 33.746 26.5284 34.5933C26.0158 35.1896 26.0472 35.8695 26.4342 36.5599Z" fill="#DD1C47"/>
</svg>
