<svg width="52" height="52" viewBox="0 0 52 52" fill="none" xmlns="http://www.w3.org/2000/svg">
<path d="M36.0631 28.2569C36.0058 27.2167 36.0344 26.167 35.7481 25.1364C35.5668 24.4779 35.2042 24.0866 34.5457 23.9816C33.9159 23.8767 33.6964 23.5427 33.6868 22.9224C33.6391 20.8515 33.5914 18.5803 33.0665 16.5094C32.7898 15.4311 32.5417 14.849 32.055 13.9805C30.9289 11.986 29.0585 11.0317 26.8922 10.7264C23.8098 10.2778 21.3095 12.3105 20.0976 14.9062C19.3627 16.4522 18.9428 18.1031 18.8379 19.8304C18.7711 20.7466 18.6852 21.6722 18.7138 22.5979C18.7138 23.1228 18.6279 23.4854 17.9599 23.6572C17.0915 23.8862 16.1945 24.3061 15.9177 25.3368C15.7555 25.9666 15.641 26.6251 15.6028 27.274C15.3833 30.7477 15.6314 34.2309 15.5551 37.7045C15.5551 37.9526 15.5837 38.2008 15.6219 38.4393C15.8127 39.9185 16.1086 40.3193 17.2251 40.472C20.8419 40.9396 24.4683 41.3023 28.1042 41.3023C29.0203 41.3023 29.9173 41.3023 30.8239 41.3023C31.721 41.3118 32.6371 41.3404 33.5341 41.3404C34.6221 41.3404 35.3569 40.8919 35.6336 40.0426C36.1967 38.3535 36.5116 36.6453 36.4829 34.8512C36.4543 32.6467 36.168 30.4518 36.0631 28.2569ZM21.6435 18.7807C22.531 12.4823 27.3025 13.6847 27.3025 13.6847C28.5622 13.8279 29.9173 14.9539 30.3849 16.1277C30.7858 17.1775 30.7285 18.2272 30.7285 19.2865C30.719 20.508 30.6712 21.7199 30.6522 22.9319C30.6522 23.6572 30.404 23.724 29.6788 23.724C28.4954 23.7335 27.3121 23.619 26.1192 23.619C24.9263 23.619 23.6953 23.5999 22.4833 23.619C21.8535 23.6286 21.5672 23.3327 21.5672 22.722C21.5958 21.4146 21.4527 20.0881 21.6435 18.7807ZM34.6125 32.6563C34.5171 34.5935 34.2403 35.6337 34.059 37.5518C33.9636 38.5443 33.3815 39.2123 32.4176 39.2219C30.2609 39.241 28.5527 39.4509 25.9284 39.5082C23.5808 39.6131 20.8801 39.0596 18.2462 38.0958C17.874 37.9526 17.7404 37.7332 17.75 37.361C17.7595 36.8266 17.75 36.1776 17.7691 35.5478V35.5287C17.7786 35.0993 17.7977 34.6698 17.8359 34.3072C18.1603 31.5684 17.6545 30.5759 17.7023 27.9802C17.6927 27.9038 17.7023 27.8179 17.7023 27.7416C17.7881 24.8978 20.8324 25.2604 20.8324 25.2604C24.1056 25.3081 26.9304 25.4417 30.1941 25.5467C31.2629 25.5753 32.3222 25.7566 33.3242 26.167C34.0113 26.4437 34.2499 27.0354 34.3262 27.6653C34.5553 29.5166 34.6889 30.8049 34.6125 32.6563Z" fill="#DD1C47"/>
<path d="M34.3265 27.6649C34.2501 27.0351 34.0115 26.4434 33.3244 26.1667C32.3224 25.7563 31.2631 25.575 30.1943 25.5464C26.9306 25.4414 24.1059 25.3078 20.8326 25.2601C20.8326 25.2601 17.7884 24.8975 17.7025 27.7413C17.7025 27.8176 17.6929 27.9035 17.7025 27.9799C17.6548 30.5756 18.1606 31.568 17.8361 34.3069C17.7979 34.6695 17.7788 35.099 17.7693 35.5284V35.5475C17.7502 36.1773 17.7693 36.8263 17.7502 37.3607C17.7407 37.7328 17.8743 37.9523 18.2464 38.0955C20.8803 39.0593 23.581 39.6128 25.9286 39.5078C28.5529 39.4506 30.2611 39.2406 32.4178 39.2215C33.3817 39.212 33.9638 38.544 34.0592 37.5515C34.2406 35.6334 34.5173 34.5932 34.6127 32.6559C34.6891 30.8046 34.5555 29.5163 34.3265 27.6649ZM27.8181 33.4289C28.3525 34.3928 28.133 35.3757 27.8181 36.3396C27.675 36.7785 27.2264 36.9026 26.7875 36.8835C25.8522 36.8167 24.9075 36.7594 23.9627 36.9026C23.4283 36.9885 23.371 36.5877 23.3901 36.1869C23.4378 35.3471 23.6669 34.5646 23.9818 33.8107C24.1536 33.4098 24.3158 33.0186 24.4685 32.6082C24.6498 32.1311 24.4399 31.7303 24.1822 31.3485C23.3329 30.0793 23.7432 28.3711 25.0506 27.6172C25.4801 27.3691 25.9572 27.3882 26.358 27.3596C27.5891 27.3309 28.2475 27.8653 28.467 29.0391C28.6579 29.9839 28.5815 30.8619 27.904 31.6348C27.4364 32.1788 27.465 32.7991 27.8181 33.4289Z" fill="#FCE5EE"/>
<path d="M27.8177 33.4289C28.3521 34.3927 28.1326 35.3756 27.8177 36.3395C27.6746 36.7785 27.2261 36.9025 26.7871 36.8834C25.8519 36.8166 24.9071 36.7594 23.9623 36.9025C23.4279 36.9884 23.3707 36.5876 23.3898 36.1868C23.4375 35.347 23.6665 34.5645 23.9814 33.8106C24.1532 33.4098 24.3154 33.0185 24.4681 32.6082C24.6494 32.131 24.4395 31.7302 24.1818 31.3485C23.3325 30.0793 23.7428 28.3711 25.0502 27.6172C25.4797 27.369 25.9568 27.3881 26.3576 27.3595C27.5887 27.3309 28.2472 27.8653 28.4666 29.0391C28.6575 29.9838 28.5812 30.8618 27.9036 31.6348C27.436 32.1787 27.4646 32.799 27.8177 33.4289Z" fill="#DD1C47"/>
</svg>
