<svg width="20" height="33" viewBox="0 0 20 33" fill="none" xmlns="http://www.w3.org/2000/svg">
<g clip-path="url(#clip0_5477_1610)">
<path d="M12.5228 20.5379C12.4994 20.7531 12.4603 20.9682 12.3899 21.1834C11.858 22.8046 9.95734 24.1493 8.13489 23.8573C6.35155 23.5653 5.11573 22.09 4.25534 20.5072C4.10673 20.2152 3.96594 19.9232 3.83297 19.6389C3.70001 19.3469 3.58268 19.0549 3.47318 18.786C3.41843 18.6477 3.36367 18.5094 3.31674 18.3711C2.472 15.9046 2.22953 13.3382 2.12785 10.7564C2.03399 8.39748 1.65855 5.59289 2.73794 3.41068C2.80051 3.28774 2.86309 3.1648 2.93348 3.04954C3.36367 2.34263 3.94248 1.73561 4.6386 1.28226C4.69336 1.23616 4.74811 1.20543 4.81068 1.17469L4.85761 1.15164C4.90454 1.1209 4.95147 1.09017 4.9984 1.06712C5.53027 0.767449 6.25769 0.437044 6.8756 0.721346C7.31361 0.921125 7.76727 1.49741 8.05667 1.86623C8.62765 2.5962 9.05002 3.54899 9.00309 4.4941C8.98745 4.87061 8.91706 5.26248 8.79973 5.63131C8.70587 5.89256 8.59637 6.16917 8.43993 6.39969C8.37736 6.47653 8.15835 6.69167 8.0645 6.81461C7.95499 6.80693 7.76727 6.8223 7.72816 6.81461C7.50916 6.79925 7.29015 6.77619 7.07896 6.77619C6.67224 6.76083 6.26551 6.77619 5.86661 6.84535C5.02187 6.99134 4.20841 7.32943 4.02852 8.2438C3.82515 9.32722 4.29445 10.6412 4.48217 11.7015C4.709 13.0462 4.94365 14.3909 5.1783 15.7355C5.33473 16.6269 5.48335 17.7487 6.27333 18.348C6.93818 18.8475 7.90024 18.8167 8.69023 18.6861C9.41764 18.5785 10.3015 17.9485 10.8177 18.1098C11.9597 18.5017 12.6402 19.3162 12.5228 20.5379Z" fill="#FCE5EE"/>
<path d="M18.3963 29.9734C18.279 30.0425 18.2243 30.081 18.1148 30.2039C17.8332 30.542 17.4734 30.857 17.3404 30.9415C17.1762 31.0491 16.8555 31.2182 16.4644 31.3642C15.3694 31.7637 13.6564 31.9789 13.0541 30.834C14.1414 30.8647 15.2755 30.419 15.9482 29.5585C16.8946 28.3214 16.1046 27.3071 14.8844 26.6617C13.7972 26.0777 12.5066 26.1853 11.6697 27.1381C11.0674 27.8219 10.9892 28.7209 11.2395 29.5431C10.8484 29.4662 10.4886 29.3049 10.2305 28.9975C9.44836 28.0447 9.27628 25.924 9.26064 24.7177C10.2931 24.564 11.2943 24.2259 12.1234 23.7725C13.7346 22.8889 15.471 20.5838 14.2352 18.7627C13.6329 17.9098 12.4988 17.541 11.4976 17.4641C10.9579 17.418 10.4026 17.4411 9.87073 17.5486C9.38578 17.6485 8.93995 17.9482 8.47847 18.0558C8.27511 18.0942 8.32986 18.1096 8.24382 18.0711C8.236 18.0635 7.93095 17.7484 7.89185 17.6793C7.6963 17.4334 7.61809 17.1184 7.52423 16.8264C7.28958 16.1195 7.21136 15.3741 7.09404 14.6442C6.81246 13.069 6.54652 11.4938 6.26494 9.91093C6.15544 9.25013 5.90514 8.46638 6.17108 7.81325C6.25712 7.61347 6.31187 7.52127 6.46048 7.37527C6.48395 7.37527 6.49959 7.37527 6.51523 7.37527C6.74206 7.41369 7.03928 7.42906 7.28176 7.44443C8.18125 7.49053 9.30757 7.42138 10.0193 6.81435C11.7088 5.40053 11.0987 2.7573 9.85508 1.31274C9.02599 0.359948 8.20471 -0.039611 6.92978 0.00649189C5.73307 0.044911 4.50506 0.298477 3.44132 0.82866C2.18985 1.46642 1.16521 2.473 0.609875 3.74851C-0.0158583 5.16233 -0.00803664 6.66068 -0.000214976 8.17439C0.0310717 11.6782 0.093645 15.2358 1.25125 18.586C2.0647 20.8143 3.48043 23.542 5.8895 24.4564C6.42137 24.6562 7.008 24.7714 7.61026 24.8022C7.66502 26.2775 7.99353 27.5837 9.05727 28.7517C9.76904 29.5277 10.7233 30.2423 11.7792 30.6035C13.4765 32.9317 16.5583 33.7769 18.9908 32.171C19.3662 31.9174 19.3741 31.8943 19.5696 31.733C19.6713 31.6485 19.8512 31.5025 19.9841 31.2873C20.1562 31.0184 18.8109 29.7352 18.3885 29.9734H18.3963ZM8.13432 23.8571C6.35098 23.5651 5.11515 22.0898 4.25477 20.5069C4.09834 20.2149 3.95755 19.9229 3.8324 19.6386C3.69943 19.3467 3.58211 19.0547 3.4726 18.7857C3.41785 18.6474 3.3631 18.5091 3.31617 18.3708C2.47143 15.9043 2.22896 13.3379 2.12728 10.7562C2.03342 8.39722 1.65798 5.59263 2.73737 3.41042C2.79994 3.28748 2.86251 3.16454 2.93291 3.04928C3.3631 2.34237 3.9419 1.73535 4.63803 1.28201C4.69278 1.2359 4.74754 1.20517 4.81011 1.17443L4.85704 1.15138C4.90397 1.12065 4.9509 1.08991 4.99783 1.06686C5.5297 0.76719 6.25712 0.436786 6.87503 0.721087C7.31304 0.920866 7.7667 1.49715 8.0561 1.86598C8.62708 2.59594 9.04945 3.54873 9.00252 4.49384C8.98688 4.87035 8.91648 5.26222 8.79916 5.63105C8.7053 5.8923 8.59579 6.16891 8.43936 6.39943C8.37679 6.47627 8.17343 6.77594 8.06392 6.81435C7.93095 6.82972 7.7667 6.82204 7.72759 6.81435C7.50858 6.79899 7.28958 6.77594 7.07839 6.77594C6.67167 6.76057 6.26494 6.77594 5.86603 6.84509C5.02129 6.99108 4.20784 7.32917 4.02794 8.24355C3.82458 9.32696 4.29388 10.6409 4.4816 11.7013C4.70843 13.0459 4.94308 14.3906 5.17773 15.7353C5.33416 16.6266 5.48277 17.7484 6.27276 18.3478C6.9376 18.8472 7.89967 18.8165 8.68966 18.6859C9.41707 18.5783 10.3009 17.9482 10.8171 18.1096C11.9591 18.5014 12.6396 19.3159 12.5223 20.5377C12.4988 20.7528 12.4597 20.9679 12.3893 21.1831C11.8574 22.8044 9.95676 24.149 8.13432 23.8571ZM14.2118 27.722C14.3447 27.6606 14.4855 27.6375 14.6185 27.6145V27.722C14.5872 27.7989 14.5559 27.868 14.5168 27.9449C14.29 28.4059 13.8832 28.7978 13.4374 29.0667C13.2732 29.1743 13.0698 29.2665 12.8664 29.351C13.0072 28.6441 13.4765 28.0217 14.2118 27.722Z" fill="#DD1C47"/>
</g>
<defs>
<clipPath id="clip0_5477_1610">
<rect width="20" height="33" fill="white"/>
</clipPath>
</defs>
</svg>
