<svg width="64" height="37" viewBox="0 0 64 37" fill="none" xmlns="http://www.w3.org/2000/svg">
<path d="M44.641 17.3667C46.7559 17.9215 48.9295 18.0292 51.2291 18.0292V18.0375C53.6965 18.0954 56.2478 17.7973 58.6481 16.7705C61.9715 15.3463 64.2542 12.771 63.9773 9.05308C63.843 7.22308 63.0541 5.77399 61.4763 4.78033C60.0412 3.86947 58.4215 3.57137 56.7513 3.53825C53.6042 3.472 50.4905 3.84462 47.3769 4.17585C42.1652 4.72236 36.9954 5.61666 31.7501 5.86508C31.0955 5.8982 30.785 5.72431 30.5836 5.08671C29.9541 3.14906 28.6785 1.74137 26.8069 0.84707C24.8515 -0.0886309 22.7785 -0.121753 20.7224 0.143224C16.3919 0.7063 12.9341 2.85924 10.1646 6.13834C9.87088 6.47784 9.61911 6.61861 9.14913 6.46956C7.65527 6.00585 6.26211 6.2791 4.95289 7.09888C3.031 8.30784 1.83927 10.0799 1.07555 12.1334C-0.45188 16.2489 -0.267245 20.414 1.09234 24.5128C2.19176 27.8251 4.13042 28.9264 7.5126 28.4213C7.80633 28.3799 7.98257 28.4627 8.14203 28.6945C10.7101 32.2883 14.3021 34.168 18.6494 34.7393C20.0594 34.9215 21.3854 35.2113 22.6862 35.8737C24.9858 37.0496 27.5203 37.1076 30.0464 36.9171C32.1446 36.7598 34.1671 36.2795 36.0471 35.2775C38.9677 33.7291 40.772 30.9137 40.109 27.6429C40.0419 27.2951 40.1594 27.0964 40.4447 26.9308C41.1413 26.5333 41.712 25.9785 42.2407 25.3989C44.2381 23.2128 45.069 20.7121 44.213 17.8056C44.0787 17.3419 44.1794 17.2508 44.641 17.3667Z" fill="#FCE5EE"/>
<path d="M51.2291 18.0292C48.9295 18.0292 46.7559 17.9215 44.641 17.3667C44.1794 17.2508 44.0787 17.3419 44.213 17.8056C45.069 20.7121 44.2381 23.2128 42.2407 25.3989C41.712 25.9785 41.1413 26.5333 40.4447 26.9308C40.1594 27.0964 40.0419 27.2951 40.109 27.6429C40.772 30.9137 38.9677 33.7291 36.0471 35.2775C34.1671 36.2795 32.1446 36.7598 30.0464 36.9171C27.5203 37.1076 24.9858 37.0496 22.6862 35.8737C21.3854 35.2113 20.0594 34.9215 18.6494 34.7393C14.3021 34.168 10.7101 32.2883 8.14203 28.6945C7.98257 28.4627 7.80633 28.3799 7.5126 28.4213C4.13042 28.9264 2.19176 27.8251 1.09234 24.5128C-0.267245 20.414 -0.45188 16.2489 1.07555 12.1334C1.83927 10.0799 3.031 8.30784 4.95289 7.09888C6.26211 6.2791 7.65527 6.00585 9.14913 6.46956C9.61911 6.61861 9.87088 6.47784 10.1646 6.13834C12.9341 2.85924 16.3919 0.7063 20.7224 0.143224C22.7785 -0.121753 24.8515 -0.0886309 26.8069 0.84707C28.6785 1.74137 29.9541 3.14906 30.5836 5.08671C30.785 5.72431 31.0955 5.8982 31.7501 5.86508C36.9954 5.61666 42.1652 4.72236 47.3769 4.17585C50.4905 3.84462 53.6042 3.472 56.7513 3.53825C58.4215 3.57137 60.0412 3.86947 61.4763 4.78033C63.0541 5.77399 63.843 7.22308 63.9773 9.05308C64.2542 12.771 61.9715 15.3463 58.6481 16.7705C56.2478 17.7973 53.6965 18.0954 51.2291 18.0375V18.0292ZM6.41318 20.0993C6.53067 20.1821 6.58103 20.1987 6.58942 20.2318C6.63978 20.4305 6.69013 20.6293 6.73209 20.8363C7.22725 23.4778 8.25953 25.8874 10.0387 27.9576C12.0613 30.3009 14.5791 31.8246 17.6843 32.3462C18.4396 32.4705 18.5403 32.3628 18.3137 31.6341C17.8354 30.0608 18.0955 28.6531 19.2621 27.4524C19.9167 26.7817 20.6972 26.2518 21.57 25.8791C22.0652 25.6721 22.2078 25.4568 21.8889 24.9683C21.6204 24.5543 21.419 24.0905 21.2595 23.6268C21.1168 23.1962 20.8902 23.0058 20.4119 22.9727C19.1949 22.8899 18.0787 22.5007 17.1556 21.6726C16.9374 21.4822 16.7108 21.3745 16.4254 21.3828C15.0826 21.4242 13.8741 20.9853 12.7579 20.2981C11.8851 19.7598 11.2053 19.0477 10.8612 18.054C12.1285 18.9483 13.5384 19.3292 15.0574 19.3789C15.5274 19.3955 15.7037 19.2133 15.5778 18.7413C15.2085 17.2425 15.1246 15.7189 15.284 14.1953C15.519 11.9182 16.459 9.99706 18.4984 8.73014C19.0691 8.37408 19.7069 8.17535 20.3951 8.1091C19.5642 9.05308 18.8844 10.055 18.3809 11.1729C17.3066 13.566 16.9374 16.0087 18.02 18.4846C18.5487 19.7019 19.4048 20.6293 20.8399 20.8777C22.6107 21.1924 23.9283 20.3312 24.9438 19.1139C27.8644 15.6278 29.0813 11.5786 28.6785 7.08232C28.4603 4.64784 26.8909 2.89236 24.6165 2.37897C23.5842 2.14711 22.5436 2.12227 21.5029 2.24648C18.0871 2.65223 15.2505 4.24209 12.7495 6.47784C10.2402 8.72186 8.30149 11.3965 6.86637 14.4189C6.75727 14.6507 6.68174 14.9323 6.388 15.1476C6.388 14.9157 6.37122 14.7749 6.388 14.6342C6.67335 12.6965 7.19368 10.8417 8.15882 9.11933C8.50291 8.50657 8.41898 8.39064 7.70562 8.3658C7.06779 8.34096 6.51389 8.55625 6.01034 8.91231C4.28988 10.1213 3.49259 11.9016 2.9219 13.8061C2.2505 16.0419 2.22532 18.319 2.51906 20.6127C2.6953 21.9707 2.98904 23.3039 3.7024 24.5046C4.28149 25.4734 5.00324 26.2766 6.21176 26.4836C6.89994 26.5995 6.98387 26.525 6.75727 25.8791C6.22854 24.3224 6.15301 22.7243 6.24533 21.1095C6.26211 20.7949 6.34604 20.4802 6.39639 20.1242L6.41318 20.0993ZM34.7714 18.3273C34.5952 18.2693 34.4189 18.2114 34.2511 18.1451C32.8495 17.6152 31.3976 17.582 29.9289 17.6814C29.2491 17.7228 28.8799 18.0457 28.519 18.6005C27.3273 20.4388 25.8586 21.9956 23.6681 22.7077C23.173 22.865 23.173 23.1134 23.4164 23.4861C24.1549 24.6205 25.2124 25.3657 26.4377 25.904C28.4519 26.79 30.5836 26.997 32.7572 26.9142C35.7449 26.7983 38.355 25.7881 40.4028 23.5937C41.9638 21.921 42.5261 19.9834 41.7456 17.7642C41.4518 16.9113 40.9902 16.2654 40.0083 15.9922C38.7411 15.6361 37.5074 15.189 36.2149 14.924C36.0974 14.8991 35.9548 14.9074 35.8708 14.6756C36.6597 14.3112 37.4822 14.245 38.3382 14.3195C41.0238 14.5679 43.6591 15.1558 46.3363 15.4788C48.7701 15.7769 51.2039 15.9508 53.6377 15.5036C56.038 15.0648 58.2956 14.2864 59.9908 12.4315C61.3169 10.9742 61.7449 8.56453 59.8734 7.10716C59.2187 6.60204 58.4802 6.25426 57.6661 6.11349C55.8785 5.81539 54.0825 5.96444 52.2949 6.09693C48.1658 6.40331 44.0787 7.02435 39.9831 7.56259C37.415 7.89381 34.8469 8.23331 32.2537 8.34096C31.1878 8.38236 31.1878 8.35752 31.1039 9.39258C31.1039 9.49195 31.0955 9.5996 31.0955 9.69897C31.0787 11.529 30.743 13.3093 30.1639 15.0399C30.0045 15.5119 30.0129 15.6941 30.6003 15.8017C32.2872 16.0998 33.7391 16.8699 34.7546 18.3107L34.7714 18.3273ZM28.2169 34.5903C30.4996 34.524 32.7236 34.2922 34.7127 33.1246C36.2401 32.2303 37.3815 31.071 37.3731 29.1582C37.3731 28.6862 37.222 28.5041 36.7436 28.6697C34.7294 29.357 32.6313 29.3818 30.5416 29.2659C28.5526 29.1582 26.5719 28.8187 24.8431 27.7754C24.0374 27.2868 23.3912 27.32 22.6443 27.7505C22.233 27.9907 21.8218 28.2308 21.4693 28.562C20.7224 29.2824 20.5294 30.1436 20.7811 31.1124C21.0497 32.1641 21.7714 32.8431 22.6862 33.373C24.4151 34.375 26.3202 34.5157 28.2169 34.5903Z" fill="#DD1C47"/>
</svg>
