<svg width="253" height="253" viewBox="0 0 253 253" fill="none" xmlns="http://www.w3.org/2000/svg">
<path d="M141.6 123.62C141.92 122.79 142.31 121.97 143.12 121.57C145.67 120.33 146.47 118.06 146.81 115.49C147.49 110.3 149.34 108.24 153.64 105.07C164.18 97.2805 171.12 85.0705 171.96 71.7005C172.24 67.1405 172.64 62.6105 170.56 58.3205C169.57 56.2905 168.69 53.8805 166.06 53.6905C163.33 53.4605 162.04 55.8105 161.12 57.6805C159.78 60.3305 158.71 64.7605 158.02 68.8505C157.58 71.2505 156.83 72.9005 154.95 74.1505C151.83 76.2205 149.67 75.4605 149.23 71.8405C148.81 68.3305 146.74 67.3705 143.69 67.3905C130.84 67.5005 117.98 67.1405 105.15 67.9305C102.45 68.0905 100.5 68.8605 100.52 72.0505C100.53 72.8805 100.54 73.8905 99.4398 74.1505C98.4698 74.3905 97.8098 73.7205 97.1798 73.1405C95.0798 71.2005 94.4798 68.5305 93.7298 65.9305C92.8898 63.0205 92.6498 59.9505 91.0298 57.3005C89.1998 54.3205 86.8598 53.8105 83.9098 55.6905C81.0798 57.4905 80.5698 60.3405 80.4798 63.3305C80.1998 72.1005 80.6198 80.8505 81.3198 89.5805C82.0298 98.3305 85.4098 105.39 94.4198 108.68C97.9998 109.99 99.5698 112.63 99.4898 116.82C99.4698 118.4 100.43 121.1 101.8 121.1C105.05 121.09 104.76 123.6 105.74 125.24C106.68 126.81 107.67 128.37 108.5 130C110.91 134.75 116.16 137.04 119.34 138.83C120.63 139.56 119.17 141.61 120.17 142.32C121.97 143.57 121.95 142.95 122 145.43C122.14 152.18 121.09 159.44 118.05 165.56C114.89 171.92 110.51 176.91 103.09 178.3C101.28 178.63 100.01 179.49 100.66 181.64C100.95 182.56 100.93 183.04 99.7598 183.04C97.4198 183.03 97.3498 184.77 97.2698 186.43C97.1198 190.22 96.9698 193.99 96.8598 197.78C96.8198 199.36 96.8098 200.85 94.7498 201.2C92.1098 201.66 92.0698 203.66 92.3198 205.7C92.5898 207.78 93.6498 209.07 95.9398 209.02C98.1098 208.99 100.73 209.19 102.89 209.19C112.18 208.62 120.94 209.47 130.24 209.28C139.21 209.09 148.17 209.02 157.13 208.63C158.53 208.57 160.7 208.68 160.13 206.37C159.67 204.43 161.28 201.01 157.18 201.09C155.11 201.14 154.55 198.73 154.76 196.89C154.85 196.14 154.89 195.38 154.99 194.63C155.41 191.51 155.4 188.38 155.11 185.25C154.8 181.21 150.88 183.29 151.72 181.07C152.15 178.71 149.54 177.52 148.86 177.26C147.35 176.67 145.78 176.21 144.3 175.58C139.23 173.41 134 170.94 132.74 165.09C130.92 156.74 129.53 142.79 132.47 142.63C134.04 142.47 132.87 138.04 133.5 137.31C137.03 133.28 139.69 128.61 141.65 123.65L141.6 123.62ZM150.8 77.5305C151.38 77.2405 151.99 77.0005 152.62 76.8505C156.75 75.9205 158.85 73.1905 159.42 69.1605C159.98 65.2805 160.62 61.3005 162.66 57.8905C163.36 56.7005 164.14 55.3405 165.81 55.4205C167.53 55.5105 168.31 56.9605 168.94 58.3705C171.14 63.1305 170.78 67.5905 170.52 72.5505C169.91 83.7905 163.59 94.9105 154.8 101.7C149.26 105.97 146.15 108.86 145.28 116.11C145.17 117.01 144.82 118.6 143.22 119.4C143.86 113.59 144.69 108.36 148.93 104.3C152.13 101.23 155.19 98.0405 158.13 94.7205C165.04 86.9405 169.04 77.9505 169.08 67.3905C169.08 67.0805 169.09 66.7405 169.04 66.4205C168.72 64.1305 169.02 60.9505 166.04 60.7005C162.84 60.4305 162.79 64.0805 162.3 66.0005C161.32 69.7005 160.19 72.8705 158.18 76.0805C156.59 78.6105 153.86 79.1205 151.12 79.4305C150.58 79.4905 149.94 79.3905 149.75 78.8205C149.43 77.9405 150.28 77.7805 150.81 77.5105L150.8 77.5305ZM148.41 86.0905C148.75 83.0205 149.13 81.2005 153.02 80.9505C157.63 80.6605 160.22 76.9205 162.06 72.9705C163.29 70.3305 164.24 67.5605 164.54 64.6305C164.62 63.9805 164.72 63.1405 165.4 63.0205C166.37 62.8405 166.61 63.7705 166.8 64.4905C168.02 68.9605 166.78 73.2805 165.7 77.5405C163.97 84.3905 160.57 90.3705 155.45 95.2605C152.25 98.3105 148.91 101.19 145.78 104.02H145.77C146.62 98.4205 147.71 92.2805 148.42 86.0905H148.41ZM142.74 69.3305C130.53 71.5805 118.3 69.4705 106.08 69.4505C118.3 68.6505 130.52 68.7005 142.74 69.3305ZM102.96 71.7305C103.64 70.5705 104.7 71.1105 105.6 71.1605C114.23 71.6405 122.86 72.2405 131.51 72.0405C135.08 71.9505 140.85 71.7005 142.29 71.3405C143.43 71.1805 144.37 71.1605 144.95 71.2305C145.78 71.3305 147.18 72.1605 147.29 72.7205H147.27C148.69 77.2505 147.29 79.3005 143.01 79.6205C130.67 80.5405 118.4 79.8505 106.16 78.2405C103.88 77.9305 101.81 73.7405 102.96 71.7305ZM99.2498 103.61C91.5298 101.49 87.0098 95.8305 87.0498 87.8705C86.4998 77.4405 85.9298 75.4105 86.4598 68.9105C86.5698 67.5605 86.6398 64.4905 87.6198 64.3405C88.8298 64.3405 89.6998 68.7505 90.3198 70.8005C91.0498 73.4105 91.3798 74.0005 92.1398 75.8605C92.7398 77.4005 94.5398 79.7005 98.5098 80.1805C100.37 80.3605 100.65 81.3105 100.7 82.9505C100.89 89.4305 100.32 95.9205 101.09 102.38C101.26 103.78 100.49 103.96 99.2598 103.61H99.2498ZM103.42 119.35C100.84 120.22 100.96 115.97 100.9 114.93C100.7 111.26 99.5598 108.58 96.4198 107.53C86.1098 104.07 83.4698 95.8705 82.8098 86.4505C82.2998 79.0205 82.2098 71.5505 81.9698 64.1105C81.9098 62.0205 82.3298 59.9905 83.4898 58.2105C85.5098 55.0805 88.1898 55.1605 89.9798 58.4005C91.2598 60.7305 91.6298 63.2705 92.1598 65.8105C93.6598 70.4405 94.2798 74.5105 99.1998 76.1805C99.9898 76.4305 100.92 76.4605 100.88 78.4705C100.89 79.6405 98.1598 78.7805 96.7498 78.3705C95.2798 77.9205 94.7598 77.6505 93.8398 76.2605C93.2498 75.5005 91.8998 70.9805 91.0598 68.3005C90.6098 66.8605 90.3798 65.6305 89.7698 64.2605C89.3798 63.3705 88.8698 62.6105 87.7298 62.6105C86.3698 62.6005 85.9898 63.8105 85.6498 64.8105C84.0298 69.6805 84.9698 74.7105 85.2098 79.8005C85.4398 83.2005 85.3598 84.4305 85.5098 87.6505C85.6798 94.1905 87.1598 99.1405 93.0498 102.28C94.5798 103.08 95.9798 104.2 97.5798 104.79C100.59 105.91 102.16 107.78 102.09 111.13C102.2 113.79 103.89 119.38 103.41 119.34L103.42 119.35ZM155.05 202.63C156.53 202.57 158.22 202.36 158.31 204.68C158.4 206.93 156.86 207.06 155.26 207C148.13 206.74 138.67 207.85 133.89 207.59C122.35 207.98 110.85 207.01 99.3198 207.4C98.3398 207.43 97.3698 207.43 96.3998 207.33C94.7498 207.15 94.3298 206.01 94.4098 204.55C94.4898 202.96 95.4898 202.59 96.8398 202.67C112.3 203.6 127.64 203.32 143.07 203.14C147.06 203.1 151.05 202.76 155.05 202.64V202.63ZM153.21 187.03C153.13 189.84 153.12 192.65 153.17 195.46C153.2 198.03 151.89 200.5 149.35 200.6C140.82 200.93 132.32 201.39 123.79 201.73C116.78 202.01 109.6 201.25 102.59 201.55C99.8398 201.67 98.7798 200.19 98.8698 197.36C98.9698 194 98.8798 190.66 98.8998 187.31C98.9098 185.48 99.6298 184.65 101.68 184.74C106.11 184.9 110.55 184.78 114.98 184.78C126.51 184.36 138.07 184.38 149.61 183.85C152.11 183.73 153.29 184.48 153.21 187.05V187.03ZM143.43 177.12C144.13 177.39 144.87 177.59 145.54 177.94C146.85 178.58 149.87 178.58 149.72 180.19C149.54 182.08 146.52 181.81 144.88 182.11C140.29 182.95 135.62 183.16 130.98 182.95C123.31 182.59 115.64 184 107.98 182.95C107.77 182.93 107.54 182.91 107.34 182.86C105.72 182.43 103.16 182.73 102.98 180.88C102.81 179.14 105.37 179.78 106.66 179.23C114.07 176.01 118.03 169.79 120.99 162.78C123.21 157.55 124.33 152.05 124.18 146.32C124.12 143.93 124.6 142.72 127.63 143.2C128.17 143.49 128.77 143.11 128.84 146.62C128.85 147.12 128.9 147.41 128.9 147.99C128.88 148.41 128.92 149.19 128.92 149.52C128.92 149.65 128.95 150.39 128.95 150.94C128.98 151.3 128.98 151.51 129 152.01C129.26 154.47 129.53 156.83 129.69 159.28C130.28 168.33 135.11 174.06 143.43 177.12ZM131.97 140.57C131.99 141.48 131.02 141.55 130.35 141.55C129.68 141.55 126.86 142.03 125.86 141.99C124.85 141.94 121.47 142.35 121.11 141.44C120.75 140.52 121.31 139.24 121.31 139.24C127.34 139.77 131.97 137.94 131.97 137.94C131.97 137.94 131.95 139.66 131.97 140.57ZM113.4 132.9C107.08 126.55 104.58 118.47 103.42 109.83C102.67 104.35 102.63 98.8505 102.7 93.3405H102.71C102.71 89.7905 102.83 86.2105 102.68 82.6505C102.58 80.2305 103.26 79.4005 105.82 79.8105C118.68 81.8805 131.61 82.1605 144.59 81.3805C146.77 81.2405 146.83 82.4405 146.84 83.9605C146.87 87.8705 146.19 91.7105 145.41 95.5205C143.6 104.41 142.95 113.52 140.34 122.24C139.47 125.16 138.35 127.97 136.66 130.5C131.21 138.69 120.32 139.86 113.4 132.9Z" fill="#DD1C47"/>
<path d="M146.83 83.9601C146.86 87.8701 146.18 91.7101 145.4 95.5201C143.59 104.41 142.94 113.52 140.33 122.24C139.46 125.16 138.34 127.97 136.65 130.5C131.2 138.69 120.31 139.86 113.39 132.9C107.07 126.55 104.57 118.47 103.41 109.83C102.66 104.35 102.62 98.8501 102.69 93.3401H102.7C102.7 89.7901 102.82 86.2101 102.67 82.6501C102.57 80.2301 103.25 79.4001 105.81 79.8101C118.67 81.8801 131.6 82.1601 144.58 81.3801C146.76 81.2401 146.82 82.4401 146.83 83.9601Z" fill="#FCE5EE"/>
</svg>
