<svg width="28" height="28" viewBox="0 0 28 28" fill="none" xmlns="http://www.w3.org/2000/svg">
<g clip-path="url(#clip0_3214_11281)">
<path d="M14.0001 24C14.8716 24 15.4136 23.3542 16.434 22.0122L27.9018 6.51354C27.9549 6.37228 27.9868 6.23102 27.9868 6.07966C27.9868 5.76686 27.8699 5.51461 27.6255 5.30271C27.381 5.1009 27.0834 5 26.7008 5C26.4138 5 26.1588 5.08072 25.9568 5.23208C25.7549 5.38343 25.6061 5.60542 25.4998 5.87786L14.0001 21.4976L2.48975 5.87786C2.39409 5.60542 2.23467 5.38343 2.03273 5.23207C1.8308 5.08072 1.58635 5 1.29939 5C0.927398 5 0.619182 5.1009 0.374733 5.30271C0.130285 5.50451 0.013374 5.76686 0.013374 6.07966C0.013374 6.22092 0.0452572 6.36219 0.0877701 6.51354L11.5662 22.0122C12.0126 22.7185 12.5228 23.3845 12.9266 23.6973C13.1711 23.8789 13.3093 24 14.0001 24Z" fill="#DD1C47"/>
</g>
<defs>
<clipPath id="clip0_3214_11281">
<rect width="28" height="28" fill="white" transform="translate(28 28) rotate(-180)"/>
</clipPath>
</defs>
</svg>
