<svg width="1320" height="14" viewBox="0 0 1320 14" fill="none" xmlns="http://www.w3.org/2000/svg">
<g clip-path="url(#clip0_1462_1775)">
<path d="M1.49365 11.7807C4.72958 11.7408 7.74646 11.4322 10.8629 11.4919C16.7075 11.6014 22.5521 11.6214 28.3967 11.6114C39.3192 11.5915 50.2516 11.4421 61.194 11.482C84.2339 11.5616 107.304 11.4222 130.383 11.5118C134.187 11.5218 138 11.5517 141.804 11.5815C167.621 11.7807 192.762 11.5417 218.649 11.6911C230.02 11.7608 285.25 12.2188 296.59 12.2287C330.971 12.2586 341.296 12.2885 375.647 11.8006C407.886 11.3426 420.85 11.7408 453.12 11.6512C491.722 11.5417 527.755 12.5374 561.717 12.2885C579.799 12.1491 596.357 12.2486 612.278 12.3482C631.594 12.4677 649.974 12.5872 669.001 12.3183C712.123 11.6911 761.19 10.1478 806.384 11.1235C846.3 11.9798 886.724 12.9157 927.109 12.9556C1000 13.0352 1063.03 12.0196 1126.12 11.0837C1186.22 10.1876 1249.17 10.4465 1317.97 10.6755" stroke="#DD1C47" stroke-width="1.33333" stroke-miterlimit="10" stroke-linecap="round"/>
<path d="M1.49365 3.48633C169.812 -0.347002 264.659 4.01403 405.945 2.99845C554.867 1.92313 705.144 2.35126 854.285 2.05256C897.527 1.97291 940.769 1.87334 984.011 1.77378C1034.76 1.65429 1267.76 1.55473 1318.51 1.48503" stroke="#DD1C47" stroke-width="3.99999" stroke-miterlimit="10" stroke-linecap="round"/>
</g>
<defs>
<clipPath id="clip0_1462_1775">
<rect width="1320" height="13.4345" fill="white" transform="matrix(1 0 0 -1 0 13.4346)"/>
</clipPath>
</defs>
</svg>
