<svg width="1320" height="14" viewBox="0 0 1320 14" fill="none" xmlns="http://www.w3.org/2000/svg">
<g clip-path="url(#clip0_1462_1778)">
<path d="M1.49365 1.6539C4.72958 1.69373 7.74646 2.00239 10.8629 1.94265C16.7075 1.83312 22.5521 1.81321 28.3967 1.82317C39.3192 1.84308 50.2516 1.99243 61.194 1.9526C84.2339 1.87295 107.304 2.01234 130.383 1.92273C134.187 1.91278 138 1.88291 141.804 1.85304C167.621 1.6539 192.762 1.89286 218.649 1.74351C230.02 1.67382 285.25 1.21581 296.59 1.20585C330.971 1.17598 341.296 1.14611 375.647 1.63399C407.886 2.092 420.85 1.69373 453.12 1.78334C491.722 1.89286 527.755 0.897194 561.717 1.14611C579.799 1.28551 596.357 1.18594 612.278 1.08637C631.594 0.966891 649.974 0.84741 669.001 1.11624C712.123 1.74351 761.19 3.2868 806.384 2.31105C846.3 1.45477 886.724 0.518839 927.109 0.479012C1000 0.399359 1063.03 1.41494 1126.12 2.35087C1186.22 3.24698 1249.17 2.9881 1317.97 2.7591" stroke="#DD1C47" stroke-width="1.33333" stroke-miterlimit="10" stroke-linecap="round"/>
<path d="M1.49365 9.94824C169.812 13.7816 264.659 9.42054 405.945 10.4361C554.867 11.5114 705.144 11.0833 854.285 11.382C897.527 11.4617 940.769 11.5612 984.011 11.6608C1034.76 11.7803 1267.76 11.8798 1318.51 11.9495" stroke="#DD1C47" stroke-width="3.99999" stroke-miterlimit="10" stroke-linecap="round"/>
</g>
<defs>
<clipPath id="clip0_1462_1778">
<rect width="1320" height="13.4345" fill="white"/>
</clipPath>
</defs>
</svg>
