<svg width="37" height="37" viewBox="0 0 37 37" fill="none" xmlns="http://www.w3.org/2000/svg">
<path d="M25.5896 18.5799C24.9896 18.9299 24.1396 19.4599 23.2496 19.9099C22.4396 20.3299 22.1796 20.8899 22.4396 21.7799C22.7096 22.6899 22.8896 23.6399 23.0796 24.5699C23.1896 25.1399 23.2896 25.7599 22.6796 26.1199C22.1096 26.4599 21.5696 26.1799 21.0796 25.8599C20.4396 25.4399 19.7496 25.0699 19.1896 24.5699C18.2696 23.7599 17.4696 23.8499 16.5296 24.5599C15.6596 25.2099 14.6796 25.7399 13.7196 26.2699C13.1996 26.5599 12.6196 26.6199 12.1096 26.1899C11.5996 25.7599 11.5496 25.1699 11.7396 24.6099C12.1596 23.3899 12.5996 22.1799 13.1396 21.0099C13.5396 20.1199 13.4396 19.4999 12.6396 18.9099C11.8696 18.3499 11.1496 17.7099 10.4396 17.0699C10.0496 16.7199 9.62962 16.3299 9.81962 15.7199C10.0196 15.0799 10.5796 14.8699 11.1696 14.8399C12.3596 14.7799 13.5496 14.7299 14.7396 14.7799C15.6396 14.8199 16.1496 14.5099 16.4796 13.6599C16.8896 12.5899 17.3996 11.5599 17.9196 10.5399C18.1996 9.98993 18.5596 9.39993 19.3196 9.52993C20.0696 9.65993 20.2396 10.3299 20.3596 10.9299C20.5696 12.0099 20.7296 13.0999 20.8296 14.1899C20.9096 15.0399 21.2896 15.4399 22.1496 15.5699C23.2296 15.7399 24.3196 15.9699 25.3396 16.3499C26.4496 16.7599 26.5696 17.5299 25.5796 18.5499L25.5896 18.5799ZM24.1896 17.5299C23.4396 17.0399 22.5696 16.9599 21.7496 16.8699C20.3096 16.7199 19.6596 15.9899 19.5396 14.5699C19.4596 13.6799 19.5296 12.7199 18.9596 11.8499C18.3596 12.4099 18.1596 13.0599 17.9696 13.6799C17.3896 15.5399 16.2496 16.4199 14.2396 16.1399C13.5496 16.0499 12.7696 15.8899 11.8196 16.6199C15.9296 18.0199 15.7496 20.6599 13.8096 23.7599C14.7796 23.7799 15.1796 23.3299 15.6296 23.0299C17.7696 21.6399 18.0896 21.6499 20.0696 23.1299C20.3896 23.3699 20.7096 23.9299 21.1196 23.6999C21.6196 23.3999 21.2396 22.8299 21.1496 22.3999C20.6996 20.0299 20.7896 19.8399 22.8596 18.6199C23.3296 18.3399 23.9396 18.2099 24.1896 17.5399V17.5299Z" fill="#DD1C47"/>
</svg>
