<svg width="37" height="37" viewBox="0 0 37 37" fill="none" xmlns="http://www.w3.org/2000/svg">
<path d="M12.2505 23.6903C12.5005 23.0103 12.8005 22.0503 13.2105 21.1403C13.6205 20.2303 13.4005 19.6303 12.6105 19.0803C11.7505 18.4803 10.9105 17.8303 10.1605 17.1103C9.31053 16.2903 9.52053 15.5003 10.6605 15.2503C11.6805 15.0203 12.7405 14.9403 13.7805 14.9103C14.7005 14.8903 15.1605 14.4803 15.3905 13.6303C15.6805 12.5703 16.0105 11.5203 16.4005 10.5003C16.6605 9.82032 17.1205 9.19032 17.9605 9.23032C18.7305 9.26032 19.1105 9.88032 19.3305 10.5303C19.7005 11.6103 20.0505 12.7103 20.3205 13.8203C20.5805 14.8703 21.1305 15.3403 22.2405 15.2503C23.1905 15.1703 24.1605 15.1403 25.1005 15.2603C26.4705 15.4303 26.8005 16.3303 25.8405 17.3403C24.9905 18.2303 24.0005 19.0103 23.0205 19.7603C22.3105 20.3003 22.1005 20.8603 22.3705 21.7303C22.7405 22.9103 23.0005 24.1303 23.2505 25.3403C23.3605 25.8703 23.2505 26.4103 22.7205 26.7203C22.2205 27.0103 21.7605 26.7603 21.3905 26.4603C20.4305 25.6803 19.4705 24.8803 18.5905 24.0203C18.0105 23.4503 17.5105 23.4203 16.8205 23.7803C15.8105 24.3103 14.7805 24.8503 13.7005 25.2103C12.6505 25.5603 12.1205 25.0603 12.2305 23.7103L12.2505 23.6903ZM13.7705 23.5003C14.7405 23.5903 15.2905 23.0603 15.9005 22.7403C17.9705 21.6803 18.0505 21.6903 19.7605 23.2203C20.3205 23.7203 20.7205 24.4903 21.7905 24.6203C21.5305 23.6103 21.3605 22.7303 21.0705 21.8903C20.6005 20.5203 20.9305 19.5103 22.1605 18.7203C22.8905 18.2503 23.5205 17.6103 24.4105 16.8803C23.4005 16.5503 22.7005 16.7803 22.0205 16.8203C19.9705 16.9403 19.5705 16.6703 18.8205 14.7703C18.5005 13.9703 18.5305 13.0103 17.8105 12.3103C17.2405 13.1003 17.1105 13.9703 16.8605 14.7703C16.5005 15.9403 15.7805 16.5103 14.5705 16.5103C14.1405 16.5103 13.7105 16.5503 13.2905 16.5903C12.9805 16.6203 12.5405 16.4503 12.4205 16.8603C12.3105 17.2503 12.7305 17.4103 12.9805 17.6003C14.9605 19.0903 15.4305 19.1903 14.1405 22.4303C14.0205 22.7303 13.9305 23.0503 13.7705 23.5003Z" fill="#DD1C47"/>
</svg>
