<svg width="37" height="37" viewBox="0 0 37 37" fill="none" xmlns="http://www.w3.org/2000/svg">
<path d="M10.3703 13.5905C11.3203 13.6805 12.3003 13.6605 13.2103 13.9005C14.5703 14.2605 15.3503 13.7705 16.0103 12.6205C16.6703 11.4705 17.4203 10.3405 18.3703 9.39048C19.2403 8.53048 19.8503 8.62048 20.2903 9.77048C20.7803 11.0605 21.1803 12.3905 21.5503 13.7205C21.7803 14.5505 22.2203 15.0005 23.0903 15.1605C24.1203 15.3505 25.1403 15.6205 26.1303 15.9805C27.5103 16.4705 27.6603 17.3605 26.5403 18.2905C25.7703 18.9305 24.9603 19.5305 24.0903 20.0305C23.1803 20.5605 22.8803 21.2605 22.9603 22.2705C23.0503 23.3105 23.0503 24.3705 23.0303 25.4205C23.0103 26.0705 23.0903 26.8705 22.3203 27.1505C21.6003 27.4205 21.0703 26.8705 20.5603 26.4305C19.7703 25.7405 18.9603 25.0705 18.2103 24.3305C17.5303 23.6505 16.8703 23.6105 16.0303 24.0505C14.7603 24.7105 13.4503 25.2805 12.1403 25.8605C11.7103 26.0505 11.2003 26.2205 10.7803 25.8505C10.2903 25.4205 10.4803 24.8805 10.6803 24.3905C11.1603 23.2005 11.6303 21.9905 12.2003 20.8405C12.6303 19.9605 12.6603 19.3005 11.8803 18.5605C10.9503 17.6705 10.1603 16.6405 9.34029 15.6505C8.98029 15.2105 8.55029 14.7305 8.83029 14.1105C9.13029 13.4605 9.80029 13.6505 10.3503 13.5905H10.3703ZM12.3903 23.7405L12.6903 23.9905C13.1903 23.7305 13.6903 23.4805 14.1903 23.2105C17.4903 21.4705 16.9603 20.9305 20.1703 23.7805C20.4203 24.0005 20.6503 24.5205 21.0903 24.2205C21.4303 23.9905 21.3203 23.5005 21.2603 23.1505C20.8503 20.9105 21.4903 19.2205 23.6503 18.2305C23.9603 18.0905 24.4403 17.8905 24.3403 17.4305C24.2403 17.0005 23.7303 16.9805 23.3903 16.9605C21.0403 16.7905 19.9403 15.4505 19.7703 13.2005C19.7503 12.9205 19.6903 12.6205 19.5803 12.3705C19.3803 11.9205 19.6103 11.1605 18.9903 11.0605C18.5103 10.9905 18.2203 11.6105 18.0303 12.0105C16.7303 14.7805 14.7803 16.0705 11.6803 15.0305C11.4403 14.9505 11.0703 14.8505 10.9303 15.1905C10.8003 15.5105 11.1003 15.7105 11.2803 15.9105C11.8803 16.5905 12.4503 17.3105 13.1303 17.9005C14.2003 18.8505 14.3103 19.8305 13.6103 21.0505C13.1303 21.9005 12.8003 22.8405 12.4003 23.7305L12.3903 23.7405Z" fill="#DD1C47"/>
</svg>
