<svg width="29" height="28" viewBox="0 0 29 28" fill="none" xmlns="http://www.w3.org/2000/svg">
<path d="M2.46227 20.5471C3.89728 20.4114 5.37762 20.4415 6.75221 20.0798C8.80655 19.5371 9.98477 20.2757 10.9817 22.0092C11.9787 23.7426 13.1116 25.4459 14.5466 26.8778C15.8608 28.1741 16.7822 28.0385 17.4469 26.3051C18.187 24.3606 18.7912 22.3559 19.3501 20.3511C19.6976 19.1 20.3622 18.4217 21.6764 18.1805C23.2322 17.8942 24.773 17.4872 26.2684 16.9445C28.353 16.2059 28.5796 14.8644 26.8878 13.4626C25.7246 12.4979 24.5011 11.5935 23.1869 10.8399C21.8123 10.041 21.3592 8.98583 21.48 7.46343C21.616 5.8958 21.616 4.29804 21.5858 2.71534C21.5555 1.73558 21.6764 0.529709 20.5133 0.107656C19.4257 -0.299322 18.6251 0.529711 17.8547 1.19294C16.6614 2.23299 15.4378 3.2429 14.3049 4.35833C13.2778 5.38331 12.2808 5.44361 11.0119 4.78038C9.09355 3.78554 7.11474 2.92636 5.13593 2.05211C4.4864 1.76572 3.71602 1.50948 3.08159 2.06719C2.34142 2.71534 2.62843 3.5293 2.93054 4.26789C3.6556 6.06161 4.36555 7.88548 5.22656 9.61891C5.8761 10.9454 5.92141 11.9402 4.74319 13.0556C3.33838 14.3971 2.14505 15.9497 0.906407 17.442C0.362611 18.1052 -0.286923 18.8287 0.13603 19.7632C0.589193 20.743 1.60126 20.4566 2.43206 20.5471H2.46227ZM5.52867 5.24766C5.67972 5.12707 5.83078 4.99141 5.98183 4.87083C6.73711 5.26273 7.49238 5.63956 8.24765 6.04654C13.2324 8.6693 12.4319 9.48326 17.2807 5.18736C17.6583 4.85575 18.0058 4.07194 18.6704 4.52414C19.184 4.87082 19.0178 5.60941 18.9272 6.13698C18.3079 9.5134 19.2746 12.0608 22.5374 13.553C23.0057 13.7641 23.7307 14.0655 23.5797 14.7589C23.4286 15.4071 22.6582 15.4372 22.1447 15.4674C18.5949 15.7236 16.9333 17.7434 16.6765 21.1349C16.6463 21.557 16.5556 22.0092 16.3895 22.386C16.0874 23.0643 16.4348 24.2099 15.4983 24.3606C14.7732 24.4661 14.3351 23.5316 14.0481 22.9286C12.0844 18.7533 9.13887 16.8089 4.45618 18.3765C4.09365 18.4971 3.53475 18.6478 3.32328 18.1353C3.12691 17.653 3.58007 17.3515 3.85197 17.0501C4.75829 16.0251 5.6193 14.9398 6.64647 14.0505C8.26275 12.6185 8.42891 11.1413 7.37153 9.30237C6.64647 8.02114 6.14799 6.60425 5.54378 5.26273L5.52867 5.24766Z" fill="#DD1C47"/>
</svg>
