<svg viewBox="0 0 64 64" fill="none" xmlns="http://www.w3.org/2000/svg">
  <path d="M28 14c0 2.2 1.8 4 4 4s4-1.8 4-4" stroke="currentColor" stroke-width="2" stroke-linecap="round"/>
  <path d="M30 18v10" stroke="currentColor" stroke-width="2" stroke-linecap="round"/>
  <path d="M34 18v10" stroke="currentColor" stroke-width="2" stroke-linecap="round"/>
  <path d="M22 34c4-2 10-3 10-6 0 3 6 4 10 6" stroke="currentColor" stroke-width="2" stroke-linecap="round" stroke-linejoin="round"/>
  <path d="M18 34c3 9 11 16 14 16s11-7 14-16" stroke="currentColor" stroke-width="2" stroke-linecap="round" stroke-linejoin="round"/>
  <path d="M18 34h28" stroke="currentColor" stroke-width="2" stroke-linecap="round"/>
  <path d="M22 50h20" stroke="currentColor" stroke-width="2" stroke-linecap="round"/>
  <path d="M26 50c0 4 2 6 6 6s6-2 6-6" stroke="currentColor" stroke-width="2" stroke-linecap="round"/>
</svg>
