<svg width="42" height="112" viewBox="0 0 42 112" fill="none" xmlns="http://www.w3.org/2000/svg">
<path d="M29.2816 101.069C30.3386 100.541 31.0367 100.193 31.6948 101.009C32.343 101.815 32.2433 102.612 31.8743 103.478C30.927 105.707 29.122 107.041 27.1176 108.186C25.183 109.291 23.0091 109.908 21.2041 111.262C21.0046 111.411 20.7952 111.481 20.6257 111.282C20.3365 110.953 20.4961 110.615 20.7354 110.346C21.4534 109.52 22.1814 108.704 22.9093 107.887C23.8966 106.773 24.844 105.628 25.8711 104.543C26.3697 104.015 26.4295 103.577 26.0805 102.93C25.1032 101.129 24.1359 99.3071 23.2683 97.4457C22.5902 95.9825 22.4008 94.4297 23.0888 92.8669C23.4379 92.0606 23.8467 91.3439 24.814 91.2842C25.7315 91.2245 26.4195 91.7321 26.8583 92.4886C27.9254 94.36 28.394 96.3906 28.1348 98.5506C28.055 99.2374 27.9154 99.9143 28.2345 100.88C29.5209 98.5406 30.578 96.3607 31.5054 94.131C32.722 91.2046 33.4799 88.1487 34.1679 85.073C34.4372 83.8586 34.1879 83.122 32.9314 82.475C30.578 81.2606 29.4112 79.1504 29.4511 76.4528C29.481 74.9996 30.2589 74.5019 31.6151 74.9996C32.6522 75.3878 33.3702 76.0945 33.8289 77.1098C34.1281 77.7767 34.2378 78.5332 34.866 79.2101C35.3546 76.8311 35.3148 74.5317 35.3148 72.2523C35.3148 69.5249 34.9956 66.8274 34.7264 64.1199C34.6566 63.3634 34.3973 62.9155 33.6195 62.7562C30.2788 62.0694 29.5708 59.1131 28.424 56.5549C28.2744 56.2165 28.2844 55.7387 28.6434 55.46C29.0223 55.1614 29.3713 55.45 29.7204 55.6391C30.907 56.2662 31.984 57.1024 33.5198 57.6897C33.1209 56.0572 32.7918 54.6238 32.4328 53.2104C32.0638 51.7173 31.6649 50.2441 31.3159 48.751C31.1065 47.8253 30.578 47.4271 29.6406 47.457C28.3242 47.5068 27.0179 47.4271 25.7714 46.9195C24.8639 46.5512 24.0561 46.0535 23.6373 45.0979C23.2683 44.222 23.2484 43.4953 24.2356 43.0175C24.5448 42.8682 24.834 42.6492 25.0933 42.4103C26.0705 41.4747 27.0677 41.395 28.1348 42.2411C28.3242 42.4004 28.5835 42.4701 28.8229 42.5796C29.1021 41.9724 28.773 41.5045 28.5636 41.0467C27.5564 38.817 26.4794 36.6072 25.5221 34.3576C25.1132 33.402 24.455 33.0536 23.4977 33.0138C22.2213 32.9641 20.9847 32.7351 19.798 32.2275C18.8905 31.8393 17.7836 31.5805 17.8734 30.2566C17.9332 29.4204 19.5288 28.445 20.6756 28.5047C21.1044 28.5246 21.5232 28.6341 22.0816 28.7237C21.4035 26.9419 20.2966 25.5583 19.2595 24.1349C18.372 22.9205 17.7737 21.4473 16.1681 20.87C15.6795 20.6908 15.5199 20.0737 15.3105 19.586C15.0911 19.0683 14.9316 18.491 14.5925 18.053C13.2862 16.3211 13.2463 15.8532 11.1222 16.8685C10.3045 17.2567 9.37707 17.4259 8.4696 17.5852C7.5023 17.7544 6.45522 17.5056 6.20591 16.5002C5.97655 15.5646 6.90395 15.0967 7.69176 14.8081C8.58926 14.4895 9.51668 14.2506 10.7433 13.8724C9.08788 12.5186 8.2901 10.4582 5.93666 10.2492C4.95938 10.1596 4.29125 9.5026 3.80261 8.66647C2.67575 6.73541 1.54889 4.8143 0.432007 2.87328C0.302369 2.64434 0.162756 2.40544 0.102923 2.15659C-0.0466602 1.48968 -0.0965182 0.733179 0.402092 0.285252C0.910674 -0.17263 1.61869 -0.00341276 2.25691 0.265344C3.0148 0.573916 3.54332 1.17115 4.06188 1.74848C5.80701 3.64968 7.11337 5.79974 7.58206 8.37781C7.70173 9.02482 7.97098 9.51256 8.43967 9.95053C9.9355 11.354 11.2718 12.9467 13.0867 13.9819C13.6152 14.2805 13.8047 14.8479 14.074 15.3356C14.2036 15.5745 14.1637 16.0523 14.5925 15.9627C15.0213 15.8831 15.0014 15.4551 15.0014 15.1067C14.9814 13.5837 15.5598 12.2001 16.0285 10.7867C16.1681 10.3387 16.3975 9.95053 16.9061 9.93062C17.3847 9.91072 17.6939 10.2292 17.9332 10.6274C18.2623 11.1649 18.4019 11.7323 18.4518 12.3693C18.6313 14.6886 18.8307 16.9979 18.3919 19.3172C18.2424 20.0637 18.3122 20.8302 18.741 21.4772C20.2966 23.8462 21.8822 26.2053 23.4678 28.5744C24.0561 28.1862 23.9464 27.579 24.106 27.1111C24.3553 26.4044 24.5946 25.7076 25.1431 25.1602C25.5919 24.7023 26.0805 24.2942 26.7586 24.5928C27.337 24.8516 27.5364 25.3891 27.5464 25.9963C27.5963 28.2061 27.5165 30.3959 26.4495 32.3967C26.1304 33.0039 26.1304 33.5414 26.4096 34.1386C28.1846 37.9311 30.1192 41.6538 31.4755 46.0236C32.1635 44.4609 32.6721 43.1868 33.2804 41.9624C33.7092 41.1064 33.9585 39.8223 35.2948 40.1209C36.7906 40.4494 36.3319 41.8131 36.2123 42.7587C35.9231 45.1377 35.3945 47.447 33.0112 48.7411C32.353 49.0994 32.5525 49.6867 32.712 50.2541C33.799 54.0465 34.6965 57.8788 35.3546 61.7708C35.5142 62.7164 35.3746 63.7118 35.8134 64.6972C36.7308 64.1199 36.9901 63.1046 37.5585 62.3282C38.1469 61.5219 38.6355 60.6261 39.2438 59.8298C39.5031 59.4913 39.8621 58.9638 40.4205 59.2325C40.9491 59.4913 41.3479 60.0288 41.2083 60.6261C40.6598 62.9354 39.892 65.1651 38.5757 67.1459C38.2167 67.6934 37.5086 67.8924 36.8405 67.982C36.1923 68.0716 35.953 68.4499 36.0228 69.077C36.5912 74.263 36.1225 79.4092 35.2449 84.5255C35.215 84.6848 35.2649 84.8639 35.2848 85.1327C35.963 84.6848 36.1923 83.9979 36.6012 83.4604C37.0798 82.8234 37.5685 82.2162 38.3363 81.9076C39.1241 81.5891 39.902 81.599 40.5502 82.1764C41.2083 82.7537 40.8992 83.4704 40.6499 84.1273C39.872 86.1977 38.456 87.7506 36.4616 88.6166C34.5768 89.4228 33.5696 90.7069 33.0112 92.6778C32.2034 95.4947 30.8771 98.1325 29.2417 101.069H29.2816Z" fill="#DD1E48"/>
</svg>
