<svg width="38" height="111" viewBox="0 0 38 111" fill="none" xmlns="http://www.w3.org/2000/svg">
<path d="M18.2712 104.172C16.6357 101.584 15.2596 98.8967 13.9432 96.1892C13.6341 95.5521 13.0657 95.4028 12.4275 95.3431C11.4203 95.2635 10.4231 95.154 9.42583 95.0843C8.83747 95.0445 8.31892 94.8554 7.82031 94.5667C7.34164 94.288 7.00259 93.8998 7.06242 93.2926C7.13223 92.6456 7.64081 92.4266 8.15937 92.3171C9.48567 92.0483 10.8319 91.9289 12.3277 91.9189C11.9588 90.7543 11.6496 89.6793 11.2807 88.6242C10.2735 85.7276 9.41586 82.7812 8.9372 79.7453C8.73775 78.4712 8.14939 78.0232 6.92281 78.1626C6.05523 78.2621 5.17768 78.2223 4.32007 77.9834C3.72174 77.8142 3.18324 77.5355 2.75443 77.0776C2.20596 76.4903 1.71733 75.8234 1.92674 74.9674C2.13616 74.0815 3.01371 74.0118 3.71177 73.8525C4.79873 73.6037 5.90565 73.6933 6.93279 74.1213C7.89012 74.5095 7.98984 74.1014 7.87017 73.315C7.35162 69.8411 7.12226 66.3373 7.00259 62.8335C6.97267 62.0671 6.62365 61.6789 5.79595 61.5992C3.37271 61.3802 1.71733 59.9568 0.460829 57.9959C0.161663 57.5181 -0.207309 57.0204 0.141718 56.4232C0.490745 55.816 1.11899 55.6866 1.73727 55.6965C3.15332 55.7364 4.34999 56.2938 5.36715 57.2892C5.72615 57.6475 6.00537 58.1153 6.52392 58.2945C6.84304 58.0556 6.7832 57.7172 6.7832 57.4285C6.69345 53.0189 7.45134 48.689 8.24912 44.3789C8.40867 43.5428 8.20923 43.055 7.49123 42.6668C6.27462 41.9999 5.7062 40.905 5.61645 39.5512C5.49679 37.8989 4.88848 36.3063 4.97823 34.3354C6.92281 35.5199 7.88014 37.3017 9.01697 39.3522C9.73497 36.5551 10.3931 34.0467 11.0314 31.5383C11.171 30.9809 10.7222 30.6624 10.443 30.2841C8.9372 28.2037 8.73775 25.3768 9.97431 23.4756C10.2336 23.0775 10.4729 22.5997 11.0513 22.6196C11.7294 22.6395 11.8591 23.2268 12.0286 23.7046C12.2978 24.4412 12.4773 25.2076 12.7266 26.0935C13.5045 25.2673 13.7538 24.2321 14.1826 23.3164C15.0701 21.4351 16.187 19.7031 17.6728 18.2598C18.5604 17.3938 19.0789 16.3884 19.398 15.2238C19.9266 13.3226 20.475 11.4313 21.0135 9.5401C21.2229 8.80351 21.552 8.1565 22.0905 7.60903C22.4396 7.25069 22.7886 6.8824 23.337 7.09143C23.8955 7.31041 23.8656 7.82802 23.8556 8.31576C23.8257 9.22157 23.5066 10.1174 23.726 11.3019C25.7304 9.4306 27.9143 8.10673 30.178 6.9023C30.6168 6.67336 30.7663 6.16571 31.0057 5.74765C31.6638 4.6129 32.322 3.47815 33.0201 2.3633C33.4888 1.61676 34.107 0.979706 34.845 0.491962C35.4932 0.0639428 36.2411 -0.254584 36.9192 0.28293C37.5774 0.810489 37.328 1.56699 37.0189 2.21399C36.1414 4.02561 35.2638 5.83723 34.3065 7.61899C33.5785 8.98268 32.6112 9.26139 31.2649 8.51484C30.4073 8.04701 29.6694 8.20627 28.9215 8.64424C26.947 9.7989 25.2517 11.292 23.6761 13.0339C25.2916 12.2277 26.5381 13.7108 28.0439 13.6411C28.7918 13.6013 28.7819 14.3877 28.5924 14.965C28.4129 15.4826 28.024 15.8708 27.5952 16.1595C25.5808 17.5132 23.3969 18.4887 21.0235 18.9963C20.6545 19.076 20.136 19.1158 19.8767 18.9167C18.9094 18.1901 18.4307 18.8371 17.8823 19.4841C15.0402 22.8386 13.6939 26.8799 12.3577 31.2198C13.2153 30.5927 13.8435 30.085 14.5216 29.6272C15.818 28.7612 17.264 28.6019 18.7897 28.6915C19.4978 28.7313 19.4379 28.9901 19.2185 29.4978C17.8125 32.7129 15.5388 34.8828 12.0186 35.5597C11.52 35.6592 11.0314 35.7787 10.9017 36.3162C10.1339 39.81 9.21642 43.284 8.89731 47.166C9.71503 46.529 10.3433 46.0213 10.9915 45.5435C12.0585 44.7472 13.1953 44.3291 14.5515 44.7372C15.828 45.1255 16.2069 46.2602 15.1898 47.0963C13.5045 48.47 11.8192 49.9631 9.39592 49.7441C8.56823 49.6645 8.20923 50.0825 8.17931 50.8987C7.94995 55.8956 7.71062 60.8925 8.16934 65.8894C8.19925 66.198 8.14939 66.6061 8.45853 66.7056C8.89731 66.835 8.99703 66.3572 9.17653 66.0885C10.1139 64.675 11.4502 63.809 12.936 63.1222C13.3848 62.9131 13.8635 62.7638 14.3022 63.1023C14.7809 63.4706 14.7709 64.0081 14.6712 64.5456C14.2025 66.9943 12.597 68.5371 10.094 68.9851C8.41864 69.2837 8.33887 69.2936 8.71781 70.9758C9.14661 72.877 8.83747 74.9574 10.1339 76.6396C10.2136 76.7491 10.1538 76.9781 10.1339 77.1473C9.61531 81.2981 11.5898 84.8616 12.7266 88.6939C13.0557 86.6533 14.2624 85.2697 15.6585 83.9856C16.1272 83.5576 16.6856 83.1097 17.264 83.3685C17.7825 83.5975 17.603 84.3141 17.5931 84.8218C17.5931 86.0959 17.2041 87.2406 16.2468 88.1265C15.5388 88.7835 14.8008 89.4006 14.0729 90.0277C13.1155 90.8638 13.1754 91.7597 14.2524 92.4764C14.5117 92.6456 14.8008 92.765 15.0502 92.9342C15.7981 93.4618 16.187 94.0889 15.3593 94.8554C14.9704 95.2137 14.8906 95.5621 15.1399 96.01C16.5659 98.6578 17.992 101.315 19.5975 104.302C19.7869 103.545 19.9066 103.127 20.0063 102.689C20.3753 100.987 20.9736 99.4043 22.27 98.1899C23.2373 97.2841 24.065 97.5031 24.3742 98.7772C25.0224 101.515 24.5836 104.023 22.4894 106.034C21.8711 106.631 21.931 106.949 22.5094 107.457C23.5166 108.333 24.5935 109.05 25.88 109.428C26.2689 109.537 26.6877 109.627 26.5481 110.184C26.3786 110.831 25.9298 110.473 25.6007 110.403C24.1548 110.085 22.8783 109.388 21.8711 108.333C21.1531 107.586 20.485 107.358 19.4479 107.586C17.603 108.005 15.8778 107.527 14.4618 106.233C13.664 105.496 13.8335 105.058 14.8906 104.75C15.9776 104.431 17.1543 104.64 18.3609 104.132V104.152L18.2712 104.172Z" fill="#DD1E48"/>
</svg>
