<svg width="22" height="67" viewBox="0 0 22 67" fill="none" xmlns="http://www.w3.org/2000/svg">
<path d="M11.2109 46.8584L12.6459 40.4784C13.0594 39.4841 14.5835 38.5975 15.2402 37.9015C17.6481 35.3992 19.2695 32.3998 20.8991 29.4004C21.3612 28.6049 21.6288 27.7598 21.6774 26.8235C21.7017 26.1441 21.5882 25.5143 20.9883 25.1166C20.3721 24.7686 19.7722 25.0503 19.2696 25.4646C17.5751 26.8235 15.7429 28.0664 14.5754 29.9389C14.4133 30.1958 14.2511 30.3201 14.0322 30.6349C13.9431 30.7758 13.6026 31.2647 13.181 31.9441L13.3107 25.5061C13.335 23.5092 13.8296 20.8329 12.8486 17.6595C12.8486 17.6429 12.8405 17.6346 12.8324 17.618C12.7756 17.4357 12.7108 17.2535 12.6459 17.0712C12.6297 17.0132 12.6216 16.9635 12.5973 16.8972C12.3784 16.0189 12.7594 14.544 12.7999 13.5994C12.881 9.85428 11.7055 6.49856 9.88131 3.30854C9.33813 2.38054 8.77063 1.36968 7.83829 0.723391C7.02756 0.176532 6.10332 -0.295756 5.29259 0.226246C4.47376 0.690248 4.32783 1.75911 4.33594 2.73683C4.34405 3.09311 4.46566 3.47426 4.58727 3.82226C5.56014 6.85484 6.55735 9.87086 7.514 12.92C7.9599 14.2209 8.68955 15.298 9.98671 15.7206C10.8623 16.0023 10.9109 16.4249 11.1136 17.2037C12.1513 20.9406 11.8109 22.8546 11.5676 25.7546C10.8623 25.2989 10.1489 24.9509 10.1489 24.9509C8.4058 24.3626 7.05187 23.9235 5.72228 23.5921C4.55483 23.2855 3.0631 23.1198 2.58477 24.4621C2.10644 25.9121 3.13607 27.0389 4.46566 27.6438C5.63311 28.1824 6.91405 28.7458 8.2031 28.9281C10.2867 29.2181 10.9515 29.5744 11.2109 30.5769C11.1461 31.6209 11.0974 32.6401 11.0893 33.3195C11.0893 33.3195 11.0893 33.3361 11.0893 33.3692C11.0893 34.1232 11.0893 34.8855 11.0731 35.6478C11.0731 35.6644 11.0731 35.681 11.065 35.6975C11.065 35.7472 11.0406 35.7638 11.0406 35.8135L11.0731 35.739C11.0488 37.2138 10.9434 38.7301 10.5299 40.379C10.5299 40.379 10.5299 40.4287 10.5137 40.5198C10.4813 41.1496 10.2786 43.685 9.81647 45.1267C9.81647 45.1764 9.79213 45.2179 9.77592 45.2676V45.2924C9.6462 45.8559 9.4111 46.4027 9.23274 46.9413C8.85981 48.1842 8.48687 49.427 7.99233 50.7362L8.05718 50.4544C8.12204 49.4684 7.53832 47.1899 7.32753 46.411C7.31131 46.353 7.31131 46.3116 7.29509 46.2784C7.27888 46.2039 7.26266 46.1459 7.26266 46.1459C6.45193 45.1184 6.37086 44.0496 6.02224 43.0801C5.47906 41.6218 4.54674 40.5447 3.15229 39.9233C1.32815 39.0781 0.209349 39.7244 0.0390964 41.7544C-0.260873 45.5576 1.16601 48.6564 4.29542 50.5787C5.96551 51.5813 6.24925 52.6667 5.7466 54.3487C5.57635 54.9287 5.41421 55.5088 5.24395 56.0805C5.24395 56.0805 5.24395 56.0943 5.24395 56.1219C4.97641 57.025 4.7413 58.0193 4.53051 59.0136C3.55764 60.9856 2.07401 63.9519 1.7254 64.6894C1.45786 65.2528 1.1741 65.9405 1.847 66.3299C2.54423 66.7608 3.03877 66.1891 3.20902 65.5759C3.24956 65.4351 3.3874 65.1202 3.55765 64.7474C3.53333 64.9048 3.52521 64.9876 3.52521 64.9876C4.48187 62.2533 5.98171 60.5465 8.63279 59.5853C11.4703 58.5579 13.5539 56.4865 14.8186 53.6445C15.2078 52.7413 15.7023 51.7636 14.843 50.8853C14.0079 50.0153 12.9297 49.9242 11.8108 50.3053C10.9109 50.6119 10.2623 51.225 9.6462 51.9045C10.1732 50.1976 10.6596 48.5902 11.1623 47.0324L11.1866 46.8916L11.2109 46.8584Z" fill="#DD1C47"/>
</svg>
