<svg width="27" height="65" viewBox="0 0 27 65" fill="none" xmlns="http://www.w3.org/2000/svg">
<path d="M13.9443 15.3669C13.3282 16.9163 12.0472 19.5512 11.7959 24.2741C12.2499 45.237 18.6952 55.2545 19.1087 55.8759L19.133 55.9007C19.6518 56.431 23.1542 62.3139 23.4785 63.2585C23.6487 63.8302 24.1271 64.3605 24.7675 63.9379C25.3675 63.5236 25.108 62.9271 24.8324 62.3968C24.3622 61.4522 20.7625 55.3456 20.268 54.401C20.2031 54.2933 20.1626 54.2022 20.1383 54.1193C20.1383 54.0945 20.114 54.0945 20.114 54.0779C18.1601 51.0204 16.7819 47.4659 15.8333 43.9444C15.6387 43.4638 15.4442 42.975 15.4685 42.4944C15.1037 41.003 14.8199 39.5281 14.6091 38.1195C14.22 36.6281 14.1146 35.2195 14.0497 33.8607V33.6867C13.5795 28.9224 13.7254 25.4921 13.7254 25.4921C13.4092 20.446 14.9172 17.9769 15.5171 16.2452C15.5171 16.2452 16.0684 14.9194 17.244 14.1737C17.4791 14.0246 15.8252 12.7734 15.8252 12.7734C15.8252 12.7734 14.4227 14.1654 13.9443 15.3834V15.3669Z" fill="#DD1C47"/>
<path d="M22.5785 55.7605C21.8083 56.531 21.6948 57.0116 22.1731 57.5833C22.1488 58.8759 21.2894 58.9256 20.8597 58.8593C20.8192 58.8179 20.7706 58.7682 20.73 58.7516C20.7057 58.7268 20.6895 58.7268 20.6895 58.7268C19.8301 58.1551 18.9464 58.0225 17.6979 58.3125C14.755 58.9919 11.9985 58.2048 9.74467 56.0919C8.47994 54.8822 8.75559 54.1779 10.4338 53.6725C12.1769 53.1422 14.0496 53.4985 15.963 52.6865L15.9873 52.6616C15.9873 52.6616 16.8061 52.1976 17.9898 52.9019C18.2897 51.6673 18.4843 50.9879 18.6384 50.2836C19.2221 47.4913 20.1868 44.9227 22.2542 42.9258C23.8027 41.451 25.1323 41.8073 25.6106 43.8953C26.6402 48.353 25.9511 52.4627 22.6028 55.7605H22.5785Z" fill="#DD1C47"/>
<path d="M22.9112 29.776C21.2735 32.8997 19.7169 36.214 15.9957 37.4237C14.739 37.8214 14.4553 38.6749 14.9255 39.926L14.9498 39.984C14.7066 40.3486 14.0661 41.0777 13.4013 40.3569C12.4933 36.9349 11.7474 33.4631 11.0178 30.0163C10.7178 28.6491 10.1341 28.036 8.82882 27.9034C6.63986 27.6714 5.1238 26.3622 4.15092 24.3737C2.97537 21.9459 1.07827 19.9491 0 16.9082C3.60774 17.4633 6.12099 19.5596 9.05583 21.9459C9.05583 21.9459 11.2772 24.7631 11.9988 27.3151C12.4528 29.4528 13.0122 31.6237 13.7094 33.8277C14.5282 32.3611 15.1444 31.1928 15.8011 30.0494C16.8793 28.1851 18.29 26.8428 20.5519 26.6191C22.6598 26.412 23.9084 27.8785 22.9355 29.7677L22.9112 29.776Z" fill="#DD1C47"/>
<path d="M23.4626 1.11562C23.2924 6.84107 21.2088 11.506 16.3931 14.6545C16.3931 14.6545 16.0769 14.9694 15.6634 15.2097C14.9581 15.6654 13.9041 15.9305 13.5717 14.0745C13.0529 11.1414 14.3906 8.1088 14.3906 8.1088C15.1202 6.4185 15.8337 5.24193 16.5633 4.13992C17.9578 2.02706 20.0251 0.925052 22.3357 0.121334C23.4221 -0.226667 23.4788 0.195906 23.4626 1.10734V1.11562Z" fill="#DD1C47"/>
</svg>
