<svg width="26" height="26" viewBox="0 0 26 26" fill="none" xmlns="http://www.w3.org/2000/svg">
<g clip-path="url(#clip0_5477_555)">
<path d="M24.3999 3.09006C24.1499 2.15006 23.3599 1.65006 22.4599 1.46006C20.5499 0.97006 18.9699 1.87006 18.9699 1.87006C17.5699 2.86006 17.5299 2.98006 15.9799 4.28006C15.1499 4.97006 13.6199 6.61006 12.3299 7.82006C11.7599 6.53006 10.9399 4.66006 10.3999 2.90006L10.3499 2.71006C10.3199 2.63006 10.2999 2.55006 10.2799 2.48006L10.1399 2.04006L10.0699 1.88006C10.0499 1.83006 10.0299 1.77006 10.0099 1.71006C9.90994 1.52006 9.78994 1.36006 9.62994 1.24006C8.70994 0.35006 6.91994 0.300059 5.73994 1.15006C5.64994 1.21006 5.55994 1.28006 5.48994 1.36006C5.40994 1.43006 5.34994 1.51006 5.28994 1.59006C4.97994 2.00006 4.84994 2.48006 4.80994 2.97006C4.80994 3.02006 4.80994 3.08006 4.80994 3.14006C4.80994 3.35006 4.80994 3.57006 4.83994 3.79006C4.91994 4.52006 5.13994 5.13006 5.17994 5.23006L5.22994 5.41006C5.24994 5.48006 5.28994 5.61006 5.30994 5.65006C5.73994 6.56006 5.70994 7.14006 7.30994 12.2601C7.43994 12.8301 7.42994 12.7801 7.00994 13.2301C6.66994 13.6001 6.31994 13.9601 5.99994 14.3201C5.64994 14.7101 5.17994 15.1701 4.94994 15.3301C4.90994 15.3601 3.32994 16.4401 2.75994 16.8501C2.74994 16.8501 2.75994 16.8501 2.73994 16.8501C2.71994 16.8801 2.69994 16.8901 2.67994 16.9101C2.67994 16.9101 2.65994 16.9301 2.63994 16.9401C2.61994 16.9601 2.59994 16.9801 2.57994 16.9901C2.55994 17.0101 2.53994 17.0301 2.52994 17.0401C1.53994 17.9301 0.0499358 19.6301 0.769936 21.4001C1.03994 22.4001 1.75994 23.3601 2.72994 23.8501C2.83994 23.9001 2.95994 23.9601 3.07994 23.9801C3.12994 24.0101 3.18994 24.0201 3.25994 24.0201H3.23994C3.23994 24.0201 3.30994 24.0401 3.34994 24.0501C3.37994 24.0501 3.39994 24.0501 3.41994 24.0701H3.47994C5.90994 24.4801 7.72994 22.2501 7.72994 22.2501C7.76994 22.2001 7.80994 22.1601 7.83994 22.1401C8.51994 21.3201 8.90994 20.8601 9.29994 20.3901L10.4199 19.0401C11.1999 20.4901 12.0599 21.8901 12.9699 23.2001C13.4199 23.8901 14.4799 24.8101 15.9299 24.8101C16.5499 24.8101 17.2399 24.6401 17.9799 24.2301C18.9999 23.6501 19.6399 22.8901 19.8599 21.9801C20.1899 20.6101 19.4499 19.4301 19.4199 19.3801L19.3799 19.3301C19.3799 19.3301 19.3299 19.2401 19.2899 19.1901L19.0299 18.7901L18.9999 18.8101C17.7199 17.1501 16.4999 15.3501 15.3699 13.4501C16.5599 12.2201 17.5799 11.1801 18.6599 10.1601C19.9299 8.96006 21.2599 7.84006 22.6199 6.70006C22.6899 6.64006 22.7399 6.58006 22.7999 6.51006C23.1499 6.24006 23.4699 5.90006 23.7299 5.54006C24.2399 4.85006 24.6399 3.91006 24.4299 3.05006L24.3999 3.09006ZM22.7699 5.55006C22.5999 5.95006 19.5699 7.72006 17.8699 9.13006C17.8299 9.17006 17.7699 9.20006 17.7299 9.24006C15.9599 10.7001 15.4299 11.2701 14.1499 12.6001C13.8199 12.9501 13.8299 13.5201 14.0799 13.9501C15.3399 16.0601 16.7099 18.0801 18.1599 19.9401C18.1999 19.9801 18.2299 20.0401 18.2599 20.0901L18.3899 20.3201C18.5099 20.5901 18.6999 21.1301 18.5699 21.6901C18.4399 22.2401 18.0199 22.7101 17.3199 23.1001C15.3099 24.2401 14.1799 22.6801 14.0499 22.4801C13.0899 21.1101 12.1899 19.6401 11.3899 18.1001C11.2099 17.7401 11.0199 17.3901 10.5899 17.3401H10.4999C10.1199 17.3401 10.0099 17.3201 9.71994 17.5901L8.51994 19.0801C8.11994 19.5601 7.63994 20.1601 6.38994 21.2101C6.38994 21.2101 4.26994 22.9701 3.22994 21.6601C2.23994 20.4101 2.54994 19.3001 3.42994 18.2801C3.90994 17.7301 4.34994 17.2701 4.81994 16.7701C5.15994 16.4201 5.51994 16.0401 5.94994 15.5901C6.66994 14.8001 7.44994 13.9601 8.26994 13.1901C8.67994 12.8001 8.76994 12.3501 8.55994 11.8201C8.45994 11.5801 8.36994 11.3401 8.27994 11.0901C8.25994 11.0501 8.24994 11.0101 8.23994 10.9801C8.20994 10.9301 8.19994 10.8701 8.17994 10.8001C8.17994 10.7701 8.15994 10.7601 8.14994 10.7601C6.99994 8.12006 6.53994 6.02006 6.16994 5.30006C6.09994 5.17006 5.98994 4.89006 5.95994 4.85006V4.81006C5.95994 4.81006 5.90994 4.74006 5.88994 4.70006C5.68994 4.31006 5.32994 3.56006 5.53994 3.12006C5.69994 2.81006 5.89994 2.59006 6.16994 2.39006C6.70994 2.00006 7.38994 1.72006 8.06994 1.77006C8.32994 1.79006 8.47994 1.79006 8.74994 1.88006C8.93994 1.95006 9.13994 2.12006 9.29994 2.23006C9.34994 2.27006 9.55994 2.47006 9.57994 2.55006C9.67994 2.68006 9.88994 3.18006 9.88994 3.22006C9.90994 3.27006 10.0099 3.53006 10.1299 4.07006C10.2799 4.75006 11.3399 8.50006 11.4199 8.99006C11.4199 8.99006 11.4199 9.01006 11.4199 9.02006C11.5399 9.26006 11.6799 9.42006 11.7799 9.47006C12.1699 9.65006 13.0799 9.65006 13.4399 9.41006C14.4799 8.64006 14.7599 7.90006 15.7599 6.74006C16.9299 5.38006 17.5399 4.90006 18.1299 4.27006C19.1899 3.14006 18.9899 3.31006 19.7199 2.82006C19.7199 2.82006 19.7999 2.78006 19.8799 2.75006C20.5499 2.63006 21.2299 2.66006 21.8099 2.91006C21.9899 2.99006 22.1499 3.08006 22.2999 3.18006C23.1499 3.80006 23.1499 4.57006 22.7699 5.53006V5.55006Z" fill="#DD1C47" stroke="#DD1C47" stroke-width="1.12" stroke-linecap="round" stroke-linejoin="round"/>
<path d="M22.77 5.55026C22.6 5.95026 19.57 7.72026 17.87 9.13026C17.83 9.17026 17.77 9.20026 17.73 9.24026C15.96 10.7003 15.43 11.2703 14.15 12.6003C13.82 12.9503 13.78 13.6003 13.98 14.0403C15.16 16.7303 16.71 18.0703 18.16 19.9303C18.2 19.9703 18.23 20.0303 18.26 20.0803L18.39 20.3103C18.51 20.5803 18.7 21.1203 18.57 21.6803C18.44 22.2303 17.96 22.6203 17.32 23.0903C14.96 24.8303 14 23.0103 13.87 22.8203C12.2 20.4303 12.42 19.5003 11.62 17.9703C11.44 17.6103 11.03 17.3903 10.6 17.3503H10.51C10.13 17.3503 10.02 17.3303 9.73004 17.6003L8.53004 19.0903C8.13004 19.5703 7.65004 20.1703 6.40004 21.2203C6.40004 21.2203 4.28004 22.9803 3.24004 21.6703C2.25004 20.4203 2.56004 19.3103 3.44004 18.2903C3.92004 17.7403 4.36004 17.2803 4.83004 16.7803C5.17004 16.4303 5.53004 16.0503 5.96004 15.6003C6.68004 14.8103 7.46004 13.9703 8.28004 13.2003C8.69004 12.8103 8.78004 12.3603 8.57004 11.8303C8.47004 11.5903 8.38004 11.3503 8.29004 11.1003C8.27004 11.0603 8.26004 11.0203 8.25004 10.9903C8.22004 10.9403 8.21004 10.8803 8.19004 10.8103C8.19004 10.7803 8.17004 10.7703 8.16004 10.7703C7.01004 8.13026 6.55004 6.03026 6.18004 5.31026C6.11004 5.18026 6.00004 4.90026 5.97004 4.86026V4.82026C5.97004 4.82026 5.91004 4.75026 5.90004 4.71026C5.66004 4.06026 5.63004 3.26026 6.01004 2.69026C6.20004 2.40026 6.14004 2.45026 6.41004 2.24026C6.95004 1.85026 7.40004 1.73026 8.08004 1.78026C8.34004 1.80026 8.49004 1.80026 8.76004 1.89026C8.95004 1.96026 9.15004 2.13026 9.31004 2.24026C9.36004 2.28026 9.57004 2.48026 9.59004 2.56026C9.69004 2.69026 9.90004 3.19026 9.90004 3.23026C9.92004 3.28026 10.02 3.54026 10.14 4.08026C10.29 4.76026 11.35 8.51026 11.43 9.00026C11.43 9.00026 11.43 9.02026 11.43 9.03026C11.55 9.27026 11.69 9.43026 11.79 9.48026C12.18 9.66026 13.09 9.66026 13.45 9.42026C14.49 8.65026 14.77 7.91026 15.77 6.75026C16.94 5.39026 17.55 4.91026 18.14 4.28026C19.2 3.15026 19 3.32026 19.73 2.83026C19.73 2.83026 19.81 2.79026 19.89 2.76026C20.56 2.64026 21.24 2.67026 21.82 2.92026C22 3.00026 22.16 3.09026 22.31 3.19026C23.16 3.81026 23.16 4.58026 22.78 5.54026L22.77 5.55026Z" fill="#FCE5EE"/>
<path d="M9.62045 2.63002C9.62045 2.63002 9.12045 1.72002 7.64045 2.40002C6.16045 3.08002 5.66045 3.88002 6.16045 5.29002C6.16045 5.29002 5.14045 4.26002 5.16045 2.77002C5.17045 1.28002 8.95045 0.440021 9.36045 1.39002C9.77045 2.34002 9.62045 2.63002 9.62045 2.63002Z" fill="#DD1C47"/>
</g>
<defs>
<clipPath id="clip0_5477_555">
<rect width="25.02" height="25.39" fill="white"/>
</clipPath>
</defs>
</svg>
