<svg width="780" height="636" viewBox="0 0 780 636" fill="none" xmlns="http://www.w3.org/2000/svg">
<g clip-path="url(#clip0_3257_13765)">
<path d="M723.336 479.764C728.333 477.26 731.633 475.606 734.744 479.48C737.808 483.307 737.337 487.087 735.593 491.197C731.114 501.78 722.582 508.11 713.106 513.543C703.961 518.787 693.684 521.717 685.152 528.142C684.209 528.85 683.219 529.181 682.417 528.236C681.05 526.677 681.805 525.071 682.936 523.795C686.33 519.874 689.771 516 693.213 512.126C697.88 506.835 702.358 501.402 707.214 496.252C709.571 493.748 709.854 491.669 708.204 488.598C703.584 480.047 699.011 471.402 694.91 462.567C691.704 455.622 690.809 448.252 694.061 440.835C695.711 437.008 697.644 433.606 702.217 433.323C706.554 433.039 709.806 435.449 711.881 439.039C716.925 447.921 719.14 457.559 717.915 467.811C717.538 471.071 716.878 474.283 718.386 478.866C724.467 467.764 729.464 457.417 733.849 446.835C739.6 432.945 743.183 418.441 746.435 403.842C747.708 398.079 746.53 394.583 740.59 391.512C729.464 385.748 723.949 375.732 724.137 362.929C724.279 356.031 727.956 353.669 734.367 356.031C739.27 357.874 742.664 361.228 744.832 366.047C746.247 369.213 746.765 372.803 749.735 376.016C752.045 364.724 751.857 353.811 751.857 342.992C751.857 330.047 750.348 317.244 749.075 304.394C748.745 300.803 747.52 298.677 743.842 297.921C728.05 294.661 724.703 280.63 719.282 268.488C718.575 266.882 718.622 264.614 720.319 263.291C722.11 261.874 723.76 263.244 725.41 264.142C731.02 267.118 736.111 271.087 743.371 273.874C741.485 266.126 739.93 259.323 738.233 252.614C736.488 245.528 734.603 238.535 732.953 231.449C731.963 227.055 729.464 225.165 725.033 225.307C718.811 225.543 712.635 225.165 706.742 222.756C702.452 221.008 698.634 218.646 696.654 214.11C694.91 209.953 694.816 206.504 699.483 204.236C700.944 203.528 702.311 202.488 703.537 201.354C708.157 196.913 712.871 196.535 717.915 200.551C718.81 201.307 720.036 201.638 721.168 202.157C722.487 199.276 720.932 197.055 719.942 194.882C715.181 184.299 710.089 173.811 705.564 163.134C703.631 158.598 700.52 156.945 695.994 156.756C689.96 156.52 684.114 155.433 678.505 153.024C674.215 151.181 668.982 149.953 669.406 143.669C669.689 139.701 677.232 135.071 682.653 135.354C684.68 135.449 686.66 135.969 689.3 136.394C686.094 127.937 680.862 121.37 675.959 114.614C671.763 108.85 668.935 101.858 661.345 99.1181C659.035 98.2677 658.281 95.3386 657.291 93.0236C656.254 90.5669 655.5 87.8268 653.897 85.748C647.721 77.5276 647.533 75.3071 637.492 80.126C633.626 81.9685 629.242 82.7717 624.952 83.5276C620.379 84.3307 615.43 83.1496 614.251 78.3779C613.167 73.937 617.551 71.7165 621.275 70.3465C625.518 68.8346 629.902 67.7008 635.7 65.9055C627.875 59.4803 624.104 49.7008 612.978 48.7087C608.358 48.2835 605.2 45.1654 602.89 41.1968C597.563 32.0315 592.236 22.9134 586.956 13.7008C586.343 12.6142 585.683 11.4803 585.401 10.2992C584.693 7.13386 584.458 3.54331 586.815 1.41732C589.219 -0.755905 592.566 0.0472444 595.583 1.32283C599.166 2.7874 601.664 5.62205 604.116 8.3622C612.365 17.3858 618.541 27.5906 620.757 39.8268C621.322 42.8976 622.595 45.2126 624.811 47.2913C631.882 53.9528 638.199 61.5118 646.779 66.4252C649.277 67.8425 650.173 70.5354 651.446 72.8504C652.058 73.9842 651.87 76.252 653.897 75.8268C655.924 75.4488 655.83 73.4173 655.83 71.7638C655.735 64.5354 658.47 57.9685 660.685 51.2598C661.345 49.1339 662.429 47.2913 664.834 47.1968C667.096 47.1024 668.558 48.6142 669.689 50.5039C671.245 53.0551 671.905 55.748 672.141 58.7716C672.989 69.7795 673.932 80.7402 671.858 91.748C671.151 95.2913 671.481 98.9291 673.508 102C680.862 113.244 688.357 124.441 695.853 135.685C698.634 133.843 698.115 130.961 698.87 128.74C700.048 125.386 701.18 122.079 703.772 119.48C705.894 117.307 708.204 115.37 711.409 116.787C714.144 118.016 715.086 120.567 715.133 123.449C715.369 133.937 714.992 144.331 709.948 153.827C708.439 156.709 708.439 159.26 709.759 162.094C718.15 180.094 727.296 197.764 733.707 218.504C736.96 211.087 739.364 205.039 742.24 199.228C744.267 195.165 745.445 189.071 751.762 190.488C758.833 192.047 756.665 198.52 756.099 203.008C754.732 214.299 752.234 225.26 740.967 231.402C737.856 233.102 738.798 235.89 739.553 238.583C744.691 256.583 748.934 274.772 752.045 293.244C752.799 297.732 752.139 302.457 754.214 307.134C758.551 304.394 759.776 299.575 762.463 295.89C765.245 292.063 767.555 287.811 770.43 284.031C771.656 282.425 773.353 279.921 775.993 281.197C778.491 282.425 780.377 284.976 779.717 287.811C777.124 298.772 773.494 309.354 767.272 318.756C765.575 321.354 762.228 322.299 759.069 322.724C756.005 323.15 754.874 324.945 755.204 327.921C757.891 352.535 755.675 376.961 751.527 401.244C751.385 402 751.621 402.85 751.715 404.126C754.921 402 756.005 398.74 757.938 396.189C760.201 393.165 762.51 390.283 766.14 388.819C769.865 387.307 773.542 387.354 776.606 390.094C779.717 392.835 778.256 396.236 777.077 399.354C773.4 409.181 766.706 416.551 757.278 420.661C748.368 424.488 743.607 430.583 740.967 439.937C737.148 453.307 730.879 465.827 723.147 479.764H723.336Z" fill="#DD1E48"/>
<path d="M86.5042 508.299C78.773 496.016 72.2675 483.26 66.0448 470.409C64.5835 467.386 61.8964 466.677 58.8794 466.394C54.1181 466.016 49.404 465.496 44.6898 465.165C41.9085 464.976 39.4572 464.079 37.1001 462.709C34.8373 461.386 33.2345 459.543 33.5173 456.661C33.8473 453.591 36.2515 452.551 38.7029 452.032C44.9727 450.756 51.3368 450.189 58.408 450.142C56.6637 444.614 55.2024 439.512 53.4581 434.504C48.6968 420.756 44.6427 406.772 42.3799 392.362C41.4371 386.315 38.6558 384.189 32.8574 384.85C28.7561 385.323 24.6076 385.134 20.5535 384C17.725 383.197 15.1794 381.874 13.1523 379.701C10.5595 376.913 8.24961 373.748 9.23958 369.685C10.2295 365.48 14.378 365.15 17.6779 364.394C22.8163 363.213 28.049 363.638 32.9045 365.669C37.4301 367.512 37.9015 365.575 37.3358 361.843C34.8844 345.354 33.8002 328.724 33.2345 312.095C33.0931 308.457 31.4431 306.614 27.5304 306.236C16.0751 305.197 8.24961 298.441 2.30981 289.134C0.895571 286.866 -0.848657 284.504 0.801289 281.669C2.45123 278.787 5.42114 278.173 8.3439 278.22C15.038 278.409 20.6949 281.055 25.5033 285.78C27.2004 287.48 28.5204 289.701 30.9717 290.551C32.4802 289.417 32.1974 287.811 32.1974 286.441C31.7731 265.512 35.3559 244.961 39.1272 224.504C39.8814 220.535 38.9386 218.22 35.5444 216.378C29.7932 213.213 27.1061 208.016 26.6819 201.591C26.1162 193.748 23.2405 186.189 23.6648 176.835C32.8574 182.457 37.3829 190.913 42.757 200.646C46.1512 187.37 49.2625 175.465 52.2796 163.559C52.9396 160.913 50.8182 159.402 49.4983 157.606C42.3799 147.732 41.4371 134.315 47.2826 125.291C48.5083 123.402 49.6397 121.134 52.3739 121.228C55.5795 121.323 56.1923 124.11 56.9937 126.378C58.2665 129.874 59.1151 133.512 60.2936 137.717C63.9706 133.795 65.1492 128.882 67.1762 124.535C71.3718 115.606 76.6516 107.386 83.6757 100.535C87.8713 96.4252 90.3226 91.6535 91.8311 86.126C94.3296 77.1024 96.9224 68.126 99.468 59.1496C100.458 55.6535 102.014 52.5827 104.559 49.9843C106.209 48.2835 107.859 46.5354 110.452 47.5276C113.092 48.5669 112.95 51.0236 112.903 53.3386C112.762 57.6378 111.253 61.8898 112.29 67.5118C121.766 58.6299 132.09 52.3465 142.791 46.6299C144.865 45.5433 145.572 43.1339 146.704 41.1496C149.815 35.7638 152.926 30.378 156.226 25.0866C158.442 21.5433 161.365 18.5197 164.853 16.2047C167.917 14.1732 171.453 12.6614 174.658 15.2126C177.77 17.7165 176.591 21.3071 175.13 24.378C170.981 32.9764 166.833 41.5748 162.307 50.0315C158.866 56.5039 154.293 57.8268 147.929 54.2835C143.875 52.063 140.387 52.8189 136.851 54.8976C127.517 60.378 119.503 67.4646 112.055 75.7323C119.692 71.9055 125.584 78.9449 132.703 78.6142C136.238 78.4252 136.191 82.1575 135.295 84.8976C134.447 87.3543 132.608 89.1969 130.581 90.5669C121.059 96.9921 110.735 101.622 99.5152 104.031C97.7709 104.409 95.3196 104.598 94.0939 103.654C89.5212 100.205 87.2584 103.276 84.6656 106.346C71.2304 122.268 64.8663 141.449 58.5494 162.047C62.6035 159.071 65.5734 156.661 68.779 154.488C74.9074 150.378 81.7429 149.622 88.9555 150.047C92.3026 150.236 92.0197 151.465 90.9826 153.874C84.3357 169.134 73.5875 179.433 56.9466 182.646C54.5895 183.118 52.2796 183.685 51.6668 186.236C48.0369 202.819 43.6999 219.307 42.1913 237.732C46.0569 234.709 49.0268 232.299 52.091 230.031C57.1351 226.252 62.5093 224.268 68.9205 226.205C74.9546 228.047 76.7459 233.433 71.9375 237.402C63.9706 243.921 56.0037 251.008 44.5484 249.969C40.6357 249.591 38.9386 251.575 38.7972 255.449C37.7129 279.165 36.5815 302.882 38.75 326.598C38.8915 328.063 38.6558 330 40.1171 330.472C42.1914 331.087 42.6628 328.819 43.5113 327.543C47.9426 320.835 54.2595 316.724 61.2836 313.465C63.4049 312.472 65.6677 311.764 67.7419 313.37C70.0047 315.118 69.9576 317.669 69.4862 320.22C67.2705 331.843 59.6808 339.165 47.8483 341.291C39.9286 342.709 39.5514 342.756 41.3428 350.74C43.3699 359.764 41.9085 369.638 48.0369 377.622C48.414 378.142 48.1312 379.228 48.0369 380.032C45.5855 399.732 54.9195 416.646 60.2936 434.835C61.8493 425.15 67.5534 418.583 74.1532 412.488C76.3688 410.457 79.0087 408.331 81.7429 409.559C84.1942 410.646 83.3457 414.047 83.2986 416.457C83.2986 422.504 81.46 427.937 76.9345 432.142C73.5874 435.26 70.099 438.189 66.6577 441.165C62.1321 445.134 62.415 449.386 67.5062 452.787C68.7319 453.591 70.099 454.158 71.2775 454.961C74.8131 457.465 76.6516 460.441 72.7389 464.079C70.9004 465.78 70.5233 467.433 71.7018 469.559C78.443 482.126 85.1842 494.74 92.774 508.913C93.6696 505.323 94.2353 503.339 94.7068 501.26C96.451 493.181 99.2795 485.669 105.408 479.906C109.981 475.606 113.893 476.646 115.355 482.693C118.419 495.685 116.345 507.591 106.445 517.134C103.522 519.969 103.805 521.48 106.539 523.89C111.3 528.047 116.392 531.449 122.473 533.244C124.311 533.764 126.291 534.189 125.631 536.835C124.83 539.906 122.709 538.205 121.153 537.874C114.318 536.362 108.283 533.055 103.522 528.047C100.128 524.504 96.9695 523.417 92.0668 524.504C83.3457 526.488 75.1903 524.221 68.4962 518.079C64.7249 514.583 65.5263 512.504 70.5233 511.039C75.6617 509.528 81.2243 510.52 86.9284 508.11V508.205L86.5042 508.299Z" fill="#DD1E48"/>
<path d="M207.516 377.717L206.998 377.433C206.243 377.008 205.442 376.583 204.97 376.299C205.395 375.921 206.149 375.402 206.95 374.835L207.233 374.646C215.483 368.787 219.914 361.937 220.763 353.669C222.318 338.646 212.089 314.457 189.65 309.969C181.541 308.315 173.386 307.465 165.277 307.417H162.496C161.648 307.417 160.799 307.417 159.951 307.417C157.971 307.417 155.944 307.37 153.916 307.512C149.532 307.843 146.892 310.346 147.034 314.032C147.175 317.48 149.815 319.654 154.152 319.795C156.981 319.89 159.856 319.984 162.732 319.795C163.816 319.701 164.523 319.843 164.9 320.173C165.277 320.551 165.466 321.402 165.466 322.724C165.372 329.008 165.466 335.339 165.56 341.48C165.655 348.709 165.796 356.126 165.56 363.496C165.23 374.646 165.325 385.937 165.466 396.898C165.513 402.378 165.56 408 165.56 413.575C165.56 421.654 165.513 431.008 165.277 440.173C165.277 441.874 165.183 443.386 164.759 443.811C164.335 444.189 162.92 444.236 161.129 444.283C160.469 444.283 159.762 444.283 159.102 444.283C157.216 444.283 155.236 444.283 153.256 444.472C149.391 444.898 147.034 447.165 146.798 450.661C146.515 454.11 148.495 456.567 152.361 457.654C153.445 457.937 154.671 458.079 156.085 458.079C156.368 458.079 156.603 458.079 156.886 458.079C170.982 457.559 184.794 456.992 198.371 455.386C209.26 454.11 219.16 448.252 225.524 439.323C231.888 430.441 234.198 419.197 231.935 408.52C229.154 395.339 220.904 384.992 207.469 377.717H207.516ZM180.504 372.803C179.326 373.087 178.996 372.898 178.948 372.898C178.854 372.803 178.618 372.472 178.618 371.102C178.618 367.134 178.618 363.213 178.618 358.63C178.618 356.22 178.618 353.669 178.618 350.882V350.457C178.901 346.157 178.618 341.102 178.336 335.764C178.147 331.89 177.911 327.921 177.911 323.953C177.911 322.394 178.006 321.496 178.241 321.307C178.477 321.118 179.326 321.165 180.881 321.354C196.296 323.622 203.745 330.803 207.28 346.961C208.459 352.299 207.139 356.693 203.273 360.425C197.334 366.236 189.885 370.252 180.504 372.756V372.803ZM178.524 441.591C178.571 440.268 178.524 438.992 178.524 437.717C178.524 437.197 178.524 436.724 178.524 436.205V435.921C179.467 423.78 179.326 411.449 179.184 399.543C179.184 396.283 179.09 393.024 179.09 389.811C179.09 388.488 179.278 387.638 179.75 387.165C180.174 386.74 180.976 386.504 182.248 386.504H183.003C191.535 386.504 199.549 386.457 206.385 391.843C220.527 403.039 223.261 418.535 213.739 433.228C209.685 439.465 203.038 441.165 197.051 441.969C193.704 442.441 190.31 442.677 186.962 442.913C184.888 443.055 182.767 443.244 180.646 443.433C179.703 443.528 179.09 443.433 178.807 443.15C178.571 442.913 178.477 442.346 178.524 441.543V441.591Z" fill="#DD1E48"/>
<path d="M337.107 442.535C334.562 442.205 332.158 442.961 330.602 443.622C329.376 444.142 328.481 444.236 327.868 443.953C327.161 443.622 326.595 442.724 325.982 441.024C319.901 423.591 317.402 405.402 314.998 387.78C311.321 360.756 306.136 337.087 299.112 315.402L298.923 314.835C297.886 311.528 296.519 307.417 291.663 307.465C286.855 307.465 285.818 311.669 285.063 314.693C285.016 314.976 284.922 315.26 284.875 315.543C283.366 321.354 281.764 327.26 280.208 332.976C275.918 348.898 271.487 365.339 268.187 381.827C264.368 401.102 260.267 421.701 256.402 442.535C255.836 445.559 254.799 446.41 251.97 446.173C250.32 446.032 248.576 446.315 247.445 446.504C244.286 447.071 242.448 449.197 242.448 452.268C242.448 455.102 244.098 457.087 247.162 457.843C248.34 458.126 249.708 458.409 251.027 458.268C256.119 457.843 261.304 457.89 266.301 457.937C269.083 457.937 271.911 457.937 274.74 457.937C275.022 457.937 275.258 457.937 275.541 457.937C276.484 457.937 277.474 457.937 278.464 457.748C282.046 457.087 284.121 454.819 284.026 451.606C284.026 448.535 281.999 446.409 278.605 445.701C276.578 445.323 274.598 445.465 272.665 445.701C272.288 445.701 271.911 445.748 271.534 445.795C269.601 445.937 269.035 445.843 268.894 445.795C268.8 445.654 268.753 445.039 269.13 443.197C269.554 440.976 269.978 438.803 270.403 436.583C271.487 430.913 272.665 425.055 273.655 419.291C273.985 417.307 274.834 416.598 276.861 416.598H290.72V416.504C292.04 416.504 293.36 416.504 294.633 416.504C297.65 416.504 300.762 416.598 303.873 416.409C305.947 416.268 306.654 416.882 307.078 419.244C308.87 428.74 311.038 436.913 313.725 444.284C314.197 445.512 314.15 446.032 314.008 446.268C313.914 446.457 313.584 446.74 312.358 446.976C308.587 447.685 306.607 450.189 306.984 453.685C307.314 456.803 309.766 458.646 313.443 458.646C313.773 458.646 314.103 458.646 314.48 458.646C322.022 458.032 329.753 456.614 338.05 454.394C341.444 453.543 343.189 451.181 342.906 448.016C342.623 444.992 340.502 443.055 337.06 442.583L337.107 442.535ZM304.203 403.512C304.203 403.512 303.449 403.843 302.647 403.795C295.67 403.512 288.599 403.89 281.811 404.268L278.747 404.409C277.379 404.504 277.097 404.221 277.049 404.173C277.002 404.079 276.767 403.748 277.049 402.236C280.915 382.252 285.723 361.228 292.04 336.142C295.057 345.024 296.755 354 298.027 361.748C299.159 368.787 300.29 376.016 301.374 382.961C302.317 389.102 303.307 395.433 304.297 401.669C304.486 402.945 304.297 403.37 304.203 403.512Z" fill="#DD1E48"/>
<path d="M678.269 322.677V322.205C678.081 313.843 673.649 308.929 665.447 307.984C661.44 307.512 657.291 307.039 653.143 307.181C650.22 307.276 647.344 307.37 644.422 307.512C636.643 307.843 629.336 308.126 622.124 307.843L616.703 307.654L617.41 307.984C615.335 307.984 613.261 307.984 611.234 307.984C605.766 307.937 600.627 307.843 595.348 308.598C588.512 309.591 584.458 313.465 583.939 319.559C583.515 324.283 583.279 329.48 583.185 335.386C583.091 340.063 585.731 343.276 589.738 343.417C589.785 343.417 589.832 343.417 589.926 343.417C593.745 343.417 596.385 340.441 596.762 335.764L596.856 334.535C597.092 331.276 597.375 327.874 597.422 324.52C597.422 322.772 597.846 322.346 599.59 322.346C602.654 322.346 605.766 322.488 608.736 322.677C610.621 322.772 612.554 322.913 614.487 322.961H614.723C618.305 323.055 620.427 323.15 621.181 323.906C621.935 324.661 621.982 326.835 622.077 330.472V330.756C622.171 334.11 622.265 337.417 622.36 340.772C622.642 352.205 622.925 364.016 623.821 375.638C625.047 391.512 624.717 407.669 624.434 423.307C624.292 429.78 624.198 436.488 624.151 443.102C624.151 444.378 623.868 444.709 622.595 444.709H621.935C620.002 444.709 617.975 444.709 615.995 445.417C612.79 446.646 611.093 449.008 611.234 452.079C611.376 455.339 613.356 457.559 616.703 458.173C617.787 458.362 618.871 458.409 619.955 458.457C621.087 458.504 622.171 458.504 623.302 458.504C627.026 458.504 630.751 458.268 634.381 458.031C637.775 457.795 641.263 457.606 644.704 457.559C646.024 457.559 647.391 457.228 648.9 456.472C651.776 455.102 653.19 452.693 652.954 449.717C652.718 446.598 650.833 444.378 647.58 443.528C645.412 442.961 643.007 442.913 640.509 443.386C639.283 443.622 638.953 443.386 638.906 443.386C638.812 443.339 638.576 443.008 638.67 441.732C638.953 436.535 639.142 432.142 639.236 427.701C639.519 406.535 639.66 385.843 638.058 365.244C637.492 358.252 637.115 351.165 636.738 344.268C636.408 337.984 636.03 331.465 635.559 325.039C635.465 323.858 635.559 323.055 635.842 322.772C636.125 322.488 636.785 322.346 637.869 322.346C640.886 322.346 643.95 322.346 646.873 322.299C650.173 322.299 653.614 322.205 656.961 322.252C657.621 322.252 658.234 322.252 658.847 322.252C661.11 322.252 662.712 322.252 663.325 322.913C663.985 323.622 664.08 325.606 663.702 329.008C663.467 331.087 664.127 333.213 665.494 334.819C666.814 336.378 668.605 337.323 670.491 337.417C674.498 337.654 677.656 334.772 678.175 330.331C678.458 327.732 678.41 325.134 678.363 322.583L678.269 322.677Z" fill="#DD1E48"/>
<path d="M558.955 333.591C561.783 335.008 564.706 334.299 566.686 331.701C569.797 327.638 570.551 322.535 569.09 316.205C567.911 311.102 563.527 309.638 559.52 308.693C552.685 307.087 545.802 307.134 538.118 307.323H529.821C518.507 307.37 513.699 312.142 513.746 323.197C513.84 340.63 513.746 363.543 512.238 386.362C512.049 389.055 511.86 391.701 511.719 394.394C511.248 401.48 510.729 408.803 510.446 416.031C510.116 425.669 509.786 435.921 510.116 446.126C510.352 452.787 513.935 456.331 521.1 456.992C523.127 457.181 525.296 457.323 528.171 457.417C530.67 457.512 533.121 457.606 535.62 457.748C541.701 458.031 547.971 458.315 554.193 458.315H554.288C561.689 458.315 566.167 454.488 567.251 447.213C568.006 442.016 567.251 436.866 566.544 431.905L566.356 430.677C565.743 426.614 561.736 423.968 558.53 424.394C555.042 424.819 552.355 428.173 552.308 432.142C552.261 435.26 552.449 438.283 552.685 441.071C552.826 442.866 552.685 443.386 552.59 443.528C552.449 443.669 551.931 443.764 550.139 443.669L546.462 443.433C540.334 443.055 533.97 442.677 527.7 442.583C525.154 442.535 524.636 441.968 524.636 439.417C524.636 423.78 525.626 408.142 526.71 392.173C526.851 390.047 527.417 389.716 529.491 389.716C534.158 389.716 538.825 389.433 543.209 389.15C547.028 388.913 549.998 386.268 550.139 382.961C550.281 379.512 548.348 377.008 544.718 375.921C543.351 375.496 541.748 375.307 539.862 375.354C538.495 375.354 537.128 375.496 535.761 375.638C534.441 375.732 533.121 375.874 531.801 375.921C529.916 375.968 528.124 376.063 527.794 375.685C527.417 375.307 527.558 373.276 527.7 371.528C528.501 359.339 529.256 346.346 528.407 333.591C528.266 331.181 528.313 328.677 528.407 326.268C528.407 325.559 528.407 324.85 528.407 324.142C528.407 322.063 529.02 322.016 529.633 322.016C532.273 322.016 534.913 321.78 537.458 321.591C542.219 321.26 547.122 320.882 551.883 321.496C553.769 321.732 555.372 321.968 555.702 322.346C556.032 322.772 555.796 324.425 555.56 326.551C555.183 329.811 556.409 332.268 559.096 333.638L558.955 333.591Z" fill="#DD1E48"/>
<path d="M401.55 423.827C397.354 424.583 394.95 428.173 395.421 432.992C395.468 433.559 395.516 434.173 395.563 434.74C395.704 436.299 395.846 437.858 396.223 439.417C396.6 440.882 396.411 441.402 396.223 441.591C395.94 441.969 395.044 442.11 393.536 442.063C385.993 441.827 378.592 442.205 371.521 443.244C370.248 443.433 369.918 443.197 369.871 443.15C369.871 443.102 369.588 442.819 369.824 441.591C369.965 440.693 370.059 439.843 370.106 438.992C370.106 438.567 370.154 438.094 370.201 437.669C371.521 424.913 372.039 415.134 371.804 406.063C371.709 401.811 371.568 397.512 371.426 393.26C371.002 379.512 370.578 365.291 370.578 351.307H370.625V329.858C370.625 327.26 371.285 325.276 372.511 324.047C373.736 322.819 375.669 322.205 378.215 322.205C378.262 322.205 378.356 322.205 378.403 322.205C382.175 322.205 385.522 319.701 386.229 316.299C386.983 312.661 384.862 309.307 380.949 308.031C379.629 307.606 378.026 307.417 376.14 307.417C371.521 307.417 366.806 307.417 362.234 307.417C359.311 307.417 356.388 307.417 353.466 307.417C351.627 307.417 349.789 307.417 347.903 307.512C344.132 307.748 341.727 309.969 341.209 313.701C340.737 317.055 342.859 319.937 346.677 321.024C349.081 321.732 351.25 321.969 353.324 321.732C354.738 321.591 355.634 321.732 356.011 322.063C356.435 322.441 356.577 323.386 356.483 324.85C355.87 333.732 355.775 342.614 355.728 350.079C355.634 363.307 355.775 376.772 356.2 390C356.718 406.205 356.86 425.291 354.408 443.953C353.796 448.772 354.55 452.457 356.765 454.866C358.887 457.228 362.281 458.409 366.901 458.409C367.137 458.409 367.419 458.409 367.702 458.409C374.585 458.22 381.562 457.843 388.303 457.512C391.744 457.323 395.186 457.181 398.627 456.992C406.547 456.661 411.308 451.937 411.638 444C411.826 439.276 411.025 434.551 410.129 430.158C409.187 425.717 405.51 422.976 401.55 423.685V423.827Z" fill="#DD1E48"/>
<path d="M476.929 423.638C472.733 424.394 470.329 427.984 470.8 432.803C470.847 433.37 470.894 433.984 470.989 434.598C471.13 436.11 471.272 437.717 471.649 439.228C472.026 440.693 471.837 441.213 471.649 441.402C471.366 441.78 470.47 441.921 468.962 441.874C461.419 441.638 454.018 442.016 446.947 443.055C445.674 443.244 445.344 443.008 445.297 442.961C445.297 442.913 445.014 442.63 445.25 441.402C445.391 440.504 445.485 439.654 445.532 438.803C445.532 438.378 445.58 437.906 445.627 437.48C446.947 424.724 447.465 414.945 447.23 405.874C447.135 401.622 446.994 397.323 446.852 393.071C446.428 379.323 446.004 365.102 446.004 351.118H446.051V329.669C446.051 327.071 446.711 325.087 447.937 323.858C449.162 322.63 451.095 322.016 453.641 322.016C453.688 322.016 453.782 322.016 453.829 322.016C457.601 322.016 460.948 319.512 461.655 316.11C462.409 312.472 460.288 309.118 456.375 307.843C455.055 307.417 453.452 307.228 451.567 307.228C446.947 307.228 442.233 307.228 437.66 307.228C434.737 307.228 431.814 307.228 428.892 307.228C427.053 307.228 425.167 307.228 423.329 307.323C419.558 307.559 417.153 309.78 416.635 313.512C416.163 316.866 418.285 319.748 422.103 320.835C424.507 321.543 426.676 321.78 428.75 321.543C430.164 321.402 431.06 321.543 431.437 321.874C431.861 322.252 432.003 323.197 431.909 324.661C431.296 333.543 431.201 342.425 431.154 349.89C431.06 363.118 431.201 376.583 431.626 389.811C432.144 406.016 432.333 425.102 429.834 443.764C429.222 448.583 429.976 452.268 432.191 454.677C434.313 457.039 437.707 458.22 442.327 458.22C442.563 458.22 442.845 458.22 443.128 458.22C450.011 458.031 456.988 457.654 463.729 457.323C467.17 457.134 470.564 456.992 474.006 456.85C481.926 456.52 486.687 451.795 487.017 443.858C487.205 439.134 486.404 434.409 485.508 430.016C484.565 425.575 480.888 422.787 476.929 423.543V423.638Z" fill="#DD1E48"/>
<path d="M374.773 234.189C374.396 234.567 372.982 234.614 371.191 234.614C370.531 234.614 369.871 234.614 369.163 234.614C367.278 234.614 365.298 234.614 363.318 234.803C359.405 235.228 357.048 237.496 356.812 241.039C356.53 244.535 358.51 247.039 362.422 248.079C363.507 248.362 364.732 248.504 366.146 248.504C366.429 248.504 366.665 248.504 366.948 248.504C381.043 247.984 394.808 247.417 408.432 245.811C419.322 244.535 429.222 238.677 435.633 229.701C441.997 220.772 444.354 209.528 442.044 198.85C439.215 185.622 430.966 175.276 417.53 168L416.965 167.669C416.258 167.291 415.551 166.913 415.079 166.63C415.503 166.299 416.211 165.78 416.918 165.26L417.248 165.024C425.545 159.165 429.976 152.315 430.824 144C432.38 128.976 422.197 104.74 399.664 100.205C390.66 98.3622 381.467 97.5118 372.463 97.7008C371.615 97.7008 370.766 97.7008 369.965 97.7008C367.985 97.7008 365.958 97.6536 363.931 97.7953C359.5 98.126 356.812 100.63 357.001 104.409C357.142 107.906 359.83 110.079 364.214 110.22C366.995 110.315 369.918 110.409 372.793 110.22C373.878 110.126 374.585 110.22 374.915 110.598C375.292 110.976 375.48 111.78 375.433 113.102C375.339 119.386 375.433 125.717 375.528 131.906C375.622 139.087 375.763 146.551 375.528 153.874C375.198 165.024 375.292 176.315 375.433 187.276C375.48 192.756 375.528 198.378 375.528 203.953C375.528 211.984 375.48 221.339 375.245 230.551C375.245 232.157 375.15 233.764 374.726 234.142L374.773 234.189ZM388.727 232.016C388.774 230.74 388.727 229.417 388.727 228.142C388.727 227.528 388.727 226.913 388.727 226.299C389.67 214.205 389.529 201.874 389.387 189.969C389.387 186.709 389.293 183.496 389.293 180.236C389.293 177.685 389.906 177.024 392.357 177.024H393.017C401.55 176.976 409.611 176.929 416.446 182.362C430.541 193.559 433.276 209.008 423.8 223.654C419.746 229.89 413.099 231.543 407.159 232.346C403.812 232.819 400.418 233.055 397.071 233.291C394.997 233.433 392.876 233.622 390.754 233.811C389.859 233.906 389.246 233.811 389.01 233.575C388.774 233.339 388.68 232.819 388.727 232.016ZM390.66 163.181C389.529 163.465 389.199 163.276 389.199 163.276C389.104 163.228 388.869 162.945 388.869 161.528C388.869 157.559 388.869 153.591 388.869 149.055C388.869 146.551 388.869 143.858 388.869 140.882C389.104 136.583 388.869 131.528 388.586 126.236C388.397 122.409 388.161 118.394 388.161 114.425C388.161 112.441 388.35 111.969 388.444 111.874C388.586 111.78 389.151 111.685 391.037 111.969C406.452 114.283 413.853 121.417 417.389 137.528C418.568 142.819 417.248 147.213 413.382 150.945C407.489 156.709 400.041 160.724 390.66 163.228V163.181Z" fill="#DD1E48"/>
<path d="M522.891 229.559C524.353 225.732 522.75 221.669 519.12 219.921C515.773 218.315 512.002 219.685 509.786 223.323C509.268 224.173 508.749 225.071 508.278 225.921C507.571 227.244 506.863 228.472 506.062 229.606C502.291 234.85 497.624 236.268 491.354 234.094C483.34 231.307 478.532 225.496 476.269 215.764C474.902 210.094 474.855 204.142 474.76 198.425C474.713 194.598 474.666 190.63 474.195 186.756V186.661C474.666 182.268 474.713 177.921 474.76 173.669C474.76 171.449 474.807 169.181 474.902 166.961C475.326 156.614 475.75 145.89 478.484 135.591C480.511 127.89 483.623 119.197 491.307 113.48C496.398 109.654 500.358 109.795 505.402 113.953C507.382 115.606 509.173 117.402 511.153 119.48C514.17 122.551 518.13 122.693 521.053 119.906C523.127 117.874 524.777 114.52 520.864 110.079L520.534 109.701C519.167 108.142 517.753 106.535 516.197 105.071C512.238 101.339 507.335 97.4646 500.924 96.7087C488.667 95.2441 480.511 102.85 475.42 108.709C469.999 114.992 466.275 122.787 463.729 133.37C461.231 143.906 460.571 154.252 460.005 166.677C459.298 181.465 458.544 198.236 461.042 214.724C463.541 231.118 471.555 241.937 485.508 247.89C488.997 249.354 492.58 250.11 496.068 250.11C499.557 250.11 502.668 249.449 505.826 248.079C513.322 244.866 519.686 237.921 522.844 229.559H522.891Z" fill="#DD1E48"/>
<path d="M289.118 111.26C292.559 112.063 296.048 111.921 299.395 111.78H299.63C300.809 111.732 301.563 111.874 301.94 112.252C302.317 112.63 302.506 113.48 302.506 114.898C302.364 153.449 302.364 192.709 302.364 230.598C302.364 230.882 302.364 231.118 302.364 231.402C302.364 231.969 302.364 232.583 302.364 233.15C302.364 233.622 302.365 234.236 302.082 234.52C301.799 234.803 301.139 234.898 300.667 234.898C297.132 234.992 293.596 235.228 290.061 235.512C286.242 235.843 283.838 238.063 283.508 241.701C283.178 245.15 285.771 248.126 289.636 248.787C290.438 248.929 291.239 248.929 291.993 248.929C299.536 248.929 307.126 248.929 314.716 248.929H326.171C328.198 248.929 330.272 248.551 332.771 247.795C336.448 246.661 338.993 243.024 338.38 239.811C337.626 235.654 333.902 233.102 329.612 233.811C327.821 234.095 325.982 234.142 324.097 234.142C322.73 234.142 321.268 234.142 319.854 234.331C318.723 234.425 317.968 234.331 317.591 234C317.167 233.622 316.978 232.724 317.025 231.26C317.12 220.063 317.12 208.677 317.073 197.669C317.073 193.465 317.073 189.26 317.073 185.102H316.931C316.931 180.614 316.931 176.126 316.931 171.685C316.978 161.528 317.025 151.039 316.79 140.74L316.648 134.173C316.507 127.701 316.365 121.039 316.271 114.472C316.271 113.339 316.413 112.583 316.743 112.299C317.12 111.969 317.921 111.969 318.534 112.016C322.07 112.346 325.181 112.488 328.151 112.488C332.912 112.488 336.401 109.606 336.589 105.496C336.683 103.512 336.023 101.717 334.751 100.346C333.242 98.7874 330.979 97.8898 328.387 97.8898C317.214 97.7953 305.146 97.7953 290.296 97.8898C286.054 97.8898 283.272 100.205 282.848 103.984C282.424 107.528 284.781 110.268 289.071 111.354L289.118 111.26Z" fill="#DD1E48"/>
<path d="M263.991 596.457H263.614C258.664 595.417 253.667 594.472 248.718 593.528C248.529 593.528 248.293 593.433 248.105 593.386C247.02 593.15 245.748 592.866 244.711 593.528C244.098 593.953 243.721 594.614 243.579 595.606C243.155 598.252 245.842 598.819 247.115 599.055H247.445C251.027 599.858 254.61 600.52 258.382 601.228C259.796 601.465 261.21 601.748 262.671 602.032H262.813C262.813 602.032 263.237 602.079 263.567 602.173C263.991 602.268 264.463 602.362 264.981 602.362C265.5 602.362 266.066 602.268 266.584 601.89C267.197 601.465 267.527 600.756 267.668 599.764C267.951 597.213 265.453 596.74 264.086 596.504L263.991 596.457Z" fill="#DD1E48"/>
<path d="M183.191 556.677C181.4 556.677 180.41 557.386 179.938 559.134L179.561 560.598C178.948 562.819 178.383 565.087 177.77 567.307C176.544 571.748 175.366 576.142 174.14 580.583L172.066 588.047C171.076 591.591 170.133 595.087 169.143 598.63V598.724C169.143 598.724 169.096 598.724 169.049 598.724C167.399 598.535 166.079 599.433 165.89 600.85C165.702 602.268 166.739 603.732 168.2 604.063C170.274 604.583 172.113 604.961 173.857 605.291C175.507 605.622 177.016 604.724 177.346 603.26C177.676 601.748 176.78 600.472 175.083 599.953C174.989 599.953 174.894 599.906 174.847 599.858C174.847 599.858 174.847 599.764 174.894 599.669C175.46 597.827 175.979 595.89 176.45 594.047C176.78 592.724 177.157 591.354 177.534 590.032L178.053 588.236C178.241 587.669 178.383 587.102 178.571 586.535C178.807 585.78 178.996 585.024 179.137 584.929C179.326 584.882 180.08 584.976 180.834 585.118C181.211 585.165 181.258 585.213 181.306 585.638C181.494 587.244 181.73 588.803 181.918 590.409C182.013 591.26 182.154 592.11 182.248 592.913C182.625 595.701 183.05 599.339 183.285 602.976C182.013 602.882 180.976 603.591 180.598 604.866C180.174 606.236 180.881 607.606 182.295 608.173C184.134 608.929 186.067 609.354 187.952 609.732C188.424 609.827 188.848 609.921 189.32 610.016C189.508 610.016 189.65 610.063 189.838 610.063C190.922 610.063 191.818 609.307 192.195 608.079C192.525 606.898 192.101 605.811 191.064 605.102C190.451 604.677 189.838 604.535 189.225 604.346C189.225 604.346 189.178 604.346 189.131 604.346C189.131 604.346 189.131 604.252 189.131 604.205C188.99 599.386 188.188 594.614 187.434 590.032C187.245 588.945 187.057 587.858 186.915 586.772C186.821 586.252 186.727 585.591 186.727 585.496C186.821 585.402 187.245 585.213 187.67 585.024L188 584.882C193.279 582.52 196.391 578.079 197.098 572.079C197.522 568.583 196.249 564.85 193.657 561.827C190.875 558.661 187.151 556.772 183.333 556.677H183.191ZM190.828 573.449C190.31 575.528 189.084 577.37 187.292 578.787C185.973 579.827 184.558 580.11 183.003 579.732C182.201 579.543 181.353 579.354 180.551 579.165C182.06 573.354 183.427 568.063 184.7 562.913C184.7 562.772 184.747 562.677 184.794 562.63C184.841 562.63 184.935 562.677 184.983 562.724C185.265 562.866 185.548 563.008 185.831 563.102C186.491 563.433 187.104 563.717 187.67 564.095C191.299 566.551 192.195 569.102 190.875 573.449H190.828Z" fill="#DD1E48"/>
<path d="M154.105 548.362L153.728 548.268C153.492 548.173 153.209 548.126 152.974 548.032C151.182 547.559 149.721 547.654 148.589 548.409C147.458 549.118 146.704 550.394 146.374 552.236C146.232 552.992 146.044 553.748 145.808 554.551L139.444 576.898C139.35 577.228 139.255 577.606 139.208 577.937L138.36 581.433C137.7 584.079 137.087 586.724 136.427 589.417C136.427 589.559 136.38 589.654 136.38 589.654C136.38 589.654 136.238 589.654 136.097 589.654C135.484 589.512 134.777 589.465 133.976 589.512C132.703 589.512 131.76 590.315 131.477 591.591C131.336 592.252 131.336 593.575 132.891 594.425C133.41 594.709 133.928 594.803 134.4 594.898L135.531 595.087C137.511 595.465 139.35 595.795 141.047 596.598C141.424 596.787 141.895 596.929 142.32 596.976C142.461 596.976 142.602 596.976 142.697 596.976C143.875 596.976 144.818 596.362 145.29 595.228C145.761 593.953 145.384 592.772 144.205 591.969C143.498 591.496 142.697 591.118 141.754 590.882C142.744 587.15 144.017 582.283 145.29 577.37C145.29 577.276 145.29 577.228 145.337 577.181C145.337 577.181 145.478 577.181 145.62 577.181C148.778 577.701 151.842 577.276 154.435 576.756C157.169 576.236 159.338 574.819 160.893 572.504C162.732 569.811 163.863 566.693 164.335 562.961C164.665 560.598 164.429 558.614 163.722 556.819C162.072 552.756 158.913 549.969 154.105 548.315V548.362ZM158.489 563.197C158.442 563.575 158.301 564 158.159 564.425C158.112 564.614 158.018 564.85 157.971 565.039C157.688 566.268 157.263 567.354 156.745 568.346C155.943 569.953 154.859 570.803 153.351 571.134C150.852 571.606 148.825 571.748 146.987 571.512C146.987 571.465 146.987 571.37 147.081 571.276L151.889 554.268C151.889 554.268 151.984 553.937 152.031 553.795C152.172 553.795 152.361 553.89 152.549 553.937C154.435 554.409 156.132 555.591 157.641 557.433C158.913 558.992 158.913 560.882 158.489 563.244V563.197Z" fill="#DD1E48"/>
<path d="M232.454 567.638C230.285 566.598 227.975 566.079 225.43 565.606L222.695 564.992C220.621 564.52 219.113 564.661 217.934 565.417C216.803 566.126 216.048 567.449 215.624 569.386C214.399 575.055 212.749 582.472 210.627 589.843C210.392 590.693 210.156 591.543 209.873 592.394C209.213 594.661 208.506 597.071 207.893 599.386C207.092 602.504 206.243 605.858 205.63 609.213C205.159 611.669 206.243 613.323 208.836 614.173C209.59 614.409 210.392 614.646 211.146 614.835C211.9 615.024 212.701 615.26 213.456 615.449C215.483 615.969 217.557 616.535 219.631 617.008C220.103 617.102 220.574 617.15 221.045 617.15C223.025 617.15 224.534 616.063 225.335 613.984C225.995 612.283 226.137 610.488 226.231 608.787V608.409C226.372 606.85 225.147 605.339 223.638 605.197C222.177 605.055 220.81 606.142 220.48 607.701C220.244 608.74 220.055 609.779 219.961 610.677C219.961 610.819 219.961 610.913 219.961 610.961C219.867 610.961 219.773 610.961 219.678 610.866L218.264 610.441C216.331 609.921 214.351 609.354 212.371 608.882C212.089 608.787 211.947 608.74 211.947 608.74C211.947 608.74 211.947 608.551 211.994 608.268C213.126 603.165 214.54 598.157 216.048 593.055C216.096 592.913 216.143 592.819 216.143 592.772C216.143 592.772 216.284 592.772 216.52 592.819C217.981 593.15 219.49 593.386 221.093 593.622C222.648 593.858 224.063 593.055 224.44 591.685C224.77 590.315 224.204 589.134 222.884 588.378C222.413 588.094 221.847 587.906 221.187 587.764C220.715 587.669 220.244 587.622 219.773 587.528C219.348 587.48 218.924 587.433 218.5 587.339C218.217 587.291 217.887 587.197 217.651 587.15C217.698 586.913 217.793 586.535 217.887 586.252C219.066 582.142 220.197 578.126 220.857 573.874C220.951 573.118 221.14 572.409 221.328 571.606L221.517 570.85C221.517 570.85 221.517 570.709 221.517 570.661C222.365 570.85 223.214 570.945 224.015 571.087C225.618 571.323 227.174 571.559 228.635 572.079C228.918 572.173 229.248 572.315 229.437 572.409C229.389 572.646 229.248 572.976 229.154 573.307C228.729 574.535 229.012 575.669 229.955 576.472C230.992 577.323 232.312 577.276 233.302 576.425C234.716 575.197 235.424 573.496 235.376 571.134C235.376 568.913 233.491 568.016 232.454 567.496V567.638Z" fill="#DD1E48"/>
<path d="M336.636 627.071C335.976 626.787 335.363 626.693 334.703 626.646C334.703 626.646 334.656 626.646 334.609 626.646C334.609 626.646 334.609 626.551 334.609 626.504C333.666 621.78 332.111 617.197 330.602 612.803C330.272 611.764 329.895 610.724 329.565 609.685C329.376 609.165 329.188 608.551 329.188 608.457C329.282 608.362 329.659 608.079 330.036 607.843L330.319 607.654C335.128 604.441 337.485 599.528 337.202 593.48C337.013 589.937 335.175 586.488 332.111 583.984C328.858 581.291 324.851 580.063 321.079 580.63C319.288 580.866 318.44 581.764 318.298 583.606L318.204 584.74C317.968 587.15 317.732 589.606 317.497 592.016C317.025 596.598 316.554 601.134 316.083 605.717L315.281 613.465C314.904 617.102 314.527 620.693 314.15 624.331V624.425C314.15 624.425 314.103 624.425 314.055 624.425C312.405 624.52 311.227 625.606 311.274 627.024C311.274 628.441 312.594 629.717 314.055 629.811C316.177 629.953 318.062 630.047 319.854 630.094C321.504 630.094 322.871 629.008 322.965 627.496C323.059 625.937 321.975 624.803 320.184 624.614C320.089 624.614 319.995 624.614 319.948 624.614C319.948 624.614 319.948 624.52 319.948 624.425C320.184 622.488 320.372 620.504 320.561 618.614C320.702 617.244 320.844 615.874 320.985 614.457L321.221 612.614C321.315 612.047 321.362 611.433 321.457 610.866C321.551 610.11 321.645 609.307 321.739 609.165C321.928 609.071 322.635 609.071 323.484 609.071C323.861 609.071 323.908 609.071 324.002 609.496C324.474 611.055 324.945 612.567 325.416 614.079C325.652 614.882 325.935 615.685 326.171 616.488C327.066 619.323 328.056 622.724 328.858 626.268C327.585 626.409 326.689 627.26 326.501 628.583C326.312 630 327.208 631.228 328.716 631.559C330.649 632.031 332.629 632.079 334.515 632.173C334.986 632.173 335.458 632.173 335.929 632.221C335.929 632.221 336.023 632.221 336.07 632.221C337.296 632.221 338.286 631.276 338.427 629.858C338.569 628.63 338.003 627.638 336.825 627.118L336.636 627.071ZM328.669 601.701C327.538 602.929 326.218 603.496 324.615 603.354C323.767 603.307 322.965 603.26 322.117 603.213C322.635 597.118 323.107 591.685 323.531 586.488C323.531 586.346 323.531 586.252 323.531 586.205C323.578 586.205 323.672 586.205 323.767 586.252C324.049 586.346 324.379 586.441 324.662 586.488C325.369 586.677 326.029 586.866 326.642 587.15C330.649 588.992 331.922 591.354 331.356 595.843C331.168 598.016 330.272 600 328.763 601.701H328.669Z" fill="#DD1E48"/>
<path d="M301.846 583.937C299.536 580.205 296 577.984 290.956 577.134H290.579C290.296 577.039 290.06 576.992 289.778 576.992C287.939 576.803 286.525 577.181 285.488 578.079C284.498 578.976 283.979 580.346 283.932 582.236C283.932 582.992 283.838 583.795 283.744 584.598L281.151 607.701C281.151 608.032 281.104 608.409 281.056 608.74C281.056 608.929 281.056 609.118 281.056 609.307L280.821 612.378C280.632 615.118 280.444 617.811 280.255 620.551C280.255 620.693 280.255 620.787 280.255 620.787C280.255 620.787 280.114 620.787 279.925 620.787C279.265 620.787 278.605 620.787 277.804 620.976C276.531 621.213 275.73 622.158 275.682 623.433C275.682 624.142 275.871 625.417 277.568 626.031C278.134 626.22 278.699 626.22 279.171 626.22H280.302C282.282 626.268 284.168 626.315 286.006 626.835C286.336 626.929 286.713 626.976 287.091 626.976C287.185 626.976 287.232 626.976 287.326 626.976C288.693 626.882 289.683 626.079 289.966 624.803C290.249 623.48 289.683 622.394 288.363 621.78C287.609 621.402 286.761 621.213 285.771 621.118C286.289 615.543 286.713 611.244 287.043 607.228C287.043 607.134 287.043 607.087 287.043 607.039C287.091 607.039 287.185 607.039 287.326 607.039C290.532 607.039 293.502 606.095 295.953 605.197C298.593 604.205 300.479 602.457 301.657 599.953C303.024 596.976 303.59 593.717 303.496 589.984C303.401 587.622 302.883 585.638 301.893 584.032L301.846 583.937ZM297.556 592.346C297.556 592.346 297.509 592.772 297.462 593.008C297.367 594.283 297.132 595.417 296.802 596.504C296.283 598.205 295.34 599.244 293.926 599.811C291.569 600.709 289.589 601.134 287.703 601.276C287.703 601.228 287.703 601.181 287.703 601.087L289.683 583.417C289.683 583.417 289.683 583.087 289.73 582.898C289.872 582.898 290.06 582.898 290.249 582.898C292.182 583.087 294.02 583.937 295.859 585.496C297.415 586.819 297.697 588.709 297.65 591.071C297.65 591.449 297.603 591.874 297.509 592.299L297.556 592.346Z" fill="#DD1E48"/>
<path d="M372.699 588.189C371.851 585.449 370.436 583.701 368.268 582.85C366.005 581.953 363.884 581.622 361.81 581.906C357.567 582.472 354.456 584.74 352.853 588.425C351.674 591.165 351.391 594.189 351.344 596.457C351.014 605.386 350.92 612.661 351.109 619.323C351.109 620.835 351.297 622.299 351.439 624.095C351.863 628.158 354.361 631.37 358.368 632.882C359.783 633.402 361.244 633.685 362.658 633.685C365.157 633.685 367.514 632.882 369.117 631.37C370.955 629.622 372.181 627.591 372.841 625.181C374.349 619.512 374.538 613.606 374.632 607.984C374.726 605.811 374.773 602.457 374.585 599.008C374.302 594.898 373.689 591.354 372.746 588.142L372.699 588.189ZM368.787 613.087C368.598 617.291 368.174 620.504 367.419 623.48C367.137 624.52 366.759 625.417 366.241 626.173C365.11 627.827 363.507 628.252 360.773 627.638C358.745 627.213 357.425 625.795 357.143 623.764C356.954 622.252 356.86 620.646 356.766 618.709C356.718 616.488 356.671 614.079 356.671 611.433C356.671 609.732 356.718 608.032 356.766 606.331V604.157C356.86 602.976 356.86 601.795 356.907 600.661C356.907 597.78 356.954 594.85 357.52 592.016C357.897 590.126 358.698 588.898 359.971 588.189C361.621 587.291 363.554 587.244 366.147 588.095C366.665 588.284 366.995 588.803 367.325 589.984C368.127 593.008 368.645 596.173 368.834 599.433C369.117 604.157 368.928 608.976 368.739 613.087H368.787Z" fill="#DD1E48"/>
<path d="M404.85 583.134C403.152 582.898 401.455 582.898 399.853 582.898C399.381 582.898 398.863 582.898 398.391 582.898C397.92 582.898 397.448 582.898 396.977 582.898C395.94 582.898 394.856 582.898 393.771 582.898C389.859 583.039 387.737 584.929 387.077 588.803C386.936 589.606 386.889 590.504 386.842 591.543C386.794 594.992 386.936 598.488 387.077 601.89C387.172 604.252 387.266 606.709 387.313 609.118C387.36 613.795 387.36 618.567 387.313 623.197C387.313 625.228 387.313 627.26 387.313 629.339C387.313 629.433 387.313 629.528 387.313 629.622C387.313 629.717 387.313 629.811 387.313 629.858C387.266 629.858 387.172 629.858 386.983 629.858C386.512 629.858 386.087 629.858 385.663 629.906C384.202 630.189 383.683 631.134 383.447 631.89C383.117 632.976 383.4 634.016 384.249 634.866C385.003 635.622 385.946 636 387.03 636C387.172 636 387.36 636 387.502 636H387.784C388.303 635.906 388.774 635.858 389.293 635.811L391.084 635.575C392.781 635.339 394.573 635.102 396.317 634.772C397.26 634.583 398.061 634.11 398.58 633.354C399.004 632.693 399.193 631.937 399.051 631.181C398.721 629.528 397.024 628.441 395.186 628.724C394.714 628.819 394.196 628.866 393.724 628.961C393.724 624.378 393.724 619.795 393.724 615.213C393.724 615.165 393.724 615.118 393.724 615.071C393.724 615.071 393.771 615.071 393.819 615.071C394.243 615.024 394.62 614.976 395.044 614.929C396.223 614.787 397.354 614.598 398.486 614.646C399.664 614.646 400.654 614.409 401.503 613.89C402.493 613.276 402.964 612.331 402.87 611.244C402.775 610.063 402.115 609.165 401.031 608.74C400.324 608.457 399.617 608.409 399.051 608.409C397.213 608.409 395.468 608.693 393.677 608.976C393.677 606.898 393.536 604.819 393.489 602.74C393.347 598.961 393.206 595.087 393.253 591.26C393.253 590.646 393.347 590.079 393.394 589.606C393.394 589.512 393.394 589.465 393.394 589.465C393.394 589.465 393.441 589.465 393.583 589.465L402.775 589.276C403.247 589.276 403.341 589.37 403.341 589.37C403.341 589.37 403.435 589.559 403.388 589.89C403.294 591.071 403.294 592.299 403.388 593.669C403.53 595.276 404.85 596.551 406.358 596.504C407.961 596.409 409.045 595.465 409.187 593.953C409.187 593.528 409.281 593.102 409.281 592.724C409.422 591.071 409.611 589.37 409.328 587.622C408.904 584.976 407.537 583.654 404.802 583.276L404.85 583.134Z" fill="#DD1E48"/>
<path d="M440.583 624.756C440.347 623.244 438.791 622.063 437.283 622.252C435.821 622.441 434.784 623.811 434.784 625.417C434.784 626.457 434.878 627.496 434.973 628.441C434.973 628.583 434.973 628.677 434.973 628.724C434.878 628.724 434.784 628.724 434.643 628.724H433.181C431.249 628.583 429.222 628.535 427.242 628.535C427.194 628.535 427.1 628.535 427.053 628.535C426.77 628.535 426.629 628.535 426.629 628.535C426.629 628.535 426.582 628.394 426.582 628.063C426.487 622.866 426.676 617.669 426.959 612.331C426.959 612.142 426.959 612.095 426.959 612.047C426.959 612.047 427.1 612.047 427.336 612.047C428.844 612.047 430.353 611.906 431.956 611.764C433.511 611.622 434.737 610.488 434.737 609.118C434.737 607.701 433.936 606.709 432.474 606.284C431.956 606.142 431.343 606.095 430.683 606.095C430.212 606.095 429.74 606.189 429.222 606.236C428.797 606.236 428.373 606.331 427.949 606.331C427.666 606.331 427.289 606.331 427.053 606.331C427.053 606.095 427.053 605.717 427.053 605.433C427.242 601.181 427.383 596.976 427.053 592.724C427.006 591.969 427.006 591.213 427.006 590.41V589.606C427.006 589.606 427.006 589.465 427.006 589.417C427.854 589.417 428.703 589.323 429.552 589.228C431.201 589.087 432.71 588.945 434.266 589.087C434.549 589.087 434.926 589.134 435.114 589.181C435.114 589.417 435.114 589.795 435.02 590.126C434.878 591.402 435.444 592.488 436.576 593.008C437.754 593.575 439.027 593.244 439.828 592.158C440.96 590.646 441.195 588.803 440.63 586.535C440.064 584.362 438.037 583.937 436.953 583.701C434.596 583.181 432.239 583.276 429.646 583.37H428.892C428.232 583.37 427.572 583.37 426.864 583.417C424.743 583.465 423.329 583.984 422.339 584.976C421.396 585.969 420.972 587.386 421.019 589.37C421.16 595.134 421.302 602.74 420.972 610.394C420.972 611.244 420.878 612.142 420.83 612.992C420.689 615.402 420.595 617.858 420.548 620.315C420.5 623.528 420.453 626.976 420.642 630.378C420.783 632.882 422.197 634.252 424.885 634.441C425.686 634.488 426.487 634.535 427.289 634.535C428.09 634.535 428.892 634.536 429.693 634.583C431.296 634.583 432.946 634.677 434.596 634.677C435.067 634.677 435.586 634.677 436.057 634.677C438.838 634.677 440.535 633.118 440.865 630.425C441.101 628.63 440.818 626.835 440.535 625.134V624.756H440.583Z" fill="#DD1E48"/>
<path d="M470.706 604.252C470.14 603.874 469.575 603.496 469.009 603.071C466.605 601.465 464.295 599.906 462.362 597.874C460.005 595.417 459.722 593.102 461.466 590.22C462.126 589.087 462.975 588.094 463.918 587.197C464.578 586.583 464.955 586.63 465.049 586.677C468.019 587.197 469.15 588.283 468.962 590.551C468.915 591.354 468.82 592.205 468.867 593.055C468.962 594.661 470.235 595.89 471.743 595.89C471.743 595.89 471.743 595.89 471.79 595.89C473.299 595.89 474.43 594.614 474.477 593.008C474.477 592.63 474.477 592.299 474.524 591.921C474.572 590.882 474.666 589.795 474.524 588.709C474.289 586.394 473.157 584.504 471.272 583.087C469.905 582.094 468.443 581.48 467.17 581.055C465.049 580.346 462.975 580.583 461.042 581.811C459.298 582.898 458.072 584.504 457.082 585.827C453.075 591.118 453.358 597.118 457.836 601.937C460.146 604.441 462.975 606.331 465.662 608.126C466.18 608.457 466.699 608.835 467.217 609.165C469.905 611.008 472.592 613.039 473.77 616.441C474.807 619.512 474.242 621.874 471.884 623.905C469.48 625.984 466.605 626.882 463.069 626.693C461.136 626.551 460.335 625.654 460.335 623.669C460.335 623.433 460.335 623.197 460.335 622.961C460.335 622.252 460.335 621.543 460.288 620.787C460.099 619.323 459.109 618.378 457.695 618.283C456.234 618.189 455.196 618.898 454.725 620.22C453.546 623.575 454.112 629.528 458.968 631.748C460.665 632.551 462.409 632.74 464.059 632.74C464.766 632.74 465.473 632.74 466.18 632.646C468.49 632.409 470.753 631.701 472.874 630.52C479.851 626.693 482.208 619.748 478.908 612.85C476.929 608.74 473.676 606.142 470.706 604.11V604.252Z" fill="#DD1E48"/>
<path d="M505.732 600.331C505.119 599.953 504.553 599.622 503.94 599.244C501.442 597.732 499.085 596.362 497.058 594.425C494.607 592.11 494.182 589.795 495.785 586.819C496.398 585.685 497.152 584.598 498.095 583.654C498.708 582.992 499.085 583.039 499.226 583.087C502.196 583.417 503.422 584.504 503.328 586.724C503.328 587.528 503.28 588.378 503.375 589.228C503.563 590.835 504.93 592.016 506.486 591.921C507.995 591.827 509.079 590.551 509.032 588.898C509.032 588.52 509.032 588.189 509.032 587.811C509.032 586.772 509.032 585.685 508.89 584.598C508.513 582.283 507.335 580.441 505.355 579.118C503.94 578.173 502.432 577.701 501.159 577.323C499.038 576.709 496.964 577.087 495.078 578.409C493.381 579.591 492.249 581.291 491.307 582.614C487.582 588.094 488.148 594.094 492.862 598.677C495.314 601.039 498.189 602.787 501.018 604.441C501.536 604.772 502.102 605.055 502.621 605.386C505.402 607.087 508.183 608.976 509.503 612.331C510.729 615.354 510.257 617.764 507.995 619.89C505.685 622.11 502.809 623.15 499.321 623.102C497.388 623.102 496.492 622.205 496.445 620.22C496.445 619.984 496.445 619.748 496.445 619.512C496.445 618.803 496.445 618.094 496.256 617.339C495.974 615.874 494.984 615.024 493.569 614.976C493.569 614.976 493.569 614.976 493.522 614.976C492.108 614.976 491.118 615.732 490.694 617.055C489.704 620.457 490.552 626.362 495.502 628.346C496.964 628.913 498.378 629.102 499.792 629.102C500.782 629.102 501.772 629.008 502.762 628.866C505.072 628.488 507.24 627.685 509.315 626.409C516.056 622.205 518.083 615.165 514.453 608.457C512.284 604.488 508.89 602.031 505.826 600.142L505.732 600.331Z" fill="#DD1E48"/>
<path d="M541.936 617.244C541.371 617.433 540.805 617.528 540.192 617.622C539.721 617.717 539.249 617.764 538.778 617.905C538.589 617.953 538.495 617.953 538.448 617.953C538.448 617.906 538.354 617.764 538.307 617.433C537.788 613.654 537.175 609.921 536.609 606.142L535.997 602.22L535.808 601.323C535.619 600.189 535.478 599.055 535.289 597.921C534.771 594.567 534.252 591.071 533.687 587.622L533.545 586.724C533.074 584.173 532.65 581.575 532.225 579.024C532.225 578.882 532.225 578.787 532.225 578.74C532.225 578.74 532.32 578.74 532.414 578.74C533.734 578.646 534.724 578.551 535.667 578.409C537.505 578.126 538.731 576.756 538.542 575.102C538.448 574.299 538.071 573.638 537.505 573.165C536.798 572.646 535.902 572.409 534.865 572.551C531.094 573.118 526.993 573.732 522.278 574.488C520.629 574.772 519.639 575.858 519.686 577.417C519.733 578.882 520.864 579.874 522.608 580.016C523.834 580.11 524.966 579.874 526.097 579.685H526.238C526.238 579.685 526.568 579.591 526.615 579.591C526.615 579.591 526.71 579.78 526.757 580.11C528.218 589.937 529.727 599.717 531.235 609.543L532.555 618.142V618.425C532.555 618.425 532.65 618.803 532.697 619.039C532.697 619.039 532.697 619.039 532.65 619.039C531.518 619.228 530.34 619.512 529.161 619.795C527.653 620.173 526.851 621.213 526.898 622.677C526.993 624.095 528.171 625.181 529.774 625.181C530.057 625.181 530.34 625.181 530.575 625.087L541.889 623.339C542.596 623.244 543.351 622.961 544.152 622.583C545.566 621.921 546.321 620.315 545.896 619.039C545.331 617.48 543.681 616.677 542.031 617.197L541.936 617.244Z" fill="#DD1E48"/>
<path d="M578.659 602.173C577.575 595.606 576.161 588.472 574.181 579.78C573.663 577.559 572.861 574.63 571.164 572.173C568.901 568.819 565.413 567.213 561.123 567.402C559.049 567.496 557.022 568.205 554.947 569.528C553.015 570.756 551.883 572.74 551.6 575.622C551.223 578.929 551.318 582.52 551.789 586.63C552.213 590.032 552.873 593.291 553.392 595.465C554.523 600.945 555.796 606.709 558.342 612C559.426 614.268 560.981 616.063 563.15 617.386C564.47 618.236 566.12 618.661 567.864 618.661C569.938 618.661 572.107 618.047 574.04 616.866C577.669 614.646 579.555 611.055 579.225 606.945C579.084 605.197 578.942 603.732 578.707 602.22L578.659 602.173ZM570.74 612.189C568.147 613.276 566.497 613.134 565.083 611.764C564.423 611.15 563.904 610.346 563.433 609.354C562.16 606.567 561.123 603.496 560.18 599.386C559.237 595.37 558.153 590.693 557.587 585.969C557.163 582.709 557.069 579.496 557.304 576.425C557.399 575.244 557.634 574.63 558.106 574.394C559.756 573.496 561.17 573.024 562.443 573.024C563.056 573.024 563.621 573.118 564.187 573.307C565.601 573.78 566.591 574.819 567.346 576.614C568.43 579.307 568.996 582.189 569.561 584.976C569.797 586.11 570.033 587.291 570.268 588.425L570.74 590.598C571.07 592.252 571.447 593.906 571.777 595.559C572.295 598.157 572.673 600.472 573.05 602.693C573.332 604.677 573.521 606.236 573.615 607.748C573.757 609.78 572.72 611.433 570.787 612.236L570.74 612.189Z" fill="#DD1E48"/>
<path d="M619.012 586.63L618.258 584.22C617.032 580.346 615.948 576.378 614.864 572.504C614.11 569.717 613.308 566.787 612.46 563.953C612.413 563.764 612.365 563.622 612.271 563.433C612.224 563.244 612.083 562.961 612.083 562.772C612.13 562.772 612.177 562.772 612.271 562.772C612.601 562.772 612.978 562.677 613.355 562.441C614.911 561.732 615.665 560.268 615.288 558.803C614.911 557.339 613.497 556.394 611.847 556.535C610.998 556.63 610.244 556.724 609.537 556.866C607.887 557.197 606.708 557.858 606.048 558.945C605.389 560.031 605.247 561.354 605.671 562.961C606.001 564.189 606.331 565.37 606.708 566.551C606.944 567.402 607.227 568.252 607.463 569.102C607.934 570.709 608.358 572.315 608.783 573.921C609.348 575.906 609.867 577.89 610.433 579.874C610.904 581.48 611.423 583.181 612.083 585.213C612.931 587.717 613.733 590.22 614.581 592.677C614.157 592.11 613.685 591.543 613.261 590.929C607.604 583.559 601.759 575.953 596.997 567.827C596.526 566.976 595.819 565.937 594.735 565.181C593.509 564.331 591.859 563.197 589.879 564.047C587.663 564.992 587.711 567.213 587.711 568.677C587.711 571.228 588.182 573.732 588.606 576.142V576.425C588.936 578.079 589.219 579.685 589.549 581.339C589.926 583.512 590.35 585.638 590.68 587.811C590.916 589.276 591.152 590.74 591.34 592.205C592 596.787 592.755 601.559 594.263 606.094C594.263 606.142 594.31 606.236 594.357 606.378C594.216 606.378 594.122 606.331 593.98 606.331C593.886 606.331 593.792 606.331 593.697 606.283C592.095 606.047 590.775 606.85 590.398 608.315C589.973 609.78 590.775 611.339 592.189 611.858C593.509 612.331 595.112 612.898 596.762 613.323C597.139 613.417 597.469 613.465 597.799 613.465C598.553 613.465 599.213 613.276 599.779 612.85C600.627 612.236 601.146 611.197 601.24 609.921C601.287 608.976 601.099 608.126 600.863 607.323L600.58 606.283C599.59 602.362 598.506 598.346 597.893 594.283L597.799 593.575C597.186 589.417 596.526 585.165 595.725 580.961L595.489 579.732C595.253 578.504 595.017 577.228 594.782 575.953C595.489 577.181 596.29 578.457 597.092 579.685C600.769 585.26 604.964 590.646 608.971 595.843C610.715 598.11 612.46 600.331 614.204 602.598C615.147 603.827 616.278 604.961 617.74 606.047C618.871 606.898 620.144 607.134 621.228 606.709C622.312 606.283 623.019 605.197 623.255 603.732C623.397 602.835 623.302 601.89 623.067 600.709C621.982 595.937 620.474 591.213 619.012 586.677V586.63Z" fill="#DD1E48"/>
<path d="M662.618 588.85C661.628 588.945 660.874 589.465 660.355 589.843C660.073 590.079 659.931 590.079 659.931 590.079C659.931 590.079 659.79 590.032 659.46 589.559C656.066 584.551 653.803 578.976 651.587 573.591C648.193 565.276 644.516 558.095 640.462 551.717L640.368 551.575C639.755 550.63 638.765 549.071 636.832 549.591C634.899 550.11 634.899 552 634.899 552.992V553.276C634.899 555.307 634.899 557.291 634.852 559.323C634.805 564.756 634.711 570.331 635.041 575.858C635.371 581.858 635.748 588.992 636.266 596.22C636.313 597.024 636.219 597.071 635.606 597.165C635.041 597.26 634.475 597.496 634.051 597.685C632.825 598.252 632.306 599.339 632.636 600.567C632.919 601.701 633.815 602.362 635.088 602.362C635.465 602.362 636.031 602.362 636.549 602.126C638.152 601.559 639.802 601.134 641.405 600.756C642.3 600.52 643.196 600.284 644.092 600.047H644.327C644.657 599.906 644.987 599.811 645.317 599.622C646.684 599.008 647.25 597.827 646.92 596.551C646.59 595.323 645.553 594.661 644.139 594.709C643.337 594.756 642.677 594.992 642.018 595.228L641.735 595.323C641.735 595.323 641.546 595.37 641.499 595.417C641.499 595.37 641.499 595.276 641.499 595.181L641.358 593.15C641.216 591.165 641.122 589.134 640.98 587.15C640.98 586.724 640.98 586.677 641.358 586.583C642.442 586.299 643.479 586.016 644.563 585.78L646.543 585.26C646.543 585.26 646.873 585.165 647.062 585.118C648.052 584.882 649.089 584.598 650.079 584.315C650.314 584.221 650.409 584.268 650.409 584.268C650.409 584.268 650.503 584.315 650.644 584.693C652.011 587.575 653.379 590.032 654.887 592.205C654.887 592.205 654.934 592.299 654.981 592.346C654.981 592.346 654.934 592.346 654.887 592.346C653.473 593.008 652.907 594.284 653.426 595.654C653.944 596.976 655.311 597.496 656.914 596.929C659.318 596.079 661.675 594.992 664.221 593.575C665.494 592.866 665.965 591.732 665.494 590.457C665.07 589.276 663.985 588.709 662.571 588.85H662.618ZM648.287 579.354C645.977 579.874 643.667 580.583 641.499 581.291L640.65 581.575C640.65 581.575 640.65 581.575 640.65 581.528C640.273 575.339 640.085 568.819 640.038 561.118C641.263 563.197 642.206 565.228 643.007 567.071C643.997 569.339 644.987 571.606 645.93 573.874C646.732 575.669 647.486 577.512 648.287 579.307V579.354Z" fill="#DD1E48"/>
<path d="M693.826 579.118C693.354 577.512 692.6 576.047 691.846 574.724C690.95 573.165 689.159 572.551 687.697 573.354C686.189 574.205 685.67 575.906 686.472 577.606C686.566 577.795 686.613 577.937 686.707 578.126C686.896 578.646 687.132 579.165 687.462 579.638C687.509 579.732 687.556 579.78 687.556 579.827C687.462 579.827 687.367 579.921 687.179 579.969C684.68 580.724 682.323 581.622 680.155 582.709C680.155 582.425 680.06 582.142 679.966 581.906C679.966 581.764 679.872 581.622 679.872 581.48C678.976 577.228 678.08 574.063 677.043 571.134C676.572 569.764 676.053 568.441 675.582 567.071C673.932 562.535 672.235 557.811 670.726 553.134L670.019 550.913C669.595 549.543 669.124 548.221 668.699 546.85C668.416 546 668.134 545.15 668.181 545.008C668.322 544.819 669.218 544.535 670.066 544.299C671.575 543.827 672.518 542.457 672.376 540.992C672.188 539.48 670.962 538.441 669.265 538.441C668.605 538.441 667.992 538.63 667.474 538.772C665.682 539.339 663.891 539.953 662.1 540.52L660.12 541.181C659.554 541.37 658.941 541.559 658.328 541.795C656.914 542.362 656.207 543.591 656.49 545.055C656.725 546.472 657.904 547.323 659.601 547.276C660.497 547.276 661.298 547.087 662.005 546.756C662.241 546.661 662.382 546.614 662.43 546.614C662.43 546.661 662.524 546.803 662.571 547.087C663.278 549.874 664.174 552.661 664.975 555.26C666.342 559.606 667.804 563.858 669.312 568.016C671.151 573.118 673.225 579.165 674.403 585.402C674.733 587.15 675.488 588.378 676.572 589.039C677.138 589.37 677.798 589.512 678.505 589.512C679.212 589.512 680.013 589.37 680.909 589.039C683.172 588.236 685.434 587.339 687.603 586.488C688.64 586.11 689.677 585.685 690.714 585.307C693.496 584.268 694.674 581.953 693.873 579.118H693.826Z" fill="#DD1E48"/>
</g>
<defs>
<clipPath id="clip0_3257_13765">
<rect width="780" height="636" fill="white"/>
</clipPath>
</defs>
</svg>
