<svg width="780" height="631" viewBox="0 0 780 631" fill="none" xmlns="http://www.w3.org/2000/svg">
<path d="M722.879 479.45C727.866 476.965 731.194 475.312 734.262 479.169C737.31 482.978 736.828 486.787 735.12 490.857C730.654 501.423 722.098 507.746 712.625 513.208C703.509 518.467 693.197 521.386 684.689 527.815C683.763 528.531 682.75 528.83 681.969 527.922C680.609 526.346 681.342 524.77 682.5 523.475C685.905 519.569 689.349 515.702 692.773 511.816C697.432 506.537 701.918 501.095 706.75 495.971C709.123 493.457 709.394 491.398 707.734 488.295C703.104 479.73 698.541 471.097 694.461 462.261C691.268 455.301 690.381 447.963 693.603 440.519C695.262 436.681 697.201 433.278 701.744 432.998C706.075 432.718 709.345 435.105 711.39 438.711C716.426 447.605 718.625 457.205 717.41 467.462C717.024 470.71 716.378 473.939 717.892 478.492C723.96 467.394 728.976 457.079 733.355 446.465C739.104 432.592 742.683 418.091 745.953 403.513C747.236 397.77 746.03 394.242 740.107 391.196C728.976 385.454 723.458 375.419 723.68 362.62C723.805 355.737 727.49 353.349 733.915 355.737C738.796 357.564 742.23 360.947 744.39 365.742C745.799 368.894 746.329 372.471 749.3 375.7C751.616 364.418 751.413 353.523 751.442 342.676C751.442 329.751 749.956 316.941 748.644 304.113C748.288 300.536 747.111 298.419 743.406 297.665C727.615 294.388 724.287 280.37 718.866 268.247C718.162 266.642 718.21 264.361 719.898 263.065C721.712 261.664 723.352 263.017 724.992 263.906C730.615 266.874 735.67 270.867 742.953 273.612C741.091 265.869 739.5 259.082 737.841 252.354C736.104 245.297 734.214 238.278 732.574 231.192C731.57 226.822 729.072 224.889 724.644 225.073C718.423 225.324 712.249 224.918 706.384 222.53C702.101 220.78 698.271 218.441 696.304 213.868C694.538 209.731 694.461 206.25 699.149 203.988C700.615 203.273 701.995 202.238 703.181 201.088C707.792 196.641 712.509 196.264 717.545 200.305C718.451 201.04 719.686 201.368 720.815 201.929C722.156 199.029 720.564 196.844 719.58 194.669C714.815 184.073 709.75 173.613 705.197 162.941C703.259 158.397 700.133 156.744 695.648 156.56C689.628 156.309 683.754 155.236 678.188 152.848C673.905 151.021 668.667 149.803 669.101 143.5C669.371 139.517 676.934 134.915 682.326 135.166C684.342 135.273 686.329 135.775 688.982 136.181C685.779 127.751 680.57 121.149 675.66 114.411C671.455 108.668 668.628 101.659 661.075 98.9428C658.76 98.1017 657.998 95.1822 657.014 92.8717C655.953 90.4065 655.201 87.661 653.638 85.5825C647.493 77.3749 647.262 75.1708 637.258 79.9658C633.41 81.7929 628.992 82.605 624.738 83.3397C620.156 84.1227 615.217 82.982 614.03 78.2063C612.921 73.7593 617.31 71.5262 621.033 70.1824C625.287 68.655 629.676 67.5142 635.445 65.7644C627.612 59.3647 623.86 49.562 612.747 48.5662C608.107 48.1312 604.963 45.0377 602.638 41.074C597.323 31.9287 592.008 22.7834 586.721 13.6188C586.094 12.5554 585.458 11.405 585.188 10.2449C584.483 7.09332 584.262 3.5164 586.625 1.35092C589.017 -0.833905 592.393 0.00715399 595.393 1.24457C598.972 2.71401 601.471 5.56588 603.94 8.2824C612.178 17.302 618.371 27.5108 620.59 39.7303C621.139 42.8045 622.432 45.086 624.622 47.1741C631.673 53.8543 638.001 61.3948 646.567 66.3058C649.085 67.7269 649.943 70.3951 651.255 72.7346C651.882 73.8753 651.68 76.1375 653.725 75.7315C655.77 75.3544 655.664 73.3436 655.644 71.6712C655.538 64.4304 658.268 57.8759 660.487 51.1764C661.162 49.0689 662.223 47.2128 664.615 47.1355C666.863 47.0581 668.32 48.5372 669.477 50.4417C671.011 53.0035 671.696 55.7007 671.918 58.6976C672.747 69.6991 673.712 80.6715 671.648 91.6729C670.963 95.2305 671.262 98.8654 673.287 101.93C680.638 113.183 688.143 124.358 695.628 135.611C698.426 133.755 697.876 130.884 698.657 128.68C699.834 125.325 700.972 122.028 703.538 119.438C705.651 117.282 707.947 115.348 711.149 116.74C713.889 117.958 714.805 120.52 714.873 123.42C715.104 133.89 714.718 144.273 709.683 153.776C708.169 156.647 708.169 159.19 709.509 162.032C717.902 180.013 727.046 197.695 733.442 218.422C736.693 211.026 739.085 204.984 741.979 199.164C743.995 195.123 745.201 189.004 751.5 190.425C758.551 192.001 756.39 198.449 755.831 202.925C754.471 214.207 751.953 225.179 740.715 231.298C737.59 233 738.545 235.765 739.307 238.462C744.419 256.443 748.673 274.608 751.78 293.073C752.532 297.568 751.857 302.266 753.95 306.945C758.3 304.229 759.516 299.376 762.217 295.693C765.014 291.855 767.3 287.611 770.175 283.831C771.41 282.207 773.098 279.741 775.722 281.008C778.239 282.255 780.101 284.769 779.426 287.64C776.86 298.583 773.204 309.179 766.982 318.575C765.265 321.166 761.947 322.104 758.792 322.539C755.725 322.974 754.587 324.753 754.915 327.75C757.587 352.363 755.397 376.744 751.239 401.028C751.114 401.792 751.336 402.633 751.442 403.899C754.644 401.792 755.725 398.515 757.635 395.972C759.902 392.946 762.226 390.075 765.844 388.605C769.567 387.107 773.252 387.155 776.329 389.872C779.455 392.617 777.969 396.02 776.812 399.114C773.127 408.946 766.432 416.312 757.008 420.401C748.114 424.239 743.349 430.33 740.706 439.678C736.905 453.038 730.625 465.538 722.898 479.479L722.927 479.459L722.879 479.45Z" fill="#DD1C47"/>
<path d="M86.4532 507.968C78.7458 495.691 72.2441 482.968 66.0126 470.111C64.556 467.114 61.855 466.379 58.8261 466.118C54.0898 465.741 49.3727 465.21 44.6364 464.871C41.8679 464.697 39.3984 463.779 37.0544 462.406C34.7875 461.082 33.1765 459.254 33.4756 456.354C33.8035 453.28 36.2248 452.236 38.646 451.733C44.8968 450.438 51.273 449.906 58.3245 449.829C56.5881 444.318 55.1026 439.204 53.3566 434.197C48.5914 420.45 44.5592 406.471 42.2923 392.095C41.3373 386.044 38.5592 383.917 32.7714 384.574C28.6621 385.029 24.5334 384.855 20.4723 383.714C17.6267 382.902 15.08 381.577 13.064 379.422C10.4691 376.628 8.15398 373.476 9.12826 369.435C10.1411 365.22 14.2697 364.891 17.5495 364.128C22.662 362.929 27.9289 363.393 32.7714 365.394C37.2859 367.25 37.7585 365.288 37.2087 361.585C34.7392 345.093 33.6588 328.504 33.1283 311.856C33.0029 308.202 31.3437 306.365 27.408 306.008C15.9675 304.993 8.15398 298.206 2.18291 288.906C0.745606 286.644 -0.971439 284.285 0.668435 281.433C2.3276 278.533 5.27938 277.924 8.20221 278.001C14.8775 278.175 20.5495 280.824 25.3341 285.571C27.0511 287.253 28.3341 289.506 30.7746 290.327C32.2891 289.206 32.0093 287.611 31.9804 286.238C31.556 265.298 35.154 244.794 38.8872 224.338C39.6203 220.345 38.7135 218.064 35.3084 216.208C29.5399 213.056 26.8871 207.845 26.4627 201.417C25.9129 193.567 23.0093 186.017 23.4627 176.668C32.6653 182.285 37.1701 190.744 42.5624 200.479C45.9676 187.215 49.064 175.325 52.064 163.405C52.72 160.765 50.5978 159.267 49.2955 157.459C42.1862 147.57 41.2602 134.18 47.1058 125.19C48.3405 123.285 49.4788 121.052 52.1701 121.12C55.3727 121.197 55.9997 124.02 56.81 126.253C58.0737 129.762 58.9226 133.397 60.1091 137.583C63.765 133.649 64.9708 128.767 66.9869 124.416C71.1734 115.474 76.4596 107.286 83.4628 100.432C87.6493 96.3423 90.0898 91.5376 91.6236 86.0466C94.122 77.0559 96.7168 68.0847 99.2345 59.0844C100.218 55.6041 101.781 52.5299 104.328 49.939C105.968 48.2569 107.627 46.4878 110.202 47.5029C112.826 48.5179 112.72 51.0121 112.643 53.3226C112.518 57.6439 111.003 61.8589 112.035 67.5046C121.508 58.6397 131.82 52.3365 142.498 46.6135C144.563 45.5211 145.296 43.1042 146.434 41.1224C149.559 35.7377 152.656 30.353 155.936 25.065C158.125 21.5074 161.077 18.5105 164.55 16.2C167.598 14.1699 171.148 12.6714 174.331 15.2043C177.457 17.6984 176.27 21.3044 174.785 24.3786C170.627 32.9632 166.498 41.5865 161.984 49.9971C158.53 56.4548 153.997 57.7986 147.592 54.27C143.53 52.0369 140.029 52.8199 136.508 54.8791C127.161 60.3411 119.173 67.4563 111.736 75.6929C119.376 71.8839 125.241 78.9217 132.379 78.564C135.91 78.39 135.881 82.0926 134.945 84.8382C134.116 87.2743 132.244 89.1305 130.228 90.5032C120.727 96.932 110.395 101.534 99.1766 103.941C97.4403 104.318 94.9902 104.502 93.7554 103.583C89.1734 100.132 86.9258 103.206 84.3599 106.28C70.9515 122.183 64.556 141.344 58.257 161.926C62.2891 158.948 65.2891 156.541 68.4917 154.375C74.6171 150.257 81.466 149.522 88.6814 149.957C92.0287 150.16 91.7297 151.378 90.6975 153.795C84.0705 169.041 73.3342 179.336 56.7039 182.536C54.3309 182.991 52.0158 183.58 51.437 186.142C47.81 202.731 43.4692 219.205 41.9643 237.621C45.8421 234.595 48.8229 232.207 51.8711 229.926C56.9065 226.165 62.3084 224.154 68.675 226.117C74.6943 227.973 76.4885 233.358 71.675 237.302C63.7071 243.808 55.7779 250.894 44.2794 249.86C40.3438 249.502 38.6846 251.484 38.5109 255.351C37.4306 279.055 36.3212 302.769 38.4627 326.473C38.5881 327.924 38.3663 329.876 39.8518 330.34C41.9161 330.978 42.3984 328.687 43.228 327.421C47.6364 320.741 53.9643 316.622 60.9965 313.345C63.138 312.359 65.3856 311.673 67.4499 313.239C69.7168 314.969 69.6686 317.531 69.1862 320.103C66.9676 331.742 59.4049 339.06 47.5399 341.139C39.601 342.541 39.2537 342.608 41.0383 350.564C43.0833 359.565 41.5881 369.474 47.7425 377.449C48.1187 377.962 47.8196 379.054 47.7425 379.837C45.273 399.51 54.6203 416.428 60.0126 434.593C61.5464 424.935 67.2666 418.352 73.8454 412.281C76.0351 410.251 78.6879 408.114 81.4274 409.332C83.8679 410.425 83.0191 413.808 82.9901 416.215C82.9612 422.267 81.1766 427.7 76.6139 431.896C73.2666 434.999 69.7843 437.948 66.3599 440.915C61.8261 444.879 62.0962 449.152 67.1895 452.526C68.3952 453.309 69.765 453.87 70.9419 454.682C74.4724 457.176 76.3342 460.144 72.4081 463.779C70.5657 465.48 70.1895 467.133 71.347 469.27C78.0801 481.847 84.8326 494.424 92.4146 508.606C93.3213 505.02 93.8712 503.009 94.3342 500.979C96.0705 492.926 98.9162 485.405 105.042 479.633C109.604 475.341 113.53 476.356 114.968 482.427C118.045 495.41 115.952 507.33 106.074 516.852C103.151 519.675 103.431 521.203 106.17 523.62C110.907 527.757 116 531.189 122.067 532.968C123.91 533.5 125.897 533.935 125.222 536.555C124.44 539.609 122.328 537.927 120.736 537.599C113.907 536.1 107.887 532.765 103.093 527.786C99.6879 524.229 96.5625 523.136 91.6236 524.258C82.9033 526.239 74.7425 523.977 68.0576 517.829C64.2763 514.349 65.1059 512.26 70.1026 510.791C75.2441 509.264 80.8101 510.279 86.4821 507.862L86.4339 507.968H86.4532Z" fill="#DD1C47"/>
<path d="M207.399 377.478L206.859 377.188C206.087 376.773 205.296 376.357 204.852 376.057C205.267 375.7 206.048 375.149 206.81 374.607L207.08 374.414C215.338 368.565 219.765 361.721 220.624 353.455C222.158 338.461 211.961 314.273 189.514 309.768C181.421 308.135 173.241 307.284 165.138 307.245L165.177 307.207H162.408C161.569 307.207 160.73 307.197 159.891 307.178C157.923 307.149 155.887 307.11 153.881 307.265C149.482 307.584 146.839 310.087 147.003 313.78C147.129 317.241 149.781 319.397 154.103 319.552C156.91 319.648 159.813 319.755 162.678 319.552C163.759 319.474 164.492 319.6 164.849 319.938C165.244 320.315 165.428 321.147 165.408 322.5C165.293 328.755 165.389 335.116 165.485 341.255C165.601 348.457 165.717 355.911 165.485 363.238C165.148 374.366 165.264 385.676 165.37 396.62C165.428 402.082 165.485 407.737 165.485 413.286C165.466 421.339 165.418 430.697 165.177 439.881C165.138 441.563 165.071 443.11 164.646 443.516C164.241 443.903 162.833 443.951 161.039 443.97C160.363 443.97 159.688 443.97 159.013 443.97C157.122 443.97 155.145 443.961 153.177 444.154C149.328 444.589 146.974 446.842 146.723 450.332C146.453 453.783 148.431 456.258 152.289 457.292C153.37 457.592 154.595 457.737 156.003 457.737C156.264 457.737 156.534 457.737 156.813 457.717C170.916 457.224 184.691 456.644 198.293 455.04C209.164 453.763 219.061 447.905 225.437 438.982C231.785 430.098 234.119 418.884 231.842 408.211C229.045 395.044 220.826 384.7 207.408 377.449L207.399 377.478ZM180.418 372.587C179.26 372.886 178.932 372.703 178.884 372.664C178.778 372.587 178.547 372.248 178.547 370.876C178.566 366.922 178.556 362.977 178.547 358.414C178.547 356.027 178.547 353.465 178.547 350.652L178.566 350.255C178.817 345.944 178.566 340.917 178.276 335.58C178.074 331.733 177.862 327.759 177.833 323.767C177.833 322.21 177.929 321.331 178.151 321.137C178.363 320.953 179.26 320.973 180.804 321.205C196.228 323.477 203.637 330.659 207.196 346.814C208.363 352.131 207.051 356.529 203.193 360.28C197.241 366.071 189.794 370.093 180.418 372.587ZM178.412 441.322C178.479 440.017 178.46 438.721 178.431 437.464C178.431 436.962 178.412 436.459 178.412 435.956L178.431 435.686C179.357 423.553 179.222 411.227 179.087 399.317C179.048 396.069 179.01 392.821 179 389.572C178.99 388.248 179.203 387.387 179.637 386.943C180.061 386.508 180.871 386.305 182.116 386.305H182.878C191.367 386.276 199.412 386.247 206.232 391.651C220.354 402.865 223.113 418.323 213.592 433.017C209.54 439.272 202.894 440.935 196.923 441.737C193.595 442.192 190.161 442.453 186.842 442.694C184.768 442.849 182.627 443.013 180.524 443.216C179.598 443.303 178.971 443.216 178.711 442.955C178.469 442.714 178.363 442.143 178.412 441.331V441.322Z" fill="#DD1C47"/>
<path d="M336.891 442.24C334.345 441.892 331.962 442.684 330.39 443.313C329.155 443.816 328.258 443.922 327.66 443.641C326.975 443.332 326.377 442.404 325.788 440.722C319.721 423.282 317.232 405.098 314.821 387.513C311.145 360.512 305.956 336.846 298.943 315.162L298.759 314.602C297.718 311.315 296.415 307.226 291.544 307.226H291.496C286.673 307.255 285.66 311.402 284.917 314.437C284.849 314.727 284.782 315.008 284.705 315.288C283.19 321.108 281.599 327.015 280.065 332.728C275.782 348.631 271.354 365.085 268.075 381.538C264.235 400.815 260.165 421.378 256.287 442.22C255.718 445.237 254.676 446.078 251.869 445.846C250.21 445.72 248.492 445.981 247.345 446.194C244.171 446.774 242.348 448.891 242.348 451.975C242.319 454.807 243.997 456.789 247.074 457.553C248.165 457.823 249.592 458.114 250.962 457.998C256.026 457.591 261.216 457.62 266.222 457.659C268.991 457.678 271.846 457.698 274.663 457.64C274.923 457.64 275.193 457.64 275.464 457.64C276.419 457.64 277.403 457.63 278.396 457.446C281.994 456.77 284.03 454.517 283.972 451.288C283.943 448.224 281.965 446.078 278.55 445.411C276.525 445.014 274.538 445.198 272.618 445.372C272.251 445.411 271.885 445.44 271.509 445.469C269.579 445.633 268.991 445.527 268.856 445.42C268.759 445.266 268.721 444.686 269.078 442.82C269.502 440.616 269.927 438.421 270.361 436.217C271.46 430.562 272.599 424.713 273.621 418.932C273.968 416.931 274.808 416.225 276.804 416.225H290.647V416.148C291.959 416.148 293.271 416.167 294.583 416.177C297.592 416.215 300.708 416.254 303.795 416.09C305.869 415.974 306.573 416.583 306.997 418.912C308.763 428.386 310.943 436.575 313.644 443.951C314.107 445.198 314.059 445.71 313.943 445.923C313.846 446.087 313.509 446.406 312.284 446.629C308.531 447.315 306.525 449.829 306.911 453.348C307.258 456.46 309.698 458.297 313.354 458.297C313.682 458.297 314.02 458.278 314.367 458.249C321.92 457.611 329.628 456.228 337.924 454.005C341.319 453.135 343.075 450.815 342.756 447.653C342.448 444.637 340.374 442.713 336.901 442.23L336.891 442.24ZM304.007 403.251C303.814 403.474 303.245 403.59 302.444 403.551C295.47 403.261 288.428 403.638 281.608 404.005L278.55 404.17C277.171 404.247 276.882 403.996 276.833 403.947C276.766 403.87 276.573 403.503 276.853 402.014C280.73 382.051 285.505 361.024 291.853 335.957C294.862 344.832 296.57 353.784 297.853 361.527C299.001 368.584 300.11 375.777 301.171 382.737C302.107 388.857 303.081 395.189 304.084 401.415C304.296 402.681 304.113 403.106 303.988 403.251H304.007Z" fill="#DD1C47"/>
<path d="M677.849 322.481V322.046C677.647 313.683 673.219 308.763 665.049 307.825C661.046 307.361 656.917 306.887 652.74 307.023C649.837 307.11 646.923 307.226 644.03 307.342C636.264 307.651 628.933 307.941 621.737 307.67L616.412 307.487L617.097 307.835C614.984 307.854 612.891 307.835 610.846 307.815C605.396 307.757 600.245 307.699 594.988 308.434C588.148 309.401 584.097 313.297 583.586 319.397C583.171 324.115 582.93 329.287 582.843 335.213C582.756 339.882 585.39 343.101 589.402 343.227C589.46 343.227 589.518 343.227 589.576 343.227C593.377 343.227 596.049 340.24 596.386 335.58L596.483 334.352C596.734 331.085 596.984 327.701 597.062 324.356C597.1 322.587 597.486 322.2 599.242 322.181C602.3 322.152 605.406 322.326 608.406 322.5C610.277 322.606 612.216 322.713 614.136 322.78H614.348C617.907 322.896 620.058 322.954 620.791 323.699C621.534 324.443 621.592 326.638 621.698 330.253V330.553C621.804 333.888 621.882 337.233 621.968 340.568C622.248 351.976 622.547 363.78 623.415 375.361C624.621 391.235 624.322 407.37 624.033 422.973C623.917 429.469 623.792 436.178 623.772 442.791C623.772 444.086 623.473 444.396 622.238 444.396H621.573C619.644 444.376 617.637 444.376 615.64 445.111C612.419 446.319 610.73 448.678 610.865 451.752C611.02 455.001 613.007 457.224 616.335 457.853C617.425 458.046 618.525 458.094 619.595 458.152C620.714 458.201 621.833 458.22 622.952 458.22C626.676 458.22 630.39 457.988 634.007 457.756C637.393 457.543 640.894 457.321 644.319 457.302C645.66 457.302 646.981 456.963 648.496 456.238C651.351 454.856 652.788 452.468 652.557 449.51C652.325 446.377 650.415 444.183 647.184 443.332C645.004 442.771 642.621 442.733 640.113 443.216C638.907 443.448 638.57 443.255 638.493 443.187C638.415 443.12 638.184 442.81 638.261 441.553C638.541 436.352 638.753 431.973 638.82 427.516C639.11 406.364 639.235 385.666 637.624 365.123C637.074 358.153 636.689 351.038 636.312 344.165C635.965 337.871 635.608 331.355 635.126 324.956C635.029 323.757 635.126 322.993 635.425 322.674C635.695 322.384 636.351 322.239 637.431 322.239C640.431 322.258 643.489 322.22 646.441 322.181C649.759 322.142 653.184 322.104 656.55 322.133C657.216 322.133 657.833 322.133 658.412 322.133C660.66 322.113 662.28 322.094 662.898 322.78C663.554 323.505 663.669 325.449 663.274 328.89C663.033 330.969 663.679 333.095 665.039 334.72C666.341 336.266 668.165 337.223 670.026 337.32C674.039 337.571 677.194 334.662 677.686 330.263C677.985 327.682 677.936 325.052 677.878 322.5L677.849 322.481Z" fill="#DD1C47"/>
<path d="M558.621 333.376C561.428 334.788 564.39 334.072 566.357 331.501C569.444 327.431 570.226 322.365 568.75 316.014C567.573 310.89 563.193 309.449 559.181 308.492C552.361 306.868 545.464 306.917 537.804 307.129L537.833 308.289L537.785 307.129H529.48C518.174 307.187 513.38 311.924 513.428 322.984C513.515 340.414 513.418 363.345 511.933 386.111C511.759 388.789 511.576 391.467 511.393 394.145C510.91 401.212 510.399 408.52 510.129 415.742C509.791 425.371 509.483 435.637 509.82 445.827C510.033 452.478 513.631 456.026 520.808 456.673C523.373 456.905 525.93 457.031 527.869 457.118C530.348 457.215 532.817 457.321 535.287 457.437C541.364 457.717 547.644 457.998 553.846 458.017H553.923C561.303 458.017 565.779 454.189 566.859 446.938C567.64 441.766 566.888 436.614 566.174 431.645L566.001 430.436C565.402 426.357 561.39 423.737 558.187 424.133C554.685 424.568 552.004 427.894 551.946 431.867C551.888 434.961 552.091 437.996 552.303 440.809C552.438 442.607 552.322 443.129 552.206 443.255C552.081 443.381 551.56 443.516 549.737 443.41L546.033 443.187C539.898 442.82 533.56 442.433 527.3 442.327C524.753 442.269 524.232 441.728 524.232 439.156C524.232 423.505 525.206 407.902 526.287 391.951C526.422 389.804 527 389.505 529.055 389.505C533.714 389.476 538.393 389.205 542.782 388.934C546.602 388.722 549.582 386.053 549.708 382.738C549.853 379.296 547.923 376.802 544.277 375.7C542.927 375.284 541.325 375.1 539.406 375.139C538.036 375.178 536.656 375.294 535.316 375.41C534.013 375.526 532.663 375.642 531.351 375.671C529.46 375.729 527.676 375.787 527.338 375.439C526.981 375.071 527.116 373.051 527.232 371.262C528.042 359.072 528.766 346.108 527.946 333.357C527.791 330.93 527.849 328.426 527.907 326.01C527.927 325.304 527.936 324.598 527.955 323.902C527.994 321.804 528.563 321.795 529.181 321.785C531.804 321.737 534.447 321.543 537.004 321.36C541.75 321.012 546.66 320.654 551.435 321.263C553.316 321.505 554.936 321.717 555.235 322.123C555.544 322.549 555.341 324.202 555.091 326.309C554.714 329.557 555.93 332.003 558.621 333.386V333.376Z" fill="#DD1C47"/>
<path d="M401.299 423.563C397.093 424.336 394.691 427.932 395.193 432.718C395.26 433.298 395.309 433.878 395.357 434.458C395.492 435.995 395.627 437.58 396.013 439.117C396.389 440.567 396.196 441.099 396.042 441.292C395.752 441.66 394.855 441.815 393.379 441.766C385.836 441.524 378.427 441.931 371.366 442.955C370.083 443.139 369.775 442.897 369.726 442.849C369.678 442.801 369.456 442.501 369.669 441.292C369.833 440.413 369.881 439.543 369.939 438.702C369.968 438.257 369.997 437.812 370.035 437.377C371.376 424.607 371.858 414.872 371.617 405.813C371.501 401.55 371.376 397.287 371.251 393.023C370.845 379.286 370.421 365.094 370.421 351.106L370.469 351.135V329.664C370.479 327.053 371.125 325.101 372.37 323.873C373.595 322.664 375.514 322.046 378.071 322.046C378.138 322.046 378.215 322.046 378.273 322.046C382.035 322.046 385.382 319.523 386.077 316.158C386.82 312.504 384.698 309.188 380.781 307.912C379.45 307.496 377.878 307.293 375.987 307.293C371.347 307.255 366.64 307.274 362.077 307.284C359.154 307.284 356.231 307.313 353.308 307.284C351.495 307.264 349.614 307.255 347.752 307.371C343.971 307.612 341.588 309.807 341.048 313.548C340.566 316.912 342.707 319.793 346.508 320.886C348.91 321.591 351.08 321.823 353.135 321.591C354.562 321.446 355.45 321.562 355.826 321.939C356.231 322.326 356.386 323.264 356.289 324.724C355.691 333.598 355.566 342.454 355.527 349.946C355.421 363.18 355.575 376.608 355.99 389.853C356.492 406.045 356.675 425.129 354.215 443.796C353.588 448.611 354.379 452.284 356.569 454.711C358.681 457.05 362.087 458.239 366.707 458.239C366.968 458.239 367.228 458.239 367.498 458.23C374.357 458.027 381.321 457.679 388.064 457.34C391.498 457.166 394.932 457.002 398.357 456.847C406.276 456.509 411.022 451.772 411.379 443.854C411.592 439.117 410.781 434.419 409.884 430.04C408.958 425.612 405.273 422.847 401.309 423.592L401.299 423.563Z" fill="#DD1C47"/>
<path d="M476.637 423.359C472.422 424.133 470.03 427.729 470.522 432.514C470.589 433.104 470.637 433.694 470.686 434.284C470.821 435.811 470.956 437.387 471.342 438.914C471.727 440.364 471.525 440.896 471.38 441.089C471.091 441.457 470.194 441.611 468.718 441.563C461.184 441.331 453.776 441.727 446.705 442.752C445.422 442.936 445.113 442.694 445.065 442.646C445.017 442.597 444.795 442.298 445.007 441.089C445.171 440.21 445.219 439.34 445.277 438.499C445.306 438.054 445.335 437.609 445.374 437.174C446.715 424.413 447.197 414.678 446.956 405.61C446.84 401.337 446.714 397.074 446.589 392.811C446.184 379.073 445.76 364.882 445.76 350.883L445.817 350.912V329.451C445.827 326.841 446.473 324.888 447.718 323.66C448.943 322.452 450.862 321.833 453.419 321.833C453.486 321.833 453.563 321.833 453.621 321.833C457.383 321.833 460.731 319.31 461.425 315.946C462.168 312.291 460.046 308.975 456.129 307.699C454.798 307.284 453.226 307.081 451.335 307.081C446.695 307.042 441.988 307.061 437.425 307.071C434.502 307.071 431.579 307.1 428.657 307.071C426.833 307.052 424.962 307.042 423.1 307.158C419.309 307.4 416.936 309.594 416.396 313.335C415.914 316.7 418.055 319.58 421.856 320.673C424.258 321.379 426.428 321.611 428.483 321.379C429.911 321.234 430.788 321.35 431.174 321.727C431.579 322.113 431.734 323.051 431.637 324.511C431.039 333.385 430.914 342.241 430.875 349.733C430.769 362.958 430.923 376.386 431.329 389.64C431.83 405.842 432.013 424.916 429.554 443.584C428.927 448.398 429.718 452.071 431.907 454.498C434.02 456.837 437.425 458.027 442.046 458.027C442.306 458.027 442.567 458.027 442.837 458.017C449.705 457.814 456.689 457.466 463.432 457.127C466.856 456.953 470.271 456.789 473.695 456.634C481.615 456.296 486.361 451.559 486.718 443.642C486.93 438.924 486.12 434.216 485.213 429.827C484.287 425.399 480.602 422.625 476.637 423.379V423.359Z" fill="#DD1C47"/>
<path d="M374.55 234.034C374.154 234.411 372.765 234.45 370.981 234.469C370.315 234.469 369.64 234.469 368.974 234.469C367.064 234.469 365.096 234.46 363.138 234.653C359.251 235.059 356.878 237.331 356.617 240.889C356.337 244.369 358.334 246.873 362.231 247.926C363.321 248.226 364.546 248.371 365.964 248.371C366.225 248.371 366.495 248.371 366.775 248.352C380.868 247.859 394.643 247.279 408.254 245.674C419.145 244.398 429.051 238.53 435.447 229.597C441.813 220.684 444.158 209.441 441.871 198.749C439.045 185.553 430.807 175.189 417.389 167.939L416.801 167.62C416.096 167.243 415.383 166.856 414.939 166.585C415.354 166.237 416.077 165.725 416.772 165.232L417.09 165.01C425.376 159.161 429.823 152.297 430.682 144.022C432.244 128.999 422.048 104.772 399.534 100.267C390.514 98.4499 381.379 97.5991 372.37 97.7538C371.53 97.7538 370.691 97.7441 369.862 97.7248C367.894 97.6958 365.858 97.6571 363.852 97.8022C359.415 98.1308 356.752 100.654 356.916 104.395C357.071 107.895 359.762 110.07 364.103 110.215C366.91 110.321 369.804 110.418 372.678 110.215C373.739 110.138 374.453 110.263 374.791 110.582C375.167 110.94 375.341 111.762 375.321 113.086C375.206 119.36 375.302 125.712 375.399 131.87C375.514 139.072 375.63 146.516 375.399 153.824C375.061 164.942 375.177 176.262 375.283 187.206C375.341 192.668 375.399 198.323 375.399 203.863C375.379 211.896 375.331 221.235 375.09 230.428C375.051 232.024 374.974 233.628 374.559 234.015L374.55 234.034ZM388.508 231.85C388.575 230.554 388.556 229.249 388.527 227.992C388.518 227.383 388.508 226.774 388.508 226.165C389.434 214.052 389.289 201.745 389.154 189.835C389.116 186.587 389.077 183.348 389.067 180.11C389.067 177.567 389.694 176.91 392.145 176.91H392.791C401.328 176.842 409.392 176.804 416.222 182.237C430.315 193.422 433.055 208.851 423.563 223.507C419.511 229.742 412.884 231.395 406.932 232.188C403.604 232.642 400.18 232.903 396.862 233.145C394.797 233.3 392.656 233.464 390.553 233.667C389.665 233.754 389.038 233.667 388.797 233.425C388.566 233.203 388.469 232.652 388.527 231.859L388.508 231.85ZM390.418 163.066C389.27 163.366 388.971 163.173 388.942 163.153C388.865 163.095 388.633 162.805 388.633 161.423C388.653 157.459 388.643 153.505 388.633 148.942C388.633 146.429 388.633 143.741 388.633 140.754C388.884 136.452 388.624 131.416 388.344 126.098C388.141 122.251 387.929 118.278 387.9 114.295C387.891 112.284 388.083 111.82 388.19 111.723C388.325 111.607 388.884 111.52 390.784 111.81C406.199 114.101 413.579 121.274 417.129 137.38C418.305 142.659 417.003 147.048 413.145 150.799C407.241 156.57 399.804 160.582 390.418 163.086V163.066Z" fill="#DD1C47"/>
<path d="M522.563 229.404C524.01 225.585 522.437 221.534 518.82 219.775C515.463 218.16 511.711 219.533 509.482 223.187C508.952 224.048 508.46 224.937 507.987 225.798C507.264 227.112 506.579 228.35 505.768 229.5C502.016 234.721 497.338 236.151 491.067 234.005C483.061 231.24 478.267 225.421 475.971 215.705C474.62 210.021 474.534 204.104 474.447 198.381C474.389 194.553 474.331 190.599 473.897 186.713V186.626C474.36 182.256 474.418 177.886 474.476 173.662C474.505 171.457 474.534 169.176 474.62 166.952C475.045 156.599 475.479 145.907 478.19 135.592C480.225 127.877 483.341 119.215 490.99 113.492C496.074 109.673 500.029 109.799 505.084 113.946C507.071 115.58 508.865 117.407 510.842 119.447C513.842 122.502 517.807 122.686 520.72 119.873C522.804 117.833 524.463 114.478 520.527 110.07L520.209 109.712C518.839 108.165 517.431 106.561 515.868 105.091C511.913 101.369 507.013 97.4636 500.598 96.7096C488.357 95.2401 480.196 102.848 475.132 108.697C469.701 114.962 465.987 122.792 463.44 133.329C460.923 143.857 460.286 154.182 459.717 166.595C459.032 181.376 458.26 198.13 460.768 214.593C463.257 230.97 471.254 241.807 485.241 247.733C488.743 249.212 492.293 249.956 495.785 249.956C499.276 249.956 502.392 249.28 505.527 247.936C513.032 244.707 519.399 237.785 522.553 229.413L522.563 229.404Z" fill="#DD1C47"/>
<path d="M288.919 111.191C292.373 112.003 295.845 111.849 299.202 111.694H299.424C300.591 111.646 301.363 111.791 301.729 112.148C302.125 112.535 302.308 113.376 302.308 114.807C302.183 153.36 302.183 192.552 302.183 230.448C302.183 230.709 302.183 230.979 302.173 231.25C302.164 231.82 302.154 232.42 302.183 233C302.202 233.464 302.183 234.073 301.903 234.363C301.623 234.672 300.977 234.75 300.475 234.759C296.955 234.866 293.385 235.069 289.874 235.378C286.054 235.697 283.672 237.95 283.334 241.536C282.996 245.045 285.514 247.955 289.45 248.613C290.25 248.758 291.032 248.758 291.784 248.758C299.337 248.758 306.9 248.738 314.472 248.709L325.942 248.68C327.948 248.68 330.041 248.332 332.54 247.578C336.196 246.447 338.771 242.793 338.173 239.603C337.392 235.426 333.717 232.903 329.414 233.58C327.601 233.88 325.797 233.899 323.887 233.928C322.508 233.947 321.08 233.967 319.662 234.102C318.543 234.208 317.791 234.083 317.424 233.744C317.019 233.367 316.826 232.478 316.836 231.028C316.932 219.852 316.913 208.474 316.903 197.472C316.903 193.277 316.893 189.091 316.893 184.905H316.768C316.768 180.429 316.787 175.953 316.816 171.477C316.865 161.336 316.922 150.847 316.691 140.532L316.556 133.968C316.421 127.519 316.276 120.859 316.18 114.295C316.16 113.144 316.315 112.409 316.633 112.11C316.99 111.771 317.81 111.771 318.427 111.829C321.938 112.139 325.083 112.293 328.025 112.293C332.8 112.293 336.263 109.422 336.456 105.314C336.543 103.312 335.897 101.534 334.594 100.171C333.109 98.6044 330.842 97.7344 328.209 97.715C317.106 97.628 305.009 97.628 290.144 97.715C285.89 97.744 283.102 100.026 282.697 103.815C282.292 107.363 284.617 110.109 288.929 111.162L288.919 111.191Z" fill="#DD1C47"/>
<path d="M180.544 550.717C180.409 550.678 180.274 550.62 180.129 550.572C179.936 550.495 179.743 550.427 179.579 550.379C174.718 548.726 169.653 547.923 164.753 547.14L163.142 546.879C162.862 546.84 162.592 546.792 162.312 546.744C161.164 546.55 159.978 546.357 158.695 546.425C156.563 546.531 154.856 547.759 154.451 549.451C154.084 550.949 154.007 552.409 154.2 553.83C154.47 555.483 155.656 556.508 157.316 556.508C158.869 556.508 160.007 555.541 160.373 553.927C160.46 553.617 160.48 553.327 160.489 553.095C162.226 553.453 164.097 553.801 166.248 554.178C166.055 556.015 165.891 557.861 165.718 559.785C165.235 565.266 164.3 571.192 162.795 578.424L162.66 579.129C161.782 582.803 160.48 585.925 158.685 588.69C157.981 589.783 157.296 590.459 156.457 590.894C155.55 591.358 154.634 591.397 153.872 591.001C153.129 590.614 152.656 589.85 152.531 588.874C152.367 587.598 152.531 586.283 152.705 585.123C153.004 582.919 152.039 581.217 150.235 580.802C149.386 580.608 148.518 580.763 147.785 581.227C146.936 581.768 146.328 582.706 146.078 583.866C145.605 586.119 145.605 588.429 146.078 590.923C147.033 596.144 151.354 598.01 155.087 598.01C158.193 598.01 160.837 596.734 162.939 594.22C164.628 592.209 165.988 589.918 167.097 587.221C169.808 580.589 170.801 573.754 171.66 566.745C172.017 563.884 172.229 560.984 172.431 558.171C172.489 557.32 172.557 556.469 172.624 555.609C174.197 555.957 175.808 556.324 177.312 556.846C176.965 558.644 177.775 560.22 179.415 560.829C181.152 561.438 182.965 560.549 183.737 558.702C184.287 557.329 184.923 555.299 184.065 553.463C183.476 552.206 182.3 551.287 180.544 550.727V550.717Z" fill="#DD1C47"/>
<path d="M222.805 563.817C222.216 563.42 221.541 563.188 220.702 563.111C219.419 562.985 218.059 562.84 216.756 562.57C215.782 562.367 214.779 562.202 213.67 562.067C211.74 561.825 210.091 562.879 209.743 564.571C209.396 566.263 210.486 567.887 212.367 568.457C212.599 568.525 212.84 568.583 213.081 568.631C212.907 569.704 212.743 570.787 212.579 571.87C212.213 574.277 211.837 576.761 211.345 579.159C210.853 581.498 210.284 583.886 209.734 586.187C209.213 588.372 208.682 590.624 208.2 592.867L207.872 594.221C207.66 595.12 207.448 595.999 207.216 596.869C206.666 598.803 205.817 600.311 204.621 601.481C203.116 602.95 201.65 603.356 200.02 602.766C199.229 602.486 198.399 602.128 197.454 601.684C196.731 601.345 196.325 600.785 196.181 599.915C195.949 598.561 195.843 597.13 195.843 595.545C195.843 591.494 196.615 587.608 197.425 583.499C197.628 582.494 197.821 581.489 198.004 580.483C198.824 576.201 199.875 571.87 200.898 567.693L201.448 565.441C201.525 565.122 201.583 564.812 201.65 564.493C201.776 563.855 201.901 563.246 202.123 562.657C202.432 561.777 202.335 560.82 201.843 560.017C201.303 559.128 200.367 558.529 199.268 558.374C198.882 558.326 198.477 558.277 198.081 558.229C197.705 558.19 197.319 558.142 196.981 558.094C196.731 558.055 196.48 558.016 196.229 557.968C195.467 557.842 194.686 557.707 193.866 557.668C192.091 557.581 190.644 558.741 190.499 560.356C190.345 562.019 191.232 563.295 192.862 563.778L193.094 563.855C193.663 564.039 194.309 564.242 194.985 564.29C194.743 565.18 194.512 566.069 194.28 566.968C193.817 568.757 193.335 570.603 192.805 572.392C191.772 575.872 191.116 579.478 190.48 582.958C190.316 583.876 190.142 584.795 189.968 585.704C189.129 590.054 188.83 594.462 189.081 598.793C189.39 603.878 191.946 607.3 196.663 608.963C197.946 609.418 199.576 609.882 201.399 609.882C202.933 609.882 204.592 609.553 206.28 608.615C209.715 606.711 212.116 603.733 213.419 599.779C214.277 597.159 214.866 594.453 215.435 591.833C215.85 589.938 216.274 587.985 216.795 586.11C217.798 582.523 218.348 578.84 218.879 575.282C219.12 573.658 219.361 572.034 219.65 570.42L219.698 570.13C219.718 570.004 219.747 569.868 219.766 569.743C219.94 569.743 220.142 569.752 220.325 569.762C220.75 569.762 221.232 569.762 221.743 569.656C223.075 569.346 223.991 568.36 224.203 566.978C224.367 565.712 223.837 564.58 222.756 563.855L222.805 563.817Z" fill="#DD1C47"/>
<path d="M266.55 569.723C265.846 569.462 265.103 569.221 264.312 568.989C262.576 568.525 261.11 568.66 259.942 569.395C258.785 570.12 258.013 571.367 257.656 573.117C257.425 574.286 257.241 575.456 257.049 576.626C256.904 577.544 256.749 578.472 256.585 579.391C256.258 581.208 255.92 583.016 255.582 584.824C255.235 586.67 254.888 588.517 254.55 590.363C254.213 592.229 253.952 594.085 253.701 595.873C253.46 597.565 253.238 599.286 253.016 600.997C251.213 592.084 249.37 582.881 248.656 573.706C248.579 572.711 248.405 571.405 247.73 570.207C247.007 568.892 245.926 566.9 243.534 566.794C240.901 566.688 239.83 568.921 239.203 570.265C238.171 572.488 237.486 574.847 236.82 577.119L236.656 577.67C236.232 579.159 235.817 580.657 235.412 582.146C234.804 584.34 234.196 586.544 233.56 588.739C233.126 590.228 232.672 591.697 232.209 593.176C230.888 597.411 229.528 601.79 228.91 606.353C227.434 605.376 225.708 605.56 224.598 606.798C223.421 608.074 223.46 610.055 224.675 611.322C225.775 612.453 226.913 613.623 228.158 614.667C229.142 615.498 230.299 615.856 231.438 615.653C232.614 615.45 233.637 614.667 234.331 613.449C234.814 612.598 234.987 611.728 235.142 610.945L235.373 609.785C236.164 605.86 236.984 601.8 238.18 597.923C239.473 593.747 240.823 589.435 242.01 585.056L242.348 583.818C242.463 583.374 242.589 582.919 242.714 582.465C242.782 583.122 242.849 583.789 242.936 584.447C243.814 591.049 245.184 597.643 246.515 604.023C247.103 606.836 247.692 609.659 248.241 612.482C248.55 614.029 249.1 615.585 249.939 617.238C250.653 618.65 251.82 619.51 253.122 619.578C253.18 619.578 253.248 619.578 253.306 619.578C254.55 619.578 255.727 618.862 256.566 617.596C257.106 616.774 257.473 615.866 257.743 614.667C258.833 609.93 259.518 605.067 260.193 600.359L260.569 597.749C261.129 593.805 261.872 589.812 262.595 585.955C263.135 583.045 263.695 580.038 264.177 577.061C264.206 576.877 264.225 576.693 264.245 576.5C264.245 576.452 264.254 576.394 264.264 576.336C264.534 576.413 264.852 576.481 265.2 576.452H265.229C267.11 576.5 268.624 575.388 268.942 573.697C269.28 572.014 268.277 570.332 266.569 569.704L266.55 569.723Z" fill="#DD1C47"/>
<path d="M295.662 573.165C291.466 572.594 287.231 572.082 283.131 571.569C281.25 571.337 279.784 572.285 279.389 573.977C278.993 575.601 279.919 577.09 281.713 577.757C282.871 578.211 284.028 578.308 285.138 578.414L285.398 578.433C285.398 578.433 285.398 578.501 285.389 578.53C283.749 591.281 282.196 603.8 280.604 616.619C280.604 616.697 280.585 616.774 280.565 616.851C280.556 616.919 280.546 616.987 280.536 617.054C279.543 616.967 278.482 616.9 277.363 616.851C275.617 616.764 274.353 617.692 273.996 619.345C273.639 620.97 274.643 622.526 276.379 623.038L276.475 623.067C276.755 623.125 277.035 623.183 277.276 623.212L288.485 624.595C288.794 624.643 289.112 624.662 289.45 624.662C289.942 624.662 290.463 624.614 291.003 624.508C292.72 624.218 294.041 622.71 293.955 621.134C293.829 619.22 292.276 617.857 290.337 617.924C289.816 617.944 289.276 617.886 288.707 617.818C288.254 617.77 287.771 617.712 287.279 617.692C287.279 617.673 287.279 617.644 287.279 617.625C287.713 614.338 288.118 611.032 288.524 607.735C288.746 605.966 288.958 604.197 289.18 602.437V602.321V601.973C289.382 600.32 289.594 598.677 289.797 597.033C290.183 594.007 290.588 590.875 290.906 587.782C291.012 586.767 291.118 585.742 291.225 584.717C291.408 582.919 291.591 581.121 291.803 579.294C292.797 579.487 293.771 579.671 294.755 579.796C296.839 580.028 298.565 578.878 298.855 577.07C299.009 576.181 298.816 575.311 298.305 574.605C297.726 573.812 296.791 573.3 295.652 573.136L295.662 573.165Z" fill="#DD1C47"/>
<path d="M327.564 578.433C325.422 577.322 323.377 576.819 321.313 576.896C317.059 577.07 313.789 579.023 311.85 582.542C310.451 585.094 309.93 587.975 309.631 590.199C308.541 598.532 307.818 605.444 307.335 611.95C307.229 613.478 307.229 615.034 307.229 616.532C307.258 620.602 309.525 624.131 313.316 625.968C314.985 626.78 316.779 627.176 318.506 627.176C320.599 627.176 322.567 626.586 324.052 625.417C326.011 623.928 327.438 621.985 328.287 619.665C330.236 614.415 330.95 608.963 331.567 603.365L331.615 602.853C331.895 600.823 332.204 597.932 332.29 594.8C332.377 590.692 332.126 587.327 331.499 584.214C330.93 581.372 329.638 579.468 327.564 578.414V578.433ZM325.953 594.694C325.798 599.15 325.2 603.713 324.641 607.638C324.12 611.476 323.425 614.551 322.442 617.315C322.123 618.215 321.699 618.969 321.159 619.607C320.04 620.912 318.689 621.124 316.326 620.38C314.599 619.839 313.625 618.563 313.586 616.784C313.538 615.15 313.615 613.516 313.712 611.989C313.847 609.901 314.03 607.706 314.29 605.096C314.541 602.795 314.821 600.494 315.101 598.184L315.216 597.111C315.313 596.347 315.39 595.583 315.477 594.82C315.776 592.006 316.056 589.358 316.837 586.767C317.339 585.123 318.11 584.127 319.268 583.634C320.802 582.967 322.49 583.112 324.737 584.108C325.123 584.282 325.306 585.094 325.413 585.665C325.895 588.603 326.078 591.629 325.953 594.684V594.694Z" fill="#DD1C47"/>
<path d="M368.078 623.996C367.393 623.696 366.718 623.638 366.13 623.628C364.885 618.93 363.053 614.425 361.268 610.065C360.892 609.137 360.516 608.219 360.139 607.281C360.014 606.981 359.86 606.595 359.782 606.353C359.927 606.237 360.149 606.063 360.352 605.918L360.631 605.705C365.3 602.128 367.403 596.976 366.718 590.817C366.313 587.192 364.181 583.731 360.872 581.334C357.409 578.83 353.252 577.844 349.461 578.637C347.512 579.043 346.606 580.125 346.528 582.165C346.48 583.567 346.432 584.969 346.384 586.38C346.335 587.782 346.297 589.184 346.249 590.576C346.162 592.857 346.065 595.139 345.969 597.42C345.872 599.702 345.776 601.983 345.689 604.265C345.409 610.423 345.159 616.552 344.908 622.681C343.191 623.01 342.072 624.315 342.207 625.862C342.352 627.486 343.895 628.868 345.564 628.868C347.522 628.887 349.451 628.868 351.313 628.791C353.213 628.713 354.641 627.341 354.641 625.601C354.641 623.86 353.368 622.652 351.477 622.517C351.641 620.187 351.786 617.847 351.921 615.508L352.143 611.834H351.969L352.123 609.137C352.152 608.605 352.181 608.064 352.229 607.774C352.499 607.735 352.982 607.706 353.454 607.677H353.609C353.609 607.677 353.667 607.668 353.686 607.668C353.696 607.697 353.715 607.735 353.734 607.774C354.313 609.408 354.94 611.032 355.557 612.656L356.31 614.618C357.313 617.287 358.461 620.438 359.416 623.706C358.21 624.063 357.409 625.088 357.342 626.432C357.226 628.124 358.316 629.448 360.053 629.729C361.335 629.961 362.618 630.019 363.872 630.019C364.528 630.019 365.184 629.999 365.831 629.989C366.323 629.98 366.805 629.97 367.287 629.961C368.821 629.961 369.959 628.771 370.056 627.031C370.094 625.639 369.342 624.498 368.078 624.005V623.996ZM360.226 592.277L360.168 593.602C360.12 595.622 359.377 597.594 358.017 599.315C357.091 600.485 355.914 601.055 354.458 601.055C354.178 601.055 353.889 601.045 353.609 601.045C353.329 601.045 353.059 601.045 352.779 601.045H352.345C352.49 595.69 352.586 590.237 352.683 584.959C352.934 585.017 353.194 585.075 353.445 585.123C354.091 585.259 354.699 585.384 355.249 585.607C358.76 586.96 360.159 588.778 360.217 592.277H360.226Z" fill="#DD1C47"/>
<path d="M430.326 618.485C428.773 617.789 427.017 618.447 426.062 620.1C425.908 620.38 425.763 620.66 425.618 620.941C425.387 621.385 425.175 621.801 424.933 622.159C423.959 623.59 422.879 623.947 421.162 623.396C418.808 622.652 417.409 621.018 416.647 618.108C416.184 616.329 416.117 614.512 416.039 612.578C415.991 611.293 415.933 609.959 415.76 608.625C415.856 607.155 415.846 605.705 415.837 604.303C415.837 603.597 415.827 602.882 415.837 602.176C415.885 598.996 415.933 595.39 416.744 591.958C417.361 589.406 418.239 586.796 420.477 585.046C421.808 584.021 422.666 584.031 424.007 585.085C424.692 585.626 425.3 586.225 425.869 586.796C426.544 587.472 427.383 587.849 428.232 587.849C429.081 587.849 429.853 587.501 430.48 586.873C431.811 585.52 431.763 583.808 430.345 582.291L429.959 581.885C429.573 581.459 429.168 581.024 428.724 580.638C427.287 579.323 425.493 577.95 423.062 577.728C418.567 577.302 415.683 580.096 413.908 582.233C412.036 584.485 410.801 587.24 410.01 590.895C409.229 594.597 409.094 598.319 409.017 602.118C408.882 607.841 408.843 613.013 409.75 618.215C410.773 623.976 413.695 627.747 418.692 629.728C419.917 630.212 421.162 630.463 422.377 630.463C423.679 630.463 424.962 630.183 426.178 629.632C428.869 628.394 431.107 625.852 432.158 622.836C432.785 621.095 432.033 619.259 430.345 618.476L430.326 618.485Z" fill="#DD1C47"/>
<path d="M466.171 603.549C466.133 600.243 465.978 597.43 465.679 594.936C465.197 590.846 464.474 587.55 463.403 584.563C462.458 581.885 460.876 580.145 458.686 579.381C456.429 578.598 454.335 578.395 452.3 578.762C448.123 579.536 445.152 581.943 443.724 585.732C442.712 588.478 442.605 591.397 442.625 593.631C442.712 601.703 442.982 608.847 443.445 615.479C443.56 617.113 443.782 618.708 443.995 620.051C444.583 624.054 447.313 627.205 451.287 628.481C452.512 628.878 453.766 629.061 454.982 629.061C457.683 629.061 460.229 628.124 461.888 626.393C463.596 624.585 464.724 622.459 465.226 620.08C466.335 614.908 466.335 609.601 466.181 604.564V603.549H466.171ZM449.136 600.726C449.136 599.595 449.088 598.464 449.049 597.324C448.953 594.501 448.856 591.842 449.252 589.145C449.483 587.472 450.101 586.38 451.2 585.694C452.618 584.804 454.258 584.717 456.689 585.394C456.998 585.481 457.278 585.945 457.548 586.815C458.425 589.57 459.043 592.548 459.371 595.651C459.853 600.021 459.921 604.477 459.921 608.634C459.921 612.791 459.66 615.74 459.11 618.563C458.927 619.5 458.618 620.303 458.175 621.018C457.249 622.488 455.975 622.894 453.506 622.488C451.721 622.198 450.583 621.076 450.294 619.336C450.052 617.925 449.869 616.407 449.724 614.56C449.57 612.521 449.435 610.258 449.319 607.658C449.242 605.763 449.184 603.859 449.146 602.09V600.726H449.136Z" fill="#DD1C47"/>
<path d="M514.934 617.48C514.027 617.151 513.062 617.122 511.982 617.393C511.5 614.261 511.056 611.08 510.631 607.996C509.985 603.308 509.31 598.464 508.48 593.698C508.249 592.364 508.027 591.04 507.805 589.706C507.361 587.018 506.898 584.234 506.329 581.498L506.31 581.382C505.972 579.748 505.625 578.057 504.824 576.452C503.725 574.228 501.545 573.31 499.528 574.228C498.265 574.799 497.676 575.891 497.271 576.877C496.673 578.279 496.094 579.681 495.506 581.073C494.946 582.417 494.387 583.76 493.808 585.114C493.702 585.365 493.615 585.636 493.538 585.897C493.403 585.645 493.268 585.413 493.123 585.201C492.361 584.089 491.609 582.958 490.856 581.827C489.959 580.483 489.062 579.13 488.126 577.796C487.567 577.013 486.062 574.934 483.467 575.475C482.078 575.775 480.352 576.79 480.043 579.903C479.85 581.614 479.754 582.919 479.725 584.118C479.339 598.377 479.522 610.104 480.284 620.999L479.956 621.057C479.252 621.173 478.528 621.299 477.815 621.463C476.223 621.84 475.229 623.01 475.152 624.605C475.104 625.552 475.442 626.857 477.342 627.727C477.853 627.959 478.355 628.027 478.837 628.027C479.155 628.027 479.454 627.998 479.725 627.959L483.863 627.263C486.294 626.867 487.451 625.349 487.2 622.855C486.853 619.133 486.776 615.392 486.718 611.583C486.641 604.41 486.641 597.13 486.641 590.083V589.28C486.641 588.932 486.641 588.575 486.641 588.227C487.143 588.971 487.644 589.715 488.136 590.46C488.985 591.717 489.834 592.983 490.692 594.249C491.647 595.632 492.901 596.347 494.213 596.28C495.535 596.202 496.692 595.351 497.483 593.882C497.86 593.205 498.12 592.5 498.371 591.813L498.429 591.659C498.998 590.17 499.577 588.768 500.165 587.395C501.39 594.172 502.538 601.471 503.667 609.649L504.004 612.047C504.294 614.125 504.593 616.281 504.93 618.408C505.123 619.578 505.384 620.941 505.972 622.256C506.85 624.208 508.509 625.214 510.477 624.992C511.828 624.866 513.246 624.605 514.799 624.189C516.429 623.783 517.451 622.439 517.442 620.67C517.422 619.82 517.065 618.282 514.934 617.509V617.48Z" fill="#DD1C47"/>
<path d="M542.928 574.624C539.773 571.415 535.712 570.052 530.522 570.458L529.278 570.574V570.622C527.368 570.903 525.979 571.647 525.159 572.836C524.33 574.035 524.127 575.62 524.551 577.534C524.715 578.279 524.812 579.071 524.908 579.835C525.825 587.501 526.741 595.148 527.677 602.785C527.715 603.143 527.773 603.501 527.841 603.849C527.879 604.033 527.908 604.216 527.937 604.41C528.487 607.87 529.056 611.331 529.625 614.792L529.722 615.382C529.095 615.527 528.429 615.759 527.725 616.078C526.384 616.706 525.748 617.944 526.008 619.394C526.249 620.728 527.262 621.608 528.805 621.801C528.921 621.811 529.037 621.82 529.153 621.82C529.654 621.82 530.098 621.724 530.474 621.637L531.777 621.356C533.629 620.95 535.384 620.573 537.198 620.66C537.757 620.66 538.22 620.593 538.596 620.467C540.101 619.993 540.979 618.814 540.941 617.315C540.892 615.798 539.937 614.686 538.394 614.348C537.487 614.135 536.638 614.164 535.953 614.232L535.423 610.481C534.979 607.329 534.526 604.178 534.063 601.026C537.159 600.262 539.812 598.657 542.002 597.188C544.423 595.554 545.928 593.311 546.468 590.518C547.114 587.298 546.941 583.924 545.937 580.232C545.301 577.863 544.307 576.036 542.928 574.634V574.624ZM533.301 594.327L531.198 577.07C531.198 577.07 531.198 577.012 531.188 576.983C531.227 576.983 531.265 576.974 531.313 576.964C533.156 576.684 534.979 577.061 537.043 578.153C538.693 579.033 539.359 580.676 539.85 582.89C539.928 583.209 539.957 583.596 539.986 583.992C540.005 584.243 540.024 584.485 540.053 584.736L540.236 586.158C540.285 586.854 540.294 587.521 540.246 588.149C540.14 589.783 539.551 590.914 538.394 591.687C536.561 592.925 534.94 593.775 533.31 594.327H533.301Z" fill="#DD1C47"/>
<path d="M586.48 604.777C585.438 604.816 584.56 605.26 583.972 605.608C583.933 605.637 583.894 605.657 583.856 605.676C583.817 605.608 583.759 605.521 583.692 605.386C580.846 600.088 579.052 594.123 577.46 588.855C574.808 580.135 571.875 572.672 568.499 566.04L568.412 565.856C567.901 564.851 566.956 562.966 564.669 563.343C562.364 563.729 562.181 565.875 562.094 566.91L562.074 567.181C561.882 569.23 561.66 571.279 561.448 573.329C560.888 578.646 560.309 584.156 560.087 589.609C559.759 597.42 559.538 603.887 559.374 609.978C559.374 610.21 559.345 610.336 559.325 610.403C559.267 610.423 559.161 610.442 558.968 610.452C558.457 610.51 557.936 610.635 557.319 610.858C555.872 611.37 555.148 612.559 555.361 614.048C555.563 615.43 556.538 616.31 558.071 616.455C558.264 616.465 558.476 616.484 558.708 616.484C559.007 616.484 559.325 616.455 559.653 616.368C561.235 615.981 562.817 615.74 564.496 615.479C565.422 615.334 566.357 615.189 567.264 615.024C567.689 614.966 568.161 614.908 568.634 614.734C570.235 614.164 571.046 612.859 570.756 611.37C570.515 609.891 569.396 608.982 567.766 608.934C566.917 608.905 566.165 609.108 565.499 609.282C565.595 606.778 565.692 604.197 565.74 601.596C565.74 601.558 565.74 601.529 565.74 601.5C565.759 601.5 565.779 601.5 565.808 601.49C566.628 601.364 567.447 601.229 568.277 601.094C568.952 600.987 569.637 600.871 570.312 600.765L571.73 600.543L571.711 600.446C572.676 600.301 573.669 600.146 574.644 599.934C574.644 599.934 574.644 599.934 574.653 599.934C574.673 599.972 574.692 600.02 574.711 600.078C575.763 603.008 576.853 605.502 578.049 607.706C576.64 608.363 576.004 609.688 576.409 611.186C576.775 612.501 578.097 613.593 580.248 613.062C582.814 612.414 585.303 611.544 587.849 610.394C589.306 609.727 589.991 608.412 589.615 606.962C589.451 606.304 588.814 604.767 586.46 604.767L586.48 604.777ZM572.705 594.201C570.583 594.481 568.499 594.926 566.483 595.361L565.943 595.477C566.136 589.908 566.512 583.963 567.071 577.438C567.708 578.975 568.248 580.512 568.75 582.01C569.608 584.572 570.438 587.163 571.267 589.754C571.74 591.233 572.213 592.702 572.705 594.201Z" fill="#DD1C47"/>
<path d="M626.04 582.001C625.77 581.053 625.5 580.106 625.239 579.159C624.111 575.147 623.127 571.028 622.181 567.045C621.535 564.339 620.869 561.535 620.165 558.78C620.117 558.596 620.059 558.412 620.011 558.229C619.992 558.171 619.972 558.113 619.953 558.045C620.233 558.006 620.561 557.929 620.879 557.755C622.586 557.049 623.522 555.396 623.156 553.743C622.779 552.032 621.197 550.92 619.355 551.046C618.554 551.104 617.783 551.181 617.021 551.288C615.255 551.568 613.972 552.293 613.191 553.434C612.419 554.574 612.217 556.034 612.603 557.765C612.892 559.07 613.23 560.356 613.557 561.612C613.76 562.395 613.963 563.169 614.156 563.952C614.58 565.702 614.995 567.442 615.4 569.172C615.844 571.057 616.287 572.942 616.75 574.818C617.175 576.568 617.667 578.308 618.149 579.99L618.217 580.212C618.718 581.943 619.23 583.664 619.741 585.384C614.464 577.96 609.043 570.294 604.654 562.134C604.22 561.332 603.516 560.153 602.397 559.311C601.201 558.403 599.397 557.02 597.188 557.89C594.68 558.847 594.641 561.342 594.622 562.821C594.564 565.518 594.95 568.234 595.297 570.622C595.548 572.478 595.818 574.344 596.098 576.2C596.377 578.134 596.667 580.077 596.927 582.01C597.12 583.48 597.294 584.959 597.467 586.428C597.979 590.904 598.509 595.525 599.811 600.001H599.802C598.056 599.721 596.59 600.562 596.049 602.177C595.509 603.81 596.339 605.608 597.94 606.266C599.59 606.942 600.988 607.474 602.464 607.9C602.898 608.025 603.332 608.093 603.757 608.093C604.509 608.093 605.223 607.89 605.821 607.484C606.815 606.817 607.442 605.686 607.596 604.294C607.702 603.308 607.509 602.428 607.345 601.664L607.143 600.736C606.265 596.743 605.348 592.606 604.876 588.497L604.567 585.868C604.152 582.358 603.718 578.723 603.168 575.176L602.898 573.397C602.85 573.097 602.811 572.807 602.763 572.507C603.091 573.078 603.419 573.648 603.767 574.199C607.287 579.99 611.281 585.539 615.149 590.914C616.76 593.147 618.361 595.38 619.924 597.613C620.783 598.88 621.853 600.011 623.416 601.287C624.641 602.292 626.04 602.602 627.265 602.147C628.49 601.683 629.349 600.514 629.619 598.928C629.783 597.952 629.744 596.937 629.513 595.757C628.635 591.078 627.332 586.457 626.059 581.991L626.04 582.001Z" fill="#DD1C47"/>
<path d="M670.383 585.858C670.21 584.746 669.457 583.847 668.358 583.441C667.017 582.948 665.946 583.557 665.271 583.983C664.885 582.967 664.48 581.962 664.075 580.957C663.583 579.729 663.081 578.491 662.628 577.254C662.483 576.867 662.329 576.481 662.165 576.094C661.75 575.098 661.364 574.17 661.364 573.232C661.374 571.425 661.393 569.626 661.412 567.828C661.489 561.322 661.557 554.594 661.181 547.943C661.161 547.595 661.142 547.179 661.142 546.908C661.403 546.86 661.817 546.802 662.213 546.744C664.171 546.502 665.425 545.091 665.251 543.331C665.107 541.727 663.747 540.644 661.846 540.644C660.631 540.644 659.444 540.673 658.325 540.721C656.483 540.798 655.219 541.939 654.94 543.776C654.853 544.385 654.853 544.994 654.853 545.574C655.036 551.239 655.026 556.827 655.007 562.076C655.007 563.285 654.988 564.503 654.968 565.769C654.621 565.412 654.284 565.073 653.956 564.725L653.386 564.135C650.994 561.632 648.486 559.408 646.065 557.262C644.425 555.812 642.727 554.304 641.078 552.728L640.769 552.399C640.769 552.399 640.682 552.312 640.644 552.264L640.702 552.235C640.933 552.158 641.194 552.042 641.444 551.829C643.036 550.524 642.959 549.161 642.602 548.223C641.956 546.628 640.47 545.855 638.965 546.348C636.573 547.15 634.181 548.039 631.885 548.977C630.457 549.528 629.782 551.027 630.274 552.535C630.737 553.917 631.856 554.71 633.332 554.71C633.64 554.71 633.862 554.661 634.055 554.623L634.132 554.603C634.374 554.652 634.866 555.155 635.107 555.406C635.261 555.561 635.406 555.715 635.55 555.841C636.766 557.252 638.107 558.499 639.255 559.534C644.57 564.348 649.21 568.93 653.444 573.561L653.763 573.899C654.341 574.509 654.882 575.089 655.132 575.727C656.068 578.095 656.985 580.483 657.901 582.861L658.75 585.056C658.895 585.442 659.049 585.829 659.136 586.1C658.885 586.216 658.509 586.37 658.132 586.515C656.705 587.086 655.952 588.304 656.116 589.735C656.232 591.146 657.226 592.132 658.731 592.364C658.952 592.403 659.174 592.422 659.396 592.422C659.811 592.422 660.226 592.354 660.66 592.229C661.21 592.064 661.769 591.91 662.319 591.755C662.985 591.562 663.66 591.378 664.325 591.175C665.965 590.682 667.682 590.102 669.129 588.942C670.104 588.159 670.576 587.008 670.393 585.848L670.383 585.858Z" fill="#DD1C47"/>
</svg>
