<svg width="333" height="99" viewBox="0 0 333 99" fill="none" xmlns="http://www.w3.org/2000/svg">
<path d="M240.249 88.044C240.136 86.6328 240.013 85.2112 239.91 83.7896C239.869 83.1819 239.828 82.5638 239.807 81.956C239.766 80.7199 239.756 79.4734 239.715 78.2373C239.694 77.5368 239.643 76.826 239.643 76.1152C239.643 75.1675 240.146 74.7143 241.09 74.7761C241.347 74.7864 241.593 74.8173 241.85 74.8585C242.25 74.9203 242.527 75.2087 242.527 75.559C242.527 75.9092 242.261 76.1873 241.86 76.2594H241.819C241.614 76.3213 241.316 76.1461 241.203 76.3728C241.121 76.5376 241.183 76.7848 241.193 76.9908C241.296 79.3292 241.285 81.6676 241.439 84.006C241.563 85.8911 241.727 87.7865 241.675 89.6922C241.675 90.0012 241.634 90.2897 241.522 90.5781C241.234 91.2889 240.557 91.3919 240.064 90.7944C239.725 90.3824 239.438 89.9497 239.222 89.4656C237.97 86.5503 236.574 83.6969 235.506 80.7096C235.239 79.9576 235.024 79.185 234.788 78.4227C234.747 78.2785 234.695 78.1343 234.613 77.8767C234.459 79.0305 234.408 80.0709 234.346 81.1113C234.264 82.605 234.11 84.0781 233.977 85.5717C233.833 87.0242 233.864 88.4973 233.874 89.9703C233.874 90.2485 233.884 90.5472 233.802 90.8253C233.597 91.4434 233.063 91.6803 232.488 91.3816C232.016 91.1344 231.575 90.846 231.143 90.5575C230.846 90.3618 230.774 89.9703 230.938 89.6922C231.123 89.3832 231.441 89.2905 231.8 89.445C231.821 89.445 231.852 89.4656 231.872 89.4759C232.437 89.7334 232.478 89.7334 232.427 89.1153C232.252 87.0448 232.57 85.0155 232.735 82.9655C232.837 81.6882 232.909 80.4108 233.001 79.1232C233.063 78.2785 233.114 77.4235 233.32 76.5994C233.433 76.1255 233.566 75.6002 234.151 75.5075C234.695 75.4251 235.044 75.8268 235.373 76.177C235.609 76.4346 235.732 76.7539 235.835 77.0938C236.933 80.7714 238.565 84.2326 240.095 87.7453C240.146 87.8586 240.208 87.9616 240.269 88.0852L240.31 88.0646H240.3L240.249 88.044Z" fill="#DD1C47" stroke="#DD1C47" stroke-width="0.81" stroke-linecap="round" stroke-linejoin="round"/>
<path d="M89.3924 85.7779V89.4142C89.3924 89.7027 89.4951 89.8057 89.7927 89.8057C90.2341 89.8057 90.501 90.0014 90.5216 90.3516C90.5421 90.6813 90.2855 90.9594 89.8749 91.0006C89.2384 91.0624 88.5917 91.1036 87.945 91.1345C87.596 91.1551 87.2675 90.8873 87.2265 90.5886C87.1854 90.3104 87.4112 90.0323 87.8013 89.9602C88.0374 89.919 88.0887 89.816 88.0887 89.5996C88.0477 87.5188 88.0066 85.4483 87.9656 83.3777C87.9348 81.8531 87.904 80.3286 87.8732 78.804C87.8526 77.8666 87.8218 76.9292 87.791 75.9918C87.7808 75.5282 87.9142 75.3325 88.3762 75.2089C90.7166 74.5805 93.519 76.2287 93.9296 78.5465C94.2478 80.3595 93.7653 81.9768 92.3282 83.2129C91.7944 83.6661 91.7636 83.6352 92.0819 84.2842C92.9236 86.0354 93.8372 87.7557 94.4634 89.5996C94.525 89.7748 94.6276 89.8675 94.8226 89.8572C95.0177 89.8572 95.2024 89.8469 95.3872 89.9087C95.6644 89.9911 95.8081 90.1868 95.8184 90.4649C95.8184 90.7637 95.6746 91.0109 95.377 91.0315C94.5763 91.0933 93.7859 91.1963 92.9852 91.1139C92.667 91.083 92.4001 90.8873 92.4001 90.5267C92.4001 90.1971 92.6054 89.9911 92.9441 89.9499C93.2726 89.919 93.1494 89.7336 93.0776 89.5687C92.6875 88.4974 92.2358 87.4467 91.7636 86.4166C91.4249 85.6749 91.0759 84.9332 90.7474 84.1915C90.6447 83.9546 90.501 83.8516 90.2239 83.8825C89.3411 83.9855 89.3411 83.9752 89.3513 84.8611V85.7676H89.4129H89.4027L89.3924 85.7779ZM92.667 79.5251C92.667 77.8563 92.0511 77.0322 90.501 76.5583C90.1623 76.4553 89.8133 76.4244 89.4643 76.3729C89.0844 76.3111 89.0023 76.445 89.0229 76.7849C89.105 78.6392 89.1871 80.5037 89.259 82.3682C89.259 82.6257 89.3821 82.6978 89.6182 82.6772C89.8954 82.6566 90.1726 82.636 90.46 82.6154C91.1169 82.5845 91.6302 82.2858 91.9997 81.7707C92.4925 81.0908 92.7183 80.3286 92.6875 79.5457H92.6772L92.667 79.5251Z" fill="#DD1C47" stroke="#DD1C47" stroke-width="1.05" stroke-linecap="round" stroke-linejoin="round"/>
<path d="M156.958 83.0992C156.968 85.0255 156.937 86.787 156.506 88.5176C156.321 89.2387 155.972 89.8464 155.438 90.3718C154.001 91.7522 150.511 91.0723 150.172 88.3631C150.111 87.8686 150.059 87.3639 150.018 86.8694C149.916 84.4486 149.905 82.0278 149.936 79.607C149.946 78.7726 150.029 77.9176 150.347 77.1451C150.819 76.0119 151.743 75.3733 152.975 75.1775C153.642 75.0745 154.289 75.1775 154.904 75.4145C155.603 75.672 155.982 76.2386 156.188 76.9081C156.547 78.0104 156.752 79.1435 156.845 80.2869C156.937 81.2861 156.947 82.2751 156.927 83.1095H156.958V83.0992ZM151.178 82.0175V84.3456C151.178 85.1182 151.209 85.9011 151.25 86.6737C151.281 87.2196 151.322 87.7759 151.404 88.3116C151.517 89.0739 152.041 89.6198 152.841 89.7743C153.632 89.9185 154.391 89.8979 154.915 89.1357C155.12 88.8472 155.243 88.5176 155.315 88.1673C155.572 87.0548 155.664 85.9114 155.685 84.7783C155.715 83.3155 155.736 81.8527 155.613 80.3899C155.531 79.3495 155.346 78.3297 155.048 77.3305C154.956 77.0008 154.802 76.6506 154.453 76.5476C153.714 76.321 152.934 76.2283 152.215 76.6403C151.661 76.9596 151.404 77.4747 151.301 78.0825C151.065 79.3804 151.178 80.699 151.147 82.0175H151.178Z" fill="#DD1C47" stroke="#DD1C47" stroke-width="1.05" stroke-linecap="round" stroke-linejoin="round"/>
<path d="M251.006 86.664H249.456C249.179 86.664 249.025 86.7773 248.964 87.076C248.81 87.9413 248.625 88.8272 248.45 89.6925C248.368 90.1252 248.409 90.1767 248.861 90.1355C249.117 90.1149 249.364 90.084 249.62 90.1355C249.918 90.187 250.123 90.3518 250.123 90.6608C250.123 90.9905 249.908 91.1553 249.6 91.2068C249.477 91.2274 249.333 91.2274 249.21 91.2274C248.317 91.248 247.434 91.1965 246.541 91.2686C246.418 91.2686 246.274 91.2583 246.151 91.2274C245.894 91.1656 245.72 91.0214 245.72 90.733C245.72 90.4445 245.884 90.2694 246.171 90.2179C246.325 90.187 246.49 90.1664 246.654 90.187C247.034 90.2179 247.208 90.084 247.29 89.6822C247.711 87.4572 248.163 85.2321 248.604 83.0277C249.107 80.576 249.826 78.1861 250.462 75.7653C250.555 75.4151 250.626 74.9824 251.099 74.9824C251.571 74.9824 251.694 75.4048 251.807 75.7653C252.659 78.3406 253.213 80.9983 253.583 83.6869C253.86 85.6648 254.147 87.6529 254.815 89.5483C254.958 89.9295 255.112 90.0634 255.502 89.9089C255.708 89.8264 255.934 89.7646 256.159 89.7955C256.447 89.8367 256.673 89.9707 256.703 90.2797C256.734 90.5887 256.549 90.7639 256.262 90.8463C255.4 91.0626 254.527 91.2377 253.634 91.3098C253.234 91.3407 252.977 91.1862 252.946 90.8772C252.905 90.5166 253.131 90.3312 253.449 90.2797C253.768 90.2282 253.798 90.0943 253.706 89.8161C253.377 88.9405 253.141 88.0134 252.967 87.0863C252.916 86.7979 252.792 86.6537 252.474 86.6743C251.981 86.6949 251.499 86.6743 250.996 86.6743L251.006 86.664ZM251.14 77.5783C251.119 77.6401 251.099 77.6916 251.078 77.7534C250.431 80.2257 249.836 82.698 249.343 85.2115C249.282 85.5205 249.354 85.6236 249.672 85.603C250.565 85.5618 251.448 85.4999 252.341 85.5412C252.638 85.5515 252.7 85.4278 252.659 85.1497C252.423 83.6972 252.197 82.2345 251.961 80.782C251.776 79.7004 251.55 78.629 251.15 77.5886H251.14V77.5783Z" fill="#DD1C47" stroke="#DD1C47" stroke-width="1.05" stroke-linecap="round" stroke-linejoin="round"/>
<path d="M77.6491 75.0645C79.1171 75.116 80.4105 75.5692 81.3446 76.7435C81.7552 77.2586 81.9605 77.8664 82.0631 78.4947C82.2377 79.5867 82.2069 80.658 81.8681 81.7293C81.6115 82.5328 81.088 83.12 80.3386 83.5114C79.4763 83.9544 78.5935 84.3252 77.6184 84.4488C77.3617 84.4797 77.2385 84.5622 77.2488 84.8506C77.3104 86.4061 77.3515 87.9409 77.4131 89.4964C77.4131 89.7231 77.5362 89.8055 77.7518 89.7849C78.0187 89.7849 78.2856 89.8055 78.5422 89.8879C78.8502 89.9909 79.0144 90.1969 78.9836 90.5059C78.9528 90.815 78.7475 91.0004 78.4396 91.0519C78.3369 91.0725 78.2035 91.0725 78.1008 91.0519C77.3207 90.9386 76.561 91.0519 75.7809 91.124C75.5961 91.1446 75.4319 91.1755 75.2471 91.1343C74.97 91.0725 74.7749 90.9283 74.7441 90.6399C74.7236 90.3617 74.8673 90.1557 75.1342 90.063C75.3395 90.0012 75.5448 89.9497 75.7604 89.9291C76.0478 89.9085 76.1607 89.7849 76.1504 89.4964C76.0786 88.25 76.017 87.0035 75.9451 85.7571C75.9451 85.582 75.9143 85.4069 75.9143 85.2317C75.8835 82.6564 75.863 80.0811 75.8322 77.5058C75.8322 77.238 75.8322 76.9496 75.7912 76.6817C75.6783 75.631 76.1504 75.0851 77.2283 75.0645H77.6286H77.6491ZM80.8313 79.7103C80.8313 79.494 80.8519 79.257 80.8313 79.0407C80.7492 78.2681 80.5644 77.5161 79.8561 77.0526C79.2094 76.6199 78.5012 76.3418 77.6902 76.3727C77.2078 76.3933 77.1975 76.3933 77.2077 76.8672C77.2283 78.8244 77.2591 80.7919 77.2796 82.7491V82.8625C77.2693 83.1097 77.372 83.1921 77.6286 83.1406C78.378 83.017 79.0863 82.7182 79.7638 82.3783C80.3489 82.0693 80.6466 81.5851 80.7595 80.9567C80.8313 80.5447 80.8519 80.1429 80.8313 79.7309H80.8211L80.8313 79.7103Z" fill="#DD1C47" stroke="#DD1C47" stroke-width="1.05" stroke-linecap="round" stroke-linejoin="round"/>
<path d="M165.519 74.7553C166.217 74.7553 166.925 74.7243 167.623 74.8171C168.362 74.9201 168.742 75.2497 168.855 75.9811C168.957 76.6507 168.855 77.31 168.803 77.9692C168.773 78.3298 168.516 78.5049 168.167 78.5255C167.838 78.5358 167.53 78.2577 167.51 77.8868C167.479 77.4851 167.469 77.0936 167.51 76.6919C167.541 76.2901 167.356 76.1562 166.986 76.1562C165.97 76.1768 164.954 76.1974 163.938 76.218C163.722 76.218 163.599 76.3313 163.568 76.5477C163.548 76.7331 163.527 76.9288 163.517 77.1245C163.476 79.0612 163.609 80.9978 163.65 82.9344C163.65 83.1919 163.743 83.2743 163.999 83.2331C164.574 83.1404 165.159 83.058 165.744 83.0477C165.939 83.0477 166.104 83.058 166.278 83.1301C166.535 83.2331 166.668 83.4392 166.689 83.6864C166.709 83.9336 166.586 84.1396 166.371 84.2736C166.124 84.4281 165.837 84.4796 165.549 84.4693C165.005 84.459 164.482 84.5517 163.958 84.6135C163.722 84.6444 163.64 84.7474 163.65 84.9637V89.5066C163.65 89.7229 163.732 89.8156 163.958 89.7641C164.143 89.7332 164.317 89.7023 164.502 89.6714C164.944 89.6096 165.354 89.8465 165.436 90.2379C165.508 90.6088 165.241 90.9693 164.79 91.0517C164.02 91.1857 163.25 91.2784 162.47 91.402C162.275 91.4329 162.09 91.4432 161.885 91.4638C161.566 91.4947 161.289 91.4123 161.053 91.196C160.858 91.0208 160.786 90.7942 160.868 90.5264C160.94 90.2792 161.125 90.1452 161.371 90.0937C161.484 90.0731 161.607 90.0628 161.72 90.0731C162.028 90.104 162.203 89.9907 162.162 89.6611V89.589C162.162 87.3948 162.182 85.1904 162.152 83.0065C162.131 81.1008 161.977 79.1848 161.998 77.2687C161.998 76.9906 162.018 76.7022 162.069 76.4343C162.254 75.3115 162.829 74.7965 163.989 74.7553C164.502 74.7346 165.005 74.7553 165.508 74.7553H165.519Z" fill="#DD1C47" stroke="#DD1C47" stroke-width="1.04" stroke-linecap="round" stroke-linejoin="round"/>
<path d="M103.404 74.8685C104.246 74.8479 105.026 74.8376 105.796 75.0127C106.227 75.1157 106.669 75.2496 106.782 75.7441C106.915 76.3003 106.905 76.8772 106.535 77.3614C106.361 77.5777 106.104 77.6704 105.827 77.5262C105.56 77.3923 105.468 77.1553 105.498 76.8772C105.57 76.2591 105.57 76.2488 104.965 76.1767C104.113 76.0737 103.261 76.2179 102.429 76.2282C102.193 76.2282 102.162 76.4034 102.162 76.5991C102.162 76.9596 102.142 77.3099 102.162 77.6601C102.255 79.0611 102.173 80.462 102.08 81.8527C102.039 82.4914 102.049 82.5017 102.686 82.4811C102.994 82.4811 103.291 82.4296 103.599 82.4193C103.774 82.4193 103.948 82.4193 104.113 82.4708C104.431 82.5635 104.646 82.7798 104.636 83.1197C104.626 83.4288 104.339 83.6657 103.979 83.6863C103.456 83.7172 102.953 83.7481 102.429 83.7481C102.142 83.7481 102.008 83.8202 101.988 84.1499C101.875 85.9011 101.752 87.642 101.752 89.4035C101.752 89.764 101.865 89.8773 102.234 89.8876C103.086 89.8979 103.938 89.9597 104.77 90.0009C105.18 90.0215 105.242 89.97 105.201 89.5683C105.18 89.2386 105.16 88.9193 105.16 88.5897C105.16 88.1982 105.427 87.8995 105.755 87.8583C106.063 87.8171 106.433 88.0746 106.494 88.4455C106.576 89.0429 106.689 89.6404 106.587 90.2379C106.484 90.9692 106.032 91.3607 105.242 91.3607C104.267 91.3607 103.281 91.2989 102.296 91.2577C102.029 91.2577 101.762 91.2371 101.495 91.2062C100.787 91.1444 100.386 90.825 100.366 90.1245C100.325 89.012 100.366 87.8995 100.397 86.787C100.438 85.6847 100.53 84.5928 100.602 83.5009C100.766 81.1625 100.787 78.8241 100.777 76.4858C100.777 75.3114 101.279 74.8582 102.47 74.8582H103.415L103.404 74.8685Z" fill="#DD1C47" stroke="#DD1C47" stroke-width="1.05" stroke-linecap="round" stroke-linejoin="round"/>
<path d="M262.667 79.3597C262.667 81.4817 262.739 83.5935 262.801 85.7155C262.831 86.8899 262.749 88.0642 262.616 89.2385C262.606 89.3828 262.606 89.5167 262.575 89.6712C262.524 89.9493 262.626 90.0523 262.914 90.0111C263.745 89.8978 264.577 89.8566 265.408 89.8772C265.747 89.8875 265.952 89.8257 265.839 89.4137C265.778 89.1973 265.778 88.9501 265.757 88.7132C265.706 88.2393 265.942 87.9097 266.352 87.8273C266.722 87.7552 267.081 88.0127 267.184 88.4454C267.287 88.9501 267.379 89.4549 267.358 89.9699C267.317 90.794 266.825 91.2679 266.003 91.2988C264.823 91.3503 263.642 91.4121 262.462 91.4533C261.415 91.4842 260.943 91.0103 261.086 89.9802C261.353 87.9612 261.353 85.9319 261.292 83.9128C261.251 82.4192 261.23 80.9358 261.24 79.4421C261.24 78.4944 261.261 77.557 261.323 76.6196C261.353 76.1869 261.199 76.0942 260.809 76.1251C260.573 76.1457 260.337 76.1251 260.101 76.053C259.731 75.95 259.526 75.6925 259.567 75.3731C259.619 75.0126 259.844 74.8169 260.214 74.7963C260.491 74.7757 260.768 74.7963 261.056 74.7963H263.447C263.622 74.7963 263.796 74.8066 263.961 74.8581C264.351 74.9817 264.546 75.301 264.484 75.6307C264.423 75.9603 264.094 76.1869 263.704 76.1869C263.027 76.1869 262.688 76.5166 262.688 77.1758V79.3803V79.3597H262.667Z" fill="#DD1C47" stroke="#DD1C47" stroke-width="1.05" stroke-linecap="round" stroke-linejoin="round"/>
<path d="M139.507 85.7779V89.4142C139.507 89.7027 139.609 89.8057 139.907 89.8057C140.348 89.8057 140.615 90.0014 140.636 90.3516C140.656 90.6813 140.4 90.9594 139.989 91.0006C139.353 91.0624 138.706 91.1036 138.059 91.1345C137.71 91.1551 137.382 90.8873 137.341 90.5886C137.3 90.3104 137.526 90.0323 137.916 89.9602C138.152 89.919 138.203 89.816 138.203 89.5996C138.162 87.5188 138.121 85.4483 138.08 83.3777C138.049 81.8531 138.018 80.3286 137.987 78.804C137.967 77.8666 137.936 76.9292 137.905 75.9918C137.895 75.5282 138.028 75.3325 138.49 75.2089C140.831 74.5805 143.633 76.2287 144.044 78.5465C144.362 80.3595 143.89 81.9768 142.442 83.2129C141.909 83.6661 141.878 83.6352 142.196 84.2842C143.038 86.0354 143.951 87.7557 144.578 89.5996C144.639 89.7748 144.732 89.8675 144.937 89.8572C145.132 89.8572 145.317 89.8469 145.501 89.9087C145.779 89.9911 145.922 90.1868 145.943 90.4649C145.943 90.7637 145.789 91.0109 145.491 91.0315C144.691 91.0933 143.9 91.1963 143.099 91.1139C142.781 91.083 142.514 90.8873 142.514 90.5267C142.514 90.1971 142.72 89.9911 143.058 89.9499C143.387 89.919 143.264 89.7336 143.192 89.5687C142.802 88.4974 142.35 87.4467 141.878 86.4166C141.539 85.6749 141.19 84.9332 140.862 84.1915C140.759 83.9546 140.615 83.8516 140.338 83.8825C139.455 83.9855 139.455 83.9752 139.466 84.8611V85.7676H139.527L139.507 85.7779ZM142.781 79.5251C142.781 77.8563 142.165 77.0322 140.615 76.5583C140.277 76.4553 139.928 76.4244 139.579 76.3729C139.199 76.3111 139.127 76.445 139.137 76.7849C139.219 78.6392 139.291 80.5037 139.373 82.3682C139.373 82.6257 139.496 82.6978 139.732 82.6772C140.01 82.6566 140.287 82.636 140.574 82.6154C141.231 82.5845 141.744 82.2858 142.114 81.7707C142.607 81.0908 142.833 80.3286 142.802 79.5457H142.792L142.781 79.5251Z" fill="#DD1C47" stroke="#DD1C47" stroke-width="1.05" stroke-linecap="round" stroke-linejoin="round"/>
<path d="M127.784 75.0645C129.252 75.116 130.545 75.5692 131.479 76.7435C131.89 77.2586 132.095 77.8664 132.198 78.4947C132.362 79.5867 132.342 80.658 132.003 81.7293C131.746 82.5328 131.223 83.12 130.473 83.5114C129.611 83.9544 128.728 84.3252 127.753 84.4488C127.496 84.4797 127.373 84.5622 127.384 84.8506C127.445 86.4061 127.486 87.9409 127.538 89.4964C127.538 89.7231 127.661 89.8055 127.876 89.7849C128.143 89.7849 128.41 89.8055 128.667 89.8879C128.975 89.9909 129.139 90.1969 129.108 90.5059C129.088 90.8253 128.872 91.0004 128.564 91.0519C128.461 91.0725 128.328 91.0725 128.225 91.0519C127.445 90.9386 126.686 91.0519 125.905 91.124C125.721 91.1446 125.556 91.1755 125.372 91.1343C125.094 91.0725 124.899 90.9283 124.869 90.6399C124.848 90.3617 124.992 90.1557 125.259 90.063C125.464 90.0012 125.669 89.9497 125.885 89.9291C126.172 89.9085 126.285 89.7849 126.275 89.4964C126.203 88.25 126.142 87.0035 126.07 85.7571C126.07 85.582 126.039 85.4069 126.039 85.2317C126.008 82.6564 125.988 80.0811 125.957 77.5058C125.957 77.238 125.957 76.9496 125.916 76.6817C125.803 75.631 126.275 75.0851 127.353 75.0645H127.753H127.784ZM130.966 79.7103C130.966 79.494 130.987 79.257 130.966 79.0407C130.884 78.2681 130.699 77.5161 129.991 77.0526C129.344 76.6199 128.626 76.3418 127.825 76.3727C127.343 76.3933 127.332 76.3933 127.343 76.8672C127.363 78.8244 127.394 80.7919 127.414 82.7491V82.8625C127.404 83.1097 127.507 83.1921 127.763 83.1406C128.523 83.017 129.221 82.7182 129.899 82.3783C130.484 82.0693 130.781 81.5851 130.894 80.9567C130.966 80.5447 130.987 80.1429 130.966 79.7309H130.956L130.966 79.7103Z" fill="#DD1C47" stroke="#DD1C47" stroke-width="1.05" stroke-linecap="round" stroke-linejoin="round"/>
<path d="M176.461 74.8685C177.303 74.8479 178.083 74.8376 178.853 75.0127C179.284 75.1157 179.725 75.2496 179.838 75.7441C179.972 76.3003 179.961 76.8772 179.592 77.3614C179.417 77.5777 179.161 77.6704 178.884 77.5262C178.617 77.3923 178.524 77.1553 178.555 76.8772C178.627 76.2591 178.627 76.2488 178.021 76.1767C177.169 76.0737 176.317 76.2179 175.486 76.2282C175.25 76.2282 175.219 76.4034 175.219 76.5991C175.219 76.9596 175.198 77.3099 175.219 77.6601C175.311 79.0611 175.219 80.462 175.137 81.8527C175.096 82.4914 175.106 82.5017 175.742 82.4811C176.05 82.4811 176.348 82.4296 176.656 82.4193C176.831 82.4193 177.005 82.4193 177.169 82.4708C177.488 82.5635 177.703 82.7798 177.693 83.1197C177.693 83.4288 177.395 83.6657 177.036 83.6863C176.512 83.7172 176.009 83.7481 175.486 83.7481C175.198 83.7481 175.065 83.8202 175.044 84.1499C174.932 85.9011 174.808 87.642 174.808 89.4035C174.808 89.764 174.921 89.8773 175.281 89.8876C176.133 89.8979 176.985 89.9597 177.816 90.0009C178.227 90.0215 178.288 89.97 178.257 89.5683C178.237 89.2386 178.216 88.9193 178.216 88.5897C178.216 88.1982 178.483 87.8995 178.812 87.8583C179.12 87.8171 179.489 88.0746 179.551 88.4455C179.633 89.0429 179.746 89.6404 179.643 90.2379C179.541 90.9692 179.089 91.3607 178.298 91.3607C177.323 91.3607 176.338 91.2989 175.352 91.2577C175.086 91.2577 174.819 91.2371 174.552 91.2062C173.843 91.1444 173.443 90.825 173.423 90.1245C173.381 89.012 173.423 87.8995 173.453 86.787C173.494 85.6847 173.587 84.5928 173.659 83.5009C173.813 81.1625 173.843 78.8241 173.833 76.4858C173.833 75.3114 174.336 74.8582 175.527 74.8582H176.471L176.461 74.8685Z" fill="#DD1C47" stroke="#DD1C47" stroke-width="1.05" stroke-linecap="round" stroke-linejoin="round"/>
<path d="M187.455 90.9896C186.726 90.969 185.997 90.8763 185.34 90.4848C184.098 89.7431 184.067 88.064 184.529 87.106C184.663 86.8279 184.909 86.7146 185.217 86.7661C185.546 86.8279 185.7 87.0648 185.71 87.3533C185.71 87.6314 185.659 87.9198 185.628 88.1979C185.535 88.9602 185.864 89.4238 186.623 89.5577C187.742 89.7534 188.8 89.5989 189.744 88.9602C190.688 88.3319 190.986 87.4769 190.74 86.3849C190.483 85.2209 189.703 84.4483 188.841 83.7066C187.907 82.9134 186.921 82.1511 186.172 81.1622C185.002 79.5964 185.135 77.8761 186.5 76.4752C186.89 76.0631 187.301 75.6717 187.824 75.4245C188.399 75.1669 188.974 75.1463 189.549 75.4039C189.96 75.5893 190.36 75.8159 190.699 76.1249C191.191 76.5782 191.428 77.1345 191.428 77.7937C191.428 78.2367 191.325 78.659 191.243 79.0917C191.181 79.4625 190.914 79.6789 190.596 79.648C190.268 79.617 190.011 79.3286 190.031 78.9578C190.031 78.7105 190.093 78.4633 190.134 78.2161C190.339 77.2066 189.672 76.7739 188.83 76.5267C188.594 76.4649 188.389 76.5576 188.194 76.6915C187.835 76.949 187.517 77.2581 187.25 77.6083C186.521 78.556 186.521 79.4316 187.25 80.3896C187.937 81.2961 188.851 81.9863 189.713 82.7177C190.658 83.5212 191.489 84.4071 191.91 85.6227C192.69 87.8374 191.633 89.7019 189.518 90.5466C188.861 90.8145 188.163 90.9587 187.434 90.9484V90.9793L187.455 90.9896Z" fill="#DD1C47" stroke="#DD1C47" stroke-width="1.05" stroke-linecap="round" stroke-linejoin="round"/>
<path d="M199.701 90.9896C198.972 90.969 198.243 90.8763 197.586 90.4848C196.344 89.7431 196.314 88.064 196.775 87.106C196.909 86.8279 197.155 86.7146 197.463 86.7661C197.792 86.8279 197.946 87.0648 197.956 87.3533C197.956 87.6314 197.905 87.9198 197.874 88.1979C197.781 88.9602 198.11 89.4238 198.87 89.5577C199.988 89.7534 201.046 89.5989 201.99 88.9602C202.935 88.3319 203.232 87.4769 202.986 86.3849C202.729 85.2209 201.949 84.4483 201.087 83.7066C200.153 82.9134 199.167 82.1511 198.418 81.1622C197.248 79.5964 197.381 77.8761 198.746 76.4752C199.136 76.0631 199.547 75.6717 200.071 75.4245C200.645 75.1669 201.22 75.1463 201.795 75.4039C202.206 75.5893 202.606 75.8159 202.945 76.1249C203.437 76.5782 203.674 77.1345 203.674 77.7937C203.674 78.2367 203.571 78.659 203.489 79.0917C203.427 79.4625 203.16 79.6789 202.842 79.648C202.514 79.617 202.257 79.3286 202.278 78.9578C202.278 78.7105 202.339 78.4633 202.38 78.2161C202.585 77.2066 201.929 76.7739 201.077 76.5267C200.84 76.4649 200.635 76.5576 200.44 76.6915C200.081 76.949 199.763 77.2581 199.496 77.6083C198.757 78.556 198.757 79.4316 199.496 80.3896C200.183 81.2961 201.097 81.9863 201.959 82.7177C202.904 83.5212 203.735 84.4071 204.156 85.6227C204.936 87.8374 203.879 89.7019 201.764 90.5466C201.107 90.8145 200.409 90.9587 199.68 90.9484V90.9793L199.701 90.9896Z" fill="#DD1C47" stroke="#DD1C47" stroke-width="1.05" stroke-linecap="round" stroke-linejoin="round"/>
<path d="M212.245 84.4071V89.5165C212.245 89.8771 212.337 90.0316 212.717 89.9904C213.087 89.9595 213.456 89.9904 213.836 89.9286C214.247 89.8668 214.596 90.1037 214.668 90.4848C214.719 90.763 214.473 91.1029 214.124 91.2059C213.887 91.278 213.651 91.3192 213.425 91.3192H209.556C209.484 91.3192 209.402 91.3192 209.319 91.3089C208.96 91.2471 208.714 90.9896 208.745 90.6702C208.775 90.3097 209.011 90.1346 209.361 90.114C209.751 90.0831 210.161 90.0625 210.551 90.0522C210.787 90.0522 210.89 89.9492 210.88 89.7122V89.4444C210.88 85.1797 210.88 80.9047 210.89 76.6503C210.89 76.3001 210.798 76.1559 210.418 76.1662C210.038 76.1868 209.638 76.2074 209.268 76.1147C208.858 76.0219 208.632 75.7644 208.673 75.4554C208.714 75.1154 208.95 74.8991 209.371 74.8991C210.808 74.8991 212.235 74.8888 213.672 74.8991C214.175 74.8991 214.483 75.1875 214.473 75.5893C214.452 75.9601 214.134 76.228 213.651 76.228C213.292 76.228 212.943 76.2074 212.584 76.1765C212.266 76.1456 212.173 76.2898 212.183 76.5885C212.194 77.5568 212.214 78.5251 212.235 79.4934C212.266 81.1313 212.235 82.7692 212.235 84.3968H212.255H212.245V84.4071Z" fill="#DD1C47" stroke="#DD1C47" stroke-width="1.05" stroke-linecap="round" stroke-linejoin="round"/>
<path d="M226.462 83.1099C226.462 85.0362 226.442 86.7977 226 88.5283C225.816 89.2494 225.467 89.8572 224.923 90.3825C223.486 91.7629 219.995 91.083 219.657 88.3738C219.595 87.8794 219.544 87.3746 219.513 86.8801C219.41 84.4594 219.4 82.0386 219.431 79.6178C219.431 78.7834 219.523 77.9284 219.841 77.1558C220.314 76.0227 221.237 75.384 222.469 75.1883C223.137 75.0853 223.783 75.1883 224.399 75.4252C225.097 75.6827 225.477 76.2493 225.682 76.9189C226.042 78.0211 226.247 79.1542 226.339 80.2977C226.432 81.2969 226.442 82.2858 226.421 83.1202H226.452L226.462 83.1099ZM220.683 82.0283V84.3563C220.683 85.1289 220.714 85.9118 220.755 86.6844C220.786 87.2304 220.827 87.7866 220.899 88.3223C221.012 89.0846 221.535 89.6306 222.336 89.7748C223.126 89.919 223.886 89.8984 224.409 89.1361C224.615 88.8374 224.738 88.518 224.81 88.1678C225.066 87.0553 225.159 85.9118 225.179 84.7787C225.21 83.3262 225.231 81.8532 225.107 80.3904C225.025 79.35 224.841 78.3301 224.543 77.3309C224.45 77.0013 224.296 76.651 223.947 76.548C223.208 76.3214 222.428 76.2287 221.71 76.6407C221.155 76.9601 220.899 77.4751 220.796 78.0829C220.56 79.3809 220.673 80.6994 220.642 82.018H220.673L220.683 82.0283Z" fill="#DD1C47" stroke="#DD1C47" stroke-width="1.05" stroke-linecap="round" stroke-linejoin="round"/>
<path d="M118.977 84.0371C117.078 84.0783 115.292 84.1504 113.495 84.1504C113.013 84.1504 112.274 84.2122 112.243 83.5323C112.202 82.667 112.972 82.8112 113.557 82.8009C115.353 82.77 117.139 82.7288 118.936 82.6979C119.459 82.6979 120.147 82.6052 120.209 83.2542C120.291 84.2019 119.387 83.9547 118.987 84.0371H118.977Z" fill="#DD1C47" stroke="#DD1C47" stroke-width="1.05" stroke-linecap="round" stroke-linejoin="round"/>
<path d="M160.485 35.9918L160.342 35.9197C160.136 35.8167 159.931 35.7034 159.818 35.6313C159.931 35.5386 160.126 35.3944 160.331 35.2501L160.403 35.1986C162.549 33.6741 163.698 31.892 163.924 29.7493C164.324 25.8452 161.676 19.5511 155.845 18.3871C153.751 17.9647 151.626 17.7381 149.522 17.7278H148.793C148.578 17.7278 148.352 17.7278 148.136 17.7278C147.623 17.7278 147.1 17.7072 146.576 17.7484C145.437 17.8308 144.749 18.4798 144.79 19.4481C144.821 20.3443 145.508 20.9109 146.638 20.9521C147.366 20.983 148.116 21.0036 148.865 20.9521C149.142 20.9315 149.337 20.9624 149.43 21.0551C149.532 21.1478 149.584 21.3744 149.573 21.7247C149.543 23.3523 149.573 25.0108 149.594 26.6074C149.625 28.4823 149.656 30.4189 149.594 32.3246C149.502 35.2192 149.532 38.1654 149.563 41.0085C149.573 42.4301 149.594 43.9032 149.594 45.3453C149.594 47.4365 149.573 49.8778 149.512 52.2677C149.512 52.7004 149.481 53.1021 149.378 53.2154C149.276 53.3184 148.906 53.3287 148.444 53.339C148.27 53.339 148.095 53.339 147.921 53.339C147.428 53.339 146.915 53.3391 146.412 53.3906C145.416 53.5039 144.8 54.091 144.739 54.9975C144.667 55.8937 145.18 56.5427 146.186 56.8106C146.463 56.8827 146.781 56.9239 147.151 56.9239C147.223 56.9239 147.284 56.9239 147.356 56.9239C151.021 56.7899 154.603 56.6457 158.135 56.2234C160.957 55.8937 163.534 54.3692 165.187 52.0514C166.839 49.7439 167.445 46.8184 166.85 44.0474C166.121 40.6274 163.986 37.9285 160.506 36.0433L160.485 35.9918ZM153.474 34.7145C153.176 34.7969 153.084 34.7454 153.074 34.7351C153.043 34.7145 152.981 34.6321 152.981 34.2715C152.981 33.2414 152.981 32.2113 152.981 31.0267C152.981 30.4086 152.981 29.739 152.981 29.0076V28.9046C153.053 27.7818 152.981 26.4735 152.91 25.0829C152.858 24.0836 152.807 23.0432 152.797 22.0131C152.797 21.6114 152.817 21.3744 152.879 21.3332C152.93 21.2817 153.166 21.292 153.567 21.3538C157.57 21.941 159.5 23.8158 160.424 28.0187C160.732 29.3991 160.383 30.5425 159.387 31.5211C157.837 33.0251 155.907 34.0758 153.474 34.7248V34.7145ZM152.961 52.5974C152.981 52.2574 152.971 51.9175 152.961 51.5981C152.961 51.4642 152.961 51.3406 152.961 51.2067V51.1346C153.207 47.9824 153.166 44.7685 153.135 41.6678C153.135 40.8231 153.115 39.9784 153.115 39.1337C153.115 38.7938 153.166 38.5671 153.279 38.4538C153.392 38.3405 153.597 38.289 153.926 38.289H154.121C156.328 38.2787 158.412 38.2684 160.188 39.6797C163.862 42.5949 164.571 46.6227 162.097 50.4444C161.05 52.072 159.315 52.5047 157.765 52.7107C156.903 52.824 156.01 52.8961 155.147 52.9579C154.614 52.9991 154.049 53.0403 153.505 53.0918C153.269 53.1124 153.105 53.0918 153.033 53.0197C152.971 52.9579 152.94 52.8137 152.961 52.5974Z" fill="#DD1C47"/>
<path d="M194.124 52.8341C193.457 52.7414 192.841 52.9474 192.44 53.1123C192.122 53.2462 191.886 53.2668 191.732 53.1947C191.558 53.1122 191.404 52.8753 191.25 52.4324C189.669 47.8998 189.022 43.1613 188.396 38.5876C187.441 31.5621 186.097 25.402 184.269 19.7673L184.218 19.6231C183.951 18.7681 183.613 17.707 182.34 17.707C182.34 17.707 182.34 17.707 182.329 17.707C181.077 17.707 180.81 18.799 180.615 19.5818C180.595 19.654 180.574 19.7261 180.564 19.7982C180.174 21.3124 179.753 22.8473 179.363 24.3307C178.254 28.4718 177.104 32.7468 176.242 37.0321C175.246 42.0488 174.189 47.3951 173.183 52.8135C173.039 53.5964 172.762 53.8127 172.033 53.7612C171.602 53.7303 171.151 53.8024 170.863 53.8539C170.042 54.0084 169.56 54.5544 169.56 55.3579C169.56 56.0996 169.991 56.6147 170.791 56.8104C171.079 56.8825 171.448 56.9546 171.797 56.9237C173.111 56.8207 174.456 56.831 175.76 56.831C176.478 56.831 177.217 56.831 177.956 56.831C178.028 56.831 178.09 56.831 178.162 56.831C178.408 56.831 178.665 56.831 178.921 56.7795C179.855 56.6044 180.389 56.0172 180.369 55.1725C180.369 54.369 179.845 53.8127 178.962 53.6376C178.439 53.5346 177.926 53.5861 177.423 53.6376C177.33 53.6376 177.228 53.6582 177.135 53.6582C176.632 53.6994 176.478 53.6685 176.447 53.6479C176.427 53.6067 176.417 53.4522 176.509 52.968C176.622 52.3912 176.735 51.8246 176.838 51.2477C177.125 49.7747 177.423 48.2604 177.679 46.7564C177.772 46.2413 177.987 46.0559 178.511 46.0559H182.104V46.0353C182.442 46.0353 182.781 46.0353 183.13 46.0353C183.91 46.0353 184.721 46.0559 185.522 46.0147C186.066 45.9838 186.24 46.1486 186.353 46.7461C186.815 49.2081 187.38 51.3404 188.078 53.2565C188.201 53.5758 188.191 53.7097 188.16 53.7715C188.139 53.8127 188.047 53.8951 187.729 53.9569C186.754 54.1321 186.23 54.7913 186.333 55.7081C186.425 56.5219 187.062 56.9958 188.006 56.9958C188.088 56.9958 188.18 56.9958 188.273 56.9855C190.234 56.8207 192.235 56.4601 194.391 55.8833C195.274 55.6566 195.725 55.0592 195.643 54.2351C195.561 53.4522 195.027 52.9474 194.124 52.8238V52.8341ZM185.583 42.6977C185.532 42.7595 185.388 42.7801 185.183 42.7801C183.366 42.708 181.539 42.8007 179.773 42.8935L178.983 42.9347C178.624 42.9553 178.552 42.8935 178.542 42.8729C178.521 42.8523 178.47 42.7595 178.542 42.3681C179.548 37.1763 180.79 31.7064 182.442 25.1857C183.222 27.4932 183.664 29.8212 184.003 31.8403C184.3 33.6739 184.588 35.5487 184.865 37.3514C185.111 38.9481 185.358 40.5963 185.624 42.2136C185.676 42.5432 185.624 42.6565 185.604 42.6874L185.583 42.6977Z" fill="#DD1C47"/>
<path d="M282.712 21.6838V21.5704C282.661 19.3969 281.511 18.1195 279.386 17.8723C278.349 17.7487 277.271 17.6251 276.194 17.6663C275.444 17.6869 274.685 17.7178 273.935 17.7487C271.913 17.8311 270.014 17.9032 268.135 17.8311L266.75 17.7796L266.924 17.8723C266.37 17.8723 265.836 17.8723 265.302 17.8723C263.886 17.8517 262.551 17.8414 261.186 18.0371C259.41 18.2844 258.353 19.3042 258.219 20.8906C258.117 22.1164 258.045 23.4659 258.024 25.0007C258.004 26.2163 258.681 27.0507 259.728 27.0816C260.745 27.1125 261.453 26.3296 261.545 25.0935L261.566 24.7741C261.627 23.9191 261.699 23.0435 261.72 22.1679C261.72 21.7044 261.833 21.6116 262.284 21.6013C263.075 21.6013 263.886 21.6425 264.666 21.6838C265.148 21.7147 265.662 21.7353 266.154 21.7559H266.206C267.13 21.7868 267.694 21.7971 267.879 21.9928C268.074 22.1885 268.084 22.7551 268.115 23.7028V23.7852C268.146 24.6505 268.166 25.5261 268.187 26.3914C268.259 29.3581 268.341 32.4279 268.567 35.4462C268.875 39.5769 268.803 43.7695 268.731 47.8282C268.7 49.5176 268.669 51.2688 268.659 52.9891C268.659 53.329 268.577 53.4114 268.259 53.4114H268.084C267.581 53.4114 267.058 53.4114 266.544 53.5969C265.713 53.9162 265.272 54.524 265.302 55.3275C265.343 56.1722 265.857 56.749 266.719 56.9139C266.996 56.9654 267.283 56.9757 267.561 56.9963C267.848 57.0066 268.146 57.0169 268.433 57.0169C269.398 57.0169 270.363 56.9551 271.307 56.8932C272.19 56.8417 273.094 56.7799 273.987 56.7799C274.336 56.7799 274.674 56.6872 275.075 56.5018C275.814 56.1413 276.194 55.5232 276.132 54.7506C276.07 53.9368 275.578 53.3599 274.736 53.1436C274.171 52.9994 273.555 52.9891 272.899 53.1127C272.591 53.1745 272.498 53.1127 272.478 53.1127C272.457 53.1127 272.396 53.0097 272.416 52.6904C272.488 51.3409 272.539 50.1975 272.56 49.0437C272.632 43.5429 272.662 38.1554 272.252 32.809C272.108 30.996 272.005 29.1418 271.913 27.3597C271.821 25.7218 271.728 24.0324 271.605 22.3636C271.585 22.0546 271.605 21.8486 271.687 21.7662C271.759 21.6941 271.923 21.6529 272.211 21.6529C272.991 21.6529 273.781 21.6529 274.551 21.6425C275.413 21.6425 276.307 21.6219 277.179 21.6322C277.354 21.6322 277.508 21.6322 277.662 21.6322C278.247 21.6322 278.667 21.6322 278.821 21.7971C278.996 21.9825 279.027 22.4872 278.924 23.3835C278.863 23.9294 279.027 24.4754 279.386 24.8977C279.725 25.2995 280.197 25.5467 280.679 25.5776C281.716 25.6394 282.537 24.8874 282.671 23.744C282.753 23.0744 282.733 22.3842 282.722 21.725L282.712 21.6838Z" fill="#DD1C47"/>
<path d="M251.732 24.5169C252.461 24.8877 253.231 24.7023 253.744 24.0327C254.545 22.9717 254.75 21.6532 254.37 20.005C254.062 18.6761 252.923 18.295 251.886 18.0477C250.11 17.6254 248.324 17.6357 246.332 17.6975H244.167C242.678 17.6975 241.662 18.0168 240.995 18.6658C240.307 19.3354 239.989 20.3346 239.999 21.818C240.019 26.3505 239.999 32.3149 239.609 38.2381C239.568 38.9386 239.516 39.6288 239.465 40.3292C239.342 42.1628 239.208 44.0686 239.137 45.9434C239.044 48.4466 238.972 51.1146 239.055 53.7723C239.106 55.5029 240.04 56.43 241.908 56.5948C242.565 56.6566 243.232 56.6875 243.746 56.7081C244.392 56.7287 245.029 56.7596 245.676 56.7905C247.256 56.8627 248.878 56.9348 250.49 56.9451C250.49 56.9451 250.5 56.9451 250.51 56.9451C252.43 56.9451 253.59 55.9458 253.867 54.0607C254.072 52.7113 253.867 51.3721 253.693 50.0845L253.651 49.7651C253.498 48.7041 252.45 48.0242 251.619 48.1272C250.705 48.2406 250.018 49.1059 249.997 50.136C249.987 50.9395 250.038 51.7327 250.09 52.464C250.131 52.9276 250.089 53.0718 250.069 53.1027C250.038 53.1336 249.894 53.1645 249.433 53.1439L248.468 53.0821C246.877 52.9894 245.234 52.8864 243.602 52.8555C242.945 52.8349 242.801 52.701 242.801 52.0314C242.801 47.9624 243.058 43.9037 243.335 39.7524C243.366 39.1961 243.52 39.1137 244.054 39.1137C245.265 39.1137 246.476 39.0416 247.616 38.9695C248.611 38.918 249.381 38.2175 249.412 37.3522C249.453 36.456 248.95 35.807 248.006 35.5186C247.657 35.4156 247.246 35.3641 246.743 35.3744C246.384 35.3847 246.025 35.4156 245.686 35.4465C245.347 35.4774 244.998 35.5083 244.659 35.5186C244.167 35.5392 243.705 35.5495 243.612 35.4568C243.52 35.3641 243.551 34.8387 243.581 34.3751C243.797 31.2024 243.982 27.8339 243.766 24.5169C243.725 23.8885 243.746 23.2395 243.756 22.6112C243.756 22.4257 243.756 22.2403 243.766 22.0652C243.766 21.5192 243.92 21.5192 244.084 21.5192C244.762 21.5089 245.45 21.4574 246.117 21.4059C247.349 21.3132 248.622 21.2205 249.864 21.375C250.356 21.4368 250.777 21.4883 250.849 21.6017C250.931 21.715 250.88 22.1476 250.808 22.6936C250.705 23.5383 251.024 24.177 251.722 24.5375L251.732 24.5169Z" fill="#DD1C47"/>
<path d="M210.856 47.983C209.758 48.1891 209.142 49.1162 209.265 50.3626C209.286 50.5171 209.296 50.6614 209.306 50.8159C209.337 51.2176 209.378 51.6297 209.481 52.0314C209.583 52.4126 209.532 52.5465 209.481 52.598C209.409 52.6907 209.173 52.7319 208.793 52.7216C206.832 52.6598 204.913 52.7628 203.075 53.0306C202.747 53.0821 202.665 53.01 202.655 52.9997C202.644 52.9894 202.583 52.907 202.634 52.598C202.675 52.3713 202.685 52.1447 202.706 51.9284C202.706 51.8151 202.716 51.7018 202.737 51.5885C203.086 48.2715 203.209 45.7374 203.147 43.3784C203.116 42.2659 203.086 41.1636 203.055 40.0511C202.952 36.4766 202.839 32.7888 202.839 29.1524H202.85V23.5692C202.85 22.8893 203.024 22.3846 203.342 22.0652C203.661 21.7459 204.163 21.5914 204.82 21.5914C204.841 21.5914 204.862 21.5914 204.872 21.5914C205.847 21.5914 206.72 20.9321 206.894 20.0565C207.089 19.1088 206.535 18.2435 205.519 17.9138C205.169 17.8108 204.769 17.749 204.276 17.749C203.075 17.749 201.844 17.749 200.663 17.749C199.903 17.749 199.144 17.749 198.384 17.749C197.912 17.749 197.419 17.749 196.937 17.7696C195.951 17.8314 195.336 18.4083 195.192 19.3766C195.069 20.2522 195.623 21.0042 196.608 21.2823C197.235 21.4678 197.799 21.5296 198.333 21.4678C198.702 21.4266 198.928 21.4678 199.031 21.5605C199.134 21.6635 199.175 21.9004 199.154 22.2815C199 24.589 198.969 26.8965 198.959 28.8434C198.928 32.284 198.969 35.7761 199.082 39.227C199.216 43.4402 199.257 48.4054 198.62 53.2573C198.456 54.514 198.661 55.4617 199.236 56.1004C199.78 56.7082 200.673 57.0172 201.864 57.0172C201.936 57.0172 201.998 57.0172 202.069 57.0172C203.845 56.9657 205.652 56.873 207.397 56.7906C208.29 56.7494 209.183 56.6979 210.086 56.6566C212.139 56.5742 213.382 55.3381 213.474 53.2779C213.525 52.0417 213.32 50.8262 213.084 49.6827C212.838 48.529 211.883 47.8079 210.856 48.0036V47.983Z" fill="#DD1C47"/>
<path d="M230.432 47.9205C229.333 48.1266 228.717 49.0537 228.84 50.3001C228.861 50.4546 228.871 50.6092 228.882 50.7637C228.912 51.1654 228.953 51.5672 229.056 51.9689C229.159 52.3501 229.107 52.484 229.056 52.5355C228.984 52.6282 228.748 52.6694 228.368 52.6591C226.408 52.5973 224.488 52.7003 222.651 52.9681C222.322 53.0093 222.24 52.9475 222.23 52.9372C222.219 52.9269 222.158 52.8445 222.209 52.5355C222.25 52.3088 222.26 52.0822 222.281 51.8659C222.281 51.7526 222.291 51.6393 222.312 51.526C222.661 48.209 222.784 45.6749 222.722 43.3159C222.692 42.2034 222.661 41.0908 222.63 39.9886C222.527 36.4141 222.414 32.7263 222.414 29.0796H222.425V23.5067C222.425 22.8268 222.599 22.3221 222.917 22.0027C223.236 21.6834 223.739 21.5289 224.396 21.5289C224.416 21.5289 224.437 21.5289 224.447 21.5289C225.422 21.5289 226.295 20.8696 226.469 19.994C226.664 19.0463 226.11 18.181 225.094 17.8513C224.745 17.7483 224.344 17.6865 223.852 17.6865C222.651 17.6865 221.419 17.6865 220.238 17.6865C219.479 17.6865 218.719 17.6865 217.959 17.6865C217.487 17.6865 216.995 17.6865 216.522 17.7071C215.537 17.7689 214.921 18.3458 214.777 19.3141C214.654 20.1897 215.208 20.9417 216.194 21.2198C216.82 21.4053 217.385 21.4671 217.918 21.4053C218.288 21.3641 218.514 21.4053 218.616 21.498C218.719 21.601 218.76 21.8379 218.74 22.219C218.586 24.5265 218.555 26.834 218.545 28.7809C218.514 32.2215 218.555 35.7136 218.668 39.1645C218.801 43.3777 218.842 48.3429 218.206 53.1948C218.042 54.4515 218.247 55.3992 218.822 56.0379C219.366 56.6457 220.259 56.9547 221.45 56.9547C221.521 56.9547 221.583 56.9547 221.655 56.9547C223.441 56.9032 225.248 56.8105 227.003 56.7281C227.896 56.6869 228.789 56.6353 229.682 56.5941C231.745 56.5117 232.977 55.2756 233.07 53.2154C233.121 51.9895 232.916 50.7637 232.68 49.6202C232.443 48.4665 231.479 47.7454 230.452 47.9411L230.432 47.9205Z" fill="#DD1C47"/>
<path d="M83.25 52.6283C83.1473 52.721 82.7881 52.7416 82.3261 52.7416C82.1516 52.7416 81.9771 52.7416 81.8026 52.7416C81.3099 52.7416 80.7966 52.7416 80.2936 52.7931C79.2877 52.8962 78.6615 53.4936 78.5999 54.4104C78.528 55.3169 79.0413 55.9659 80.0575 56.244C80.345 56.3162 80.6632 56.3574 81.0225 56.3574C81.0943 56.3574 81.1559 56.3574 81.2278 56.3574C84.8924 56.2234 88.4647 56.0792 92.0061 55.6569C94.8393 55.3272 97.4056 53.8027 99.0685 51.4746C100.721 49.1568 101.327 46.2313 100.742 43.45C100.013 40.0197 97.8675 37.3208 94.3774 35.4356L94.2234 35.3532C94.0386 35.2605 93.8538 35.1575 93.7409 35.0854C93.8538 34.9927 94.0386 34.8588 94.2131 34.7351L94.2952 34.6733C96.4509 33.1488 97.6006 31.3667 97.8264 29.2137C98.237 25.3096 95.5886 19.0052 89.7375 17.8309C87.3971 17.357 85.0156 17.1407 82.6854 17.1819C82.4698 17.1819 82.2543 17.1819 82.0284 17.1819C81.5152 17.1819 80.9917 17.1613 80.4681 17.2025C79.3185 17.2849 78.6204 17.9442 78.6615 18.9228C78.7025 19.8293 79.4006 20.3959 80.5297 20.4371C81.2586 20.468 82.0079 20.4886 82.7573 20.4371C83.0344 20.4165 83.2192 20.4474 83.3013 20.5298C83.404 20.6225 83.445 20.8388 83.4348 21.1788C83.404 22.8064 83.4348 24.4649 83.4553 26.0615C83.4861 27.9364 83.5169 29.873 83.4553 31.7684C83.3629 34.663 83.3937 37.6092 83.4245 40.4523C83.4348 41.8739 83.4553 43.3469 83.4553 44.7891C83.4553 46.8803 83.4348 49.3113 83.3732 51.7012C83.3629 52.1133 83.3424 52.5356 83.2397 52.6386L83.25 52.6283ZM86.8736 52.0618C86.8941 51.7218 86.8838 51.3819 86.8736 51.0625C86.8736 50.908 86.8736 50.7432 86.8736 50.5887C87.1097 47.4365 87.0789 44.2329 87.0378 41.1425C87.0378 40.2978 87.0173 39.4531 87.0173 38.6084C87.0173 37.9491 87.1815 37.774 87.818 37.774H87.9822C90.1995 37.7637 92.2935 37.7431 94.0694 39.1544C97.7341 42.0593 98.4423 46.0768 95.9787 49.8882C94.9214 51.5055 93.2071 51.9381 91.6571 52.1442C90.7948 52.2575 89.9018 52.3296 89.0395 52.3914C88.5057 52.4326 87.9411 52.4738 87.3971 52.5253C87.1713 52.5459 87.007 52.5253 86.9352 52.4635C86.8736 52.4017 86.853 52.2575 86.8633 52.0515L86.8736 52.0618ZM87.3766 34.1686C87.0789 34.251 86.9968 34.1995 86.9968 34.1892C86.9762 34.1789 86.9146 34.0965 86.9146 33.7359C86.9146 32.7058 86.9146 31.6757 86.9146 30.4911C86.9146 29.8421 86.9146 29.1416 86.9146 28.3587C86.9762 27.2359 86.9146 25.9276 86.8428 24.5473C86.7915 23.548 86.7401 22.5179 86.7299 21.4775C86.7299 20.9521 86.7812 20.8388 86.8017 20.8079C86.8325 20.777 86.9865 20.7564 87.4792 20.8285C91.4826 21.426 93.4022 23.2905 94.326 27.4831C94.634 28.8532 94.2952 29.9966 93.2893 30.9752C91.7598 32.4792 89.8197 33.5196 87.3868 34.1686H87.3766Z" fill="#DD1C47"/>
<path d="M121.703 51.4235C122.083 50.4346 121.673 49.3736 120.728 48.9204C119.856 48.498 118.88 48.8585 118.306 49.8063C118.172 50.0329 118.039 50.2595 117.916 50.4861C117.731 50.8261 117.546 51.1557 117.341 51.4441C116.365 52.8039 115.154 53.1748 113.522 52.6185C111.438 51.8974 110.196 50.3831 109.601 47.8593C109.252 46.376 109.231 44.8411 109.211 43.3474C109.2 42.3482 109.18 41.3181 109.067 40.3086V40.288C109.19 39.1548 109.2 38.0114 109.221 36.9195C109.221 36.3426 109.241 35.7554 109.262 35.1786C109.375 32.4899 109.488 29.6983 110.186 27.02C110.72 25.0113 111.52 22.7553 113.512 21.2719C114.836 20.283 115.862 20.3139 117.176 21.3853C117.69 21.8076 118.162 22.2815 118.675 22.8171C119.455 23.6103 120.482 23.6618 121.241 22.9304C121.785 22.4051 122.217 21.5295 121.19 20.3757L121.108 20.283C120.749 19.8813 120.389 19.4692 119.979 19.0881C118.952 18.1198 117.679 17.1103 116.016 16.9042C112.834 16.5231 110.72 18.5009 109.395 20.0255C107.989 21.6531 107.024 23.6927 106.357 26.4328C105.7 29.173 105.536 31.8616 105.392 35.0858C105.218 38.9282 105.012 43.2856 105.669 47.5709C106.316 51.8253 108.389 54.6478 112.023 56.193C112.937 56.5741 113.851 56.7699 114.764 56.7699C115.678 56.7699 116.478 56.5947 117.3 56.2445C119.25 55.4101 120.903 53.6074 121.724 51.4235H121.703Z" fill="#DD1C47"/>
<path d="M61.0057 20.6745C61.8987 20.8909 62.8021 20.8497 63.6746 20.8085H63.7362C64.0339 20.7982 64.2392 20.8394 64.3316 20.9218C64.4342 21.0248 64.4855 21.2411 64.4855 21.612C64.4548 31.6453 64.4548 41.8332 64.4548 51.6915C64.4548 51.7636 64.4548 51.8254 64.4548 51.8975C64.4548 52.0417 64.4548 52.1962 64.4548 52.3507C64.4548 52.4743 64.4548 52.6289 64.3829 52.701C64.311 52.7834 64.1365 52.804 64.0134 52.804C63.0998 52.8349 62.1759 52.8864 61.2623 52.9688C60.2666 53.0512 59.6507 53.6384 59.5583 54.5758C59.4659 55.472 60.1434 56.2446 61.1494 56.4197C61.3547 56.4609 61.56 56.4609 61.755 56.4609C63.7465 56.4609 65.7482 56.4609 67.7396 56.4506H70.6241C71.1476 56.4506 71.6917 56.3476 72.3384 56.1519C73.293 55.8531 73.9602 54.9054 73.796 54.0813C73.5907 52.9997 72.636 52.3404 71.5171 52.5156C71.045 52.5877 70.583 52.598 70.08 52.6083C69.7208 52.6083 69.3512 52.6186 68.9817 52.6495C68.6942 52.6804 68.4992 52.6495 68.3966 52.5568C68.2939 52.4641 68.2426 52.2271 68.2426 51.846C68.2631 48.941 68.2631 45.9743 68.2631 43.1209C68.2631 42.0289 68.2631 40.937 68.2631 39.8554H68.2323C68.2323 38.6913 68.2323 37.5273 68.2426 36.3633C68.2528 33.7262 68.2734 30.9964 68.2118 28.318L68.181 26.608C68.1502 24.9289 68.1091 23.1983 68.0886 21.4883C68.0886 21.1896 68.1194 21.0042 68.2015 20.9218C68.2939 20.8394 68.5095 20.8291 68.6634 20.8497C69.577 20.9321 70.3983 20.9733 71.1579 20.9733C72.3999 20.9733 73.3033 20.2316 73.3443 19.1603C73.3649 18.6452 73.2006 18.1817 72.8619 17.8211C72.4718 17.4091 71.8867 17.1824 71.1989 17.1824C68.3042 17.1618 65.163 17.1618 61.3136 17.1824C60.205 17.1824 59.4864 17.7799 59.3838 18.7688C59.2811 19.6959 59.8868 20.4067 61.0057 20.6745Z" fill="#DD1C47"/>
<path d="M315.711 64.4361L317.528 56.5042C318.051 55.268 319.981 54.1658 320.813 53.3005C323.861 50.1896 325.914 46.4605 327.978 42.7315C328.563 41.7426 328.902 40.6918 328.963 39.5278C328.994 38.6831 328.85 37.9002 328.091 37.4058C327.31 36.9731 326.551 37.3234 325.914 37.8384C323.769 39.5278 321.449 41.073 319.971 43.4011C319.766 43.7204 319.56 43.8749 319.283 44.2664C319.17 44.4415 318.739 45.0493 318.205 45.894L318.37 37.8899C318.4 35.4073 319.027 32.08 317.784 28.1347C317.784 28.1141 317.774 28.1038 317.764 28.0832C317.692 27.8566 317.61 27.6299 317.528 27.4033C317.507 27.3312 317.497 27.2694 317.466 27.187C317.189 26.0951 317.672 24.2614 317.723 23.0871C317.826 18.431 316.337 14.259 314.027 10.293C313.34 9.13928 312.621 7.88253 311.441 7.07904C310.414 6.39916 309.244 5.81199 308.217 6.46097C307.181 7.03783 306.996 8.36669 307.006 9.58223C307.016 10.0252 307.17 10.499 307.324 10.9317C308.556 14.7019 309.819 18.4516 311.03 22.2424C311.595 23.8597 312.518 25.1988 314.161 25.7242C315.27 26.0744 315.331 26.5998 315.588 27.5681C316.902 32.214 316.471 34.5935 316.163 38.199C315.27 37.6324 314.366 37.1997 314.366 37.1997C312.159 36.4684 310.445 35.9224 308.761 35.5103C307.283 35.1292 305.394 34.9232 304.789 36.592C304.183 38.3947 305.487 39.7956 307.17 40.5476C308.649 41.2172 310.27 41.9177 311.903 42.1443C314.541 42.5049 315.382 42.9478 315.711 44.1943C315.629 45.4922 315.567 46.7593 315.557 47.604C315.557 47.604 315.557 47.6246 315.557 47.6658C315.557 48.6032 315.557 49.5509 315.536 50.4986C315.536 50.5192 315.536 50.5398 315.526 50.5604C315.526 50.6222 315.495 50.6428 315.495 50.7046L315.536 50.6119C315.506 52.4455 315.372 54.3306 314.849 56.3806C314.849 56.3806 314.849 56.4424 314.828 56.5557C314.787 57.3386 314.53 60.4908 313.945 62.2832C313.945 62.345 313.915 62.3965 313.894 62.4583V62.4892C313.73 63.1897 313.432 63.8695 313.206 64.5391C312.734 66.0843 312.262 67.6295 311.636 69.2571L311.718 68.9068C311.8 67.681 311.061 64.8482 310.794 63.8798C310.773 63.8077 310.773 63.7562 310.753 63.715C310.732 63.6223 310.712 63.5502 310.712 63.5502C309.685 62.2729 309.583 60.944 309.141 59.7388C308.453 57.9258 307.273 56.5866 305.507 55.814C303.198 54.7633 301.781 55.5668 301.566 58.0906C301.186 62.8188 302.992 66.6715 306.955 69.0614C309.069 70.3078 309.429 71.6573 308.792 73.7484C308.577 74.4695 308.371 75.1906 308.156 75.9013C308.156 75.9013 308.156 75.9185 308.156 75.9529C307.817 77.0757 307.519 78.3118 307.252 79.548C306.021 81.9997 304.142 85.6875 303.701 86.6043C303.362 87.3048 303.003 88.1598 303.855 88.6439C304.738 89.1796 305.364 88.4688 305.579 87.7065C305.631 87.5314 305.805 87.14 306.021 86.6764C305.99 86.8721 305.98 86.9751 305.98 86.9751C307.191 83.5757 309.09 81.4537 312.447 80.2588C316.039 78.9814 318.678 76.4061 320.279 72.8728C320.772 71.75 321.398 70.5344 320.31 69.4425C319.252 68.3609 317.887 68.2476 316.471 68.7214C315.331 69.1026 314.51 69.8648 313.73 70.7095C314.397 68.5875 315.013 66.5891 315.649 64.6524L315.68 64.4773L315.711 64.4361Z" fill="#DD1C47"/>
<path d="M23.9595 25.2087C23.1794 27.135 21.5575 30.4108 21.2393 36.2824C21.8141 62.3445 29.9749 74.7986 30.4984 75.5712L30.5292 75.6021C31.1861 76.2614 35.6207 83.5752 36.0313 84.7496C36.2468 85.4604 36.8525 86.1196 37.6634 85.5943C38.423 85.0792 38.0946 84.3375 37.7455 83.6782C37.1502 82.5039 32.5925 74.9119 31.9663 73.7376C31.8842 73.6037 31.8328 73.4904 31.8021 73.3874C31.8021 73.3564 31.7713 73.3564 31.7713 73.3358C29.2974 69.5347 27.5523 65.1155 26.3513 60.7375C26.1049 60.14 25.8586 59.5322 25.8893 58.9348C25.4274 57.0806 25.0681 55.2469 24.8012 53.4957C24.3085 51.6415 24.1751 49.8903 24.093 48.2009V47.9846C23.4976 42.0614 23.6824 37.7967 23.6824 37.7967C23.282 31.5233 25.1913 28.4535 25.9509 26.3006C25.9509 26.3006 26.649 24.6524 28.1374 23.7253C28.4351 23.5399 26.341 21.9844 26.341 21.9844C26.341 21.9844 24.5652 23.715 23.9595 25.2293V25.2087Z" fill="#DD1C47"/>
<path d="M34.8922 75.4269C33.917 76.3849 33.7733 76.9824 34.379 77.6932C34.3482 79.3001 33.2601 79.3619 32.716 79.2795C32.6647 79.228 32.6031 79.1662 32.5518 79.1456C32.521 79.1147 32.5005 79.1147 32.5005 79.1147C31.4124 78.4039 30.2935 78.2391 28.7126 78.5997C24.9864 79.4444 21.4963 78.4657 18.6426 75.8389C17.0412 74.335 17.3902 73.4594 19.5151 72.831C21.7221 72.1717 24.0933 72.6147 26.5159 71.6051L26.5467 71.5742C26.5467 71.5742 27.5835 70.9974 29.0822 71.873C29.462 70.3381 29.7083 69.4934 29.9034 68.6178C30.6425 65.1463 31.864 61.9529 34.4816 59.4703C36.4423 57.6367 38.1257 58.0797 38.7314 60.6756C40.035 66.2176 39.1625 71.327 34.923 75.4269H34.8922Z" fill="#DD1C47"/>
<path d="M35.3129 43.1228C33.2393 47.0063 31.2684 51.1268 26.5568 52.6308C24.9657 53.1252 24.6064 54.1862 25.2018 55.7417L25.2326 55.8138C24.9246 56.2671 24.1137 57.1736 23.2719 56.2774C22.1222 52.023 21.1778 47.7068 20.254 43.4215C19.8742 41.7218 19.1351 40.9595 17.4824 40.7947C14.7108 40.5063 12.7913 38.8787 11.5594 36.4064C10.071 33.3881 7.66897 30.9055 6.30371 27.125C10.8717 27.8152 14.0539 30.4214 17.7698 33.3881C17.7698 33.3881 20.5825 36.8905 21.4961 40.0633C22.0709 42.721 22.7792 45.4199 23.662 48.16C24.6988 46.3367 25.4789 44.8843 26.3104 43.4627C27.6757 41.1449 29.4618 39.4761 32.3258 39.198C34.9947 38.9405 36.5755 40.7638 35.3437 43.1125L35.3129 43.1228Z" fill="#DD1C47"/>
<path d="M36.0108 7.49051C35.7952 14.6086 33.1571 20.4082 27.0596 24.3227C27.0596 24.3227 26.6593 24.7141 26.1357 25.0128C25.2427 25.5794 23.9082 25.909 23.4873 23.6016C22.8304 19.955 24.5241 16.1847 24.5241 16.1847C25.448 14.0833 26.3513 12.6205 27.2752 11.2504C29.0408 8.62364 31.6584 7.25358 34.5839 6.25436C35.9594 5.82171 36.0313 6.34707 36.0108 7.48021V7.49051Z" fill="#DD1C47"/>
</svg>
