<svg width="299" height="60" viewBox="0 0 299 60" fill="none" xmlns="http://www.w3.org/2000/svg">
<g clip-path="url(#clip0_5592_250)">
<path d="M136.958 46.9258C136.958 47.3865 136.633 47.7449 136.163 47.833L136.153 47.834H136.107C136.071 47.8416 136.036 47.8452 136.003 47.8457L136.013 47.9395L136.014 47.9463L136.076 50.0205V50.0215C136.094 50.9899 136.119 51.9997 136.181 52.9844L136.212 53.4834C136.293 54.6552 136.374 55.8816 136.349 57.0898C136.349 57.366 136.303 57.6116 136.212 57.8564V57.8574C136.066 58.2338 135.793 58.4855 135.452 58.542L135.453 58.543C135.123 58.5999 134.772 58.4423 134.519 58.1318L134.517 58.1299V58.1289C134.222 57.7489 134.018 57.4208 133.876 57.0771L133.5 56.1895C133.372 55.8935 133.243 55.5977 133.113 55.3018V55.3008C132.473 53.8333 131.806 52.3126 131.264 50.7725V50.7715C131.253 50.7399 131.244 50.7081 131.233 50.6768L131.216 50.9365C131.188 51.4712 131.148 52.0104 131.102 52.5469L130.956 54.1416C130.875 55.0308 130.875 55.9335 130.875 56.8164V57.3408C130.875 57.4806 130.879 57.6466 130.85 57.8193L130.808 57.9941C130.702 58.3241 130.491 58.5778 130.205 58.6963L130.206 58.6973C130.092 58.7467 129.972 58.7666 129.849 58.7666C129.67 58.7666 129.492 58.7192 129.325 58.6328L129.322 58.6309C128.951 58.4252 128.614 58.2005 128.333 58.0088V58.0098C127.953 57.7578 127.841 57.2481 128.073 56.8574C128.269 56.5105 128.65 56.3664 129.039 56.4717C128.97 55.3566 129.076 54.2551 129.177 53.1914C129.209 52.8622 129.246 52.532 129.271 52.2002L129.395 50.2891V50.2881L129.451 49.4492V49.4482C129.494 48.8401 129.532 48.2019 129.683 47.5693C129.723 47.3889 129.779 47.1455 129.908 46.9355C130.04 46.72 130.248 46.5397 130.585 46.4883V46.4873C131.218 46.3918 131.594 46.8597 131.8 47.1064L131.877 47.2012C131.999 47.3642 132.081 47.5465 132.14 47.7109L132.201 47.8965V47.8975C132.777 49.8699 133.581 51.7962 134.379 53.6709L134.317 52.8633V52.8623C134.301 52.6396 134.287 52.4151 134.275 52.1914L134.249 51.5254C134.23 50.9203 134.217 50.3153 134.205 49.7109L134.186 48.8477L134.173 48.5254C134.169 48.418 134.164 48.3095 134.161 48.2012L134.144 47.7588C134.139 47.6115 134.136 47.4637 134.136 47.3145C134.136 46.8701 134.26 46.5197 134.522 46.2734C134.777 46.0342 135.136 45.9237 135.567 45.9561L135.566 45.957C135.665 45.9633 135.76 45.9716 135.855 45.9834L136.141 46.0254L136.201 46.0352L136.208 46.0576C136.631 46.1481 136.938 46.4909 136.958 46.9209V46.9258Z" fill="#DD1C47" stroke="#DD1C47" stroke-width="0.2"/>
<path d="M218.868 45.5127C219.389 45.4769 219.702 45.7844 219.878 46.0303L220.011 46.2412L220.012 46.2422C220.187 46.5579 220.344 46.8762 220.504 47.1816V47.1826C220.668 47.5006 220.831 47.8125 221 48.124C221.274 47.6511 221.53 47.1739 221.794 46.6982L222.025 46.2852C222.146 46.0635 222.336 45.7826 222.695 45.6592H222.696C222.976 45.5675 223.258 45.5957 223.496 45.7285C223.733 45.8609 223.921 46.0932 224.027 46.3994H224.028C224.138 46.7188 224.19 47.0414 224.228 47.3535L224.262 47.6621V47.6631C224.331 48.3687 224.369 49.0677 224.406 49.7705L224.456 50.6279L224.503 51.5215C224.545 52.4176 224.569 53.3185 224.592 54.1973C224.61 54.8914 224.628 55.5794 224.657 56.2666C224.895 56.254 225.103 56.2918 225.292 56.3799L225.292 56.3828C225.563 56.5151 225.715 56.6878 225.793 56.8633C225.872 57.0376 225.873 57.2052 225.859 57.3213V57.3223C225.811 57.7094 225.571 58.0128 225.218 58.1289L225.061 58.167C224.801 58.2092 224.565 58.2344 224.343 58.2441L224.125 58.249H223.976C223.456 58.2489 223.061 57.9383 222.881 57.4102L222.88 57.4092C222.808 57.1877 222.765 56.9633 222.743 56.7012L222.727 56.4248C222.715 56.11 222.704 55.7936 222.693 55.4775C222.682 55.1614 222.671 54.8455 222.659 54.5312V54.3135L222.616 52.8633C222.571 51.5882 222.511 50.4137 222.438 49.3105C222.32 49.5266 222.212 49.7283 222.114 49.9189L222.115 49.9199C222.028 50.0926 221.932 50.2772 221.822 50.4375L221.821 50.4365C221.583 50.7907 221.255 50.9897 220.882 50.9688C220.514 50.9476 220.213 50.7076 220.016 50.3291V50.3281L219.38 49.1055L219.372 49.1943V49.1953C219.179 50.8919 218.987 52.6066 218.819 54.3086C218.732 55.1722 218.645 56.0943 218.626 57.0029C218.626 57.3177 218.545 57.5759 218.372 57.7617C218.198 57.9477 217.944 58.0466 217.626 58.0693H217.625C217.283 58.0878 216.94 58.1068 216.604 58.1191H216.6C216.446 58.1191 216.215 58.1209 215.99 57.9883L215.983 57.9844L216.041 57.9023L215.983 57.9834C215.842 57.884 215.415 57.6144 215.507 57.0703C215.577 56.6446 215.892 56.3514 216.321 56.3154L216.568 56.292C216.649 56.2861 216.733 56.2814 216.815 56.2783C216.929 53.7242 217.19 51.0364 217.651 47.5674C217.695 47.2297 217.764 46.8926 217.838 46.5586C217.906 46.2475 218.025 45.9986 218.199 45.8203C218.374 45.6406 218.599 45.5394 218.865 45.5127L218.868 45.5117V45.5127Z" fill="#DD1C47" stroke="#DD1C47" stroke-width="0.2"/>
<path d="M113.62 51.5215C113.662 51.5192 113.705 51.5173 113.747 51.5146C113.82 51.5101 113.894 51.5051 113.966 51.502L114.079 51.4912C114.333 51.4523 114.523 51.3268 114.67 51.1025L114.672 51.1016C114.96 50.6857 115.094 50.2319 115.071 49.7939V49.793L115.052 49.4043L115.047 49.2998H115.05C115.003 48.9842 114.904 48.7488 114.742 48.5654C114.56 48.3602 114.29 48.2094 113.898 48.0889V48.0879C113.837 48.0706 113.774 48.0564 113.709 48.0439L113.51 48.0117C113.502 48.0105 113.493 48.0083 113.485 48.0068C113.532 49.2155 113.578 50.3667 113.62 51.5215ZM113.723 56.7021C113.986 56.7415 114.177 56.8479 114.307 56.9912C114.45 57.1495 114.512 57.3448 114.519 57.5215H114.518C114.558 58.0092 114.167 58.4206 113.634 58.4746L113.635 58.4756C113.178 58.5315 112.716 58.5625 112.254 58.5811H112.219C111.752 58.5811 111.32 58.2348 111.256 57.7803L111.249 57.6982C111.229 57.3181 111.471 56.9955 111.85 56.8574L111.758 52.2705L111.697 49.2666L111.634 47.249V47.248C111.625 46.9814 111.677 46.7573 111.805 46.5801C111.934 46.4024 112.131 46.2838 112.384 46.2119C113.322 45.9506 114.363 46.1306 115.254 46.6865C116.127 47.2304 116.718 48.068 116.878 48.9873L116.92 49.2676C117.088 50.657 116.637 51.8678 115.604 52.7812C115.561 52.8205 115.522 52.8524 115.491 52.8799C115.509 52.9203 115.528 52.9622 115.546 53.0029L115.888 53.7188C116.35 54.684 116.832 55.6856 117.187 56.7295C117.303 56.7317 117.419 56.74 117.542 56.7676L117.541 56.7734C117.952 56.9049 118.192 57.2289 118.192 57.624C118.192 58.1039 117.887 58.4771 117.434 58.5L117.435 58.501L117.093 58.5312C116.797 58.5557 116.481 58.5879 116.165 58.5879C116.007 58.5879 115.847 58.5815 115.681 58.5625V58.5615C115.192 58.519 114.847 58.1579 114.847 57.667C114.847 57.3363 115.003 57.0629 115.269 56.9102C115.004 56.1963 114.709 55.5072 114.446 54.9199L114.083 54.1201C113.974 53.8763 113.866 53.6324 113.76 53.3896C113.726 53.3942 113.693 53.399 113.662 53.4033V54.0166L113.708 54.0625L113.71 54.0996L113.723 54.2598L113.724 54.2676H113.723V56.7021Z" fill="#DD1C47" stroke="#DD1C47" stroke-width="0.2"/>
<path d="M103.23 45.9248C104.004 45.9062 104.928 45.9302 105.829 46.2705C106.881 46.663 107.615 47.3816 108.002 48.4043L108.019 48.3887L108.069 48.541C108.315 49.2722 108.459 50.0527 108.503 50.9307C108.59 52.6668 108.441 53.9953 108.007 55.2266L108.006 55.2275C107.527 56.5274 106.82 57.4487 105.84 58.0488L105.838 58.0498C105.206 58.4234 104.475 58.6289 103.544 58.6914L103.545 58.6924C103.386 58.7045 103.24 58.7226 103.077 58.7412L103.076 58.7402C103.006 58.7532 102.937 58.7539 102.879 58.7539C102.363 58.7539 101.945 58.4638 101.86 57.9805V57.9795C101.756 57.4564 102.132 56.9931 102.718 56.8428L102.721 56.8418C102.755 56.8344 102.787 56.8265 102.817 56.8193C102.847 56.8122 102.877 56.8049 102.905 56.7988C102.929 56.7938 102.952 56.7888 102.976 56.7852C102.958 55.9145 102.952 55.1094 102.94 54.3066V54.3057L102.909 51.9863C102.897 50.9806 102.885 49.9758 102.854 48.9775V48.9766C102.847 48.6782 102.823 48.3852 102.798 48.0889L102.782 47.8789C102.78 47.8391 102.776 47.7993 102.773 47.7598H102.35C101.817 47.7196 101.433 47.3656 101.412 46.8809V46.876C101.412 46.3733 101.794 45.9672 102.286 45.9258L102.292 45.9248H103.23ZM104.669 48.1006L104.728 48.7383L104.769 49.3828V49.3838C104.8 50.3281 104.825 51.267 104.85 52.2109L104.887 53.6172V53.6182C104.893 54.0323 104.893 54.4465 104.893 54.8535C104.893 55.3544 104.889 55.8657 104.915 56.3643C105.372 56.0709 105.739 55.6269 106.038 54.9785L106.121 54.7891C106.511 53.838 106.548 52.7994 106.595 51.5859L106.596 51.542C106.571 51.167 106.531 50.6692 106.483 50.1709L106.451 49.9541C106.438 49.8822 106.423 49.8106 106.405 49.7393L106.404 49.7373C106.257 49.1078 106.075 48.6981 105.794 48.418C105.534 48.1595 105.178 48.0012 104.649 47.8945L104.669 48.1006Z" fill="#DD1C47" stroke="#DD1C47" stroke-width="0.2"/>
<path d="M190.173 45.543C190.859 45.6009 191.542 45.9662 192 46.5098C192.226 46.7776 192.479 47.118 192.596 47.5586H192.597C192.747 48.0781 192.528 48.5631 192.048 48.7568L192.049 48.7578C191.595 48.9472 191.115 48.7587 190.866 48.3232L190.819 48.2324C190.691 47.9541 190.587 47.8043 190.45 47.6953V47.6943C190.269 47.5561 190.099 47.5 189.951 47.5244H189.948C189.797 47.5444 189.65 47.6394 189.517 47.8164L189.518 47.8174C189.201 48.2513 188.994 48.7908 188.846 49.5781L188.845 49.5791C188.631 50.6871 188.68 51.8165 188.76 52.7764L188.772 52.9004L188.773 52.9014C188.829 53.514 188.878 54.0779 189.037 54.6348C189.183 55.149 189.389 55.5691 189.659 55.915C189.8 56.0939 189.975 56.1756 190.131 56.1611L190.134 56.1602C190.289 56.1505 190.443 56.0491 190.549 55.8496L190.609 55.7285C190.73 55.4662 190.798 55.1625 190.812 54.8086C190.714 54.8004 190.609 54.7886 190.504 54.7588L190.497 54.7568C190.275 54.6768 190.102 54.547 189.988 54.3779C189.874 54.2086 189.825 54.0057 189.842 53.7852V53.7783C189.911 53.2841 190.284 52.9834 190.743 52.9834H190.747C191.045 52.9954 191.355 52.9708 191.675 52.9521H191.676C192.01 52.9337 192.355 52.9147 192.695 52.9209C192.881 52.9211 193.062 52.9541 193.236 53.0273L193.234 53.0361C193.431 53.1229 193.586 53.2492 193.687 53.4111C193.792 53.5778 193.836 53.7753 193.819 53.9912C193.784 54.4435 193.426 54.7574 192.942 54.8174L192.929 54.8184C192.898 54.8184 192.864 54.8176 192.831 54.8164V54.9092C192.737 55.6898 192.573 56.5285 192.008 57.2363L192.007 57.2354C191.542 57.8186 190.863 58.1672 190.142 58.1865H190.071C189.47 58.1865 188.884 57.9595 188.427 57.5459L188.238 57.3574C187.489 56.5187 187.047 55.4745 186.846 54.0781C186.715 53.1788 186.653 52.3033 186.672 51.3965V50.332L186.706 50.3652C186.773 49.4201 186.974 48.5364 187.312 47.6904L187.313 47.6895C187.495 47.2468 187.808 46.6049 188.405 46.1201C188.857 45.745 189.379 45.5448 189.933 45.5352L190.173 45.543Z" fill="#DD1C47" stroke="#DD1C47" stroke-width="0.2"/>
<path d="M180.591 45.7041C181.119 45.621 181.658 45.691 182.188 45.8994H182.189C182.746 46.1036 183.15 46.5698 183.368 47.2578L183.455 47.54C183.644 48.1812 183.769 48.876 183.842 49.6943H183.85L183.858 49.7861C183.908 50.382 183.926 51.0388 183.926 51.7373V51.8604L183.925 52.8389C183.912 53.6664 183.861 54.5189 183.702 55.3643L183.594 55.8701C183.453 56.4625 183.164 56.9716 182.717 57.4277L182.716 57.4287C182.29 57.8521 181.665 58.0693 181.011 58.0693C180.684 58.0693 180.349 58.0184 180.021 57.9033C179.01 57.558 178.338 56.7365 178.215 55.7041L178.214 55.7021C178.177 55.3407 178.133 54.9729 178.115 54.5996V54.5986C178.027 52.7509 178.033 50.9038 178.052 49.3486C178.052 48.5993 178.16 47.9638 178.376 47.4072V47.4062C178.757 46.4522 179.527 45.8635 180.591 45.7041ZM179.862 50.8096L179.88 50.8037V52.7559C179.88 53.161 179.893 53.5665 179.911 53.9727L179.93 54.4102C179.948 54.7843 179.979 55.1633 180.034 55.5352C180.063 55.7224 180.132 55.8677 180.234 55.9736C180.335 56.0793 180.475 56.1527 180.656 56.1865C180.938 56.2381 181.132 56.2423 181.28 56.2021C181.421 56.1635 181.529 56.0802 181.631 55.9316C181.728 55.7834 181.798 55.611 181.839 55.4131V55.4111C182.03 54.5635 182.073 53.7141 182.092 53.0615C182.111 52.0189 182.123 50.9932 182.042 49.9561C181.987 49.2471 181.857 48.5317 181.666 47.8467V47.8457C181.637 47.7579 181.609 47.6921 181.585 47.6475C181.573 47.6248 181.563 47.6106 181.556 47.6025C181.554 47.6007 181.553 47.5995 181.552 47.5986C181.024 47.4328 180.679 47.4513 180.378 47.6279L180.376 47.6299C180.184 47.7368 180.055 47.9183 179.986 48.2061L179.96 48.3359C179.85 48.9859 179.855 49.6436 179.862 50.3486V50.8096Z" fill="#DD1C47" stroke="#DD1C47" stroke-width="0.2"/>
<path d="M209.46 45.5244C209.783 45.5245 209.998 45.666 210.14 45.8408C210.278 46.0114 210.347 46.2132 210.387 46.333H210.388C210.974 48.129 211.385 50.0174 211.678 52.1816C211.849 53.4603 212.044 54.8937 212.493 56.2246C212.684 56.1636 212.853 56.1432 213.019 56.1572L213.03 56.1484L213.079 56.1553C213.471 56.2143 213.751 56.4391 213.844 56.7734L213.872 56.9229V57.0811C213.86 57.2327 213.809 57.3712 213.723 57.4893C213.609 57.6463 213.436 57.7614 213.223 57.8252H213.221C212.52 58.0178 211.893 58.1307 211.289 58.1807H211.188C210.953 58.1807 210.743 58.1173 210.583 57.9941C210.423 57.8702 210.318 57.6904 210.286 57.4717V57.4688C210.241 57.0726 210.432 56.7506 210.773 56.5938C210.599 56.0691 210.455 55.5202 210.323 54.8672H208.398C208.351 55.2568 208.272 55.6519 208.198 56.0449L208.127 56.4072C208.248 56.4011 208.384 56.4002 208.534 56.4336C208.748 56.4773 208.929 56.5752 209.057 56.7207C209.185 56.8668 209.255 57.0558 209.255 57.2725C209.255 57.714 208.961 58.0405 208.51 58.1289L208.509 58.1299C208.399 58.1503 208.29 58.1494 208.204 58.1494H207.509C207.105 58.1494 206.71 58.1502 206.311 58.1807H206.303C206.168 58.1807 206.002 58.1818 205.833 58.1191V58.1182C205.482 58.035 205.228 57.7255 205.228 57.3213C205.228 56.9374 205.451 56.6358 205.797 56.5244L205.953 56.4883C206.086 56.4664 206.215 56.4607 206.334 56.4629C206.631 54.8856 206.94 53.3024 207.249 51.7256V51.7246C207.517 50.3761 207.866 49.0648 208.201 47.8066C208.32 47.3547 208.444 46.901 208.562 46.4443C208.596 46.2987 208.655 46.0726 208.785 45.8818C208.92 45.6851 209.132 45.5244 209.46 45.5244ZM209.502 49.7598C209.204 50.9999 208.962 52.1091 208.755 53.1602C209.178 53.1384 209.606 53.1227 210.039 53.1201C209.971 52.6751 209.902 52.2469 209.839 51.8203V51.8193C209.796 51.5575 209.755 51.2954 209.715 51.0352C209.675 50.7739 209.634 50.514 209.591 50.2559C209.564 50.0977 209.535 49.9311 209.502 49.7598Z" fill="#DD1C47" stroke="#DD1C47" stroke-width="0.2"/>
<path d="M162.045 45.6162V45.6172L162.573 45.6475H162.575V45.6484C163.743 45.7425 164.643 46.1872 165.296 47.0127L165.299 47.0117C165.571 47.3556 165.753 47.7711 165.857 48.2705L165.897 48.4902L165.942 48.835C166.015 49.5144 165.977 50.1367 165.832 50.7246L165.751 51.0156C165.538 51.7012 165.085 52.2393 164.446 52.5723L164.447 52.5732C163.912 52.8598 163.265 53.1537 162.538 53.2715C162.574 54.2499 162.609 55.2234 162.639 56.2021C162.793 56.2118 162.949 56.2342 163.114 56.2891H163.113C163.541 56.4261 163.79 56.7888 163.748 57.2266C163.713 57.6564 163.421 57.9602 162.983 58.042L162.984 58.043C162.855 58.0686 162.712 58.0826 162.548 58.0439L162.272 58.0234C161.987 58.0156 161.673 58.044 161.342 58.0811L161.34 58.082L161.072 58.1064H161.069C160.982 58.1119 160.88 58.125 160.79 58.125C160.702 58.125 160.612 58.1184 160.515 58.0859C160.189 58.0187 159.943 57.785 159.858 57.4678L159.833 57.3262C159.791 56.913 160.02 56.5702 160.419 56.4199H160.42C160.539 56.3768 160.672 56.3451 160.815 56.3203L160.684 53.7979V53.793C160.684 53.7589 160.682 53.7303 160.681 53.7021C160.679 53.6796 160.679 53.6557 160.679 53.6309L160.667 53.5078C160.665 53.4691 160.665 53.4324 160.665 53.3994L160.603 47.8525V47.8516C160.603 47.6712 160.603 47.4935 160.579 47.3291L160.578 47.3262C160.52 46.8017 160.623 46.3879 160.889 46.083V46.082C161.154 45.7849 161.544 45.6301 162.036 45.6172L162.045 45.6162ZM162.534 51.3691C162.936 51.2585 163.293 51.0955 163.577 50.9463H163.578C163.824 50.8217 163.97 50.6116 164.034 50.2588C164.076 50.0013 164.089 49.7361 164.089 49.4678V49.2705C164.089 49.2255 164.092 49.1744 164.094 49.1348C164.095 49.0917 164.095 49.0537 164.09 49.0195V49.0156C164.041 48.5594 163.952 48.2276 163.72 48.0088L163.61 47.9219C163.204 47.6455 162.858 47.5187 162.487 47.5137L162.534 51.3691Z" fill="#DD1C47" stroke="#DD1C47" stroke-width="0.2"/>
<path d="M142.583 55.6338L142.556 55.8652L142.532 56.0566V56.0576C142.508 56.2371 142.525 56.3347 142.565 56.3936C142.604 56.4503 142.682 56.496 142.847 56.5254C143.552 56.6509 144.153 56.5369 144.688 56.1709C144.937 56.0005 145.093 55.8136 145.174 55.5986C145.254 55.3829 145.262 55.1271 145.193 54.8125C145.039 54.1016 144.536 53.6088 144.008 53.1523V53.1514L143.647 52.8369C143.102 52.3691 142.527 51.8743 142.072 51.2402V51.2412C141.6 50.5956 141.385 49.8988 141.431 49.2129C141.477 48.527 141.784 47.8605 142.342 47.2754C142.57 47.0329 142.864 46.7286 143.246 46.5098L143.416 46.4209C143.885 46.194 144.362 46.1666 144.833 46.3281L145.035 46.4082L145.036 46.4092C145.406 46.5838 145.703 46.756 145.969 47.0137L146.121 47.1738C146.451 47.5586 146.622 48.022 146.622 48.5479C146.622 48.7856 146.583 49.0158 146.546 49.2422V49.2451C146.527 49.3433 146.509 49.4456 146.497 49.541L146.496 49.543C146.42 50.0535 146.011 50.3911 145.533 50.3564H145.531C145.038 50.3143 144.671 49.8622 144.713 49.3545C144.714 49.1467 144.759 48.9361 144.802 48.7588C144.833 48.6027 144.824 48.4927 144.756 48.3994C144.685 48.3029 144.538 48.206 144.247 48.1123C144.233 48.1202 144.211 48.1317 144.181 48.1523L144.182 48.1533C143.98 48.3012 143.787 48.4909 143.618 48.7119L143.619 48.7129C143.418 48.9775 143.327 49.2068 143.327 49.4277C143.327 49.6485 143.418 49.879 143.618 50.1465C143.996 50.6426 144.46 51.0437 144.965 51.4766L144.966 51.4775L145.225 51.7041L145.239 51.6982L145.29 51.7432C145.952 52.3323 146.621 53.0255 146.959 54.0381C147.258 54.9171 147.22 55.7648 146.88 56.4863C146.54 57.2077 145.902 57.7933 145.018 58.1592L145.019 58.1602C144.51 58.3749 143.981 58.4824 143.446 58.4824H143.358V58.4805L143.267 58.4697L142.859 58.4385C142.446 58.3912 142.018 58.2866 141.61 58.0361C141.088 57.7165 140.789 57.1959 140.676 56.6416C140.563 56.0883 140.633 55.4943 140.857 55.0146L140.858 55.0117C141.059 54.6135 141.445 54.4324 141.866 54.5078C142.295 54.5846 142.574 54.9233 142.594 55.3789V55.3838C142.594 55.4704 142.59 55.5537 142.583 55.6338Z" fill="#DD1C47" stroke="#DD1C47" stroke-width="0.2"/>
<path d="M122.865 47.9414H122.864C122.858 48.0965 122.852 48.2513 122.864 48.3984V48.3994C122.933 49.3693 122.877 50.3321 122.821 51.2627L122.81 51.4268C122.881 51.4244 122.953 51.4197 123.026 51.4111L123.028 51.4102C123.268 51.3864 123.549 51.3262 123.916 51.4521H123.915C124.125 51.5219 124.299 51.6354 124.42 51.792C124.541 51.9492 124.604 52.1441 124.604 52.3672C124.604 52.8361 124.212 53.2047 123.711 53.2451H123.71C123.375 53.2676 123.059 53.2822 122.74 53.2852C122.664 54.4718 122.596 55.6225 122.593 56.75C123.027 56.7581 123.416 56.7798 123.808 56.8027L124.05 56.8154C124.038 56.6403 124.032 56.4658 124.032 56.292C124.032 55.798 124.379 55.3614 124.85 55.2979C125.338 55.2276 125.832 55.6225 125.908 56.1221V56.123C125.982 56.6265 126.047 57.0783 125.983 57.5449V57.5469C125.924 57.9229 125.77 58.2268 125.53 58.4365C125.32 58.6202 125.05 58.7255 124.735 58.749L124.597 58.7549H124.567H124.566C124.011 58.7549 123.455 58.7238 122.897 58.6992H122.896L122.487 58.6807V58.6797C122.349 58.6796 122.23 58.6735 122.093 58.6611V58.6621L121.919 58.6494H121.918C121.544 58.6204 121.24 58.4999 121.025 58.2871C120.81 58.0735 120.696 57.7768 120.682 57.418C120.651 56.5869 120.683 55.7684 120.714 54.9854C120.732 54.3914 120.776 53.803 120.813 53.2188L120.85 52.6084L120.889 51.9199C120.969 50.3224 120.974 48.7912 120.969 47.5986L120.974 47.4043C121.003 46.9635 121.134 46.6137 121.384 46.3672C121.668 46.0861 122.087 45.9574 122.626 45.957L123.271 45.9443V45.9434C123.83 45.9249 124.45 45.9185 125.072 46.0693H125.073C125.302 46.1204 125.881 46.2517 126.083 46.8311L126.118 46.9531L126.119 46.9541C126.254 47.5724 126.179 48.08 125.865 48.498L125.864 48.4971C125.61 48.8416 125.193 48.95 124.812 48.7744L124.797 48.7832L124.753 48.7617C124.402 48.5911 124.224 48.2397 124.272 47.8369C123.947 47.7955 123.615 47.8215 123.244 47.8457C123.12 47.8556 122.994 47.8633 122.865 47.8701V47.9414Z" fill="#DD1C47" stroke="#DD1C47" stroke-width="0.2"/>
<path d="M96.3604 45.8691C96.5033 45.8691 96.6955 45.8685 96.9082 45.957L96.9072 45.958C97.3703 46.1166 97.6488 46.5615 97.5518 47.0439L97.5508 47.0469C97.4451 47.5146 96.9618 47.8154 96.5273 47.8154C96.4023 47.8155 96.3605 47.8358 96.3428 47.8545C96.3234 47.8752 96.3047 47.923 96.3047 48.0547V49.6465C96.3047 50.7861 96.342 51.9262 96.373 53.0684L96.4043 54.1973L96.4062 54.7773C96.3969 55.3727 96.3525 56.0243 96.2734 56.7783C96.7069 56.735 97.1332 56.715 97.5674 56.7207C97.5606 56.6635 97.5564 56.6101 97.5527 56.5586L97.54 56.4043V56.4033C97.4751 55.8438 97.7856 55.378 98.3164 55.2578V55.2559C98.8487 55.1516 99.3368 55.508 99.459 56.0596L99.46 56.0625C99.5346 56.4393 99.6045 56.8497 99.5918 57.2627V57.2646C99.5722 57.677 99.4296 58.0246 99.1826 58.2725C98.9355 58.5203 98.5913 58.6597 98.1846 58.6729L98.1855 58.6738L97.6016 58.7051C96.968 58.7359 96.3331 58.7666 95.6982 58.7852H95.627C95.1622 58.7852 94.7888 58.6569 94.54 58.3828C94.2776 58.0948 94.1892 57.6911 94.2471 57.1992V57.1973C94.4448 55.682 94.4263 54.1831 94.3828 52.9072V52.9062C94.3579 51.826 94.3457 50.758 94.3457 49.6777C94.3457 49.0383 94.3638 48.4097 94.3975 47.7715C94.2197 47.7679 94.0586 47.743 93.8896 47.6943V47.6934C93.4203 47.5642 93.1211 47.1652 93.1846 46.6963V46.6943C93.2218 46.4526 93.3268 46.2508 93.4854 46.1064C93.644 45.962 93.8517 45.8814 94.0869 45.8711V45.8701C94.2202 45.8638 94.3655 45.8691 94.502 45.8691H96.3604Z" fill="#DD1C47" stroke="#DD1C47" stroke-width="0.2"/>
<path d="M70.762 45.8818H70.7639C71.4038 45.9661 71.8517 46.3227 72.1917 46.6475L72.4026 46.8555C72.4694 46.9265 72.533 46.9991 72.593 47.0713H72.592C72.7709 47.2789 72.8673 47.5057 72.8665 47.7324C72.8656 47.9603 72.7659 48.1734 72.5793 48.3525L72.5803 48.3535C72.4079 48.5247 72.1964 48.623 71.9377 48.623H71.9348C71.6889 48.616 71.4466 48.5045 71.262 48.3076V48.3066C71.1262 48.1658 70.9871 48.0229 70.8372 47.8916C70.6959 47.7782 70.6012 47.7356 70.5178 47.7334C70.4349 47.7312 70.3395 47.7688 70.1956 47.876C69.7026 48.2555 69.4792 48.8366 69.3186 49.4375C69.1108 50.208 69.0861 51.0354 69.0549 51.8467V51.8496C69.0428 52.0181 69.0422 52.1813 69.0422 52.3545C69.0422 52.7094 69.0364 53.0684 68.9934 53.4404C69.018 53.7363 69.0305 54.0381 69.0305 54.3398L69.0364 54.6816C69.0454 55.0169 69.0666 55.3334 69.1389 55.6387C69.2174 55.9681 69.3322 56.218 69.4875 56.4072C69.6422 56.5955 69.8423 56.7289 70.1008 56.8193H70.0999C70.2829 56.8808 70.413 56.8895 70.5188 56.8574C70.6239 56.8254 70.723 56.7478 70.8313 56.5967C70.8851 56.5193 70.9266 56.4345 70.9885 56.332L71.1116 56.1182L71.1125 56.1162C71.3839 55.6586 71.8924 55.4769 72.344 55.708L72.3987 55.7363V55.7441C72.81 55.9794 72.9921 56.4779 72.8206 56.9365V56.9375C72.5322 57.6945 71.9483 58.3266 71.2561 58.6221V58.623C70.9649 58.7451 70.6592 58.8096 70.3469 58.8096C70.1032 58.8096 69.8531 58.7699 69.6077 58.6934L69.3635 58.6045C68.1476 58.0898 67.4198 57.1018 67.1975 55.6836C67.0032 54.4263 67.0403 53.1705 67.1086 51.7949C67.1521 50.839 67.202 49.9663 67.4094 49.0801L67.4104 49.0791C67.6304 48.1805 67.9465 47.5045 68.4133 46.9648L68.595 46.7666C69.0521 46.2927 69.749 45.7745 70.762 45.8818Z" fill="#DD1C47" stroke="#DD1C47" stroke-width="0.2"/>
<path d="M89.6433 56.8047C89.7034 56.803 89.7588 56.8018 89.8103 56.8018C89.9195 56.8018 90.0255 56.7974 90.1277 56.7861L90.2087 56.7725C90.7089 56.6822 91.1666 56.9798 91.3074 57.4463L91.3318 57.542V57.543C91.4122 57.9687 91.1297 58.4022 90.7029 58.5713L90.616 58.6016C90.4027 58.6657 90.1998 58.6982 89.99 58.6982H87.281C87.2008 58.6982 87.1252 58.6982 87.0359 58.6846H87.0349C86.5379 58.6034 86.1823 58.1806 86.2439 57.707C86.2797 57.2594 86.626 56.9296 87.1042 56.8887L87.1082 56.8877C87.2316 56.8816 87.3506 56.8739 87.4695 56.8662C87.5572 56.8605 87.645 56.8547 87.7341 56.8496V47.8174C87.4984 47.8277 87.2242 47.8314 86.9529 47.7559C86.4554 47.6356 86.138 47.2656 86.1804 46.7871L86.1814 46.7832C86.2122 46.5356 86.3212 46.3285 86.4919 46.1836C86.6624 46.039 86.888 45.9619 87.1443 45.9619H90.1648C90.4796 45.962 90.7562 46.0683 90.9519 46.2764V46.2773C91.1265 46.4646 91.211 46.7079 91.1902 46.9639C91.167 47.4889 90.715 47.8582 90.1462 47.8584C89.9612 47.8584 89.7719 47.8478 89.5867 47.834C89.5876 48.2154 89.5939 48.5589 89.6052 48.9023V48.9033L89.6248 49.7178L89.6365 50.8994C89.6365 51.2941 89.6337 51.6893 89.6306 52.084V52.085C89.6244 52.4355 89.6248 52.7924 89.6248 53.1504L89.6423 53.2588L89.6433 53.2666V56.8047Z" fill="#DD1C47" stroke="#DD1C47" stroke-width="0.2"/>
<path d="M78.5439 57.4824C78.5439 57.8162 78.4483 58.097 78.2588 58.3008C78.0694 58.5044 77.7967 58.6195 77.4639 58.6426L77.4648 58.6436C77.2519 58.6622 77.0358 58.6686 76.8223 58.6807H76.8037C76.5332 58.6807 76.3039 58.6155 76.1299 58.4883C75.956 58.3612 75.8452 58.1775 75.7998 57.957V57.958C75.7439 57.7428 75.7712 57.5322 75.875 57.3525C75.9785 57.1736 76.1538 57.0313 76.3828 56.9443C76.449 56.9147 76.531 56.8925 76.6162 56.876C76.5804 56.405 76.586 55.9615 76.5918 55.5391V55.1016L76.5811 54.376C76.5642 53.6489 76.5317 52.9188 76.499 52.1875V52.1865C76.4433 50.8641 76.3815 49.5006 76.4121 48.1426L76.3916 48.0137C76.3835 47.9861 76.3746 47.9711 76.3672 47.9629C76.356 47.9507 76.3353 47.9385 76.2617 47.9326H76.2598C76.1278 47.9201 75.6962 47.8745 75.4512 47.4785L75.4502 47.4775C75.2839 47.2023 75.2696 46.9003 75.4092 46.6162L75.4775 46.5029C75.6528 46.2548 75.9406 46.1237 76.2461 46.167H76.2451C76.3985 46.1844 76.5649 46.1836 76.7383 46.1836C76.8859 46.1773 77.0329 46.1843 77.1748 46.1904H77.1758C77.4833 46.2068 77.739 46.3068 77.9219 46.4893C78.1046 46.6717 78.2042 46.927 78.2207 47.2354V47.2363L78.3906 51.2383C79.1365 51.1588 79.9604 51.0835 80.793 51.0566V49.6123L80.7871 49.5596L80.7559 49.2812L80.7549 49.2705H80.7559V47.4014C80.7559 47.0354 80.8381 46.7375 81.0234 46.5146C81.2088 46.2919 81.4856 46.158 81.8447 46.0938L81.8467 46.0928C82.157 46.0435 82.4035 46.0062 82.6631 45.9873V45.9883C83.1134 45.9287 83.4906 46.2058 83.5938 46.6699L83.5947 46.6709C83.6429 46.8964 83.611 47.1101 83.5029 47.2871C83.4222 47.4193 83.3014 47.526 83.1494 47.6025L82.9863 47.6689C82.8628 47.7077 82.7486 47.7284 82.6416 47.752L82.6348 47.7529C82.6259 47.7542 82.6172 47.756 82.6084 47.7578V47.7715C82.658 48.5992 82.6647 49.4326 82.6709 50.2568C82.6771 51.0769 82.6891 51.8955 82.7324 52.7197C82.7636 53.27 82.7821 53.8203 82.8008 54.3691C82.8309 55.1886 82.8612 56.0342 82.9307 56.8633C83.1134 56.8886 83.2806 56.9286 83.4316 56.9873H83.4453L83.4619 56.9932C83.916 57.1571 84.16 57.5694 84.0479 58.0361L84.0469 58.0352C83.9659 58.4097 83.6789 58.6561 83.2988 58.7119L83.1299 58.7236H83.0381V58.7227L82.8203 58.6982V58.6973C82.5749 58.6723 82.365 58.6511 82.1689 58.6797H82.166C81.8849 58.7137 81.6334 58.6384 81.4316 58.4727C81.194 58.2781 81.0621 57.9656 81.042 57.6191L80.9512 56.3281L80.8799 55.0312C80.8502 54.3355 80.8318 53.6454 80.8193 52.9561C80.2565 52.9592 79.7243 52.9875 79.1963 53.0225C78.9503 53.0387 78.7033 53.0533 78.4561 53.0654C78.5304 54.1404 78.5379 55.2193 78.5439 56.2598V57.4824Z" fill="#DD1C47" stroke="#DD1C47" stroke-width="0.2"/>
<path d="M139.686 44.3096C139.688 44.3097 139.69 44.3084 139.692 44.3086L139.691 44.3096C140.048 44.327 140.344 44.4407 140.552 44.6475C140.762 44.856 140.873 45.1485 140.88 45.499V45.5C140.88 46.6482 140.298 47.6752 139.388 48.1143L139.387 48.1133L139.314 48.1504L139.293 48.1611H138.585L138.613 48.0381L138.719 47.582V47.5811C138.781 47.3241 138.828 47.1316 138.858 46.9775C138.888 46.8238 138.901 46.7143 138.896 46.6221C138.889 46.4438 138.82 46.3148 138.645 46.0352L138.64 46.0273V46.0264C138.433 45.6154 138.45 45.1763 138.676 44.8291C138.897 44.4899 139.273 44.2877 139.679 44.3096L139.68 44.3086H139.686V44.3096Z" fill="#DD1C47" stroke="#DD1C47" stroke-width="0.2"/>
<path d="M171.046 51.0645C171.088 51.0622 171.13 51.0602 171.172 51.0576C171.246 51.053 171.319 51.049 171.392 51.0459L171.503 51.0342C171.752 50.9953 171.945 50.8701 172.098 50.6445H172.099C172.386 50.2287 172.521 49.7749 172.497 49.3369V49.3359L172.479 48.9473L172.474 48.8428H172.477C172.43 48.5274 172.33 48.2927 172.168 48.1094C171.986 47.9041 171.716 47.7524 171.324 47.6318V47.6309C171.201 47.596 171.07 47.5727 170.937 47.5547H170.936C170.927 47.5535 170.919 47.5512 170.911 47.5498C170.958 48.7585 171.005 49.9097 171.046 51.0645ZM171.155 56.248C171.374 56.2817 171.559 56.3617 171.696 56.4893C171.852 56.6343 171.94 56.8309 171.951 57.0596L171.954 57.1504C171.944 57.6003 171.567 57.9691 171.065 58.0195L171.064 58.0186C170.608 58.0743 170.147 58.1055 169.687 58.124L169.684 58.125V58.124C169.457 58.1274 169.225 58.0433 169.041 57.9033C168.857 57.7633 168.715 57.5614 168.683 57.3232C168.622 56.908 168.876 56.5492 169.276 56.4014L169.19 52.0908C169.172 50.999 169.153 49.9016 169.122 48.8105L169.061 46.793V46.792C169.054 46.5224 169.106 46.2981 169.235 46.1211C169.364 45.944 169.56 45.8276 169.816 45.7559L169.991 45.7119C170.872 45.5174 171.846 45.702 172.682 46.2295C173.554 46.7734 174.144 47.6112 174.305 48.5303C174.571 50.0366 174.132 51.348 173.03 52.3223L173.031 52.3232C172.987 52.3632 172.948 52.396 172.916 52.4238C172.92 52.4332 172.925 52.4426 172.93 52.4521C172.945 52.485 172.96 52.5182 172.973 52.5459L173.321 53.2803C173.777 54.2397 174.253 55.2356 174.607 56.2734C174.723 56.2757 174.84 56.283 174.962 56.3105L174.961 56.3135C175.375 56.4493 175.617 56.7685 175.617 57.167C175.617 57.6469 175.313 58.0199 174.86 58.043L174.861 58.0439L174.514 58.0752L174.513 58.0742C174.214 58.1051 173.906 58.1309 173.591 58.1309C173.433 58.1309 173.274 58.1245 173.107 58.1055V58.1045C172.618 58.062 172.273 57.701 172.273 57.21C172.273 56.879 172.43 56.6058 172.696 56.4531C172.437 55.7343 172.141 55.0509 171.878 54.4629C171.646 53.9553 171.415 53.4413 171.193 52.9326C171.159 52.9372 171.125 52.9429 171.094 52.9473V53.5488L171.108 53.5625L171.14 53.5898L171.143 53.6309L171.155 53.8037L171.156 53.8105H171.155V56.248Z" fill="#DD1C47" stroke="#DD1C47" stroke-width="0.2"/>
<path d="M198.538 51.0391C198.633 51.032 198.724 51.026 198.81 51.0215L198.949 51.0088C199.079 50.9914 199.187 50.9585 199.278 50.9102C199.399 50.846 199.497 50.7521 199.583 50.6221L199.584 50.6191L199.687 50.4619C199.909 50.0918 200.009 49.701 199.989 49.3125V49.3115L199.97 48.9229L199.965 48.8184C199.919 48.5029 199.823 48.2681 199.662 48.085C199.481 47.8802 199.213 47.7279 198.819 47.6074V47.6084C198.757 47.5908 198.693 47.5751 198.627 47.5625L198.428 47.5303C198.42 47.5291 198.411 47.5269 198.403 47.5254C198.45 48.7337 198.496 49.8846 198.538 51.0391ZM198.654 56.2178C198.87 56.2516 199.053 56.3317 199.189 56.459C199.344 56.604 199.431 56.8005 199.442 57.0293H199.443C199.486 57.5203 199.091 57.927 198.559 57.9873L198.56 57.9883C198.097 58.0442 197.634 58.0752 197.172 58.0938H197.167C196.945 58.0903 196.715 58.0072 196.532 57.8691C196.371 57.7482 196.241 57.5804 196.187 57.3809L196.168 57.293C196.108 56.8776 196.362 56.5179 196.762 56.3701L196.676 52.0605C196.658 50.9684 196.639 49.8707 196.608 48.7793L196.546 46.7617C196.54 46.492 196.592 46.2668 196.721 46.0898C196.85 45.9129 197.046 45.7963 197.302 45.7246C198.234 45.4632 199.276 45.6433 200.167 46.1992L200.326 46.3047C201.106 46.848 201.64 47.6378 201.791 48.5L201.833 48.7803C202 50.1692 201.549 51.3786 200.516 52.292L200.517 52.293C200.478 52.3281 200.444 52.3571 200.417 52.3809C200.412 52.3849 200.407 52.3889 200.403 52.3926C200.407 52.4019 200.411 52.4114 200.416 52.4209C200.431 52.4538 200.446 52.4878 200.458 52.5156L200.807 53.2432C201.269 54.2028 201.745 55.1986 202.099 56.2422C202.18 56.2438 202.261 56.2476 202.344 56.2598L202.454 56.2803L202.462 56.2822L202.61 56.3418C202.935 56.499 203.122 56.7871 203.122 57.1367C203.121 57.6166 202.818 57.9897 202.365 58.0127L202.366 58.0137L202.012 58.043L202.013 58.0439C201.714 58.0749 201.411 58.1006 201.095 58.1006C200.937 58.1006 200.778 58.0942 200.612 58.0752V58.0742C200.123 58.0317 199.778 57.6706 199.778 57.1797C199.778 56.8439 199.934 56.57 200.2 56.417C199.929 55.6792 199.622 54.9735 199.376 54.4268L199.014 53.627C198.905 53.3828 198.797 53.1386 198.691 52.8955C198.657 52.9 198.623 52.9058 198.592 52.9102V53.5234L198.638 53.5693L198.641 53.6064L198.654 53.7725V56.2178Z" fill="#DD1C47" stroke="#DD1C47" stroke-width="0.2"/>
<path d="M230.173 54.8916C230.173 55.071 230.153 55.2248 230.135 55.3779V55.3789L230.109 55.5703V55.5713C230.085 55.7495 230.104 55.8451 230.145 55.9033C230.185 55.9608 230.264 56.0065 230.428 56.0391H230.427C231.137 56.1643 231.731 56.0503 232.266 55.6846C232.514 55.5141 232.671 55.3273 232.751 55.1123C232.832 54.8966 232.84 54.6408 232.771 54.3262C232.618 53.6212 232.114 53.1282 231.585 52.665L231.226 52.3516L230.813 51.9932C230.4 51.6269 229.991 51.2297 229.649 50.7539C229.178 50.1086 228.963 49.4121 229.009 48.7266C229.055 48.0407 229.362 47.3742 229.92 46.7891C230.243 46.4499 230.552 46.1407 230.993 45.9346L231.194 45.8516C231.665 45.6842 232.143 45.7067 232.613 45.9287L232.614 45.9297C232.907 46.0721 233.25 46.2498 233.542 46.5332C233.971 46.9468 234.193 47.4666 234.193 48.0674C234.193 48.3053 234.154 48.5362 234.117 48.7627V48.7637C234.098 48.87 234.08 48.9652 234.068 49.0605V49.0635C233.993 49.5713 233.604 49.9177 233.104 49.876C232.606 49.8343 232.248 49.3924 232.285 48.8818H232.284C232.284 48.6715 232.33 48.4578 232.374 48.2783C232.405 48.1189 232.396 48.0071 232.327 47.9131C232.256 47.8155 232.108 47.7191 231.813 47.625C231.799 47.6326 231.777 47.6457 231.746 47.668C231.545 47.8152 231.359 48.0049 231.19 48.2266C230.99 48.4912 230.898 48.7204 230.898 48.9414C230.898 49.1622 230.989 49.3927 231.189 49.6602C231.561 50.15 232.026 50.5514 232.53 50.9844H232.531L232.848 51.2627H232.849C233.477 51.8221 234.111 52.4757 234.463 53.4072L234.479 53.3926L234.53 53.5449C234.827 54.4212 234.786 55.2689 234.445 55.9912C234.105 56.7131 233.467 57.3001 232.584 57.666L232.585 57.667C232.076 57.8818 231.547 57.9892 231.018 57.9893H230.929V57.9883L230.847 57.9766C230.314 57.9514 229.737 57.8759 229.188 57.543H229.188C228.137 56.8974 227.992 55.4712 228.435 54.5215L228.436 54.5195C228.534 54.3237 228.677 54.1769 228.853 54.0898C229.028 54.0029 229.23 53.9786 229.443 54.0156H229.444C229.873 54.0926 230.152 54.431 230.173 54.8867V54.8916Z" fill="#DD1C47" stroke="#DD1C47" stroke-width="0.2"/>
<path d="M290.965 38.779L292.065 34.0284C292.382 33.288 293.55 32.6279 294.054 32.1096C295.899 30.2464 297.142 28.013 298.391 25.7796C298.745 25.1873 298.95 24.558 298.988 23.8608C299.006 23.3549 298.919 22.886 298.459 22.5898C297.987 22.3307 297.527 22.5405 297.142 22.849C295.843 23.8608 294.439 24.7862 293.544 26.1806C293.42 26.3718 293.295 26.4644 293.128 26.6988C293.059 26.8037 292.798 27.1677 292.475 27.6736L292.575 22.8798C292.593 21.3929 292.972 19.4001 292.22 17.0371C292.22 17.0248 292.214 17.0186 292.208 17.0063C292.164 16.8706 292.115 16.7348 292.065 16.5991C292.053 16.5559 292.046 16.5189 292.028 16.4695C291.86 15.8155 292.152 14.7173 292.183 14.014C292.245 11.2253 291.344 8.7266 289.946 6.35128C289.53 5.66027 289.095 4.90757 288.38 4.42634C287.758 4.01914 287.05 3.66747 286.429 4.05616C285.801 4.40166 285.689 5.19755 285.695 5.92557C285.702 6.19087 285.795 6.47467 285.888 6.7338C286.634 8.99189 287.398 11.2377 288.131 13.5081C288.473 14.4767 289.032 15.2788 290.027 15.5934C290.698 15.8032 290.735 16.1179 290.891 16.6978C291.686 19.4803 291.425 20.9055 291.238 23.0649C290.698 22.7256 290.151 22.4664 290.151 22.4664C288.815 22.0284 287.777 21.7014 286.758 21.4546C285.863 21.2263 284.72 21.1029 284.353 22.1024C283.986 23.1821 284.776 24.0212 285.795 24.4716C286.69 24.8726 287.672 25.2922 288.66 25.4279C290.257 25.6438 290.766 25.9091 290.965 26.6556C290.915 27.433 290.878 28.1919 290.872 28.6978C290.872 28.6978 290.872 28.7101 290.872 28.7348C290.872 29.2963 290.872 29.8639 290.859 30.4315C290.859 30.4438 290.859 30.4562 290.853 30.4685C290.853 30.5055 290.835 30.5179 290.835 30.5549L290.859 30.4993C290.841 31.5975 290.76 32.7266 290.443 33.9544C290.443 33.9544 290.443 33.9914 290.431 34.0592C290.406 34.5281 290.25 36.4161 289.896 37.4896C289.896 37.5266 289.878 37.5574 289.865 37.5945V37.613C289.766 38.0325 289.585 38.4397 289.449 38.8407C289.163 39.7662 288.877 40.6916 288.498 41.6664L288.548 41.4567C288.597 40.7225 288.15 39.0258 287.988 38.4459C287.976 38.4027 287.976 38.3718 287.964 38.3472C287.951 38.2916 287.939 38.2484 287.939 38.2484C287.317 37.4834 287.255 36.6875 286.988 35.9657C286.572 34.8798 285.857 34.0778 284.788 33.615C283.39 32.9857 282.532 33.467 282.402 34.9785C282.172 37.8104 283.266 40.1179 285.664 41.5492C286.944 42.2957 287.162 43.104 286.777 44.3564C286.646 44.7883 286.522 45.2202 286.391 45.6459C286.391 45.6459 286.391 45.6562 286.391 45.6767C286.186 46.3492 286.006 47.0896 285.845 47.8299C285.099 49.2983 283.962 51.5071 283.694 52.0562C283.489 52.4757 283.272 52.9878 283.788 53.2778C284.322 53.5986 284.701 53.1729 284.832 52.7163C284.863 52.6114 284.968 52.377 285.099 52.0993C285.08 52.2166 285.074 52.2783 285.074 52.2783C285.807 50.2423 286.957 48.9713 288.989 48.2556C291.164 47.4906 292.761 45.9482 293.73 43.832C294.029 43.1595 294.408 42.4315 293.749 41.7775C293.109 41.1297 292.282 41.0618 291.425 41.3456C290.735 41.5739 290.238 42.0305 289.766 42.5364C290.17 41.2654 290.542 40.0685 290.928 38.9086L290.946 38.8037L290.965 38.779Z" fill="#DD1C47"/>
<path d="M10.6949 16.6538C10.2226 17.8075 9.24074 19.7694 9.0481 23.2862C9.3961 38.8954 14.3364 46.3545 14.6534 46.8173L14.672 46.8358C15.0697 47.2306 17.7543 51.6111 18.0029 52.3144C18.1334 52.7401 18.5 53.135 18.9909 52.8203C19.4508 52.5119 19.2519 52.0676 19.0407 51.6728C18.6802 50.9694 15.9211 46.4224 15.542 45.7191C15.4923 45.6389 15.4612 45.571 15.4426 45.5093C15.4426 45.4908 15.4239 45.4908 15.4239 45.4784C13.9263 43.2018 12.8699 40.555 12.1428 37.9329C11.9937 37.5751 11.8445 37.2111 11.8632 36.8532C11.5835 35.7427 11.366 34.6445 11.2045 33.5957C10.9062 32.4851 10.8254 31.4363 10.7757 30.4245V30.2949C10.4152 26.7473 10.5271 24.1931 10.5271 24.1931C10.2847 20.4358 11.4406 18.5972 11.9004 17.3077C11.9004 17.3077 12.323 16.3206 13.2241 15.7653C13.4043 15.6543 12.1366 14.7227 12.1366 14.7227C12.1366 14.7227 11.0615 15.7592 10.6949 16.6661V16.6538Z" fill="#DD1C47"/>
<path d="M17.313 46.731C16.7227 47.3048 16.6357 47.6626 17.0023 48.0883C16.9837 49.0508 16.325 49.0878 15.9956 49.0384C15.9645 49.0076 15.9272 48.9706 15.8962 48.9582C15.8775 48.9397 15.8651 48.9397 15.8651 48.9397C15.2064 48.514 14.529 48.4153 13.572 48.6312C11.3162 49.1372 9.20339 48.551 7.47582 46.9778C6.50639 46.077 6.71768 45.5526 8.00403 45.1762C9.3401 44.7814 10.7756 45.0467 12.2422 44.442L12.2608 44.4235C12.2608 44.4235 12.8885 44.078 13.7957 44.6024C14.0257 43.6832 14.1748 43.1773 14.2929 42.6528C14.7403 40.5737 15.4798 38.6611 17.0644 37.1742C18.2514 36.076 19.2705 36.3413 19.6372 37.896C20.4264 41.2153 19.8982 44.2755 17.3317 46.731H17.313Z" fill="#DD1C47"/>
<path d="M17.5679 27.3832C16.3126 29.7092 15.1195 32.1771 12.2671 33.0778C11.3039 33.374 11.0864 34.0095 11.4468 34.9411L11.4655 34.9843C11.279 35.2557 10.7881 35.7987 10.2786 35.2619C9.58255 32.7138 9.01084 30.1287 8.45155 27.5622C8.22162 26.5442 7.7742 26.0876 6.7737 25.9889C5.09584 25.8162 3.93377 24.8413 3.18806 23.3606C2.28699 21.5529 0.832847 20.066 0.00634766 17.8018C2.7717 18.2151 4.69813 19.7761 6.9477 21.5529C6.9477 21.5529 8.65041 23.6506 9.20348 25.5509C9.55148 27.1426 9.98026 28.7591 10.5147 30.4002C11.1423 29.3082 11.6146 28.4383 12.118 27.5868C12.9445 26.1987 14.0258 25.1992 15.7595 25.0326C17.3753 24.8784 18.3323 25.9704 17.5865 27.3771L17.5679 27.3832Z" fill="#DD1C47"/>
<path d="M17.9902 6.04848C17.8597 10.3117 16.2626 13.7852 12.5714 16.1297C12.5714 16.1297 12.329 16.3642 12.0121 16.5431C11.4714 16.8824 10.6636 17.0798 10.4088 15.6978C10.0111 13.5138 11.0364 11.2557 11.0364 11.2557C11.5957 9.99707 12.1426 9.12097 12.7019 8.30041C13.7707 6.72714 15.3554 5.90658 17.1264 5.30812C17.9591 5.04899 18.0026 5.36365 17.9902 6.04231V6.04848Z" fill="#DD1C47"/>
<path d="M199.856 12.3633C200.747 12.2448 201.823 12.6096 202.729 13.2041C203.634 13.7988 204.394 14.6406 204.633 15.5029C204.77 16.0008 204.702 16.5967 204.499 17.1279C204.321 17.5925 204.035 18.02 203.678 18.2949L203.52 18.4033C203.274 18.5493 203.027 18.6272 202.779 18.6289C202.594 18.6301 202.411 18.5892 202.234 18.5059L202.06 18.4082C201.777 18.2271 201.669 17.9955 201.653 17.7559C201.638 17.5261 201.708 17.2929 201.763 17.1055V17.1045C201.902 16.6444 201.975 16.2964 201.99 16.0283C202.005 15.7617 201.961 15.5818 201.874 15.4482C201.787 15.3151 201.638 15.2024 201.384 15.1064C201.129 15.0102 200.777 14.9336 200.298 14.8691C199.701 14.7878 199.215 14.9947 198.857 15.4893H198.856C198.411 16.1001 198.211 16.7335 198.243 17.335C198.275 17.9361 198.539 18.5156 199.04 19.0186L199.537 19.5039C200.027 19.9665 200.541 20.4096 201.047 20.8447L201.06 20.8389L201.11 20.8828C201.588 21.3014 202.093 21.7355 202.566 22.1748C204.252 23.7427 205.102 25.4761 205.071 27.3242C205.109 30.1952 203.158 32.4924 200.23 33.0439C199.697 33.1437 199.168 33.1943 198.652 33.1943C198.013 33.1943 197.388 33.1124 196.786 32.958L196.529 32.8877C195.616 32.6177 194.832 31.8067 194.414 30.7432C193.989 29.6543 194.023 28.4969 194.527 27.6621C194.725 27.3307 194.976 27.1782 195.252 27.1338C195.521 27.0908 195.804 27.1515 196.062 27.2227C196.342 27.2979 196.554 27.4312 196.683 27.6299C196.811 27.8287 196.845 28.0778 196.799 28.3652V28.3662C196.768 28.549 196.745 28.7406 196.745 28.9238H196.744C196.766 29.5566 196.882 29.9556 197.137 30.2207C197.393 30.4876 197.809 30.6389 198.484 30.7246C199.52 30.853 200.44 30.4752 201.16 29.8984C201.881 29.3207 202.395 28.5486 202.615 27.9043C202.865 27.171 202.733 26.429 202.207 25.6904L202.097 25.543C201.396 24.6584 200.528 23.9427 199.689 23.2764C198.464 22.3002 197.191 21.1872 196.249 19.7041V19.7031C195.356 18.2995 195.247 16.7146 195.933 15.2578C196.661 13.7227 198.2 12.5839 199.856 12.3633Z" fill="#DD1C47" stroke="#DD1C47" stroke-width="0.2"/>
<path d="M220.29 14.4531L220.294 14.9941C220.293 15.0857 220.291 15.1777 220.286 15.2695L220.265 15.5449C220.231 15.856 220.104 16.119 219.904 16.3018C219.704 16.4847 219.438 16.5823 219.137 16.5723H219.136C218.858 16.5585 218.584 16.4215 218.393 16.1914C218.189 15.9486 218.1 15.6497 218.134 15.3447V15.3438C218.161 15.1026 218.17 14.9218 218.16 14.79C218.15 14.655 218.123 14.5887 218.097 14.5586H218.096C218.075 14.5354 218.029 14.5116 217.924 14.499C217.822 14.4868 217.689 14.4873 217.519 14.4873H217.261C216.79 14.475 216.317 14.4863 215.841 14.4863L215.842 14.4873C215.431 14.4935 215.02 14.4932 214.604 14.4932H214.598C214.519 14.4932 214.464 14.4974 214.426 14.5059C214.387 14.5144 214.376 14.5251 214.374 14.5273L214.37 14.5322C214.368 14.534 214.357 14.5476 214.351 14.5957C214.344 14.6418 214.344 14.7063 214.35 14.793C214.412 15.676 214.461 16.5721 214.511 17.4355L214.592 18.8613C214.621 19.3407 214.654 19.8214 214.691 20.2959C214.859 22.4282 214.89 24.553 214.88 26.7002L214.859 28.8564C214.847 29.4688 214.822 30.0693 214.778 30.7861V30.7871C214.77 30.8956 214.783 30.9407 214.79 30.9561C214.794 30.957 214.799 30.9592 214.808 30.96C214.835 30.9626 214.882 30.9617 214.958 30.9473L214.959 30.9463C215.319 30.8826 215.663 30.8887 215.971 30.9668H215.972C216.202 31.0264 216.392 31.1358 216.53 31.291C216.669 31.4467 216.75 31.6436 216.767 31.8701C216.784 32.0863 216.739 32.2849 216.635 32.4551C216.53 32.6249 216.369 32.7612 216.162 32.8574H216.161C215.948 32.9534 215.754 33.0088 215.555 33.0088C215.08 33.0088 214.599 33.0385 214.126 33.0693L214.125 33.0703C213.622 33.1011 213.103 33.1318 212.584 33.1318C212.42 33.1318 212.263 33.1253 212.108 33.1191C211.951 33.1129 211.796 33.1009 211.647 33.0752L211.646 33.0742C211.408 33.0308 211.21 32.9276 211.068 32.7715C210.927 32.6151 210.848 32.4119 210.838 32.1787V32.1777C210.825 31.9515 210.879 31.7497 211.002 31.582C211.124 31.415 211.309 31.2892 211.543 31.2041L211.649 31.1689C211.898 31.0981 212.141 31.0996 212.373 31.0996H212.484C212.578 31.0996 212.603 31.0834 212.61 31.0762C212.618 31.0681 212.634 31.0416 212.634 30.9463C212.634 30.0443 212.652 29.1236 212.671 28.2354C212.708 26.0876 212.751 23.878 212.584 21.7061C212.466 20.1486 212.422 18.5604 212.385 17.0244L212.342 15.5566L212.341 15.5527V15.5098H212.342C212.331 15.186 212.242 14.9562 212.09 14.8047C211.937 14.6526 211.704 14.5646 211.376 14.5547V14.5537C211.082 14.5475 210.817 14.5298 210.56 14.5176H210.559C210.134 14.4928 209.704 14.4624 209.281 14.4746H209.28C209.147 14.4777 209.098 14.4976 209.076 14.5186C209.056 14.5378 209.036 14.5812 209.036 14.708V14.709C209.03 15.1756 208.992 15.6483 208.955 16.1045L208.943 16.2578C208.917 16.5829 208.809 16.8591 208.634 17.0547C208.479 17.2269 208.275 17.3326 208.039 17.3564L207.936 17.3623H207.902C207.607 17.3554 207.357 17.2311 207.185 17.0215C207.013 16.8132 206.922 16.5267 206.929 16.1992V16.1982C206.947 15.3891 206.978 14.677 207.034 14.0264C207.07 13.5976 207.236 13.2393 207.519 12.9717C207.801 12.705 208.193 12.5347 208.674 12.4678L208.951 12.4336C209.597 12.365 210.233 12.3755 210.895 12.3809H210.896C211.387 12.387 211.893 12.3927 212.399 12.3682H212.407L213.159 12.3828C213.915 12.386 214.689 12.3586 215.5 12.3262V12.3252C215.904 12.3067 216.315 12.2955 216.719 12.2832V12.2822C217.031 12.2697 217.34 12.2821 217.632 12.3047L218.443 12.3877L218.653 12.4189C219.131 12.5076 219.514 12.7022 219.789 13.0039C220.095 13.3403 220.256 13.7988 220.275 14.3613L220.29 14.376V14.4531Z" fill="#DD1C47" stroke="#DD1C47" stroke-width="0.2"/>
<path d="M234.248 15.1025L234.333 16.1475C234.364 16.4957 234.396 16.8426 234.427 17.1855L234.533 18.3418C234.633 19.5065 234.709 20.6934 234.676 21.874C234.664 22.292 234.664 22.7165 234.67 23.1396L234.702 24.3975V24.3984C234.733 25.5321 234.77 26.7099 234.676 27.876C234.544 29.5591 233.881 30.9653 232.706 32.0508C231.902 32.7981 230.95 33.1445 229.71 33.1445C229.477 33.1445 229.232 33.1324 228.974 33.1074C227.965 33.0134 227.134 32.7065 226.477 32.1758C225.82 31.645 225.345 30.896 225.036 29.9287C224.486 28.211 224.162 26.3885 224.062 24.5049C224.05 24.2864 224.035 24.0676 224.021 23.8486L223.981 23.1914C223.888 21.7362 223.794 20.2255 223.863 18.7324L223.886 18.1455C223.906 17.5579 223.914 16.9698 223.918 16.3916L223.937 15.0898V15.0869C223.94 15.0019 223.94 14.9193 223.931 14.8525C223.927 14.8194 223.921 14.7933 223.914 14.7744C223.908 14.7594 223.902 14.7527 223.9 14.75C223.895 14.7469 223.876 14.7389 223.832 14.7383C223.784 14.7377 223.719 14.7449 223.635 14.7627L223.634 14.7617C223.422 14.8149 223.204 14.8186 222.998 14.8086L222.793 14.7959H222.659C222.381 14.7827 222.146 14.7017 221.968 14.5518C221.79 14.4012 221.68 14.1881 221.639 13.9277C221.561 13.424 221.941 12.977 222.489 12.8643H222.49C222.782 12.8076 223.085 12.7824 223.37 12.7578H223.371C223.52 12.7455 223.66 12.733 223.8 12.7148H223.805L224.268 12.6592C224.447 12.6347 224.628 12.6104 224.809 12.5918L224.947 12.584C225.266 12.5832 225.569 12.7008 225.78 12.9102H225.779C225.994 13.1171 226.092 13.3941 226.057 13.6895L226.056 13.6904C226.02 13.9705 226.032 14.2525 226.044 14.5312C226.051 14.6667 226.057 14.8107 226.057 14.9551V15.9297C226.057 17.7808 226.058 19.6965 226.169 21.5684L226.208 22.2129C226.219 22.4282 226.228 22.644 226.238 22.8594L226.307 24.1729C226.387 25.49 226.513 26.8156 226.837 28.1025L226.972 28.5986C227.112 29.08 227.268 29.5198 227.448 29.9316C227.647 30.3847 227.974 30.6513 228.424 30.7373C228.815 30.8112 229.228 30.885 229.646 30.9277H229.645C230.091 30.9663 230.487 30.8905 230.841 30.6982C231.197 30.5054 231.516 30.1912 231.801 29.7451C232.225 29.0842 232.445 28.3193 232.469 27.3906V25.7744L232.446 24.9883C232.426 24.2009 232.418 23.4104 232.414 22.6377L232.395 21.1182C232.391 20.8625 232.386 20.6064 232.38 20.3506L232.358 19.5859C232.321 18.522 232.221 17.4446 232.122 16.3955C232.072 15.8706 232.028 15.3458 231.985 14.8154V14.8145C231.979 14.7408 231.964 14.7193 231.957 14.7119C231.949 14.7052 231.928 14.6914 231.855 14.6914H231.34C230.703 14.6588 230.204 14.2547 230.183 13.6943C230.162 13.1215 230.627 12.6881 231.266 12.6162C231.709 12.5667 232.152 12.5294 232.583 12.5107H232.584C233.187 12.4863 233.804 12.4014 234.337 12.3213V12.3203C234.616 12.2754 234.865 12.2949 235.103 12.3721L235.106 12.3682C235.52 12.5095 235.765 12.812 235.807 13.2227L235.813 13.3838C235.803 13.6976 235.655 13.9652 235.392 14.1504L235.25 14.2354C235.082 14.3225 234.894 14.3623 234.736 14.3984L234.733 14.3994C234.542 14.4377 234.417 14.5086 234.342 14.6016C234.269 14.6934 234.233 14.8208 234.248 14.9961L234.249 15.0049H234.248V15.1025Z" fill="#DD1C47" stroke="#DD1C47" stroke-width="0.2"/>
<path d="M255.134 25.9795L255.138 28.3008C255.137 29.0823 255.134 29.8678 255.127 30.6455V30.6475C255.124 30.751 255.131 30.8283 255.144 30.8838C255.15 30.9112 255.158 30.9314 255.166 30.9463L255.188 30.9775L255.192 30.9805C255.212 31.0002 255.255 31.02 255.348 31.0205L255.458 31.0137C255.663 30.9884 255.867 30.9883 256.057 30.9883L256.439 30.9756C256.473 30.9737 256.507 30.9702 256.542 30.9678L256.54 30.9668L256.796 30.9277C257.417 30.834 257.961 31.192 258.078 31.7979L258.089 31.8896C258.104 32.1035 258.028 32.3187 257.897 32.499C257.747 32.7055 257.521 32.8744 257.257 32.9551H257.256C256.92 33.0558 256.612 33.1074 256.321 33.1074L251.554 33.1201H251.523C251.443 33.1201 251.335 33.12 251.225 33.0996V33.0986C250.664 33.005 250.28 32.586 250.33 32.0664V32.0654C250.357 31.8083 250.454 31.5945 250.622 31.4395C250.789 31.2851 251.016 31.1968 251.291 31.1738H251.292C251.795 31.1368 252.295 31.1062 252.776 31.0938H252.778C252.831 31.0938 252.871 31.0882 252.899 31.0801C252.927 31.0717 252.937 31.0626 252.939 31.0605C252.95 31.0477 252.964 31.0143 252.964 30.9102V26.9492C252.964 22.859 252.964 18.7682 252.976 14.6777L252.972 14.54C252.969 14.5012 252.964 14.4687 252.958 14.4414C252.945 14.387 252.93 14.3625 252.917 14.3506L252.913 14.3477C252.901 14.3365 252.88 14.3233 252.833 14.3145C252.784 14.3055 252.719 14.3027 252.629 14.3027H252.565L252.222 14.3154C251.933 14.3235 251.634 14.3198 251.336 14.2686L251.158 14.2314C250.858 14.1602 250.617 14.0286 250.457 13.8447C250.295 13.659 250.221 13.426 250.249 13.168L250.263 13.0684C250.307 12.842 250.418 12.6536 250.586 12.5176C250.778 12.3631 251.036 12.2834 251.335 12.2832C253.318 12.2709 255.053 12.2699 256.644 12.2822L256.643 12.2832C257.024 12.2832 257.357 12.4064 257.579 12.6396L257.647 12.7168C257.795 12.9039 257.861 13.1317 257.849 13.3809C257.821 13.9852 257.296 14.3887 256.619 14.3887H256.575C256.199 14.3887 255.798 14.3705 255.281 14.3271H255.28C255.141 14.3152 255.089 14.3382 255.074 14.3535L255.069 14.3574C255.063 14.3628 255.049 14.3801 255.039 14.4258C255.028 14.4706 255.022 14.5329 255.022 14.6152C255.034 15.6141 255.059 16.6122 255.078 17.6123L255.09 18.2168C255.121 19.6558 255.115 21.1131 255.109 22.5195V24.1797L255.132 24.2949L255.134 24.3047V25.9795Z" fill="#DD1C47" stroke="#DD1C47" stroke-width="0.2"/>
<path d="M239.161 12.1807C239.449 12.1833 239.734 12.201 240.007 12.2148L240.006 12.2158C240.088 12.2189 240.17 12.222 240.25 12.2266C240.331 12.2312 240.411 12.2362 240.49 12.2393L240.49 12.2402C241.761 12.2588 243.265 12.3624 244.742 12.9668H244.75L244.769 12.9746C246.511 13.6891 247.62 14.9028 248.145 16.666C248.514 17.8976 248.703 19.1969 248.715 20.6367C248.746 23.5698 248.391 25.7624 247.564 27.7344C246.759 29.6587 245.637 31.0434 244.144 31.9414L243.84 32.1143C242.809 32.6731 241.643 32.933 240.073 32.9766L240.074 32.9775C239.778 32.9898 239.487 33.0077 239.216 33.0322L239.217 33.0332C239.155 33.04 239.094 33.04 239.045 33.04C238.391 33.04 237.9 32.7099 237.809 32.1475V32.1465C237.717 31.5472 238.202 31.0514 238.919 30.9102L239.192 30.8613C239.283 30.8485 239.375 30.8408 239.467 30.8408H239.524C239.67 30.8408 239.742 30.8106 239.776 30.7773L239.779 30.7744H239.78C239.822 30.7359 239.864 30.643 239.865 30.4414V30.4395C239.896 28.835 239.945 27.2236 239.989 25.6201L240.094 21.7949C240.138 20.1781 240.188 18.5185 240.219 16.8779C240.225 16.3696 240.207 15.8482 240.182 15.3438L240.158 14.8652C240.152 14.7051 240.147 14.5437 240.144 14.3828V14.3809C240.144 14.2873 240.128 14.2611 240.118 14.252C240.113 14.2466 240.103 14.2401 240.081 14.2344L239.98 14.2217C239.641 14.2094 239.237 14.2039 238.847 14.1602V14.1592C238.273 14.0991 237.858 13.7083 237.858 13.1719C237.858 12.6488 238.329 12.2038 238.873 12.1836L239.161 12.1807ZM242.187 14.4326C242.183 14.4566 242.182 14.4899 242.181 14.5283C242.179 14.6092 242.184 14.6756 242.184 14.7334L242.202 15.0762C242.209 15.1901 242.215 15.304 242.221 15.418L242.281 16.5439C242.297 16.9228 242.308 17.3037 242.308 17.6816V17.6826C242.295 19.7255 242.258 21.7996 242.221 23.8047L242.206 24.6865L242.213 24.6807L242.208 24.9268C242.196 25.5947 242.165 26.269 242.134 26.9229C242.084 28.028 242.029 29.1586 242.066 30.2764L242.076 30.5078C242.077 30.5187 242.078 30.5294 242.079 30.5391C242.091 30.5353 242.103 30.5317 242.115 30.5273C242.187 30.5025 242.271 30.4706 242.332 30.4463C243.548 29.9635 244.477 29.064 245.245 27.6113C246.184 25.8393 246.346 23.9259 246.538 21.6797V21.5859L246.514 21.0244C246.489 20.4563 246.464 19.7917 246.427 19.1328L246.407 18.9287C246.382 18.7238 246.342 18.5158 246.304 18.3057L246.211 17.8623C245.981 16.8721 245.65 16.1705 245.137 15.6562C244.55 15.0683 243.712 14.712 242.474 14.4668H242.472C242.418 14.4549 242.284 14.4316 242.201 14.4316C242.196 14.4316 242.191 14.4323 242.187 14.4326Z" fill="#DD1C47" stroke="#DD1C47" stroke-width="0.2"/>
<path d="M264.58 12.1406C265.408 12.0458 266.246 12.192 267.141 12.5674C267.972 12.9154 268.516 13.6174 268.821 14.6865L268.951 15.1787C269.24 16.3442 269.411 17.634 269.477 19.0967C269.527 20.199 269.507 21.4613 269.42 22.7354C269.339 24.9986 269.202 27.4087 268.528 29.6914C268.243 30.6529 267.741 31.4458 266.988 32.1123L266.989 32.1133C266.364 32.6696 265.474 32.9589 264.53 32.959C263.927 32.959 263.305 32.8458 262.708 32.6064C261.238 32.0213 260.288 30.8563 260.07 29.3887L260.036 29.0918C259.987 28.4992 259.937 27.8166 259.937 27.1582C259.937 24.4412 260.036 21.484 260.253 17.8428C260.309 16.9272 260.441 15.7269 260.947 14.6357V14.6348C261.634 13.1755 262.859 12.3354 264.58 12.1406ZM266.354 14.4316C265.226 14.0361 264.411 14.0365 263.68 14.4141C263.104 14.7117 262.733 15.2447 262.545 16.0635C262.28 17.2248 262.237 18.4308 262.199 19.6104C262.187 20.0798 262.168 20.5625 262.137 21.0391C262.131 21.1929 262.123 21.3468 262.115 21.5C262.108 21.6543 262.1 21.8083 262.094 21.9619V21.9629C262.075 22.2987 262.058 22.6408 262.043 22.9834L262.007 24.0088C261.976 25.0747 261.97 26.042 261.976 26.9727C261.982 27.7786 262.013 28.4417 262.074 29.0547V29.0557C262.163 29.9547 262.734 30.5927 263.644 30.8057C264.076 30.9036 264.522 30.9698 264.942 30.9014C265.357 30.8336 265.752 30.6334 266.083 30.1895C266.317 29.8738 266.493 29.5027 266.62 29.0557C266.96 27.8428 267.164 26.5299 267.281 24.7949L267.297 24.5771L267.302 24.582C267.409 22.9483 267.515 21.076 267.449 19.2158C267.406 18.0446 267.264 16.8923 267.026 15.7881L266.918 15.3184C266.869 15.1198 266.809 14.9253 266.719 14.7656C266.63 14.6076 266.514 14.49 266.354 14.4326V14.4316Z" fill="#DD1C47" stroke="#DD1C47" stroke-width="0.2"/>
<path d="M119.56 12.3691C120.856 12.3382 122.4 12.374 123.934 12.9297L124.264 13.0596C125.878 13.7379 126.95 14.8805 127.524 16.5391L127.53 16.5547V16.5713C127.952 17.8028 128.201 19.1075 128.275 20.5645C128.437 23.547 128.169 25.789 127.418 27.8291C126.628 29.9559 125.454 31.469 123.821 32.4453C122.797 33.054 121.625 33.3706 120.03 33.4824L120.031 33.4834C119.747 33.5079 119.468 33.5392 119.158 33.5762L119.157 33.5752C119.069 33.5882 118.976 33.5889 118.904 33.5889C118.32 33.5889 117.865 33.3214 117.719 32.8369L117.693 32.7373C117.573 32.132 118.045 31.6087 118.768 31.4355C118.945 31.3933 119.15 31.3409 119.357 31.3408C119.52 31.3408 119.6 31.3054 119.641 31.2646C119.689 31.2168 119.717 31.1223 119.718 30.9121L119.67 28.4541C119.656 27.6356 119.643 26.8176 119.631 26L119.599 24.0762L119.568 22.083L119.532 19.5996C119.519 18.7653 119.503 17.9282 119.481 17.0986C119.469 16.584 119.426 16.0561 119.383 15.5439V15.543C119.358 15.2189 119.326 14.8884 119.307 14.5605C119.301 14.4696 119.285 14.4395 119.272 14.4277C119.26 14.4165 119.23 14.4014 119.14 14.4014H119.129L118.533 14.4043C118.344 14.4027 118.161 14.398 117.973 14.3887H117.971C117.384 14.3489 116.956 13.9718 116.927 13.4307C116.899 12.9007 117.358 12.4296 117.914 12.3887V12.3877C118.305 12.3564 118.695 12.363 119.073 12.3691H119.56ZM121.381 14.5205C121.38 14.5228 121.38 14.5254 121.38 14.5283C121.376 14.5517 121.373 14.5841 121.374 14.6221C121.375 14.6971 121.383 14.7803 121.389 14.832L121.39 14.8359H121.389C121.408 15.0627 121.433 15.2962 121.458 15.5244C121.518 16.0894 121.576 16.6694 121.614 17.251L121.645 17.832V17.833C121.72 19.9497 121.775 22.1034 121.825 24.1826L121.85 25.2129V25.2139C121.863 25.8873 121.862 26.5732 121.862 27.2393C121.862 28.3632 121.856 29.5187 121.943 30.6553C121.949 30.7367 121.955 30.8217 121.964 30.8916C121.965 30.9044 121.967 30.9167 121.969 30.9277C121.984 30.9219 122.001 30.9164 122.019 30.9092C122.088 30.8815 122.165 30.8466 122.223 30.8193L122.224 30.8184C123.447 30.2687 124.352 29.3204 125.071 27.8066C125.943 25.9599 126.025 24.002 126.125 21.7109V21.6084L126.081 21.0713C126.031 20.485 125.975 19.8017 125.907 19.1182L125.879 18.9053C125.844 18.6917 125.795 18.478 125.748 18.2783C125.458 17.0405 125.066 16.2092 124.443 15.6367C123.821 15.0649 122.954 14.7393 121.684 14.543L121.421 14.5186C121.404 14.5186 121.391 14.5192 121.381 14.5205Z" fill="#DD1C47" stroke="#DD1C47" stroke-width="0.2"/>
<path d="M136.826 12.3076C137.19 12.3076 137.429 12.4652 137.591 12.6836C137.669 12.7893 137.729 12.9095 137.779 13.0303L137.903 13.3818V13.3828L137.927 13.4619L138.111 14.0342C139.015 16.9136 139.691 20.0463 140.181 23.5791C140.502 25.8828 140.827 28.2465 141.58 30.542L141.736 31C141.821 31.2419 141.903 31.3357 141.969 31.3672C142.032 31.3934 142.136 31.3937 142.313 31.3232C142.532 31.2364 142.89 31.1088 143.267 31.1689L143.351 31.1826V31.1914C143.564 31.2315 143.743 31.3105 143.878 31.4336C143.993 31.5391 144.073 31.6718 144.116 31.8252L144.146 31.9854C144.17 32.2166 144.119 32.4241 143.991 32.5908C143.896 32.7147 143.762 32.8108 143.596 32.8789L143.42 32.9375C142.234 33.2472 141.135 33.4463 140.065 33.5332L140.057 33.5342V33.5332H139.921C139.656 33.5332 139.426 33.4681 139.253 33.3389C139.078 33.2084 138.97 33.0178 138.945 32.7852L138.937 32.6895C138.93 32.4693 138.99 32.2743 139.116 32.1191C139.259 31.9432 139.479 31.8295 139.754 31.7803H139.755C139.822 31.7686 139.87 31.7547 139.903 31.7402C139.935 31.726 139.944 31.7149 139.945 31.7129C139.946 31.7118 139.952 31.6977 139.947 31.6562C139.945 31.6361 139.94 31.6121 139.932 31.584L139.901 31.4873C139.52 30.4515 139.208 29.3053 138.959 27.9873L138.932 27.877C138.905 27.7818 138.873 27.7276 138.836 27.6953C138.79 27.6552 138.715 27.6328 138.565 27.6416C138.127 27.6665 137.674 27.6533 137.249 27.6533H136.823L136.699 27.666L136.689 27.667V27.666H134.725C134.587 27.666 134.507 27.6921 134.457 27.7354C134.406 27.7791 134.365 27.8561 134.339 27.998L133.873 30.4297L133.692 31.3311L133.691 31.3369C133.68 31.3779 133.664 31.4591 133.656 31.5352C133.652 31.573 133.65 31.6062 133.651 31.6309C133.677 31.6344 133.712 31.6361 133.753 31.6357C133.832 31.635 133.917 31.6284 133.97 31.625L134.105 31.6123C134.379 31.5814 134.678 31.5557 134.986 31.6143H134.987C135.238 31.6634 135.442 31.7634 135.585 31.915C135.729 32.0679 135.804 32.2655 135.807 32.4941C135.811 32.7327 135.737 32.9423 135.589 33.1035C135.478 33.2237 135.33 33.3126 135.153 33.3691L134.967 33.415C134.82 33.4415 134.675 33.4404 134.546 33.4404H133.246C132.525 33.4343 131.789 33.4351 131.066 33.4902H131.065C130.964 33.4969 130.861 33.4896 130.764 33.4766L130.501 33.4258C130.214 33.3563 130.031 33.225 129.922 33.0654C129.813 32.9077 129.785 32.7328 129.785 32.5879C129.785 32.3584 129.852 32.1592 129.985 32.0068C130.118 31.8551 130.31 31.7587 130.545 31.7188L130.546 31.7178C130.738 31.6869 130.973 31.6543 131.204 31.6738H131.203C131.408 31.6888 131.52 31.6632 131.592 31.6055C131.665 31.5464 131.72 31.4354 131.762 31.2178C132.328 28.2189 132.925 25.2511 133.434 22.7402C133.895 20.4536 134.517 18.1737 135.12 15.9717L135.791 13.4805V13.4795L135.822 13.3623C135.871 13.1589 135.935 12.8975 136.076 12.6875C136.223 12.4688 136.451 12.3077 136.813 12.3076H136.826ZM136.869 16.6104C135.992 20.0186 135.328 22.9 134.793 25.6299L134.792 25.6328C134.774 25.7097 134.766 25.7665 134.766 25.8057C134.766 25.8248 134.768 25.8364 134.769 25.8428C134.774 25.8444 134.782 25.8456 134.793 25.8477C134.826 25.8541 134.881 25.8583 134.969 25.8555L135.353 25.8379L136.096 25.7969C136.845 25.7598 137.608 25.7362 138.362 25.7686C138.407 25.7685 138.453 25.768 138.491 25.7617C138.535 25.7545 138.544 25.7447 138.541 25.748L138.545 25.7432C138.546 25.7409 138.552 25.7297 138.554 25.7002C138.557 25.6633 138.553 25.611 138.542 25.541L138.344 24.333L138.156 23.1211C137.988 22.0716 137.827 21.0239 137.653 19.9756C137.482 18.9578 137.257 17.7946 136.869 16.6104Z" fill="#DD1C47" stroke="#DD1C47" stroke-width="0.2"/>
<path d="M150.442 31.543L150.444 31.792C150.442 32.0459 150.422 32.3112 150.338 32.5742L150.337 32.5752C150.194 33.0159 149.916 33.3518 149.541 33.501L149.539 33.502C149.397 33.5555 149.254 33.582 149.099 33.582C148.863 33.582 148.623 33.5153 148.393 33.3916C147.779 33.0682 147.191 32.6834 146.701 32.3564V32.3555C146.248 32.0492 146.103 31.449 146.378 30.9766C146.514 30.7436 146.712 30.5838 146.949 30.5127C147.185 30.4419 147.451 30.4605 147.72 30.5693C147.74 30.5772 147.759 30.5875 147.774 30.5947C147.79 30.6025 147.801 30.608 147.812 30.6123L147.816 30.6143C147.909 30.6556 148.017 30.7066 148.113 30.7461C148.143 30.7584 148.171 30.7669 148.195 30.7754C148.195 30.7492 148.194 30.7192 148.193 30.6875C148.188 30.5871 148.18 30.4733 148.173 30.3994C148.011 28.4332 148.205 26.4622 148.391 24.5635V24.5625C148.453 23.9525 148.508 23.3424 148.558 22.7324C148.626 21.8264 148.689 20.9018 148.745 20.0078V20.0068C148.788 19.3311 148.832 18.6544 148.887 17.9775V17.8467C148.962 16.8489 149.037 15.8043 149.275 14.7959L149.328 14.5791C149.386 14.3527 149.463 14.1048 149.592 13.8867C149.768 13.5907 150.04 13.3466 150.482 13.2764L150.626 13.2607C151.334 13.2209 151.804 13.7521 152.181 14.1777L152.304 14.3271C152.573 14.6827 152.712 15.0858 152.805 15.4014C153.915 19.1455 155.504 22.7799 157.045 26.3037C157.3 26.8843 157.553 27.466 157.805 28.0469L157.755 27.4375C157.656 26.2343 157.562 25.025 157.469 23.8223V23.8213C157.407 22.9325 157.364 22.2023 157.345 21.5215L157.283 18.9482C157.27 18.2639 157.252 17.5794 157.233 16.8945V16.8936C157.227 16.5317 157.209 16.1757 157.19 15.8115V15.8105C157.171 15.4324 157.149 15.0445 157.139 14.6543L157.133 14.2637C157.127 13.6352 157.3 13.1359 157.649 12.8027C158.005 12.4622 158.528 12.3244 159.16 12.3623L159.159 12.3633C159.301 12.3696 159.45 12.3813 159.608 12.3984L160.106 12.4619L160.126 12.4648L160.16 12.4844C160.748 12.5782 161.174 13.0216 161.174 13.5723C161.174 14.1296 160.757 14.5655 160.153 14.6709L160.082 14.6826L160.08 14.6797C159.952 14.7091 159.823 14.6935 159.728 14.6836H159.723C159.617 14.6681 159.563 14.6659 159.534 14.6719C159.522 14.6743 159.518 14.6777 159.517 14.6787C159.515 14.6801 159.511 14.6842 159.504 14.6973C159.483 14.7388 159.473 14.7979 159.472 14.877L159.49 15.1357V15.1367C159.495 15.1921 159.508 15.2781 159.508 15.3506C159.536 15.9621 159.557 16.5802 159.574 17.1953L159.621 19.0244L159.688 21.5342C159.717 22.377 159.754 23.2227 159.807 24.0605L159.875 25.0967C160.006 27.0701 160.143 29.1171 160.099 31.1396V31.1406C160.086 31.617 160.023 31.9812 159.886 32.3164V32.3174C159.685 32.807 159.332 33.1429 158.901 33.2051C158.478 33.2669 158.042 33.0578 157.709 32.6504C157.298 32.1435 156.975 31.6491 156.74 31.1543L156.645 30.9424C156.179 29.8634 155.694 28.7659 155.222 27.7051C154.123 25.2318 152.978 22.6614 152.05 20.0537C151.935 19.7314 151.827 19.4045 151.724 19.0781L151.427 18.1055C151.368 17.9117 151.31 17.722 151.253 17.5332C151.219 17.8738 151.188 18.2085 151.165 18.5391L151.076 19.9766L151.044 20.4707C150.939 22.2495 150.765 24.0527 150.597 25.792L150.579 26.0068V26.0078C150.411 27.7043 150.423 29.4328 150.442 31.1113V31.543Z" fill="#DD1C47" stroke="#DD1C47" stroke-width="0.2"/>
<path d="M166.483 13.6836C167.218 12.9634 168.313 12.1908 169.838 12.4189L170.006 12.4492C170.835 12.621 171.442 13.1258 171.969 13.6436V13.6445C172.184 13.8577 172.374 14.0834 172.559 14.2979L172.62 14.3682L172.614 14.373C172.872 14.6818 172.955 14.9608 172.921 15.207C172.887 15.4533 172.739 15.6447 172.587 15.7822C172.373 15.9748 172.117 16.064 171.858 16.0449C171.6 16.0259 171.347 15.8997 171.137 15.6777L171.136 15.6768C170.869 15.3866 170.63 15.1314 170.362 14.9014H170.361C170.022 14.6071 169.721 14.4629 169.424 14.4453C169.165 14.43 168.894 14.5102 168.59 14.6973L168.458 14.7842C167.381 15.5286 166.917 16.6905 166.601 17.748C166.182 19.1483 166.083 20.6052 165.984 22.0322V22.0332C165.959 22.3393 165.947 22.6528 165.934 22.9678C165.909 23.5304 165.884 24.1223 165.81 24.709C165.859 25.2551 165.853 25.8185 165.847 26.3516V26.3525C165.835 27.1438 165.823 27.9467 165.988 28.7295V28.7305C166.128 29.4011 166.36 29.9346 166.689 30.3496C167.017 30.7638 167.447 31.0656 167.994 31.2666C168.425 31.4252 168.795 31.4558 169.12 31.3672C169.444 31.2786 169.735 31.0672 170.005 30.7188C170.125 30.5576 170.221 30.3911 170.334 30.2041L170.335 30.2031C170.404 30.0922 170.472 29.981 170.541 29.8701L170.542 29.8682C170.874 29.3598 171.436 29.1639 171.926 29.4141H171.925C172.452 29.6791 172.663 30.2781 172.439 30.8242C171.963 31.9764 171.037 32.9109 169.966 33.335H169.965C169.544 33.4997 169.109 33.583 168.667 33.583C168.136 33.583 167.601 33.462 167.08 33.2285C166.108 32.7934 165.35 32.1902 164.797 31.4082C164.245 30.6265 163.903 29.6706 163.758 28.5352C163.471 26.2656 163.646 23.9541 163.795 21.9199V21.9189C163.901 20.5135 164.026 18.9066 164.452 17.3477V17.3467C164.846 15.9109 165.393 14.8402 166.19 13.9863L166.483 13.6836Z" fill="#DD1C47" stroke="#DD1C47" stroke-width="0.2"/>
<path d="M179.624 12.3691C180.704 12.3384 181.697 12.3311 182.667 12.5625H182.668C183.223 12.6973 183.895 12.9057 184.071 13.6611C184.281 14.5581 184.169 15.2887 183.718 15.8799L183.717 15.8809C183.422 16.2553 182.967 16.369 182.543 16.1553L182.419 16.0928L182.433 16.0781C182.293 15.9843 182.182 15.8661 182.109 15.7227C182.017 15.5416 181.987 15.3291 182.017 15.0967C182.042 14.8892 182.009 14.7456 181.938 14.6494C181.867 14.5541 181.744 14.4865 181.55 14.4619C180.884 14.3771 180.198 14.4242 179.525 14.4736L179.526 14.4746C179.16 14.5054 178.777 14.5371 178.399 14.5371C178.348 14.5371 178.335 14.5474 178.326 14.5596C178.309 14.5825 178.288 14.6392 178.282 14.7744V15.0947C178.27 15.4265 178.264 15.7617 178.282 16.0898L178.316 16.7559C178.358 17.8636 178.325 18.9636 178.265 20.0684L178.183 21.3965C178.173 21.5431 178.164 21.676 178.165 21.7803C178.165 21.8323 178.168 21.873 178.173 21.9023C178.179 21.9362 178.185 21.9373 178.178 21.9297C178.172 21.9244 178.175 21.9302 178.205 21.9365C178.233 21.9422 178.271 21.9464 178.321 21.9482C178.422 21.9519 178.553 21.9475 178.707 21.9443L178.979 21.9307C179.069 21.9246 179.158 21.9164 179.247 21.9072H179.251C179.441 21.8954 179.651 21.8701 179.854 21.8701C180.12 21.8701 180.354 21.8952 180.559 21.9541H180.56C180.823 22.0326 181.034 22.1647 181.176 22.3447C181.318 22.5251 181.386 22.7471 181.376 22.9961C181.362 23.5001 180.896 23.8869 180.338 23.9199C179.649 23.963 179.025 23.9999 178.389 24L178.39 24.001C178.23 24.0041 178.162 24.0203 178.125 24.0498C178.094 24.0754 178.064 24.1304 178.052 24.291C177.896 26.5118 177.76 28.6927 177.76 30.8789C177.76 31.0717 177.785 31.1507 177.823 31.1904C177.862 31.2298 177.94 31.2566 178.134 31.2598H178.135C178.988 31.2783 179.854 31.3286 180.687 31.3779L181.323 31.4141C181.407 31.4171 181.488 31.4193 181.553 31.415C181.585 31.4129 181.611 31.4094 181.628 31.4053C181.629 31.405 181.63 31.4036 181.631 31.4033L181.632 31.4023C181.635 31.3866 181.638 31.3635 181.639 31.333L181.631 31.1152C181.6 30.7373 181.574 30.2966 181.574 29.8613V29.8594C181.581 29.287 181.978 28.7879 182.513 28.7188L182.526 28.7178H182.619C183.087 28.7178 183.611 29.0894 183.693 29.6553L183.719 29.8281C183.818 30.5163 183.926 31.2469 183.818 31.9795L183.817 31.9805C183.737 32.4943 183.536 32.8984 183.212 33.1729C182.888 33.4471 182.452 33.582 181.923 33.582H181.91C181.461 33.5789 181.008 33.567 180.557 33.5508L179.216 33.4961C179.051 33.4899 178.884 33.4823 178.718 33.4746C178.552 33.4669 178.386 33.4593 178.222 33.4531C177.847 33.4407 177.521 33.4153 177.217 33.3906H177.216C176.706 33.3431 176.308 33.1945 176.033 32.9277C175.757 32.6597 175.619 32.2855 175.603 31.8145L175.588 31.2773C175.564 30.0261 175.603 28.7768 175.646 27.6055C175.684 26.5794 175.758 25.541 175.826 24.5361C175.851 24.1783 175.877 23.8197 175.901 23.4619C176.112 20.2701 176.125 17.0776 176.112 14.6475C176.106 13.864 176.27 13.3076 176.651 12.9287C177.039 12.5441 177.617 12.3682 178.449 12.3682H179.624V12.3691Z" fill="#DD1C47" stroke="#DD1C47" stroke-width="0.2"/>
<path d="M68.824 15.5664C68.9355 16.75 69.0042 17.9574 69.0662 19.1201L69.1589 20.6865L69.2439 22.1963C69.3174 23.7088 69.3602 25.2256 69.4021 26.7061C69.4394 28.051 69.4767 29.4441 69.5388 30.8125V30.8135C69.5418 30.88 69.5489 30.9283 69.5583 30.9619C69.5629 30.9782 69.5671 30.9897 69.571 30.9971C69.5718 30.9985 69.5733 30.9999 69.574 31.001C69.5789 31.003 69.5909 31.0084 69.616 31.0098C69.6487 31.0115 69.6946 31.0084 69.7546 30.9971L69.9236 30.9697C70.3107 30.919 70.6516 30.9651 70.9597 31.1094L70.9685 31.1133V31.1143L70.9929 31.1289C71.2458 31.2483 71.4386 31.4007 71.5623 31.5869C71.687 31.7749 71.7364 31.9908 71.7126 32.2275C71.6585 32.7852 71.2821 33.18 70.7332 33.2607C70.1327 33.3477 69.5804 33.3916 69.0652 33.3916H68.9275C68.574 33.3851 68.2673 33.2869 68.0203 33.0977C67.7737 32.9087 67.5929 32.6342 67.4792 32.2861C67.3071 31.7607 67.263 31.2251 67.238 30.7305L67.2058 30.0459C67.1784 29.36 67.1639 28.6709 67.1453 28.001V28C67.139 27.6852 67.1323 27.3711 67.1199 27.0576V27.0566C67.0143 23.3437 66.8587 20.1001 66.6414 17.1406V17.1396C66.6289 17.0368 66.6287 16.9349 66.6287 16.8398C66.6255 16.7457 66.6241 16.6549 66.6189 16.5635C66.0844 17.4322 65.5963 18.288 65.1091 19.2217L65.1082 19.2227L65.0525 19.3271V19.3281C64.924 19.565 64.7956 19.8192 64.6296 20.0537C64.3018 20.5196 63.8816 20.7817 63.4373 20.7549V20.7559H63.4353V20.7549C62.9906 20.7334 62.6046 20.424 62.3406 19.9316L61.2654 17.9141L60.4705 16.4219V16.4209C60.4529 16.3934 60.4401 16.3635 60.4275 16.3359C60.3305 16.8386 60.2747 17.3435 60.2166 17.8418L60.1609 18.3174C59.8377 21.174 59.4955 24.1341 59.2097 27.0449V27.0459C59.0482 28.6434 58.9054 30.2004 58.8806 31.7627C58.8742 32.1828 58.7765 32.5125 58.5583 32.7422C58.3672 32.9434 58.0962 33.0551 57.7517 33.0947L57.5994 33.1074C57.0029 33.1383 56.4123 33.1684 55.822 33.1992C55.6054 33.2118 55.3077 33.2079 55.0271 33.0449L55.0251 33.0439C54.7506 32.8767 54.3284 32.5606 54.4197 31.9932C54.4569 31.7417 54.5642 31.5304 54.7322 31.374C54.8998 31.2181 55.1222 31.1219 55.3816 31.0889L55.3826 31.0879C55.6414 31.0566 55.9065 31.0445 56.1541 31.0322C56.2159 31.0292 56.2777 31.0255 56.3396 31.0225C56.4007 31.0194 56.4621 31.0167 56.5232 31.0137L56.5867 31.0049C56.641 30.9938 56.668 30.9764 56.6843 30.957C56.7092 30.9273 56.7301 30.8699 56.7361 30.7451L56.8171 29.0391C57.0398 25.0106 57.4921 20.6348 58.2156 15.4287C58.2844 14.9256 58.3844 14.3857 58.5339 13.7236C58.6295 13.2939 58.7852 12.9563 59.0105 12.7168C59.2379 12.4751 59.5304 12.3405 59.8845 12.3076C60.7029 12.2339 61.1297 12.8316 61.3982 13.3213L61.8679 14.1895C62.0226 14.4796 62.1748 14.7697 62.324 15.0566H62.325C62.5983 15.5748 62.8709 16.0928 63.1501 16.6104L63.1521 16.6133C63.2102 16.7286 63.261 16.8561 63.3103 16.9785C63.3674 17.1203 63.4203 17.2531 63.4802 17.3516C63.5385 17.4473 63.5849 17.4772 63.6199 17.4814C63.6231 17.4789 63.6294 17.4749 63.6365 17.4668C63.6562 17.444 63.6789 17.4078 63.7039 17.3594C63.7538 17.2623 63.8009 17.1391 63.8455 17.0283C63.8999 16.8902 63.9591 16.7337 64.032 16.6084L64.9578 14.9746V14.9736C65.2623 14.4369 65.5673 13.9 65.8718 13.3633C66.0473 13.0461 66.2868 12.677 66.7537 12.5225V12.5215C67.1091 12.405 67.4622 12.4435 67.7625 12.6152C68.0613 12.7864 68.3018 13.0861 68.4451 13.4834C68.6861 14.151 68.7549 14.8552 68.823 15.5254L68.824 15.5352V15.5664Z" fill="#DD1C47" stroke="#DD1C47" stroke-width="0.2"/>
<path d="M77.0078 31.0088C77.0079 31.0732 77.0198 31.1067 77.0273 31.1221C77.0318 31.1311 77.036 31.1346 77.04 31.1387C77.0591 31.1487 77.1047 31.1611 77.2061 31.1611C77.5995 31.1488 77.9523 31.1929 78.2812 31.3018L78.4551 31.3711C78.6186 31.4492 78.7507 31.5548 78.8447 31.6875C78.9705 31.8652 79.0222 32.0824 79.002 32.3242V32.3252C78.9815 32.5617 78.8929 32.7661 78.7412 32.9229C78.5899 33.0792 78.3814 33.1832 78.1318 33.2295H78.1289C78.0067 33.2489 77.8791 33.2581 77.752 33.25L77.626 33.2354C76.7958 33.1081 75.9511 33.1995 75.1221 33.2861H75.1211C74.9911 33.2984 74.8673 33.3109 74.7432 33.3232V33.3223L74.626 33.334C74.5205 33.3463 74.4037 33.3604 74.2793 33.3604C74.2312 33.3604 74.1837 33.3564 74.1367 33.3506L73.9971 33.3271C73.6988 33.2614 73.5001 33.1316 73.374 32.9736C73.2496 32.8175 73.2021 32.6421 73.1914 32.4922L73.1895 32.3262C73.2 32.1646 73.2489 32.0171 73.335 31.8906C73.4494 31.7224 73.6247 31.598 73.8438 31.5244H73.8447C74.1536 31.4243 74.435 31.3602 74.7002 31.3408L74.7959 31.3281C74.8779 31.3129 74.9204 31.2893 74.9443 31.2627C74.975 31.2285 74.9962 31.1657 74.9873 31.0273V31.0264L74.8008 27.6143L74.7266 26.2256L74.7256 26.2207H74.7266C74.7266 26.1884 74.7239 26.1536 74.7207 26.1133C74.7178 26.0768 74.7142 26.0359 74.7139 25.9941C74.7015 25.8472 74.6885 25.6954 74.6885 25.543C74.6792 24.7779 74.6718 24.0129 74.6641 23.248C74.6563 22.483 74.648 21.718 74.6387 20.9531V20.9521C74.6138 19.1758 74.5958 17.4057 74.5771 15.6357L74.5635 15.1143C74.56 15.0283 74.5556 14.9428 74.5498 14.8574L74.5283 14.6016C74.4522 13.8771 74.5763 13.3017 74.9307 12.8965L74.9316 12.8955C75.2861 12.4972 75.8457 12.2953 76.5693 12.2764H77.0674C79.1943 12.3572 80.7915 13.0766 81.9307 14.4922L81.9434 14.499L81.957 14.5156C82.4549 15.1366 82.7716 15.9072 82.9229 16.877C83.1671 18.4318 83.0924 19.8176 82.6768 21.1182C82.3329 22.199 81.6373 23.0091 80.6143 23.5391C79.6239 24.0523 78.4233 24.602 77.0811 24.7646L77.082 24.7656C76.9369 24.784 76.8764 24.8106 76.8477 24.8408C76.8288 24.8606 76.8127 24.8931 76.8086 24.9619V25.0449C76.8956 27.2231 76.9581 29.3765 77.0078 31.0049V31.0088ZM76.7969 22.5059C76.794 22.5573 76.7951 22.5944 76.7998 22.6191C76.8012 22.6262 76.8015 22.6321 76.8027 22.6357C76.8151 22.6402 76.859 22.652 76.9697 22.6309L76.9717 22.6299C77.7912 22.4902 78.6266 22.186 79.6211 21.6709C80.2421 21.3478 80.6231 20.8093 80.7676 20.0029C80.8533 19.5165 80.8907 19.0116 80.8662 18.4639L80.8584 18.2939L80.8779 18.3037V18.1875C80.8779 17.9859 80.8841 17.8031 80.8662 17.625C80.7426 16.5516 80.4987 15.7523 79.7236 15.2354C78.8723 14.6698 78.0584 14.3945 77.2373 14.3945H77.0938L76.8027 14.4131C76.7665 14.4171 76.74 14.4219 76.7217 14.4268H76.7188C76.7183 14.4288 76.7183 14.4311 76.7178 14.4336C76.7137 14.4552 76.7102 14.486 76.708 14.5244C76.7036 14.6011 76.7031 14.6981 76.7031 14.8008C76.7155 15.7197 76.7264 16.6404 76.7373 17.5615C76.7482 18.483 76.7591 19.4051 76.7715 20.3271L76.7969 22.3877V22.5059Z" fill="#DD1C47" stroke="#DD1C47" stroke-width="0.2"/>
<path d="M49.97 18.2969L49.9866 19.3848C49.9977 20.4762 49.9932 21.5725 49.9885 22.6367V24.2334H50.0129V26.1279C50.0129 27.6764 50.0137 29.2814 50.0012 30.8613C50.0013 30.9651 50.0081 31.0426 50.0217 31.0986C50.0355 31.1549 50.054 31.181 50.0676 31.1934C50.0831 31.2072 50.1078 31.2203 50.1536 31.2275C50.2005 31.235 50.2628 31.2354 50.3469 31.2295C50.5505 31.2046 50.7591 31.2051 50.9485 31.2051L51.3372 31.1914C51.467 31.1846 51.5961 31.1742 51.72 31.1562L51.7913 31.1465L51.7981 31.1602C52.3893 31.0987 52.9069 31.4571 53.0188 32.0449L53.0305 32.1377C53.0444 32.3542 52.9669 32.5716 52.8342 32.7539C52.6822 32.9628 52.4527 33.1332 52.1858 33.2139L52.1848 33.2148C51.85 33.3152 51.5356 33.373 51.2434 33.373H50.2805L48.3538 33.3838C47.7119 33.3853 47.0702 33.3848 46.427 33.3848H46.4143C46.3225 33.3848 46.2017 33.3855 46.0862 33.3652C45.5134 33.2658 45.1285 32.8459 45.178 32.3193C45.2016 32.0588 45.2988 31.842 45.468 31.6846C45.6366 31.5277 45.8676 31.4381 46.1448 31.415L46.9075 31.3604C47.157 31.3456 47.4024 31.3343 47.6428 31.3281H47.6448C47.6972 31.3281 47.737 31.3225 47.7649 31.3145C47.7935 31.3061 47.8042 31.297 47.8059 31.2949C47.8097 31.2905 47.8169 31.2788 47.8225 31.252C47.8282 31.2246 47.8313 31.1871 47.8313 31.1377V27.3994C47.8313 23.2473 47.8306 18.9468 47.843 14.7266L47.8391 14.5928C47.836 14.5537 47.8307 14.5202 47.8245 14.4922C47.8121 14.4367 47.7959 14.4118 47.7834 14.4004L47.7795 14.3965C47.7509 14.3682 47.6736 14.3394 47.4963 14.3516H47.4319L47.0823 14.3633C46.7283 14.3712 46.3613 14.3614 46.0002 14.2754V14.2725C45.6967 14.2008 45.4539 14.069 45.2932 13.8838C45.13 13.6955 45.0566 13.4591 45.0842 13.1982H45.0852C45.1158 12.9251 45.2339 12.6978 45.428 12.54C45.621 12.3831 45.8806 12.3019 46.1838 12.3018C48.1976 12.2894 49.9511 12.2884 51.5549 12.3008H51.5559C51.9347 12.3074 52.2734 12.4307 52.4954 12.6641C52.6661 12.8397 52.7552 13.0626 52.7659 13.3057V13.4121C52.731 14.021 52.2078 14.4316 51.5227 14.4316C51.1272 14.4316 50.7076 14.4075 50.1663 14.3643V14.3633C50.019 14.3511 49.9676 14.3755 49.9524 14.3906C49.9421 14.4009 49.9287 14.4217 49.9182 14.4658C49.9076 14.5106 49.9016 14.5734 49.9016 14.6592C49.914 15.7561 49.9389 16.8715 49.97 17.9502V18.2969Z" fill="#DD1C47" stroke="#DD1C47" stroke-width="0.2"/>
<path d="M37.9753 12.4258C38.8533 12.3106 39.9104 12.6703 40.7996 13.2549C41.6887 13.8395 42.4348 14.6652 42.6707 15.5088C42.8053 15.9917 42.7359 16.5682 42.5388 17.0801C42.3418 17.5915 42.01 18.0554 41.6003 18.3047H41.5994C41.3797 18.4349 41.155 18.5083 40.9275 18.5117C40.6992 18.5151 40.4743 18.4486 40.2576 18.3096V18.3086C40.0074 18.1495 39.9112 17.9489 39.9011 17.7305C39.8918 17.5243 39.9601 17.3059 40.0173 17.1113C40.1502 16.6633 40.2277 16.3041 40.2429 16.0137C40.2581 15.7243 40.2112 15.511 40.1023 15.3467C39.9933 15.1821 39.8131 15.0528 39.5369 14.9492C39.2599 14.8454 38.8938 14.7703 38.4226 14.709C38.0894 14.6647 37.7936 14.699 37.5339 14.8096C37.2742 14.9202 37.0437 15.1102 36.8445 15.3848C36.3925 16.0084 36.1732 16.6696 36.2 17.3076C36.2268 17.9449 36.4991 18.5685 37.0457 19.1172L37.2156 19.2881C37.7242 19.7858 38.259 20.26 38.8015 20.7295C39.4056 21.2522 40.0185 21.7719 40.6042 22.3164C42.1194 23.7213 43.1332 25.3992 43.0964 27.4287C43.1407 30.313 41.1885 32.549 38.3044 33.0879C37.0673 33.3186 35.8326 33.3006 34.6218 32.9375C33.6665 32.6513 32.9291 31.7911 32.5544 30.8066C32.1799 29.8222 32.1585 28.6874 32.6697 27.8359L32.7371 27.7314C32.9004 27.5048 33.0981 27.3932 33.3191 27.3584C33.5627 27.3201 33.8254 27.3775 34.0798 27.4453H34.0808C34.3406 27.5171 34.5315 27.6357 34.6433 27.8145C34.727 27.9483 34.7599 28.106 34.7546 28.2822L34.7371 28.4639C34.7062 28.6659 34.6824 28.8633 34.6824 29.0527C34.7041 29.7456 34.8407 30.179 35.1218 30.4639C35.4054 30.7511 35.855 30.9072 36.5525 30.9961L36.7566 31.0156C37.7696 31.0831 38.6602 30.6973 39.3621 30.1309C40.1122 29.5254 40.6404 28.7187 40.864 28.0586C41.1733 27.1492 40.9208 26.314 40.3201 25.5488V25.5479C39.7948 24.8847 39.1786 24.3132 38.5291 23.7725L37.8699 23.2393C36.5628 22.2011 35.3271 21.101 34.4167 19.6611C33.3856 18.0357 33.502 16.3256 34.2634 14.9736C35.0229 13.6252 36.4255 12.6308 37.9744 12.4258H37.9753Z" fill="#DD1C47" stroke="#DD1C47" stroke-width="0.2"/>
<path d="M84.9746 14.1025V14.3018H84.9678V14.1025H84.9746Z" fill="#DD1C47" stroke="#DD1C47" stroke-width="0.2"/>
<path d="M88.2178 30.6016L88.3174 30.6074C88.311 30.7218 88.2984 30.8425 88.2793 30.9629L88.2783 30.9668C88.2673 31.0214 88.2658 31.0641 88.2686 31.0938C88.2699 31.1079 88.2717 31.1173 88.2734 31.123C88.2762 31.1237 88.2796 31.1253 88.2842 31.126C88.3112 31.1301 88.3611 31.1308 88.4463 31.1191L88.8232 31.0703C89.7078 30.9644 90.6245 30.925 91.5645 30.9521H91.5654C91.6378 30.9551 91.716 30.9548 91.7822 30.9453C91.8501 30.9356 91.8817 30.9184 91.8926 30.9082C91.8956 30.9033 91.9043 30.8872 91.9043 30.8467C91.9043 30.8249 91.9022 30.7989 91.8975 30.7686L91.875 30.6641C91.8165 30.4445 91.7968 30.2135 91.7783 30.0059L91.7773 29.9971H91.7783C91.7783 29.9221 91.7668 29.8563 91.7598 29.7666C91.7236 29.4265 91.7924 29.1211 91.9531 28.8848C92.0999 28.669 92.3196 28.5168 92.5918 28.4482V28.4395L92.6729 28.4238C93.2763 28.3068 93.8244 28.7295 93.958 29.3652L94.0508 29.8252C94.1367 30.2952 94.1956 30.7917 94.1719 31.2969C94.1461 31.8564 93.9611 32.313 93.6318 32.6357C93.3029 32.9581 92.8396 33.1375 92.2744 33.1631H92.2734C91.8136 33.1816 91.3545 33.2 90.8955 33.2246H90.8945C89.9197 33.2678 88.912 33.3178 87.917 33.3486H87.7949C87.1404 33.3486 86.6417 33.1838 86.3232 32.834C85.9908 32.4701 85.8857 31.9351 85.9746 31.2666C86.3152 28.6777 86.291 26.0376 86.2227 23.793C86.1667 21.9839 86.1477 20.1194 86.1602 18.249C86.1664 17.1259 86.1856 15.9205 86.2666 14.7451C86.2725 14.6416 86.2692 14.5626 86.2588 14.5049C86.249 14.4506 86.233 14.425 86.2227 14.4131C86.2066 14.4019 86.1793 14.3888 86.1289 14.3818C86.0725 14.374 85.9949 14.3739 85.8896 14.3828C85.5962 14.4086 85.2861 14.3753 84.9414 14.2803C84.3894 14.1284 84.0523 13.7009 84.123 13.1953C84.1598 12.9268 84.2664 12.7048 84.4404 12.5459C84.6143 12.3872 84.8474 12.2988 85.123 12.2822H85.125C85.3824 12.2698 85.6456 12.2705 85.8936 12.2705H89.1123C89.3017 12.2705 89.5635 12.2824 89.8086 12.3613L89.9131 12.3994C90.388 12.5942 90.6627 13.0091 90.6123 13.4795L90.5967 13.5811C90.4924 14.085 89.9911 14.4502 89.4355 14.4502H89.4229C89.1356 14.4471 88.9185 14.4466 88.7588 14.46C88.6794 14.4666 88.6182 14.4766 88.5723 14.4902C88.5264 14.5038 88.501 14.5187 88.4873 14.5322L88.4854 14.5342C88.4528 14.5649 88.4228 14.6361 88.4072 14.7979C88.3923 14.9539 88.3926 15.1664 88.3926 15.4492V18.1699C88.3895 19.1808 88.4033 20.1995 88.4258 21.2139L88.5107 24.2314V24.2324L88.5605 26.0264V26.0273C88.6042 27.6443 88.4603 29.2227 88.3359 30.4141L88.335 30.4219C88.3236 30.4842 88.3184 30.5463 88.3184 30.6016V30.6074L88.2178 30.6016Z" fill="#DD1C47" stroke="#DD1C47" stroke-width="0.2"/>
<path d="M98.665 12.7266H98.666C98.9095 12.7301 99.1206 12.8242 99.2734 12.9883C99.4255 13.1516 99.5149 13.3786 99.5283 13.6416V13.6426C99.5423 13.9712 99.401 14.1907 99.2324 14.333C99.0678 14.4718 98.8773 14.5378 98.791 14.5684L98.79 14.5664C98.7501 14.5818 98.7126 14.5908 98.6816 14.5957C98.6456 14.6014 98.6266 14.6027 98.6074 14.6074L98.5957 14.6104H98.5479C98.4788 14.62 98.3602 14.6344 98.25 14.6582C98.1933 14.6704 98.1432 14.6851 98.1055 14.7002C98.0872 14.7075 98.0738 14.7133 98.0654 14.7188C98.0657 14.7224 98.0662 14.7275 98.0674 14.7344C98.072 14.7599 98.0825 14.7959 98.1006 14.8418L98.2568 15.1758V15.1768L98.3242 15.3154L98.6504 15.9199C98.9827 16.5234 99.3284 17.1228 99.6641 17.7061C100.378 18.9394 101.114 20.2137 101.731 21.5322H101.73C101.942 21.9698 102.16 22.4131 102.39 22.8818H102.389C102.429 22.9619 102.468 23.0432 102.509 23.126C102.56 22.9841 102.61 22.8456 102.659 22.707L103.312 20.8887V20.8877C104.045 18.8025 104.815 16.5833 105.504 14.3213V14.3203C105.586 14.0574 105.669 13.8487 105.759 13.6699L105.76 13.668C105.902 13.3992 106.096 13.2078 106.335 13.1084C106.574 13.0091 106.848 13.0061 107.139 13.0947H107.14C107.522 13.2172 108.042 13.3728 108.546 13.5459L108.545 13.5508C108.827 13.6453 109.05 13.7952 109.188 13.9883C109.329 14.1863 109.376 14.4232 109.312 14.6709C109.244 14.9406 109.082 15.1464 108.854 15.2666C108.628 15.386 108.344 15.4176 108.034 15.3555H108.033C107.811 15.3089 107.645 15.2745 107.521 15.2598C107.391 15.2443 107.334 15.2543 107.311 15.2686C107.286 15.2835 107.252 15.3253 107.207 15.4414C107.164 15.5534 107.119 15.712 107.057 15.9326C106.501 17.9018 105.841 19.8637 105.168 21.7832L104.494 23.6875C104.361 24.0668 104.227 24.4446 104.094 24.8223C103.96 25.2002 103.826 25.5786 103.692 25.958C103.577 26.2833 103.564 26.6202 103.581 26.9805L103.604 27.3486L103.605 27.3516C103.611 27.4986 103.63 27.6811 103.63 27.8408C103.642 28.4308 103.68 29.0333 103.711 29.6143L103.779 30.8926V30.8936C103.782 30.9739 103.787 31.072 103.797 31.1543C103.802 31.1956 103.808 31.2295 103.815 31.2539C103.816 31.2572 103.818 31.2601 103.818 31.2627C103.821 31.2628 103.824 31.2636 103.828 31.2637C103.854 31.264 103.889 31.2607 103.93 31.2549C104.011 31.2432 104.104 31.2226 104.173 31.207H104.174C104.477 31.1408 104.868 31.0443 105.228 31.3379H105.227C105.507 31.5623 105.649 31.9062 105.586 32.248C105.523 32.6085 105.258 32.8995 104.881 33.0332V33.0342C104.375 33.2123 103.865 33.2558 103.325 33.2559C103.233 33.2559 103.141 33.2521 103.051 33.249C102.96 33.2459 102.869 33.2432 102.778 33.2432H102.774C102.407 33.2308 102.031 33.2059 101.673 33.1875H101.671C101.585 33.1814 101.5 33.1765 101.415 33.1719C101.33 33.1673 101.243 33.1625 101.155 33.1562V33.1553C100.914 33.1482 100.701 33.0972 100.513 32.9971V32.9961C100.242 32.8578 100.087 32.6835 100.013 32.498C99.9392 32.3139 99.9493 32.131 99.9834 31.9854L99.9844 31.9844C100.038 31.7628 100.147 31.5804 100.308 31.4512C100.469 31.3221 100.675 31.2512 100.916 31.2412C101.141 31.2319 101.317 31.225 101.446 31.208C101.511 31.1995 101.56 31.189 101.596 31.1768C101.632 31.1643 101.647 31.1519 101.652 31.1455L101.655 31.1436C101.662 31.1361 101.673 31.1186 101.683 31.0811C101.692 31.044 101.698 30.9939 101.701 30.9287C101.707 30.7977 101.7 30.6225 101.69 30.3955C101.635 28.9954 101.572 27.6013 101.51 26.207V26.2061C101.498 25.8661 101.347 25.5459 101.195 25.2139L101.148 25.1074C101.133 25.0719 101.118 25.0369 101.103 25.0039L101.102 25.0029C100.016 22.5508 98.7683 20.0914 97.2969 17.4902C96.9809 16.9304 96.6198 16.2576 96.3262 15.54C96.3026 15.5025 96.2835 15.4627 96.2656 15.4258C96.2461 15.3854 96.2293 15.348 96.209 15.3105L96.2061 15.3057C96.1371 15.1595 96.0659 15.0124 95.9785 14.8926C95.8916 14.7736 95.7963 14.6922 95.6826 14.6631C95.6523 14.6571 95.6319 14.6543 95.6133 14.6543H95.6035V14.6533C95.5422 14.6472 95.4681 14.6406 95.3867 14.6113V14.6104C95.168 14.5376 94.9902 14.4218 94.8672 14.2598C94.7434 14.0964 94.6807 13.8936 94.6807 13.6592C94.6807 13.4214 94.7577 13.2129 94.8994 13.0596C95.0414 12.9061 95.2422 12.8145 95.4766 12.8008H95.4775C96.6411 12.739 97.6808 12.7142 98.665 12.7266Z" fill="#DD1C47" stroke="#DD1C47" stroke-width="0.2"/>
</g>
<defs>
<clipPath id="clip0_5592_250">
<rect width="299" height="60" fill="white"/>
</clipPath>
</defs>
</svg>
