<svg width="461" height="93" viewBox="0 0 461 93" fill="none" xmlns="http://www.w3.org/2000/svg">
<g clip-path="url(#clip0_6632_360)">
<path d="M209.879 71.4923C209.582 71.4445 209.304 71.4062 209.007 71.3871C208.374 71.3393 207.867 71.5019 207.512 71.8366C207.148 72.1808 206.966 72.6781 206.966 73.338C206.966 73.797 206.985 74.2464 207.004 74.7055C207.014 75.0402 207.033 75.3749 207.043 75.7096L207.071 77.0484C207.09 77.9856 207.11 78.9227 207.138 79.8599C207.158 80.5389 207.196 81.237 207.244 81.9255L207.416 84.125C207.416 84.125 207.378 84.0294 207.359 83.9911C206.027 80.8545 204.647 77.6126 203.68 74.2847C203.574 73.9309 203.411 73.4718 203.095 73.118C202.769 72.7259 202.242 72.0756 201.361 72.2095C200.422 72.353 200.221 73.2041 200.096 73.7683C199.866 74.7342 199.809 75.7096 199.742 76.6563L199.655 77.9569C199.598 78.9514 199.531 79.9364 199.464 80.9214C199.426 81.4378 199.368 81.9542 199.32 82.461C199.157 84.1824 198.985 85.9515 199.119 87.7398L198.994 87.7016C198.429 87.5103 197.873 87.7111 197.595 88.2084C197.279 88.7439 197.433 89.442 197.95 89.7863C198.381 90.0827 198.899 90.427 199.464 90.7426C199.703 90.8669 199.952 90.9339 200.202 90.9339C200.374 90.9339 200.537 90.9052 200.69 90.8382C201.083 90.6757 201.38 90.3218 201.533 89.8437C201.639 89.509 201.629 89.1743 201.629 88.8778V88.065C201.629 86.6975 201.629 85.2917 201.754 83.9051C201.907 82.2794 202.07 80.5963 202.156 78.9419L202.204 78.2055C202.204 78.0525 202.223 77.8899 202.233 77.7369C202.329 78.0429 202.424 78.3394 202.53 78.6454C203.363 81.0266 204.389 83.3791 205.375 85.6551C205.778 86.5731 206.171 87.4912 206.554 88.4092C206.765 88.9256 207.071 89.4229 207.522 90.0062C207.886 90.4557 208.374 90.6661 208.815 90.5896C209.275 90.5131 209.658 90.1688 209.869 89.6237C210.003 89.2603 210.07 88.8969 210.07 88.4857C210.109 86.6209 209.984 84.7275 209.859 82.9105L209.812 82.1359C209.716 80.6058 209.677 79.0375 209.649 77.5361C209.62 76.4651 209.591 75.4036 209.553 74.3229L209.534 74.1413C209.534 74.1413 209.524 74.0552 209.524 73.9978C209.62 74.0074 209.725 74.0169 209.84 73.9882H209.907C210.568 73.8639 211.009 73.3667 211.009 72.7355C210.98 72.1139 210.521 71.6166 209.888 71.521L209.879 71.4923Z" fill="#DD1C47"/>
<path d="M347.292 87.5292C346.986 87.3858 346.641 87.3284 346.229 87.3762C346.181 86.2573 346.152 85.1385 346.123 84.01C346.076 82.1931 346.028 80.3187 345.913 78.4826L345.836 77.1534C345.779 76.0632 345.721 74.9826 345.616 73.8924C345.549 73.2613 345.481 72.611 345.261 71.9702C344.955 71.0809 344.188 70.6601 343.402 70.9183C342.904 71.0905 342.636 71.4825 342.454 71.8172L342.099 72.458C341.687 73.2039 341.285 73.9593 340.854 74.7053C340.815 74.7818 340.777 74.8678 340.739 74.9539C340.7 74.8678 340.672 74.7818 340.624 74.7053C340.356 74.208 340.097 73.7107 339.838 73.2039C339.589 72.7257 339.35 72.238 339.081 71.7503C338.89 71.4156 338.43 70.6314 337.462 70.6984C336.705 70.7749 336.216 71.2721 336.015 72.1998C335.9 72.7162 335.795 73.2326 335.728 73.749C335.009 79.1903 334.607 83.3884 334.434 87.3858H334.319C334.051 87.3953 333.773 87.4145 333.543 87.4432C332.949 87.491 332.518 87.8926 332.422 88.4855C332.298 89.2219 332.863 89.5853 333.093 89.7478C333.4 89.9295 333.716 89.9295 333.955 89.9295C334.473 89.9104 335 89.8817 335.527 89.853C336.456 89.7861 336.925 89.2792 336.925 88.3516C336.954 86.9363 337.088 85.5019 337.222 84.163C337.481 81.5237 337.778 78.8652 338.075 76.2353L338.104 75.958C338.114 75.8337 338.133 75.7094 338.142 75.5851L339.359 77.9375C339.647 78.4922 340.068 78.8173 340.566 78.846C341.074 78.8747 341.534 78.607 341.879 78.0906C342.042 77.8515 342.186 77.5742 342.32 77.3064C342.54 76.8761 342.789 76.4075 343.077 75.8911C343.249 78.3774 343.374 81.0933 343.45 84.1822V84.5169C343.489 85.4923 343.517 86.4773 343.556 87.4527C343.575 88.0456 343.642 88.4951 343.786 88.935C344.044 89.7 344.6 90.1303 345.328 90.1303C345.405 90.1303 345.481 90.1303 345.558 90.1303C345.989 90.1303 346.449 90.0921 346.976 90.006C347.58 89.9104 348.001 89.4514 348.078 88.8298C348.116 88.5046 348.068 87.9117 347.283 87.5292H347.292Z" fill="#DD1C47"/>
<path d="M181.192 88.1409C180.982 88.0931 180.78 88.0835 180.57 88.0835C180.024 86.4387 179.267 84.8608 178.538 83.3307L178.012 82.2214C177.973 82.1353 177.916 82.0206 177.877 81.9249C177.935 81.8771 178.021 81.8006 178.136 81.6954C179.794 80.2227 180.455 78.2432 180.052 75.9576C179.813 74.5806 178.931 73.3183 177.619 72.4958C176.277 71.6543 174.716 71.3865 173.317 71.7786C172.579 71.989 172.244 72.448 172.272 73.2322L172.368 76.3593C172.406 77.9085 172.435 79.4673 172.464 81.0165L172.608 88.2365C171.975 88.4182 171.602 88.9442 171.688 89.5371C171.774 90.1587 172.368 90.6464 173.02 90.6464C173.039 90.6464 173.058 90.6464 173.068 90.6464C173.777 90.6177 174.486 90.5699 175.185 90.4838C175.942 90.4073 176.469 89.824 176.411 89.1641C176.392 88.6764 176.076 88.1026 175.185 88.0261V84.1149L175.166 83.8662L175.089 83.7897V83.1012C175.089 82.9291 175.089 82.7569 175.089 82.6422C175.195 82.623 175.358 82.6039 175.492 82.5848C175.846 83.4072 176.22 84.2392 176.593 85.0616C177.015 86.0083 177.494 87.1272 177.916 88.2843C177.485 88.4756 177.226 88.8772 177.226 89.3841C177.226 90.063 177.695 90.5603 178.376 90.6177C178.625 90.6464 178.864 90.6559 179.104 90.6559C179.583 90.6559 180.062 90.6081 180.522 90.5699L181.049 90.5221C181.652 90.4934 182.074 89.9961 182.074 89.3171C182.074 88.772 181.748 88.3226 181.164 88.1409H181.192ZM178.567 88.3226L178.079 88.6573C178.079 88.6573 178.059 88.5712 178.079 88.4947L178.567 88.3226ZM177.571 77.1721C177.609 77.8894 177.389 78.6257 176.929 79.2951C176.641 79.735 176.249 79.955 175.722 79.9837C175.501 79.9932 175.271 80.0123 175.032 80.0219C174.965 78.1189 174.888 76.2254 174.811 74.2267C174.888 74.2363 174.965 74.2554 175.032 74.265C175.243 74.2937 175.453 74.3319 175.655 74.3893C176.89 74.7718 177.437 75.3743 177.561 76.5697H177.542L177.571 77.1721Z" fill="#DD1C47"/>
<path d="M166.457 75.3077C165.901 73.6437 164.77 72.4866 163.113 71.865C161.752 71.3486 160.353 71.3103 159.165 71.339H158.945H158.715C158.38 71.339 158.044 71.3295 157.718 71.339C157.038 71.3964 156.511 71.9606 156.511 72.6587C156.54 73.3186 157.057 73.8158 157.814 73.8732H158.6C158.619 74.0932 158.629 74.3131 158.648 74.5235C158.686 74.9825 158.724 75.4416 158.734 75.9101C158.782 77.4593 158.801 79.0181 158.82 80.5769L158.868 84.1726C158.887 85.4636 158.897 86.7546 158.926 88.1603C158.772 88.1603 158.629 88.2081 158.408 88.2559C157.556 88.4759 157.057 89.1357 157.201 89.8434C157.316 90.5033 157.881 90.9145 158.619 90.9145C158.715 90.9145 158.811 90.9145 158.907 90.8953C159.156 90.8666 159.386 90.838 159.635 90.8188C161.053 90.7232 162.155 90.4076 163.103 89.8434C164.579 88.9349 165.652 87.5387 166.38 85.5496C167.041 83.6657 167.271 81.6288 167.137 78.9512C167.07 77.6028 166.849 76.4074 166.476 75.2885L166.457 75.3077ZM164.502 79.9648C164.425 81.9635 164.368 83.6944 163.63 85.2819C163.113 86.4103 162.461 87.1658 161.618 87.6344C161.561 86.7737 161.57 85.8843 161.57 85.0237C161.57 84.3925 161.57 83.7518 161.561 83.1111L161.503 80.9307C161.465 79.4676 161.426 78.014 161.378 76.5509C161.35 75.8815 161.292 75.2312 161.225 74.5713L161.177 74.0454C163.055 74.3801 163.745 75.0877 164.205 77.0577C164.262 77.2872 164.301 77.5167 164.33 77.7462C164.406 78.5591 164.473 79.3719 164.512 79.9648H164.502Z" fill="#DD1C47"/>
<path d="M297.872 82.3365C297.623 82.2313 297.365 82.1835 297.096 82.1835C296.579 82.1739 296.052 82.2026 295.535 82.2313C295.046 82.26 294.557 82.2983 294.088 82.2791C293.455 82.2791 292.948 82.6903 292.852 83.3789C292.804 84.0005 293.13 84.4977 293.762 84.7273C293.963 84.7846 294.164 84.8038 294.356 84.8133C294.347 85.5305 294.203 86.133 293.925 86.6399C293.743 86.9841 293.465 87.1849 293.158 87.2041C292.852 87.2328 292.536 87.0702 292.296 86.7642C291.865 86.2095 291.539 85.5401 291.309 84.7273C291.06 83.8475 290.984 82.9581 290.897 82.0114L290.878 81.8201C290.754 80.3283 290.677 78.5591 291.012 76.8187C291.242 75.585 291.568 74.7244 292.076 74.0263C292.296 73.7298 292.555 73.5481 292.842 73.5099C293.13 73.4621 293.436 73.5768 293.733 73.8063C293.973 73.9976 294.145 74.2558 294.347 74.6957C294.672 75.4033 295.381 75.7094 296.042 75.432C296.704 75.1643 297.01 74.4949 296.799 73.7585C296.627 73.1082 296.253 72.6014 295.908 72.1902C295.228 71.3773 294.212 70.8322 293.197 70.7462C292.248 70.6697 291.348 70.9661 290.581 71.6068C289.69 72.3336 289.221 73.2995 288.943 73.9785C288.387 75.3747 288.071 76.8378 287.994 78.4157L287.965 78.387V79.6684C287.937 81.0646 288.033 82.413 288.234 83.7996C288.54 85.9418 289.211 87.5292 290.342 88.8011C291.051 89.5948 292.037 90.0347 293.053 90.0347C293.091 90.0347 293.13 90.0347 293.158 90.0347C294.222 90.006 295.228 89.4896 295.918 88.6194C296.761 87.5579 297.01 86.2956 297.154 85.0906C297.163 84.9855 297.154 84.8803 297.154 84.7942C297.24 84.8133 297.345 84.8133 297.46 84.8133C298.15 84.7273 298.629 84.2874 298.677 83.6753C298.725 83.0633 298.428 82.5851 297.844 82.3365H297.872Z" fill="#DD1C47"/>
<path d="M283.309 77.1815C283.184 75.6706 282.945 74.4369 282.571 73.2989C282.245 72.2661 281.651 71.5872 280.847 71.2907C280.051 70.9751 279.247 70.8699 278.461 70.9943C276.87 71.2333 275.73 72.1131 275.165 73.538C274.839 74.3795 274.676 75.3454 274.676 76.493C274.648 78.9028 274.638 81.7622 274.772 84.6215C274.801 85.1953 274.868 85.7595 274.925 86.3237C275.107 87.8633 276.104 89.0874 277.608 89.6038C278.097 89.7759 278.595 89.8525 279.084 89.8525C280.061 89.8525 280.981 89.5273 281.604 88.9057C282.274 88.2172 282.705 87.4521 282.916 86.5628C283.414 84.4972 283.443 82.3742 283.424 80.3851V80.1938C283.424 79.1132 283.395 78.0995 283.319 77.1815H283.309ZM277.158 78.9698C277.158 78.6638 277.158 78.3482 277.158 78.0422C277.148 76.952 277.139 75.9192 277.311 74.8959C277.407 74.303 277.637 73.911 278.03 73.691C278.547 73.385 279.132 73.3659 279.975 73.6336C280.061 73.6623 280.147 73.8345 280.243 74.1213C280.54 75.1924 280.741 76.3113 280.827 77.4206C280.952 79.0367 280.933 80.6337 280.904 82.2499C280.875 83.2636 280.808 84.5928 280.511 85.9221C280.444 86.2472 280.329 86.5341 280.166 86.7827C279.821 87.2896 279.39 87.4043 278.509 87.2418C277.896 87.127 277.522 86.7349 277.426 86.1038C277.34 85.5204 277.292 84.9275 277.263 84.3442L277.235 83.6652C277.206 83.034 277.187 82.4029 277.187 81.7717V78.9602L277.158 78.9698Z" fill="#DD1C47"/>
<path d="M328.494 87.2044C328.197 87.1661 327.89 87.2044 327.517 87.3478C327.517 87.3478 327.517 87.3287 327.517 87.3191C326.789 85.2057 326.482 82.9201 326.214 80.9024C325.763 77.5553 325.131 74.6386 324.23 71.8653C324.106 71.4924 323.838 70.7178 322.946 70.7178C322.055 70.7178 321.816 71.5784 321.71 72.0279C321.528 72.7356 321.337 73.4432 321.155 74.1413C320.637 76.0922 320.101 78.1195 319.689 80.2042C319.21 82.6619 318.731 85.1292 318.271 87.5869C318.252 87.6921 318.232 87.7399 318.213 87.6729C318.012 87.6634 317.792 87.6729 317.562 87.7112C316.968 87.7973 316.575 88.2467 316.575 88.8492C316.575 89.4134 316.929 89.8342 317.409 89.9394C317.638 90.0254 317.868 90.0254 318.079 90.0254C318.702 89.9776 319.315 89.9776 319.938 89.9776C320.264 89.9776 320.589 89.9776 321.011 89.9776C321.145 89.9776 321.298 89.9776 321.452 89.9489C322.084 89.8246 322.477 89.3751 322.477 88.7727C322.477 88.1702 322.094 87.7494 321.49 87.6251C321.193 87.5582 320.934 87.5773 320.704 87.5964L320.848 86.841C320.973 86.1811 321.107 85.5308 321.174 84.8901H323.454C323.761 84.8901 324.077 84.8901 324.403 84.8901C324.623 86.009 324.863 86.927 325.16 87.8068C324.614 87.9981 324.307 88.4667 324.374 89.0596C324.46 89.662 324.939 90.0254 325.61 90.0254C325.658 90.0254 325.706 90.0254 325.754 90.0254C326.674 89.9489 327.632 89.7768 328.705 89.4803C329.308 89.2986 329.644 88.8396 329.596 88.2467C329.538 87.6825 329.136 87.2904 328.504 87.1948L328.494 87.2044ZM324.02 82.4898C323.272 82.4898 322.534 82.5185 321.806 82.5567H321.672C322.036 80.6824 322.467 78.6933 323.023 76.4173C323.138 76.9241 323.224 77.4214 323.301 77.8709C323.435 78.6742 323.55 79.487 323.684 80.2999C323.79 81.0171 323.905 81.7343 324.02 82.4898Z" fill="#DD1C47"/>
<path d="M254.747 72.9833C253.77 71.7306 252.419 71.0516 250.647 70.9082L249.832 70.8604C249.104 70.8795 248.548 71.109 248.175 71.5298C247.801 71.9601 247.648 72.553 247.734 73.3372C247.772 73.6049 247.772 73.8918 247.772 74.1691L247.868 82.7663C247.868 82.8715 247.868 82.9862 247.887 83.101C247.887 83.187 247.897 83.2635 247.897 83.3783L248.108 87.4234C247.839 87.4617 247.6 87.5191 247.389 87.5956C246.833 87.806 246.527 88.2745 246.584 88.8388C246.642 89.3743 247.006 89.7759 247.514 89.8811C247.648 89.9289 247.772 89.9385 247.906 89.9385C248.041 89.9385 248.175 89.9194 248.328 89.9098L248.74 89.8716C249.42 89.7951 250.072 89.7377 250.637 89.8142C250.867 89.8716 251.068 89.8524 251.26 89.8142C251.873 89.6994 252.266 89.2787 252.314 88.6857C252.371 88.0833 252.036 87.586 251.442 87.3947C251.154 87.2991 250.886 87.2704 250.608 87.2609C250.56 85.6638 250.503 84.0764 250.445 82.4794V82.4411C251.595 82.2786 252.62 81.81 253.473 81.3509C254.422 80.8537 255.092 80.0504 255.409 79.0271C255.773 77.8605 255.849 76.6077 255.629 75.1828C255.485 74.2743 255.198 73.5475 254.738 72.9642L254.747 72.9833ZM250.445 79.8304L250.369 73.4902C251.04 73.4615 251.643 73.6719 252.343 74.15C252.889 74.523 253.061 75.1446 253.147 75.9574C253.167 76.0913 253.147 76.2347 253.147 76.3686V76.6746C253.147 77.0954 253.128 77.5162 253.061 77.9274C252.956 78.5107 252.707 78.8837 252.276 79.1036C251.787 79.3618 251.154 79.6583 250.436 79.8304H250.445Z" fill="#DD1C47"/>
<path d="M223.886 80.3277L223.407 79.907C222.631 79.2376 221.903 78.6064 221.309 77.8222C220.667 76.9616 220.667 76.2635 221.309 75.4124C221.577 75.0585 221.884 74.7525 222.21 74.5134C222.344 74.4178 222.392 74.4083 222.392 74.4083C223.379 74.7143 223.513 75.0872 223.407 75.6132C223.34 75.8905 223.273 76.2061 223.273 76.5121C223.216 77.2198 223.723 77.8414 224.394 77.8987C225.046 77.9466 225.611 77.4875 225.716 76.7703C225.735 76.6173 225.764 76.4547 225.793 76.3017C225.85 75.9479 225.908 75.6036 225.908 75.2498C225.908 74.3604 225.582 73.5954 224.95 72.9834C224.557 72.6009 224.116 72.3426 223.551 72.0749C222.765 71.7115 221.97 71.7115 221.184 72.094C220.495 72.4192 219.977 72.9547 219.575 73.385C217.898 75.1542 217.754 77.3823 219.172 79.3332C219.862 80.2991 220.734 81.0545 221.577 81.7813L222.133 82.269C222.947 82.9767 223.762 83.7704 224.011 84.9275C224.231 85.9412 223.973 86.6393 223.168 87.194C222.305 87.7869 221.338 87.9686 220.217 87.7677C219.68 87.6721 219.527 87.4426 219.604 86.8688L219.642 86.5724C219.671 86.3429 219.699 86.1038 219.699 85.8456C219.671 85.2049 219.287 84.7458 218.703 84.6406C218.118 84.5354 217.591 84.7841 217.314 85.3387C216.653 86.7636 216.892 88.8866 218.415 89.8238C219.22 90.3211 220.083 90.4358 220.897 90.4741L221.05 90.4932C221.05 90.4932 221.127 90.4932 221.165 90.4932C221.97 90.4932 222.765 90.3306 223.532 90.0055C226.195 88.8962 227.336 86.4672 226.435 83.8087C225.927 82.2786 224.921 81.2267 223.905 80.3182L223.886 80.3277Z" fill="#DD1C47"/>
<path d="M192.431 75.4316C192.968 75.7185 193.571 75.575 193.935 75.0778C194.386 74.4753 194.501 73.7389 194.3 72.8113C194.079 71.855 193.188 71.6446 192.805 71.5586C191.866 71.3291 190.927 71.3386 190.065 71.3673L189.068 71.3864C187.449 71.3864 186.663 72.1706 186.663 73.7772C186.673 75.8906 186.663 78.6926 186.481 81.5519L186.424 82.4986C186.366 83.4071 186.299 84.3156 186.271 85.2336C186.223 86.4481 186.175 87.7105 186.223 88.9919C186.261 90.0438 186.884 90.6654 187.986 90.7515L188.254 90.7706C188.465 90.7897 188.647 90.7993 188.857 90.7993L189.49 90.828C190.352 90.8662 191.205 90.9141 192.058 90.9141C192.058 90.9141 192.096 90.9141 192.105 90.9141C193.198 90.9141 193.916 90.2829 194.089 89.1736C194.185 88.4755 194.089 87.7965 193.974 87.0124C193.868 86.3143 193.179 85.7692 192.517 85.8648C191.876 85.9509 191.387 86.5533 191.387 87.2514C191.387 87.5766 191.396 87.9017 191.425 88.2269L190.879 88.1982C190.228 88.1599 189.586 88.1217 188.857 88.1121C188.857 86.2664 188.972 84.3825 189.097 82.4413C189.634 82.4413 190.16 82.4126 190.726 82.3743C191.435 82.3169 191.962 81.8005 191.962 81.1694C191.962 80.5382 191.607 80.0983 191.004 79.8975C190.477 79.7158 190.084 79.8019 189.701 79.8401C189.538 79.8592 189.365 79.8784 189.193 79.8688C189.193 79.8306 189.193 79.8019 189.193 79.7732L189.212 79.448C189.298 78.004 189.384 76.5218 189.279 75.0299C189.26 74.7909 189.269 74.5422 189.279 74.3032V74.0545C189.528 74.0449 189.768 74.0258 190.007 74.0067C190.592 73.9684 191.138 73.9206 191.674 73.9971C191.713 73.9971 191.741 74.0067 191.77 74.0067C191.77 74.045 191.77 74.0832 191.761 74.1215C191.674 74.7048 191.923 75.2021 192.412 75.4411L192.431 75.4316Z" fill="#DD1C47"/>
<path d="M151.634 85.7986C150.887 85.9611 150.446 86.6114 150.542 87.4147L150.561 87.6538C150.571 87.7877 150.58 87.9216 150.609 88.0746C149.824 88.0554 149.057 88.0937 148.271 88.1798C148.271 88.1224 148.271 88.0746 148.281 87.9981C148.444 86.4393 148.511 85.1674 148.482 84.0103L148.434 82.2603C148.386 80.4911 148.329 78.722 148.329 76.9528V74.4856C148.329 74.0744 148.434 73.9596 148.827 73.9596C149.44 73.9596 150.111 73.5293 150.255 72.8885C150.389 72.2191 150.006 71.5975 149.354 71.3776C149.057 71.2533 148.789 71.2533 148.568 71.2533H145.704C145.483 71.2533 145.272 71.2437 145.071 71.2533C144.41 71.282 143.931 71.7123 143.826 72.4008C143.739 73.0416 144.142 73.5962 144.803 73.7779C145.1 73.864 145.378 73.9022 145.704 73.8927C145.646 74.935 145.617 75.9583 145.617 77.0006C145.617 78.6741 145.637 80.3285 145.675 82.0021C145.742 83.9816 145.771 86.315 145.464 88.677C145.378 89.4134 145.512 89.9872 145.876 90.3888C146.221 90.7713 146.748 90.9626 147.438 90.9626C147.476 90.9626 147.505 90.9626 147.543 90.9626C148.521 90.9339 149.498 90.8861 150.475 90.8383L151.376 90.7904C152.564 90.7522 153.34 89.968 153.397 88.7535C153.417 88.1319 153.311 87.5103 153.196 86.927C153.024 86.1428 152.343 85.6551 151.615 85.7986H151.634Z" fill="#DD1C47"/>
<path d="M111.47 86.4869C110.857 86.1713 110.157 86.4104 109.774 87.0607L109.582 87.3954C109.496 87.5388 109.42 87.6918 109.333 87.8161C108.979 88.3134 108.624 88.4186 108.03 88.2178C107.187 87.9213 106.699 87.3284 106.449 86.2765C106.296 85.6262 106.287 84.9473 106.277 84.23C106.277 83.7614 106.258 83.2929 106.219 82.8338C106.287 82.2601 106.296 81.7054 106.296 81.1507C106.296 80.883 106.296 80.6248 106.315 80.357C106.363 79.1043 106.402 77.8037 106.727 76.5892C106.976 75.652 107.331 74.7053 108.136 74.0837C108.596 73.7394 108.864 73.749 109.314 74.1124C109.554 74.3228 109.774 74.5523 109.985 74.7722C110.244 75.0496 110.579 75.2026 110.914 75.2121C111.269 75.2121 111.556 75.0783 111.796 74.8392C112.323 74.3323 112.323 73.6629 111.805 73.0605C111.623 72.8405 111.422 72.6206 111.202 72.4197C110.684 71.9225 110.023 71.3965 109.084 71.2722C107.379 71.0905 106.277 72.1137 105.597 72.8979C104.897 73.7107 104.418 74.734 104.083 76.1111C103.767 77.469 103.69 78.8078 103.623 80.2901C103.518 82.4226 103.46 84.3543 103.757 86.2861C104.092 88.4377 105.185 89.92 107.005 90.6946C107.484 90.8954 107.982 91.0006 108.461 91.0006C108.921 91.0006 109.372 90.905 109.803 90.7233C110.828 90.2834 111.7 89.3367 112.131 88.1987C112.38 87.5293 112.093 86.8025 111.47 86.4965V86.4869Z" fill="#DD1C47"/>
<path d="M139.112 88.1604C138.901 88.1986 138.681 88.1986 138.47 88.1986C138.345 88.1986 138.211 88.1986 138.058 88.2082V82.5756L138.029 82.3843C138.029 81.8297 138.029 81.275 138.039 80.73C138.048 79.5059 138.058 78.2818 138.029 77.0673L138 75.805C137.981 75.2217 137.972 74.6383 137.972 73.9785C138.307 74.0072 138.652 74.0263 138.987 74.0263C139.802 74.0263 140.415 73.5003 140.444 72.7831C140.472 72.4293 140.357 72.0946 140.118 71.8364C139.85 71.5495 139.466 71.3965 139.016 71.3965H134.359C133.631 71.3965 133.114 71.8364 133.028 72.5345C132.97 73.1848 133.392 73.7012 134.101 73.8733C134.542 73.9976 134.992 73.9785 135.385 73.9594L135.49 73.376L135.586 73.9498C135.519 73.9402 135.433 73.8542 135.423 73.9115V88.2656C135.049 88.2847 134.695 88.3134 134.312 88.3325C133.641 88.3899 133.171 88.8489 133.123 89.461C133.037 90.1017 133.516 90.6946 134.216 90.8093C134.34 90.8285 134.446 90.8285 134.57 90.8285H138.748C139.054 90.8285 139.351 90.7806 139.667 90.685C140.338 90.4842 140.779 89.8339 140.664 89.2219C140.52 88.4951 139.85 88.0169 139.112 88.1508V88.1604Z" fill="#DD1C47"/>
<path d="M128.611 88.4849C128.352 88.3797 128.055 88.3128 127.72 88.2745C127.605 86.9453 127.557 85.5873 127.509 84.2772C127.48 83.4261 127.451 82.575 127.404 81.7239C127.336 80.4425 127.317 79.1706 127.308 77.8987C127.298 76.6173 127.289 75.3263 127.212 74.0448C127.212 73.997 127.212 73.9492 127.212 73.8918C127.26 73.8918 127.317 73.8727 127.384 73.8631C127.557 73.8249 127.72 73.7962 127.902 73.7388C128.553 73.5284 128.869 73.0025 128.735 72.3713C128.592 71.721 128.074 71.3481 127.461 71.4341C127.068 71.4628 126.695 71.5202 126.215 71.5967C125.152 71.788 124.663 72.3809 124.663 73.471V76.3686L124.711 76.799H124.721V79.2853C123.331 79.3236 121.952 79.4575 120.716 79.5914L120.448 73.2224C120.4 72.3235 119.873 71.7975 118.982 71.7497C118.761 71.7401 118.541 71.7306 118.321 71.7401C118.052 71.7401 117.784 71.7401 117.535 71.7115C117.065 71.6445 116.625 71.8836 116.404 72.3235C116.213 72.7156 116.232 73.1268 116.462 73.5093C116.797 74.0544 117.391 74.1213 117.592 74.1405C117.832 74.1596 117.937 74.2265 117.966 74.609C117.918 76.7129 118.014 78.8263 118.1 80.8824C118.167 82.3933 118.234 83.9043 118.244 85.4057V86.0846C118.234 86.7827 118.225 87.5095 118.292 88.2841C118.119 88.3032 117.947 88.351 117.822 88.4084C117.171 88.6571 116.864 89.2022 117.017 89.7951C117.142 90.4166 117.631 90.7992 118.416 90.7992H118.435C118.771 90.78 119.097 90.7705 119.422 90.7418C120.39 90.6749 120.946 90.0724 120.946 89.097V87.2035C120.936 85.5395 120.927 83.8182 120.802 82.1064C121.233 82.0873 121.664 82.0586 122.096 82.0299C122.958 81.9725 123.83 81.9247 124.759 81.9247C124.778 83.0436 124.807 84.1625 124.855 85.2909C124.912 86.6297 125.008 87.9685 125.104 89.2978C125.133 89.8046 125.324 90.2445 125.65 90.5123C125.928 90.7418 126.273 90.847 126.666 90.7992C126.992 90.7514 127.336 90.7896 127.71 90.8279L128.045 90.8661C128.045 90.8661 128.132 90.8661 128.17 90.8661C128.822 90.8661 129.31 90.5027 129.435 89.9194C129.588 89.2787 129.262 88.7144 128.63 88.4849H128.611Z" fill="#DD1C47"/>
<path d="M215.369 68.8335C214.794 68.7952 214.257 69.0821 213.941 69.5698C213.625 70.0575 213.596 70.6791 213.893 71.272C214.43 72.1327 214.41 72.1996 214.027 73.7871L213.864 74.4948H214.727L214.842 74.4374C216.183 73.7871 217.055 72.257 217.055 70.5261C217.036 69.5029 216.413 68.8813 215.359 68.8335H215.369Z" fill="#DD1C47"/>
<path d="M269.723 87.4337C269.512 87.3859 269.311 87.3764 269.1 87.3764C268.554 85.7411 267.807 84.1728 267.088 82.6522L266.551 81.5143C266.513 81.4282 266.456 81.3039 266.417 81.2178C266.475 81.17 266.561 81.0935 266.676 80.9883C268.334 79.5156 268.995 77.5361 268.592 75.2505C268.353 73.8734 267.471 72.6111 266.159 71.7887C264.817 70.9376 263.246 70.6794 261.866 71.0715C261.119 71.2819 260.793 71.7313 260.812 72.5251L260.908 75.6521C260.956 77.3448 260.985 79.047 261.014 80.7397L261.148 87.5294C260.525 87.7111 260.142 88.237 260.228 88.8299C260.314 89.4707 260.994 89.9488 261.617 89.9392C262.326 89.9106 263.035 89.8627 263.735 89.7767C264.492 89.7002 265.018 89.1168 264.961 88.457C264.932 87.8163 264.482 87.3859 263.735 87.319V83.4077L263.715 83.14L263.639 83.073V82.3941C263.639 82.2219 263.639 82.0498 263.639 81.935C263.744 81.9159 263.907 81.8968 264.041 81.8776C264.396 82.7001 264.769 83.532 265.143 84.3545C265.565 85.3012 266.044 86.4105 266.456 87.5772C266.025 87.7684 265.766 88.1701 265.766 88.6769C265.766 89.3559 266.235 89.8532 266.916 89.9106C267.165 89.9392 267.404 89.9488 267.644 89.9488C268.123 89.9488 268.592 89.9106 269.052 89.8627L269.589 89.8149C270.192 89.7862 270.614 89.289 270.614 88.61C270.614 88.0649 270.288 87.625 269.704 87.4337H269.723ZM267.107 87.6154L266.619 87.9501C266.619 87.9501 266.599 87.8641 266.619 87.7876L267.107 87.6154ZM266.111 76.465C266.149 77.1822 265.929 77.9186 265.469 78.588C265.172 79.0279 264.779 79.2478 264.262 79.2765C264.041 79.2861 263.811 79.3052 263.572 79.3148C263.505 77.4117 263.428 75.5183 263.351 73.5196C263.428 73.5292 263.505 73.5483 263.572 73.5579C263.783 73.5865 263.993 73.6248 264.194 73.6822C265.43 74.0647 265.977 74.6672 266.101 75.8625H266.082L266.111 76.465Z" fill="#DD1C47"/>
<path d="M312.11 87.386C311.899 87.3382 311.698 87.3286 311.487 87.3286C310.941 85.6838 310.194 84.1155 309.466 82.5949L308.929 81.4665C308.891 81.3804 308.833 81.2561 308.795 81.1701C308.853 81.1127 308.939 81.0457 309.054 80.9406C310.711 79.4679 311.372 77.4883 310.97 75.2028C310.73 73.8257 309.839 72.5634 308.536 71.741C307.195 70.8994 305.633 70.6317 304.244 71.0237C303.497 71.2341 303.171 71.6836 303.19 72.4773L303.286 75.6044C303.334 77.2971 303.362 78.9993 303.391 80.6919L303.525 87.4816C302.903 87.6633 302.519 88.1893 302.606 88.7822C302.701 89.4229 303.382 89.8819 303.995 89.8915C304.704 89.8628 305.413 89.815 306.122 89.7289C306.879 89.6429 307.406 89.0691 307.348 88.4092C307.32 87.7685 306.869 87.3382 306.131 87.2712V83.36L306.112 83.1018L306.036 83.0253V82.3367C306.036 82.1646 306.036 81.9925 306.036 81.8777C306.141 81.8586 306.304 81.8395 306.438 81.8203C306.793 82.6428 307.166 83.4747 307.54 84.2972C307.933 85.1769 308.431 86.3245 308.862 87.5199C308.431 87.7111 308.172 88.1128 308.172 88.6292C308.172 89.3082 308.642 89.8054 309.322 89.8628C309.571 89.8915 309.811 89.9011 310.05 89.9011C310.529 89.9011 310.989 89.8628 311.449 89.815L311.995 89.7672C312.599 89.7385 313.02 89.2412 313.02 88.5622C313.02 88.0172 312.695 87.5773 312.11 87.386ZM308.498 76.4268C308.536 77.1536 308.316 77.8804 307.846 78.5498C307.559 78.9897 307.166 79.2096 306.534 79.2383C306.352 79.2479 306.16 79.2575 305.959 79.2766C305.892 77.3736 305.815 75.4801 305.739 73.4814C305.815 73.491 305.892 73.5101 305.959 73.5197C306.17 73.5484 306.381 73.5866 306.582 73.644C307.827 74.0265 308.364 74.629 308.488 75.8244H308.469L308.498 76.4268ZM309.485 87.5677L308.996 87.9024C308.996 87.9024 308.977 87.8163 308.996 87.7398L309.485 87.5677Z" fill="#DD1C47"/>
<path d="M361.434 83.0634C360.926 81.5334 359.92 80.4814 358.905 79.573L358.416 79.1426C357.64 78.4732 356.912 77.8421 356.327 77.0675C355.685 76.2068 355.685 75.5087 356.327 74.6576C356.596 74.3038 356.893 73.9977 357.219 73.7587C357.353 73.663 357.401 73.6535 357.41 73.6535C358.397 73.9595 358.531 74.3324 358.426 74.868C358.359 75.1453 358.292 75.4609 358.292 75.7669C358.234 76.4841 358.732 77.0961 359.413 77.1535C360.093 77.2109 360.629 76.7423 360.735 76.0251C360.754 75.8721 360.783 75.7191 360.811 75.5565C360.869 75.2027 360.926 74.8584 360.926 74.5046C360.926 73.6152 360.601 72.8502 359.968 72.2381C359.537 71.8174 359.029 71.5496 358.579 71.3297C357.793 70.9567 356.998 70.9663 356.212 71.3392C355.561 71.6452 355.101 72.1043 354.603 72.6302C352.926 74.3994 352.782 76.6276 354.2 78.5784C354.89 79.5443 355.762 80.2997 356.605 81.0265L357.161 81.5142C357.975 82.2315 358.79 83.0252 359.039 84.1728C359.259 85.1864 359.001 85.8845 358.196 86.4392C357.333 87.0321 356.375 87.2138 355.245 87.013C354.718 86.9078 354.555 86.6878 354.632 86.114L354.67 85.8176C354.699 85.5785 354.727 85.349 354.727 85.0812C354.699 84.4405 354.315 83.9815 353.731 83.8763C353.127 83.7711 352.619 84.0197 352.342 84.5744C351.681 85.9993 351.911 88.1127 353.444 89.0594C354.258 89.5567 355.12 89.6715 355.935 89.7097L356.069 89.7288C356.069 89.7288 356.145 89.7288 356.184 89.7288C356.979 89.7288 357.774 89.5663 358.541 89.2411C361.204 88.1318 362.344 85.6933 361.453 83.0443L361.434 83.0634Z" fill="#DD1C47"/>
<path d="M448.612 60.107L450.307 52.7435C450.796 51.5959 452.597 50.5727 453.373 49.7694C456.219 46.8814 458.135 43.4196 460.061 39.9578C460.607 39.0397 460.923 38.0643 460.981 36.9837C461.01 36.1995 460.875 35.4727 460.166 35.0137C459.438 34.6121 458.729 34.9372 458.135 35.4154C456.133 36.9837 453.967 38.4181 452.588 40.5794C452.396 40.8758 452.205 41.0193 451.946 41.3827C451.84 41.5452 451.438 42.1094 450.94 42.8936L451.093 35.4632C451.122 33.1585 451.706 30.0696 450.547 26.407C450.547 26.3879 450.537 26.3783 450.528 26.3592C450.461 26.1488 450.384 25.9384 450.307 25.7281C450.288 25.6611 450.279 25.6037 450.25 25.5272C449.991 24.5136 450.442 22.8113 450.489 21.7212C450.585 17.3987 449.196 13.5257 447.04 9.84394C446.398 8.77289 445.728 7.6062 444.626 6.86029C443.668 6.22913 442.575 5.68404 441.617 6.28651C440.65 6.82204 440.477 8.05566 440.487 9.1841C440.496 9.5953 440.64 10.0352 440.784 10.4368C441.933 13.9369 443.112 17.4178 444.243 20.937C444.769 22.4384 445.632 23.6816 447.165 24.1693C448.2 24.4944 448.257 24.9821 448.497 25.8811C449.723 30.194 449.321 32.403 449.033 35.7501C448.2 35.2241 447.356 34.8224 447.356 34.8224C445.296 34.1435 443.696 33.6366 442.125 33.2541C440.745 32.9003 438.982 32.709 438.417 34.2582C437.852 35.9318 439.069 37.2323 440.64 37.9304C442.02 38.552 443.534 39.2023 445.057 39.4127C447.519 39.7474 448.305 40.1586 448.612 41.3157C448.535 42.5207 448.477 43.6969 448.468 44.4811C448.468 44.4811 448.468 44.5002 448.468 44.5384C448.468 45.4087 448.468 46.2885 448.449 47.1683C448.449 47.1874 448.449 47.2065 448.439 47.2256C448.439 47.283 448.41 47.3021 448.41 47.3595L448.449 47.2735C448.42 48.9757 448.295 50.7257 447.807 52.6287C447.807 52.6287 447.807 52.6861 447.788 52.7913C447.749 53.5181 447.51 56.4444 446.964 58.1083C446.964 58.1657 446.935 58.2135 446.916 58.2709V58.2996C446.762 58.9499 446.485 59.581 446.274 60.2026C445.833 61.6371 445.392 63.0715 444.808 64.5825L444.884 64.2573C444.961 63.1193 444.271 60.4895 444.022 59.5906C444.003 59.5236 444.003 59.4758 443.984 59.4376C443.965 59.3515 443.945 59.2846 443.945 59.2846C442.987 58.0988 442.892 56.8651 442.48 55.7463C441.838 54.0632 440.736 52.82 439.088 52.1028C436.932 51.1273 435.61 51.8732 435.409 54.2162C435.054 58.6056 436.74 62.1821 440.439 64.4008C442.412 65.5579 442.748 66.8106 442.154 68.7519C441.953 69.4213 441.761 70.0907 441.56 70.7506C441.56 70.7506 441.56 70.7665 441.56 70.7984C441.244 71.8408 440.966 72.9883 440.717 74.1359C439.567 76.4119 437.814 79.8354 437.402 80.6865C437.085 81.3368 436.75 82.1305 437.545 82.58C438.369 83.0773 438.954 82.4174 439.155 81.7097C439.203 81.5472 439.366 81.1838 439.567 80.7534C439.538 80.9351 439.529 81.0308 439.529 81.0308C440.659 77.875 442.432 75.905 445.565 74.7957C448.918 73.6099 451.381 71.2192 452.875 67.939C453.335 66.8967 453.92 65.7683 452.904 64.7546C451.917 63.7505 450.643 63.6453 449.321 64.0852C448.257 64.439 447.491 65.1467 446.762 65.9308C447.385 63.9609 447.96 62.1056 448.554 60.3078L448.583 60.1452L448.612 60.107Z" fill="#DD1C47"/>
<path d="M16.4892 25.8145C15.761 27.6028 14.2472 30.6438 13.9502 36.0947C14.4867 60.2891 22.1038 71.8507 22.5924 72.5679L22.6212 72.5966C23.2344 73.2086 27.3735 79.9984 27.7567 81.0885C27.9579 81.7484 28.5232 82.3604 29.2801 81.8727C29.9891 81.3946 29.6825 80.706 29.3568 80.094C28.8011 79.0038 24.547 71.9559 23.9626 70.8657C23.8859 70.7414 23.838 70.6362 23.8093 70.5406C23.8093 70.5119 23.7805 70.5119 23.7805 70.4928C21.4714 66.964 19.8426 62.8615 18.7216 58.7972C18.4917 58.2426 18.2617 57.6784 18.2905 57.1237C17.8593 55.4024 17.524 53.7002 17.2749 52.0744C16.815 50.3531 16.6904 48.7274 16.6138 47.1591V46.9583C16.0581 41.4595 16.2305 37.5005 16.2305 37.5005C15.8569 31.6766 17.639 28.8268 18.348 26.8282C18.348 26.8282 18.9995 25.2981 20.3888 24.4374C20.6666 24.2653 18.7121 22.8213 18.7121 22.8213C18.7121 22.8213 17.0545 24.4279 16.4892 25.8336V25.8145Z" fill="#DD1C47"/>
<path d="M26.6932 72.4339C25.783 73.3233 25.6488 73.8779 26.2141 74.5378C26.1854 76.0296 25.1698 76.087 24.662 76.0105C24.614 75.9626 24.5566 75.9053 24.5087 75.8861C24.4799 75.8574 24.4607 75.8574 24.4607 75.8574C23.4451 75.1976 22.4008 75.0446 20.9253 75.3793C17.4473 76.1635 14.1897 75.255 11.5261 72.8164C10.0314 71.4202 10.3572 70.6074 12.3405 70.024C14.4005 69.412 16.6137 69.8232 18.8749 68.886L18.9036 68.8573C18.9036 68.8573 19.8713 68.3218 21.2702 69.1347C21.6247 67.7098 21.8547 66.9256 22.0367 66.1128C22.7265 62.89 23.8667 59.9255 26.3099 57.6208C28.1399 55.9186 29.7112 56.3298 30.2765 58.7397C31.4934 63.8846 30.6789 68.6278 26.7219 72.4339H26.6932Z" fill="#DD1C47"/>
<path d="M27.086 42.4441C25.1506 46.0493 23.311 49.8745 18.9133 51.2707C17.4282 51.7297 17.0928 52.7147 17.6485 54.1587L17.6773 54.2257C17.3898 54.6465 16.6329 55.488 15.8473 54.656C14.7742 50.7065 13.8927 46.6996 13.0304 42.7214C12.6759 41.1435 11.986 40.4359 10.4435 40.2828C7.85653 40.0151 6.06485 38.5041 4.9151 36.209C3.52583 33.4071 1.28382 31.1024 0.00952148 27.5928C4.27316 28.2335 7.24334 30.6529 10.7117 33.4071C10.7117 33.4071 13.337 36.6585 14.1897 39.6039C14.7263 42.0711 15.3874 44.5766 16.2114 47.1204C17.1791 45.4277 17.9072 44.0794 18.6833 42.7597C19.9576 40.608 21.6247 39.0588 24.2979 38.8006C26.789 38.5615 28.2645 40.2542 27.1148 42.4345L27.086 42.4441Z" fill="#DD1C47"/>
<path d="M27.7375 9.37549C27.5363 15.9835 25.0739 21.3675 19.3827 25.0014C19.3827 25.0014 19.009 25.3648 18.5204 25.6421C17.6868 26.1681 16.4413 26.4741 16.0484 24.332C15.4352 20.9467 17.0161 17.4466 17.0161 17.4466C17.8784 15.4958 18.7216 14.1379 19.5839 12.866C21.2319 10.4274 23.6751 9.15554 26.4057 8.22793C27.6896 7.82628 27.7567 8.314 27.7375 9.36592V9.37549Z" fill="#DD1C47"/>
<path d="M309.952 32.4952C308.879 31.5676 307.777 30.6113 306.771 29.588C305.181 27.9814 305.066 25.8585 306.474 23.9172C307.059 23.1043 307.864 22.7601 308.841 22.8939C310.326 23.0948 311.064 23.3721 311.38 23.8598C311.696 24.3475 311.658 25.1221 311.227 26.5566C311.054 27.1495 310.834 27.8954 311.619 28.4022C312.29 28.8325 312.989 28.823 313.708 28.3926C314.963 27.6276 315.758 25.5333 315.356 24.0702C314.647 21.4977 310.805 18.9635 308.161 19.3174C305.66 19.6521 303.332 21.383 302.23 23.7163C301.195 25.9254 301.358 28.3257 302.709 30.4583C304.146 32.7342 306.091 34.446 307.979 35.957C309.272 36.9898 310.623 38.1086 311.715 39.4953C312.692 40.748 312.97 42.0295 312.539 43.3013C311.84 45.3574 309.301 48.188 306.005 47.7768C303.906 47.5091 303.255 46.8205 303.188 44.8314C303.188 44.535 303.226 44.2289 303.274 43.9421C303.408 43.1005 303.063 42.565 302.249 42.345C301.454 42.1251 300.62 42.0008 300.055 42.9571C299.308 44.2003 299.25 45.9407 299.892 47.5951C300.524 49.2113 301.703 50.4258 303.054 50.8274C304.089 51.1334 305.171 51.296 306.283 51.296C307.068 51.296 307.873 51.2195 308.688 51.0665C313.133 50.2249 316.084 46.7249 316.027 42.3546C316.075 39.5431 314.791 36.8941 312.213 34.4843C311.485 33.8053 310.709 33.1359 309.971 32.4856L309.952 32.4952Z" fill="#DD1C47"/>
<path d="M339.472 22.3298C339.434 20.5798 338.504 19.5565 336.78 19.3557C336.023 19.2696 335.093 19.1549 334.145 19.1931C333.522 19.2122 332.89 19.2314 332.267 19.2601C330.6 19.327 329.028 19.3844 327.486 19.327C326.7 19.3653 325.915 19.3557 325.158 19.3461C323.989 19.3366 322.887 19.3174 321.756 19.48C320.319 19.6808 319.466 20.4937 319.361 21.756C319.275 22.7601 319.227 23.8599 319.198 25.1126C319.179 26.0689 319.725 26.7383 320.549 26.7574C320.568 26.7574 320.578 26.7574 320.597 26.7574C321.373 26.7574 321.919 26.1454 321.996 25.1891L322.015 24.95C322.072 24.2424 322.13 23.5156 322.14 22.7984C322.14 22.3967 322.255 22.2915 322.667 22.282C323.328 22.2628 323.998 22.3107 324.65 22.3489C325.052 22.368 325.455 22.3967 325.905 22.4063C326.965 22.4382 327.511 22.9832 327.543 24.0416V24.1085C327.572 24.864 327.591 25.629 327.61 26.3845C327.668 28.7657 327.735 31.2234 327.917 33.6332C328.176 37.009 328.109 40.4421 328.051 43.77C328.022 45.1471 327.994 46.5719 327.994 47.9681C327.994 48.2741 327.907 48.3602 327.61 48.3602H327.438C327.026 48.3602 326.624 48.3602 326.212 48.5132C325.531 48.7619 325.186 49.2304 325.225 49.8712C325.253 50.531 325.665 50.99 326.346 51.1144C326.566 51.1526 326.796 51.1717 327.036 51.1813C327.275 51.1909 327.515 51.2004 327.764 51.2004C328.559 51.2004 329.354 51.1526 330.13 51.1048C330.858 51.057 331.606 51.0092 332.344 51.0092C332.621 51.0092 332.899 50.9327 333.215 50.7892C333.809 50.5119 334.106 50.0242 334.059 49.4121C334.011 48.7714 333.608 48.322 332.947 48.1498C332.497 48.0351 331.989 48.0255 331.452 48.1211C331.203 48.169 331.098 48.1403 331.06 48.102C331.021 48.0638 330.973 47.9681 330.993 47.7099C331.06 46.6006 331.098 45.673 331.117 44.7263C331.175 40.2508 331.203 35.871 330.858 31.472C330.743 29.9993 330.657 28.4883 330.581 27.0348C330.504 25.6959 330.427 24.3093 330.331 22.9418C330.312 22.6645 330.332 22.4924 330.408 22.4158C330.475 22.3393 330.619 22.3107 330.868 22.3107H330.878C331.52 22.3107 332.152 22.3107 332.784 22.3011C333.512 22.3011 334.25 22.282 334.978 22.3011C335.122 22.3011 335.247 22.3011 335.371 22.3011C335.889 22.3011 336.234 22.3011 336.377 22.4637C336.531 22.6358 336.559 23.047 336.473 23.8025C336.425 24.2328 336.55 24.6536 336.837 24.9978C337.105 25.323 337.489 25.5143 337.872 25.5334C338.725 25.5621 339.357 24.9787 339.453 24.0798C339.51 23.5252 339.501 22.9514 339.491 22.4063V22.3489L339.472 22.3298Z" fill="#DD1C47"/>
<path d="M362.448 19.3269C362.103 19.2122 361.739 19.1835 361.327 19.2504C360.503 19.3747 359.545 19.5086 358.606 19.5469C357.945 19.5756 357.264 19.6329 356.584 19.7094C355.655 19.8146 355.022 20.4362 355.051 21.2204C355.08 21.9854 355.76 22.5688 356.689 22.6166C356.929 22.6261 357.168 22.6166 357.398 22.6166H357.446C357.446 22.6166 357.465 22.6166 357.475 22.6166C357.724 22.6166 357.81 22.7026 357.83 22.9513C357.897 23.7737 357.964 24.5866 358.04 25.3994C358.194 27.0251 358.347 28.6986 358.404 30.353C358.462 31.9309 358.471 33.5375 358.491 35.0867C358.5 36.6837 358.519 38.3286 358.577 39.9447C358.577 40.2029 358.577 40.4707 358.577 40.7289C358.577 41.3026 358.577 41.886 358.577 42.4598C358.539 43.9229 358.194 45.1374 357.523 46.1893C356.622 47.6046 355.482 48.2167 354.055 48.0924C353.403 48.0254 352.761 47.9107 352.157 47.7959C351.41 47.6525 350.864 47.203 350.538 46.4571C350.165 45.5964 349.858 44.6593 349.59 43.5978C348.919 40.9201 348.794 38.1373 348.66 35.4405C348.632 34.7711 348.603 34.1017 348.555 33.4419C348.382 30.5347 348.382 27.5606 348.382 24.6917V23.1808C348.382 22.9608 348.373 22.7409 348.363 22.5305C348.344 22.1002 348.325 21.6507 348.382 21.2013C348.43 20.79 348.296 20.4075 347.999 20.1206C347.664 19.7859 347.156 19.6138 346.629 19.6712C346.351 19.6999 346.073 19.7381 345.796 19.7764C345.556 19.8051 345.316 19.8433 345.077 19.8624C344.857 19.8911 344.636 19.9103 344.406 19.9294C343.966 19.9676 343.506 20.0059 343.065 20.092C342.279 20.2545 341.771 20.8857 341.877 21.5647C341.992 22.3106 342.5 22.7409 343.304 22.7791H343.515C343.927 22.8078 344.358 22.8365 344.77 22.7313C345.039 22.674 345.221 22.674 345.307 22.7409C345.422 22.8365 345.431 23.1234 345.422 23.3912C345.412 24.0606 345.403 24.73 345.393 25.409C345.384 26.6043 345.364 27.8284 345.307 29.0429C345.202 31.3476 345.345 33.681 345.489 35.9378C345.527 36.6168 345.575 37.2958 345.614 37.9747C345.767 40.8819 346.265 43.6934 347.108 46.3423C348.047 49.2973 349.983 50.8752 353.049 51.1621C353.441 51.2003 353.815 51.2195 354.17 51.2195C356.047 51.2195 357.475 50.6935 358.682 49.5651C360.464 47.9107 361.47 45.7686 361.672 43.1961C361.815 41.3983 361.758 39.5813 361.71 37.8217C361.672 36.5403 361.633 35.2015 361.672 33.9009C361.739 31.4719 361.509 29.0238 361.288 26.6522C361.193 25.5907 361.087 24.5005 361.011 23.4199V23.2573C360.959 22.658 361.25 22.2946 361.882 22.1671C362.132 22.1097 362.4 22.0524 362.639 21.928C363.205 21.6316 363.482 21.1248 363.415 20.5127C363.358 19.9389 363.023 19.5182 362.438 19.3174L362.448 19.3269Z" fill="#DD1C47"/>
<path d="M395.982 48.1115C395.589 48.1689 395.187 48.1785 394.794 48.188C394.497 48.188 394.19 48.188 393.884 48.2263C393.615 48.255 393.443 48.2263 393.347 48.1306C393.242 48.035 393.194 47.8342 393.203 47.4995C393.223 45.0896 393.223 42.6319 393.213 40.2699V37.6879L393.175 37.4966C393.175 36.6359 393.175 35.7753 393.175 34.905C393.184 32.7247 393.194 30.4678 393.146 28.2396L393.127 27.3025C393.098 25.7533 393.06 24.2041 393.04 22.6549C393.04 22.3871 393.079 22.215 393.165 22.1385C393.242 22.062 393.385 22.0333 393.606 22.0524C394.401 22.1193 395.014 22.148 395.589 22.148H395.656C396.643 22.148 397.362 21.5647 397.4 20.7327C397.419 20.3311 397.295 19.9772 397.026 19.6999C396.72 19.3748 396.25 19.1931 395.694 19.1931C393.242 19.1739 390.569 19.1739 387.512 19.1931C386.64 19.1931 386.065 19.6616 385.989 20.4267C385.912 21.1439 386.391 21.6986 387.273 21.9089C387.982 22.0811 388.7 22.0428 389.4 22.0141H389.505C389.783 22.0141 389.955 22.0333 390.051 22.1289C390.157 22.2245 390.195 22.4158 390.195 22.7505C390.176 29.0907 390.176 35.431 390.176 41.7713V47.3656V47.5569C390.176 47.6716 390.176 47.7959 390.176 47.9107C390.176 48.0733 390.157 48.1785 390.099 48.2454C390.042 48.3123 389.917 48.3506 389.735 48.3506C388.997 48.3697 388.231 48.4175 387.455 48.4749C386.659 48.5418 386.19 48.9817 386.113 49.7181C386.046 50.4258 386.564 51.0187 387.368 51.1525C387.522 51.1812 387.675 51.1812 387.8 51.1812H387.847L395.196 51.1621C395.627 51.1621 396.087 51.0856 396.595 50.9326C397.342 50.7031 397.879 49.9667 397.754 49.3165C397.592 48.4653 396.835 47.9585 395.953 48.0924L395.982 48.1115Z" fill="#DD1C47"/>
<path d="M377.318 20.2548C375.057 19.3176 372.748 19.1551 370.783 19.1264C370.534 19.1168 370.285 19.0977 370.036 19.0881C369.471 19.0594 368.886 19.0212 368.302 19.0403C367.535 19.069 366.884 19.7002 366.884 20.4174C366.884 21.1537 367.449 21.7084 368.273 21.7944C368.867 21.8614 369.48 21.8709 370.007 21.8901C370.314 21.8996 370.41 21.9857 370.41 22.2917C370.419 22.789 370.438 23.2863 370.467 23.774C370.506 24.5581 370.534 25.371 370.525 26.1647C370.477 28.7085 370.4 31.2809 370.333 33.7864L370.17 39.7155C370.103 42.2018 370.026 44.6978 369.979 47.1842C369.979 47.5093 369.911 47.7101 369.797 47.8153C369.701 47.9109 369.538 47.9588 369.298 47.9588C369.27 47.9588 369.241 47.9588 369.212 47.9588C368.944 47.9588 368.676 48.0066 368.398 48.064C367.334 48.2743 366.683 48.9916 366.807 49.8044C366.932 50.579 367.602 51.0572 368.561 51.0572C368.637 51.0572 368.723 51.0572 368.81 51.0476C369.231 51.0094 369.682 50.9807 370.141 50.9615C372.546 50.8946 374.319 50.493 375.881 49.6418C378.381 48.2839 380.24 46.0844 381.553 42.9286C382.817 39.8972 383.364 36.5214 383.316 31.9886C383.296 29.77 383.009 27.7713 382.444 25.8778C381.648 23.1906 379.972 21.345 377.327 20.2548H377.318ZM373.274 38.6444L373.303 36.8944C373.361 33.7864 373.418 30.5733 373.437 27.4079C373.437 26.2412 373.37 25.0554 373.303 23.9079C373.284 23.554 373.265 23.2002 373.246 22.8464C373.246 22.7029 373.217 22.3108 373.294 22.2439C373.313 22.2248 373.37 22.2152 373.428 22.2152C373.572 22.2152 373.792 22.2535 373.878 22.2726C377.72 23.0376 379.186 24.5103 379.905 28.3451C379.981 28.7754 380.068 29.2153 380.096 29.6457C380.154 30.6689 380.192 31.7017 380.23 32.5815L380.269 33.4517V33.6047C379.972 37.0857 379.723 40.0884 378.257 42.8713C377.059 45.1472 375.603 46.5721 373.686 47.3372C373.495 47.4137 373.16 47.538 373.121 47.5284C373.083 47.4711 373.073 47.1746 373.064 46.9355C373.006 45.1951 373.092 43.4355 373.169 41.7237C373.217 40.71 373.265 39.6677 373.284 38.6349L373.274 38.6444Z" fill="#DD1C47"/>
<path d="M415.326 29.6072C415.211 27.0252 414.886 24.7971 414.32 22.808C413.86 21.1823 413.046 20.1399 411.82 19.6235C410.459 19.0497 409.194 18.8298 407.949 18.9732C405.343 19.2697 403.503 20.5415 402.468 22.7506C401.702 24.4145 401.501 26.2506 401.414 27.666C401.079 33.3081 400.926 37.8888 400.926 42.0965C400.926 43.1102 401.002 44.1621 401.079 45.0801C401.271 47.5091 402.737 49.4504 405.103 50.3972C406.004 50.7606 406.943 50.9327 407.853 50.9327C409.281 50.9327 410.612 50.4928 411.542 49.6608C412.682 48.6471 413.439 47.4422 413.87 45.9791C414.905 42.4599 415.116 38.7399 415.24 35.2303C415.374 33.2603 415.403 31.3095 415.326 29.6072ZM412.251 38.4434C412.069 41.1402 411.753 43.1867 411.226 45.0801C411.024 45.7878 410.747 46.3807 410.373 46.8875C409.3 48.3316 407.796 48.2072 406.454 47.9012C404.988 47.557 404.059 46.5146 403.915 45.0515C403.819 44.0952 403.771 43.0624 403.762 41.8096C403.752 40.3656 403.762 38.8642 403.81 37.2098C403.839 36.1579 403.886 35.0773 403.944 34.0349C403.963 33.5568 403.992 33.0786 404.011 32.6005C404.059 31.8641 404.088 31.1182 404.107 30.3914C404.164 28.5649 404.231 26.681 404.643 24.864C404.94 23.5634 405.534 22.6932 406.473 22.2055C407.652 21.5935 408.955 21.603 410.718 22.2246C411.302 22.435 411.532 23.0853 411.686 23.7069C412.155 25.6482 412.433 27.6946 412.51 29.7794C412.615 32.8013 412.433 35.8423 412.26 38.453L412.251 38.4434Z" fill="#DD1C47"/>
<path d="M196.472 25.6859C195.543 22.9892 193.761 21.1913 191.03 20.1872C188.692 19.3361 186.335 19.2787 184.343 19.3265C184.093 19.3265 183.835 19.3265 183.586 19.3265C183.001 19.317 182.407 19.3074 181.813 19.3552C181.027 19.4126 180.395 20.082 180.433 20.8088C180.472 21.5547 181.056 22.0903 181.899 22.1476C182.474 22.1763 183.02 22.1763 183.672 22.1668H183.691C183.988 22.1668 184.084 22.2624 184.103 22.5588C184.132 23.0657 184.18 23.5725 184.218 24.0794C184.285 24.8731 184.352 25.6955 184.371 26.4988C184.438 29.0712 184.467 31.6915 184.505 34.2257C184.515 35.2585 184.534 36.2817 184.553 37.3145L184.601 40.2982C184.64 42.8324 184.678 45.3665 184.735 47.9103C184.735 48.2354 184.697 48.4458 184.572 48.5702C184.467 48.6753 184.295 48.7327 184.026 48.7327C183.729 48.7327 183.432 48.8092 183.154 48.8762C182.081 49.1344 181.449 49.8898 181.612 50.7123C181.765 51.4677 182.417 51.9076 183.327 51.9076C183.442 51.9076 183.576 51.9076 183.701 51.8885C184.18 51.8311 184.611 51.7833 185.052 51.7451C187.495 51.5729 189.277 51.0852 190.829 50.1576C193.311 48.6658 195.102 46.3515 196.309 43.081C197.459 39.9443 197.871 36.4921 197.622 31.8827C197.507 29.6259 197.124 27.6081 196.472 25.7051V25.6859ZM194.614 33.4893V33.6519C194.46 37.1998 194.336 40.2695 192.975 43.1671C191.854 45.5387 190.436 47.0401 188.51 47.9103C188.328 47.9964 188.022 48.1303 187.945 48.1303C187.897 48.0729 187.878 47.7764 187.859 47.5278C187.725 45.7586 187.734 43.9608 187.734 42.2203C187.734 41.1875 187.734 40.126 187.715 39.0837L187.677 37.4867C187.6 34.2639 187.514 30.9264 187.399 27.6463C187.351 26.451 187.236 25.246 187.112 24.0794C187.073 23.7255 187.035 23.3621 187.006 23.0083C186.987 22.8457 186.949 22.4632 187.035 22.3867C187.064 22.358 187.131 22.3485 187.207 22.3485C187.351 22.3485 187.533 22.3771 187.629 22.3867C191.576 22.9987 193.129 24.4332 194.029 28.2966C194.125 28.7078 194.23 29.1669 194.278 29.6163C194.384 30.6778 194.47 31.7393 194.547 32.6478L194.614 33.4798V33.4893Z" fill="#DD1C47"/>
<path d="M220.866 48.4655C220.33 48.3794 219.812 48.5611 219.477 48.695C219.189 48.8097 218.979 48.8289 218.825 48.7619C218.662 48.6854 218.519 48.4846 218.385 48.1021C217.043 44.3056 216.507 40.3752 215.98 36.5691C215.175 30.7357 214.044 25.61 212.511 20.9145L212.473 20.7902C212.253 20.1017 211.975 19.2314 210.959 19.2314H210.94C209.934 19.2314 209.714 20.1112 209.56 20.752L209.512 20.9337C209.177 22.2247 208.823 23.5061 208.478 24.7971C207.548 28.2111 206.59 31.7398 205.881 35.2781C205.095 39.1703 204.176 43.7701 203.304 48.4177C203.17 49.1062 202.93 49.2975 202.279 49.2496C201.943 49.221 201.598 49.2688 201.301 49.3166C200.631 49.4313 200.257 49.8617 200.257 50.512C200.257 50.9232 200.42 51.4587 201.244 51.6595C201.474 51.7169 201.78 51.7743 202.068 51.7551C203.189 51.6691 204.329 51.6691 205.44 51.6786C206.054 51.6786 206.657 51.6786 207.261 51.6786H207.443C207.644 51.6786 207.855 51.6786 208.066 51.6404C208.823 51.5065 209.244 51.0379 209.235 50.3685C209.225 49.7278 208.823 49.2975 208.094 49.154C207.644 49.068 207.203 49.1062 206.782 49.154L206.571 49.1731C206.418 49.1827 206.006 49.221 205.939 49.1445C205.871 49.0679 205.939 48.6759 205.977 48.5324L206.255 47.1362C206.494 45.9026 206.743 44.6212 206.973 43.3684C207.06 42.8998 207.261 42.7277 207.721 42.7277C208.439 42.7277 209.167 42.7277 209.886 42.7277H210.748L210.94 42.7086C211.16 42.7086 211.39 42.7086 211.611 42.7086C212.272 42.7086 212.962 42.7277 213.632 42.6894C214.121 42.6608 214.293 42.8233 214.399 43.3493C214.782 45.3862 215.261 47.1554 215.846 48.7524C215.932 48.9914 215.951 49.1445 215.903 49.2305C215.855 49.3166 215.721 49.374 215.501 49.4122C214.705 49.5557 214.293 50.0625 214.38 50.7988C214.447 51.4396 214.964 51.8221 215.731 51.8221C215.798 51.8221 215.865 51.8221 215.941 51.8221C217.58 51.6882 219.266 51.3822 221.086 50.904C221.805 50.7128 222.16 50.2442 222.092 49.5939C222.025 48.9723 221.594 48.5707 220.866 48.475V48.4655ZM213.719 40.0118C213.651 40.0883 213.469 40.0979 213.326 40.0979C211.783 40.0309 210.212 40.117 208.698 40.2031L208.104 40.2318C207.816 40.2413 207.711 40.2031 207.673 40.1648C207.615 40.0979 207.615 39.9449 207.673 39.6962C208.525 35.3259 209.589 30.707 211.007 25.1987C211.716 27.2165 212.099 29.2152 212.387 30.9365C212.655 32.5622 212.904 34.188 213.163 35.8137C213.354 37.0664 213.546 38.3192 213.757 39.5623C213.795 39.7919 213.786 39.9449 213.719 40.0118Z" fill="#DD1C47"/>
<path d="M246.831 19.4708C246.295 19.3943 245.816 19.3369 245.384 19.3178C244.436 19.2604 243.679 19.4708 243.171 19.9585C242.673 20.4367 242.414 21.1635 242.424 22.1102C242.424 22.9135 242.472 23.7168 242.51 24.5009C242.539 25.0652 242.568 25.6198 242.577 26.184C242.606 27.2455 242.635 28.307 242.654 29.3685C242.682 30.6978 242.711 32.027 242.75 33.3563C242.778 34.4082 242.845 35.5366 242.941 36.9137C243.085 38.7785 243.229 40.6528 243.382 42.5176L243.535 44.3919C243.027 43.2061 242.51 42.0203 241.993 40.8345C239.617 35.3741 237.164 29.7319 235.449 23.9176C235.286 23.3629 235.037 22.6553 234.519 22.0815C233.887 21.3643 233.159 20.5514 232.038 20.7331C230.783 20.9339 230.505 22.1102 230.304 22.9709C229.939 24.5201 229.825 26.1266 229.71 27.6758V27.8671C229.623 28.919 229.556 29.971 229.489 31.0229C229.403 32.4095 229.307 33.844 229.202 35.2497C229.125 36.1965 229.039 37.1432 228.943 38.0899C228.656 41.0353 228.359 44.0764 228.608 47.1078C228.627 47.3373 228.665 47.8251 228.627 47.892C228.531 47.9207 228.119 47.7199 227.841 47.5955C227.793 47.5764 227.745 47.5477 227.697 47.5286C226.921 47.213 226.203 47.433 225.82 48.0928C225.436 48.7527 225.638 49.5942 226.27 50.0245C227.027 50.5314 227.927 51.1243 228.866 51.6216C229.202 51.8033 229.547 51.8989 229.882 51.8989C230.102 51.8989 230.304 51.8606 230.505 51.7841C231.032 51.5737 231.434 51.0956 231.645 50.4453C231.808 49.9289 231.808 49.4029 231.798 48.8961V48.2267C231.769 45.6256 231.75 42.9384 232.009 40.299L232.038 39.9643C232.296 37.2675 232.565 34.4751 232.728 31.721L232.776 30.9559C232.862 29.4928 232.938 27.9914 233.13 26.404L233.197 26.6239C233.341 27.0829 233.475 27.5515 233.619 28.0201C233.916 29.0147 234.222 30.0379 234.577 31.0325C236.004 35.068 237.767 39.0462 239.463 42.881C240.191 44.5258 240.939 46.228 241.657 47.9016C242.021 48.7622 242.558 49.6229 243.277 50.5123C243.765 51.1147 244.388 51.4016 244.972 51.3155C245.566 51.2295 246.074 50.7609 246.371 50.0341C246.572 49.5368 246.668 48.9917 246.687 48.2649C246.755 45.1379 246.544 41.9725 246.343 38.9123L246.237 37.3058C246.074 34.7046 246.007 32.0557 245.95 29.4928C245.902 27.628 245.863 25.6963 245.777 23.8028C245.777 23.6976 245.758 23.5829 245.748 23.4777C245.72 23.1908 245.691 22.9039 245.787 22.7127C245.854 22.5788 245.959 22.5597 246.285 22.6075C246.467 22.6266 246.668 22.6553 246.85 22.5883L246.802 22.4066L246.898 22.5883C247.77 22.4353 248.345 21.8137 248.345 21.0391C248.345 20.2645 247.741 19.6238 246.879 19.4995L246.831 19.4708Z" fill="#DD1C47"/>
<path d="M265.936 22.2625C265.649 21.9278 265.361 21.5835 265.035 21.2584C264.173 20.4073 263.196 19.604 261.835 19.4032C259.229 19.0111 257.457 20.5794 256.345 21.7844C255.138 23.0849 254.305 24.7202 253.701 26.9292C253.049 29.3295 252.858 31.8064 252.695 33.9867C252.465 37.1425 252.197 40.7095 252.637 44.2095C253.078 47.6905 254.716 50.0334 257.667 51.3627C258.453 51.7165 259.258 51.8982 260.053 51.8982C260.714 51.8982 261.366 51.7739 261.998 51.5252C263.608 50.8845 265.007 49.4692 265.725 47.7192C266.041 46.9446 265.744 46.103 265.007 45.7301C264.336 45.3858 263.55 45.644 263.071 46.3803C262.966 46.5525 262.861 46.7246 262.755 46.8967C262.583 47.1836 262.429 47.4514 262.238 47.7096C261.375 48.8285 260.331 49.1154 258.961 48.6085C257.227 47.9678 256.211 46.6768 255.77 44.5634C255.512 43.3298 255.531 42.0674 255.55 40.8434C255.56 40.0114 255.569 39.1412 255.493 38.2996C255.608 37.3911 255.646 36.4731 255.684 35.5933C255.703 35.1056 255.723 34.6179 255.761 34.1397C255.914 31.9307 256.067 29.6547 256.719 27.4648C257.208 25.8199 257.936 23.9743 259.641 22.7885C260.781 21.9947 261.692 22.0426 262.765 22.9797C263.186 23.3431 263.56 23.7448 263.972 24.1942C264.576 24.8349 265.39 24.8923 265.994 24.3472C266.434 23.9456 266.789 23.2857 266.003 22.3581L265.926 22.2721L265.936 22.2625Z" fill="#DD1C47"/>
<path d="M281.515 24.902C282.1 25.1984 282.722 25.0454 283.134 24.5195C283.796 23.6492 283.968 22.5686 283.652 21.2107C283.403 20.1396 282.464 19.8336 281.601 19.6232C280.126 19.2694 278.612 19.279 276.945 19.3268H276.408C276.006 19.3268 275.565 19.3268 275.134 19.3268C273.869 19.3268 273.026 19.5945 272.471 20.1492C271.924 20.6943 271.675 21.5071 271.685 22.7025C271.704 26.4703 271.685 31.4239 271.359 36.3776C271.321 36.9322 271.282 37.4869 271.244 38.0415C271.139 39.6003 271.024 41.2069 270.966 42.7943C270.89 44.8695 270.823 47.0977 270.899 49.3067C270.947 50.7125 271.714 51.4584 273.247 51.6018C273.716 51.6401 274.214 51.6783 274.789 51.6975C275.297 51.7166 275.814 51.7453 276.322 51.7644C277.683 51.8218 279.091 51.8887 280.471 51.8983H280.49C282.071 51.8983 283.019 51.0854 283.259 49.5458C283.422 48.4365 283.259 47.3272 283.106 46.2561L283.067 45.9884C282.952 45.1946 282.215 44.6687 281.563 44.6687C281.515 44.6687 281.467 44.6687 281.419 44.6687C280.682 44.7643 280.116 45.4624 280.107 46.2848C280.107 46.9542 280.145 47.6332 280.193 48.2165C280.212 48.4652 280.222 48.7234 280.155 48.7903C280.088 48.8573 279.819 48.8573 279.561 48.8477L278.574 48.7903C277.29 48.7138 275.958 48.6373 274.645 48.6086C274.051 48.5991 273.917 48.4556 273.917 47.8627C273.917 44.4678 274.128 41.0826 274.368 37.6399C274.406 37.133 274.559 37.0565 275.038 37.047C276.016 37.047 276.974 36.9896 278.037 36.9227C278.842 36.8748 279.474 36.3202 279.494 35.6412C279.522 34.9336 279.11 34.4076 278.344 34.1781C278.047 34.092 277.702 34.0538 277.299 34.0538C276.993 34.0538 276.686 34.092 276.38 34.1111C276.102 34.1398 275.824 34.159 275.537 34.1685C275.067 34.1781 274.703 34.1972 274.607 34.1016C274.511 34.0059 274.54 33.6043 274.569 33.1548C274.751 30.4007 274.904 27.6944 274.722 24.9498C274.693 24.4334 274.703 23.9074 274.722 23.391V22.8938C274.741 22.4634 274.856 22.3774 275.057 22.3774C275.632 22.3774 276.217 22.3295 276.782 22.2817C277.817 22.2052 278.89 22.1287 279.934 22.2626C280.586 22.3455 280.87 22.7312 280.787 23.4197C280.701 24.0891 280.969 24.6055 281.525 24.8924L281.515 24.902Z" fill="#DD1C47"/>
<path d="M109.341 48.3605C108.833 48.1214 108.258 48.064 107.578 48.1979C107.377 48.2361 107.243 48.2266 107.175 48.1788C107.108 48.1214 107.07 47.9875 107.06 47.7675C106.965 45.6446 106.907 43.4833 106.85 41.3986C106.763 38.3384 106.677 35.1827 106.476 32.0747C106.428 31.2618 106.38 30.449 106.332 29.6457C106.236 27.8383 106.131 25.9639 105.959 24.1279V24.08C105.853 23.0377 105.748 21.9666 105.384 20.9529C104.962 19.7767 103.985 19.222 102.969 19.5567C102.308 19.7767 101.963 20.3027 101.695 20.7904C101.226 21.6224 100.756 22.4543 100.287 23.2863C99.8171 24.1279 99.338 24.979 98.859 25.8205C98.7536 26.0022 98.6673 26.2317 98.5811 26.4517C98.447 26.7864 98.2745 27.2549 98.102 27.2549C97.8146 27.2549 97.6421 26.8055 97.4697 26.3752C97.393 26.1839 97.3164 25.9926 97.2302 25.8205C96.799 25.0172 96.3774 24.2139 95.9559 23.4106C95.496 22.5213 95.0169 21.6128 94.5283 20.7234C94.1163 19.968 93.5031 19.1264 92.3437 19.2316C91.3185 19.3272 90.6862 20.0062 90.3987 21.3068C90.1688 22.33 90.0155 23.162 89.9101 23.9366C88.6358 33.1553 87.9076 40.6909 87.6298 47.6624C87.6106 48.064 87.4956 48.1979 87.1603 48.2266C86.9687 48.2361 86.7771 48.2457 86.5854 48.2553C86.2022 48.2744 85.7998 48.2935 85.4069 48.3413C84.6596 48.437 84.1614 48.896 84.056 49.6132C83.9314 50.3878 84.4967 50.8277 84.9183 51.0859C85.3111 51.3154 85.7327 51.325 86.0585 51.3059C86.9687 51.258 87.8789 51.2102 88.7987 51.1624C90.0442 51.0955 90.6095 50.493 90.6287 49.2307C90.667 46.8017 90.8874 44.3823 91.1365 41.9054C91.5772 37.3917 92.1042 32.8015 92.6024 28.3738L92.6887 27.6375C92.794 26.729 92.8899 25.7918 93.1006 24.8642C93.1773 24.9598 93.2252 25.0746 93.2731 25.1893C93.3019 25.2563 93.3306 25.3232 93.3689 25.3806C93.7809 26.1552 94.1833 26.9202 94.5953 27.6948C95.1414 28.7372 95.6972 29.7796 96.2529 30.8219C96.6457 31.5583 97.2014 31.9886 97.8146 32.0173C98.4278 32.0556 99.0314 31.6922 99.5201 30.9941C99.7692 30.6402 99.9608 30.2577 100.162 29.8848L100.248 29.7222C101.072 28.1347 101.896 26.6907 102.816 25.2085C102.873 25.5241 102.873 25.8109 102.883 26.0978C102.883 26.2508 102.883 26.4038 102.902 26.5569C103.238 31.1471 103.477 36.1772 103.64 41.9341C103.659 42.4218 103.669 42.9096 103.678 43.3973C103.717 44.7839 103.745 46.2183 103.822 47.6241C103.86 48.3891 103.927 49.202 104.186 49.9957C104.521 51.0285 105.24 51.5832 106.275 51.6023H106.486C107.271 51.6023 108.114 51.5354 109.034 51.4015C109.81 51.2867 110.337 50.7321 110.414 49.9383C110.481 49.2689 110.136 48.743 109.389 48.3891L109.341 48.3605Z" fill="#DD1C47"/>
<path d="M126.223 22.588C124.498 20.4172 122.074 19.3079 118.817 19.1836H118.577C118.405 19.1836 118.232 19.1836 118.06 19.1836C116.967 19.2123 116.153 19.5183 115.645 20.0921C115.137 20.6754 114.946 21.517 115.061 22.6167C115.118 23.1522 115.128 23.6878 115.137 24.2328C115.166 26.9774 115.195 29.722 115.233 32.4761C115.262 34.8478 115.281 37.2194 115.31 39.591C115.31 39.8205 115.329 40.05 115.348 40.2795C115.348 40.4039 115.367 40.5282 115.367 40.6429L115.482 42.7946C115.578 44.5542 115.664 46.3233 115.77 48.0829C115.799 48.5324 115.655 48.695 115.185 48.7332C114.793 48.7619 114.371 48.8575 113.901 49.0105C113.279 49.2209 112.943 49.7086 113.001 50.3494C113.03 50.7701 113.26 51.3152 114.122 51.5065C114.256 51.5352 114.39 51.5543 114.524 51.5543C114.706 51.5543 114.879 51.5352 115.042 51.516L115.224 51.4969C115.415 51.4778 115.607 51.4587 115.808 51.4395C117.082 51.3057 118.405 51.1622 119.708 51.363C119.947 51.4013 120.196 51.3917 120.436 51.3535C121.154 51.2196 121.595 50.7606 121.653 50.0912C121.71 49.4026 121.356 48.8958 120.647 48.6663C120.158 48.5037 119.631 48.4368 119.037 48.4559C118.865 48.4559 118.75 48.4368 118.683 48.3889C118.663 48.3698 118.577 48.3029 118.577 48.0638C118.5 45.5392 118.405 42.2017 118.271 38.826C118.251 38.4148 118.376 38.2904 118.826 38.2331C120.867 37.9844 122.697 37.1429 124.22 36.3491C125.763 35.5459 126.807 34.3218 127.325 32.6865C127.957 30.6974 128.072 28.5744 127.698 26.1837C127.468 24.7014 126.989 23.5348 126.242 22.5976L126.223 22.588ZM124.834 28.6127C124.872 29.4734 124.814 30.2671 124.68 31.0321C124.45 32.3231 123.837 33.2029 122.831 33.7289C121.289 34.5322 119.986 35.0103 118.702 35.2303C118.453 35.2781 118.357 35.2398 118.318 35.2112C118.261 35.1633 118.242 35.0486 118.251 34.8764V34.7043L118.213 31.5103C118.175 28.6509 118.146 25.7916 118.108 22.9418C118.108 22.6263 118.108 22.3203 118.165 22.2533C118.232 22.1864 118.491 22.1768 118.855 22.1577C118.932 22.1577 119.008 22.1577 119.085 22.1577C120.388 22.1577 121.672 22.5976 123.004 23.4869C124.259 24.3285 124.642 25.629 124.834 27.3026C124.862 27.5895 124.853 27.8859 124.853 28.1919C124.853 28.3354 124.853 28.4788 124.853 28.6223L124.834 28.6127Z" fill="#DD1C47"/>
<path d="M79.7636 48.4458C79.3707 48.5032 78.9492 48.5128 78.5563 48.5224C78.2593 48.5224 77.9431 48.5224 77.6365 48.5606C77.3683 48.5797 77.1958 48.5606 77.0904 48.465C76.985 48.3693 76.9371 48.1685 76.9371 47.8338C76.9563 45.3857 76.9563 42.8993 76.9563 40.499V37.7162H76.9179C76.9179 36.8364 76.9179 35.9662 76.9179 35.0864C76.9275 32.8869 76.9371 30.6013 76.8892 28.3636V27.8281C76.8413 26.1545 76.803 24.4236 76.7838 22.7214C76.7838 22.4441 76.8221 22.2815 76.9083 22.1955C76.985 22.119 77.1287 22.0903 77.3587 22.1094C78.1922 22.1763 78.8342 22.2146 79.4378 22.2146C80.4342 22.2146 81.1528 21.6217 81.2007 20.7801C81.2199 20.3785 81.0953 20.0151 80.8271 19.7378C80.5205 19.4126 80.0414 19.2309 79.4857 19.2214C77.0137 19.2022 74.3118 19.2022 71.2075 19.2214C70.3261 19.2214 69.7512 19.6995 69.665 20.4741C69.5883 21.2009 70.0674 21.7651 70.968 21.9755H70.9584C71.677 22.1476 72.4148 22.119 73.1238 22.0903H73.2196C73.4974 22.0711 73.6795 22.1094 73.7753 22.205C73.8807 22.3007 73.919 22.5015 73.919 22.8266C73.8999 29.3677 73.8998 36.0331 73.8998 42.469V47.7191C73.8998 47.7764 73.8998 47.8434 73.8998 47.9103C73.8998 48.0251 73.8998 48.1494 73.8998 48.2642C73.8998 48.4267 73.8807 48.5415 73.8232 48.6084C73.7657 48.6754 73.6412 48.7136 73.4591 48.7136C72.7214 48.7327 71.9549 48.7806 71.1596 48.8475C70.3548 48.9144 69.8757 49.3639 69.8087 50.1098C69.7416 50.827 70.259 51.4199 71.083 51.5634C71.2459 51.5921 71.4183 51.5921 71.562 51.5921H71.5812C73.5645 51.5921 75.5382 51.5921 77.5216 51.5729H79.0066C79.4378 51.5729 79.9073 51.4869 80.4151 51.3339C81.172 51.1044 81.7181 50.3584 81.5936 49.6986C81.4307 48.8379 80.6546 48.3215 79.7731 48.465L79.7636 48.4458Z" fill="#DD1C47"/>
<path d="M57.0082 29.7408C55.274 27.9908 55.2549 25.7339 56.6825 23.7544C57.3244 22.8651 58.1867 22.5017 59.2598 22.6451C62.1821 23.0276 62.6707 23.7735 61.8467 26.5659C61.6647 27.1875 61.4635 27.8091 62.1533 28.249C62.7761 28.6507 63.4181 28.622 64.06 28.2394C65.2481 27.5127 66.0337 25.4949 65.6409 24.0796C64.9415 21.5645 61.1761 19.0685 58.57 19.4128C53.8943 20.0344 50.081 25.4566 53.1949 30.3911C54.5842 32.6002 56.4717 34.2928 58.4837 35.8994C59.8539 36.9896 61.1952 38.118 62.2875 39.5046C63.236 40.7191 63.648 42.0675 63.1498 43.5402C62.4408 45.6441 59.8251 48.6373 56.3375 48.1974C54.1722 47.9201 53.3865 47.2124 53.3195 45.032C53.3195 44.726 53.3578 44.4104 53.4057 44.0949C53.5207 43.3585 53.262 42.8995 52.5051 42.6891C51.7194 42.4787 51.0008 42.3735 50.5026 43.2246C48.9888 45.7588 50.5984 50.0526 53.4249 50.9037C55.2645 51.4584 57.1424 51.4871 59.0299 51.1332C63.4085 50.3108 66.3595 46.9064 66.2924 42.517C66.3499 39.4281 64.8169 36.8653 62.4983 34.704C60.697 33.0209 58.7329 31.4909 56.9987 29.7408H57.0082Z" fill="#DD1C47"/>
<path d="M142.913 44.2193C142.032 44.3819 141.524 45.1278 141.629 46.1223C141.639 46.2466 141.658 46.3709 141.658 46.4953C141.687 46.8204 141.716 47.1647 141.802 47.4898C141.869 47.748 141.869 47.9202 141.802 48.0062C141.697 48.1305 141.4 48.1401 141.17 48.1305C139.522 48.0827 137.922 48.1688 136.389 48.3887C136.111 48.427 136.015 48.3887 135.986 48.3505C135.938 48.2931 135.919 48.1592 135.957 47.968C135.986 47.7863 136.005 47.6046 136.015 47.4324C136.015 47.3368 136.024 47.2316 136.044 47.1264C136.235 45.2808 136.456 42.8422 136.389 40.3463C136.36 39.4187 136.331 38.4911 136.312 37.5634C136.216 34.4842 136.12 31.2997 136.13 28.163V23.9458C136.13 23.0755 136.13 22.5974 136.321 22.4157C136.504 22.234 136.992 22.234 137.874 22.2435H137.893C138.688 22.2435 139.387 21.7176 139.531 21.0195C139.685 20.264 139.244 19.5755 138.42 19.3077C138.065 19.193 137.682 19.1738 137.395 19.1738C136.207 19.1738 135.028 19.1738 133.84 19.1738H132.432C132.048 19.1738 131.646 19.1738 131.253 19.193C130.458 19.2408 129.96 19.6998 129.854 20.4744C129.758 21.1629 130.209 21.7654 131.004 21.9853C131.521 22.1288 131.981 22.1766 132.412 22.1384C132.748 22.1097 132.939 22.1384 133.045 22.2244C133.141 22.32 133.179 22.5304 133.16 22.8651C133.035 24.6821 133.006 26.5469 132.997 28.2874C132.978 31.1849 133.006 34.073 133.093 36.8749C133.198 40.3558 133.236 44.4584 132.709 48.4844C132.575 49.498 132.738 50.2726 133.208 50.789C133.658 51.2863 134.377 51.535 135.363 51.535H135.545C137.078 51.4871 138.631 51.4106 140.135 51.3437C140.844 51.3054 141.553 51.2768 142.262 51.2481C143.948 51.1716 144.964 50.177 145.04 48.5035C145.088 47.4803 144.916 46.4761 144.715 45.5485C144.523 44.6305 143.747 44.0471 142.913 44.2097V44.2193Z" fill="#DD1C47"/>
<path d="M167.307 21.144C166.531 20.8763 165.736 20.6372 165.142 20.4459C164.299 20.1877 163.609 20.4746 163.197 21.2588C163.063 21.5266 162.938 21.8421 162.814 22.2438C161.75 25.7534 160.562 29.1961 159.431 32.4284C159.115 33.3464 158.78 34.2645 158.425 35.2494C158.31 35.5746 158.195 35.8997 158.071 36.244C157.956 35.9954 157.841 35.7658 157.726 35.5363C157.371 34.8095 157.036 34.121 156.71 33.442C155.762 31.4051 154.631 29.4352 153.529 27.5226C152.84 26.3176 152.121 25.0649 151.46 23.8121L151.354 23.5922C151.163 23.2001 150.99 22.8558 151.057 22.7411C151.144 22.5881 151.728 22.5211 151.929 22.4924H151.996C152.073 22.4733 152.169 22.4733 152.265 22.435C152.533 22.3394 153.338 22.0621 153.299 21.1536C153.261 20.3981 152.792 19.8913 152.121 19.8817C150.607 19.8626 149.007 19.9009 147.215 19.9965C146.564 20.0347 146.133 20.5033 146.133 21.1727C146.133 21.8421 146.487 22.2916 147.12 22.502C147.225 22.5402 147.321 22.5498 147.417 22.5594C147.464 22.5594 147.512 22.5689 147.56 22.5785C148.011 22.6933 148.26 23.2097 148.471 23.6591C148.538 23.7834 148.585 23.9077 148.653 24.0129C149.103 25.1222 149.659 26.1646 150.147 27.0348C152.418 31.0704 154.344 34.8861 156.02 38.6921C156.068 38.7973 156.116 38.9121 156.164 39.0173C156.394 39.5241 156.643 40.0501 156.662 40.6143C156.758 42.7755 156.854 44.9367 156.94 47.1075C156.969 47.8056 156.988 48.2264 156.844 48.3794C156.71 48.5324 156.289 48.5516 155.599 48.5802C154.909 48.6089 154.459 48.9819 154.305 49.613C154.21 50.0243 154.258 50.6076 155.043 51.0092C155.311 51.1527 155.618 51.2292 155.973 51.2388C156.241 51.2579 156.5 51.2674 156.768 51.2866C157.324 51.3153 157.898 51.3535 158.464 51.3726C158.751 51.3726 159.029 51.3918 159.307 51.3918C160.131 51.3918 160.897 51.3248 161.654 51.0571C162.191 50.8658 162.555 50.4546 162.641 49.9573C162.727 49.4887 162.536 49.0106 162.143 48.695C161.654 48.2934 161.127 48.4177 160.648 48.5229C160.437 48.5707 160.054 48.6567 159.968 48.5898C159.882 48.5229 159.863 48.1403 159.853 47.8917C159.824 47.2319 159.786 46.572 159.748 45.9122C159.7 45.0132 159.642 44.0761 159.623 43.158C159.623 42.9094 159.594 42.6512 159.585 42.4026C159.527 41.628 159.479 40.8916 159.728 40.1839C160.14 39.0077 160.552 37.841 160.964 36.6648C162.344 32.7631 163.772 28.7179 164.912 24.6537C165.103 23.9747 165.199 23.64 165.372 23.5348C165.544 23.4296 165.918 23.5061 166.598 23.6495C167.499 23.8312 168.198 23.4583 168.39 22.7028C168.562 22.0238 168.131 21.4214 167.288 21.144H167.307Z" fill="#DD1C47"/>
</g>
<defs>
<clipPath id="clip0_6632_360">
<rect width="461" height="93" fill="white"/>
</clipPath>
</defs>
</svg>
